<svg xmlns="http://www.w3.org/2000/svg" width="60" height="60" viewBox="0 0 60 60"><defs><style>.a,.b,.c{fill:none;}.a,.b{stroke:#000;}.b{stroke-miterlimit:10;}</style></defs><g transform="translate(-3984.316 -1255.311)"><path class="a" d="M19.567,7H0" transform="translate(4004.832 1299.209)"/><line class="b" y2="36.584" transform="translate(4015.115 1269.226)"/><circle class="b" cx="4.077" cy="4.077" r="4.077" transform="translate(4011.038 1265.311)"/><line class="b" x2="27.188" transform="translate(4001.021 1269.387)"/><path class="b" d="M4005.574,1309.208l7.621-15.812,7.622,15.813" transform="translate(-12.175 -23.98)"/><path class="b" d="M4001.021,1402.389a9.7,9.7,0,0,0,9.705-9.705h-19.41A9.705,9.705,0,0,0,4001.021,1402.389Z" transform="translate(0 -108.759)"/><path class="b" d="M4191.609,1309.208l7.622-15.812,7.621,15.813" transform="translate(-171.022 -23.98)"/><path class="b" d="M4187.056,1402.389a9.7,9.7,0,0,0,9.705-9.705h-19.41A9.705,9.705,0,0,0,4187.056,1402.389Z" transform="translate(-158.847 -108.759)"/></g><rect class="c" width="60" height="60"/></svg>