<svg xmlns="http://www.w3.org/2000/svg" width="60" height="60" viewBox="0 0 60 60"><defs><style>.a,.b{fill:none;}.a{stroke:#000;stroke-miterlimit:10;}</style></defs><g transform="translate(-3548.789 -1610.69)"><path class="a" d="M3598.808,1692.5v-24.857c0-1.538-1.453-2.608-3.53-2.608h-33.951c-2.051,0-3.538,1.1-3.538,2.608V1692.5c0,1.531,1.453,2.6,3.538,2.6h33.951C3597.354,1695.1,3598.808,1694.027,3598.808,1692.5Z" transform="translate(0 -35.061)"/><path class="a" d="M3634.227,1629.97v-6.555a1.613,1.613,0,0,0-1.645-1.725h-15.824a1.633,1.633,0,0,0-1.649,1.725v6.555m0,0v2.493a1.613,1.613,0,0,0,1.649,1.721h15.824a1.612,1.612,0,0,0,1.645-1.721v-2.493" transform="translate(-46.37)"/><line class="a" y2="10.855" transform="translate(3578.298 1641.101)"/><line class="a" x1="10.855" transform="translate(3572.871 1646.528)"/></g><rect class="b" width="60" height="60"/></svg>