<svg xmlns="http://www.w3.org/2000/svg" width="60" height="60" viewBox="0 0 60 60"><defs><style>.a,.b{fill:none;}.a{stroke:#000;stroke-miterlimit:10;}</style></defs><g transform="translate(-3304.883 -234.547)"><path class="a" d="M3518.629,404.567a17.246,17.246,0,0,1-11.436,14.454v5.073" transform="translate(-165.166 -140.869)"/><path class="a" d="M3330.368,319.985V311.4c-.589.153-.951.263-.951.263l-6.719,1.428a1.774,1.774,0,0,1-2.142-1.735V300.206h-4.205a1.466,1.466,0,0,1-1.261-2.212l4.159-7.037a17.25,17.25,0,0,1,11.157-13.889" transform="translate(0 -31.367)"/><path class="a" d="M3449.806,254.079l-.6-1.339a5.842,5.842,0,0,0,1.454-1.546l1.373.52a.508.508,0,0,0,.655-.3l.5-1.332a.507.507,0,0,0-.295-.655l-1.373-.52a5.842,5.842,0,0,0-.065-2.121l1.338-.6a.508.508,0,0,0,.254-.672l-.585-1.3a.508.508,0,0,0-.672-.254l-1.338.6a5.847,5.847,0,0,0-1.546-1.454l.52-1.373a.508.508,0,0,0-.3-.655l-1.331-.5a.508.508,0,0,0-.656.3l-.52,1.373a5.83,5.83,0,0,0-2.122.065l-.6-1.338a.508.508,0,0,0-.672-.254l-1.3.585a.508.508,0,0,0-.255.672l.6,1.338a5.843,5.843,0,0,0-1.455,1.546l-1.373-.52a.508.508,0,0,0-.655.3l-.5,1.332a.508.508,0,0,0,.3.655l1.373.52a5.837,5.837,0,0,0,.065,2.121l-1.339.6a.509.509,0,0,0-.255.672l.585,1.3a.509.509,0,0,0,.672.255l1.338-.6a5.848,5.848,0,0,0,1.546,1.454l-.52,1.373a.508.508,0,0,0,.3.655l1.332.5a.508.508,0,0,0,.655-.3l.52-1.373a5.831,5.831,0,0,0,2.121-.065l.6,1.338a.509.509,0,0,0,.672.255l1.3-.585A.508.508,0,0,0,3449.806,254.079Zm-.842-4.831a3.442,3.442,0,0,1-4.443,2,3.446,3.446,0,0,1-2-4.443,3.442,3.442,0,0,1,4.443-2,3.445,3.445,0,0,1,2,4.443Zm11.3,6.939a.509.509,0,0,0-.353-.164l-.958-.041a4.39,4.39,0,0,0-.471-1.29l.706-.648a.508.508,0,0,0,.031-.718l-.7-.764a.508.508,0,0,0-.718-.031l-.706.648a4.4,4.4,0,0,0-1.245-.58l.041-.957a.508.508,0,0,0-.486-.529l-1.035-.044a.51.51,0,0,0-.529.486l-.041.957a4.4,4.4,0,0,0-1.291.471l-.648-.706a.508.508,0,0,0-.718-.031l-.764.7a.508.508,0,0,0-.03.718l.647.706a4.4,4.4,0,0,0-.58,1.245l-.957-.041a.509.509,0,0,0-.529.486l-.045,1.036a.508.508,0,0,0,.486.529l.957.041a4.392,4.392,0,0,0,.471,1.291l-.706.648a.508.508,0,0,0-.03.718l.7.764a.508.508,0,0,0,.718.031l.706-.648a4.4,4.4,0,0,0,1.245.58l-.041.957a.508.508,0,0,0,.486.529l1.035.044h.022a.508.508,0,0,0,.507-.486l.041-.957a4.4,4.4,0,0,0,1.291-.471l.648.706a.508.508,0,0,0,.718.031l.764-.7a.508.508,0,0,0,.031-.718l-.648-.706a4.389,4.389,0,0,0,.579-1.245l.958.041a.509.509,0,0,0,.529-.486l.045-1.036A.511.511,0,0,0,3460.263,256.188Zm-5.725,3a2.37,2.37,0,0,1,.1-4.737l.1,0a2.37,2.37,0,1,1-.2,4.735Z" transform="translate(-105.963 0)"/></g><rect class="b" width="60" height="60"/></svg>