<svg xmlns="http://www.w3.org/2000/svg" width="90" height="90" viewBox="0 0 90 90"><defs><style>.a,.c,.d,.e{fill:none;}.a,.c{stroke:#1a171b;stroke-linejoin:round;}.a,.c,.d{stroke-miterlimit:10;}.b{fill:#f5333f;}.c{stroke-linecap:round;}.d{stroke:#000;}</style></defs><g transform="translate(18 -8)"><path class="a" d="M.5,300.5v18.226H55.076V300.5H51.31m0,0" transform="translate(-0.5 -239.312)"/><path class="b" d="M34.918,99.22H25.1V92.553a.354.354,0,0,1,.353-.353h9.113a.354.354,0,0,1,.353.353Zm0,0" transform="translate(-22.301 -54.71)"/><path class="b" d="M12.8,164.9v2.8h1.4v21.73a4.909,4.909,0,1,0,9.818,0V167.7h1.4v-2.8Z" transform="translate(-11.401 -119.139)"/><line class="a" y1="2.856" x2="9.818" transform="translate(2.799 53.156)"/><circle class="c" cx="0.944" cy="0.944" r="0.944" transform="translate(5.472 58.594)"/><circle class="c" cx="1.434" cy="1.434" r="1.434" transform="translate(7.145 62.929)"/><line class="a" x2="3.641" transform="translate(4.938 48.377)"/><line class="a" x2="1.786" transform="translate(9.773 48.377)"/><path class="b" d="M133.4,47.431h33.745L155.585,19.4V3.379h1.331V0h-13.3V3.379h1.331V19.4Z" transform="translate(-118.28 27)"/><line class="d" x2="9.568" transform="translate(31.993 55.955)"/><line class="d" x2="11.298" transform="translate(31.811 60.904)"/><path class="d" d="M200.3,209.834s10.649-1.058,16.144-5.734" transform="translate(-177.568 -153.879)"/></g><rect class="e" width="90" height="90"/></svg>