<svg xmlns="http://www.w3.org/2000/svg" width="60" height="60" viewBox="0 0 60 60"><defs><style>.a,.b{fill:none;}.a{stroke:#000;stroke-miterlimit:10;}</style></defs><g transform="translate(-5197.776 -3236.159)"><circle class="a" cx="11.824" cy="11.824" r="11.824" transform="translate(5215.661 3249.498)"/><path class="a" d="M5236.146,3275.65h0a2.337,2.337,0,0,0-2.842,1.39h0a2.337,2.337,0,0,1-3.7.926h0a2.336,2.336,0,0,0-3.162.115h0a2.337,2.337,0,0,1-3.753-.657h0a2.337,2.337,0,0,0-2.936-1.181h0a2.337,2.337,0,0,1-3.161-2.127h0a2.336,2.336,0,0,0-2.2-2.273h0a2.337,2.337,0,0,1-2.023-3.229h0a2.337,2.337,0,0,0-1.086-2.972h0a2.337,2.337,0,0,1-.534-3.772h0a2.336,2.336,0,0,0,.216-3.156h0a2.337,2.337,0,0,1,1.045-3.664h0a2.336,2.336,0,0,0,1.481-2.8h0a2.338,2.338,0,0,1,2.446-2.922h0a2.337,2.337,0,0,0,2.491-1.951h0a2.337,2.337,0,0,1,3.422-1.675h0a2.337,2.337,0,0,0,3.069-.769h0a2.337,2.337,0,0,1,3.808-.138h0a2.336,2.336,0,0,0,3.116.545h0a2.338,2.338,0,0,1,3.535,1.423h0a2.337,2.337,0,0,0,2.625,1.766h0a2.337,2.337,0,0,1,2.65,2.737h0a2.337,2.337,0,0,0,1.68,2.681h0a2.337,2.337,0,0,1,1.308,3.579h0a2.338,2.338,0,0,0,.444,3.132h0a2.337,2.337,0,0,1-.26,3.8h0a2.337,2.337,0,0,0-.869,3.042h0a2.337,2.337,0,0,1-1.785,3.366h0a2.336,2.336,0,0,0-2.03,2.427h0A2.337,2.337,0,0,1,5236.146,3275.65Z"/><g transform="translate(5214.189 3275.745)"><path class="a" d="M5242.549,3467.141l-3.693,10.1,5.35-2.277,2.62,5.191,3.946-10.8" transform="translate(-5238.856 -3466.742)"/><path class="a" d="M5346.52,3464.385l3.838,10.5-5.35-2.277-2.62,5.191-4.281-11.71" transform="translate(-5323.768 -3464.385)"/></g><path class="a" d="M5289.933,3313.92l2.1,4.378,4.813.646-3.514,3.351.873,4.777-4.273-2.306-4.274,2.306.873-4.777-3.514-3.351,4.813-.646Z" transform="translate(-62.448 -59.915)"/></g><rect class="b" width="60" height="60"/></svg>