<svg xmlns="http://www.w3.org/2000/svg" width="60" height="60" viewBox="0 0 60 60"><defs><style>.a,.b,.c,.d{fill:none;}.b,.d{stroke:#000;}.b,.c{stroke-miterlimit:10;}.e,.f{stroke:none;}</style></defs><rect class="a" width="60" height="60"/><g transform="translate(-401.037 -1351.757)"><path class="b" d="M447.42,1370.6v28.927H415.037V1363.7h25.481Z" transform="translate(0 -0.175)"/><g class="c" transform="translate(-33.043 -0.322)"><path class="e" d="M473.562,1370.75v0Z"/><path class="f" d="M 473.5615234375 1370.75 L 473.5615234375 1363.392578125 L 473.5615234375 1370.75 Z"/></g><path class="d" d="M2213.493,1573.776v7h7" transform="translate(-1772.963 -210.243)"/><g transform="translate(422.218 1377.431)"><path d="M431.529,1395.787a11.912,11.912,0,0,1,1.963-.152,3.256,3.256,0,0,1,2.221.658,2.131,2.131,0,0,1,.693,1.657,2.331,2.331,0,0,1-.611,1.692,3.28,3.28,0,0,1-2.421.87,3.523,3.523,0,0,1-.823-.071v3.173h-1.022Zm1.022,3.82a3.438,3.438,0,0,0,.846.082c1.234,0,1.986-.6,1.986-1.692,0-1.046-.741-1.552-1.869-1.552a4.249,4.249,0,0,0-.964.083Z" transform="translate(-431.529 -1397.635)"/><path d="M445.894,1395.8a14.64,14.64,0,0,1,2.174-.165,4.538,4.538,0,0,1,3.208.987,3.648,3.648,0,0,1,1.116,2.844,4.191,4.191,0,0,1-1.14,3.079,4.881,4.881,0,0,1-3.5,1.14,16.5,16.5,0,0,1-1.857-.094Zm1.022,7a6.514,6.514,0,0,0,1.034.058,3.045,3.045,0,0,0,3.373-3.361c.012-1.869-1.046-3.056-3.208-3.056a5.808,5.808,0,0,0-1.2.106Z" transform="translate(-439.64 -1397.635)"/><path d="M463.875,1395.77h4.266v.858H464.9v2.633h3v.846h-3v3.585h-1.022Z" transform="translate(-449.792 -1397.711)"/></g></g><g transform="translate(1507.881 288.282)"><line class="b" y1="9.148" transform="translate(-1477.161 -253.03)"/><path class="b" d="M-1489.881-249.183l4.72,4.173,4.224-4.223" transform="translate(8 1.07)"/></g></svg>