<svg xmlns="http://www.w3.org/2000/svg" width="30" height="30" viewBox="0 0 30 30"><defs><style>.a{fill:#f5333f;}.b{fill:none;}</style></defs><g transform="translate(8.455 5.45)"><path class="a" d="M-10577.127-11705.247h0l-5.478-7.711a6.319,6.319,0,0,1-.743-4.31,6.334,6.334,0,0,1,2.232-3.763,6.348,6.348,0,0,1,3.992-1.419,6.348,6.348,0,0,1,3.992,1.419,6.326,6.326,0,0,1,2.23,3.764,6.337,6.337,0,0,1-.741,4.309l-5.483,7.711Zm0-13.954a3.166,3.166,0,0,0-3.163,3.162,3.167,3.167,0,0,0,3.163,3.163,3.167,3.167,0,0,0,3.163-3.163A3.166,3.166,0,0,0-10577.127-11719.2Z" transform="translate(10584 11723)"/></g><rect class="b" width="30" height="30"/></svg>