<svg xmlns="http://www.w3.org/2000/svg" width="60" height="60" viewBox="0 0 60 60"><defs><style>.a,.b{fill:none;}.b{stroke:#1d1d1b;stroke-miterlimit:10;}</style></defs><rect class="a" width="60" height="60"/><g transform="translate(-4693.801 -2959.803)"><path class="b" d="M4779.471,2986.968l-9.115-9.115h-10.9a3.526,3.526,0,0,1-3.526-3.525h0a3.526,3.526,0,0,1,3.526-3.526h15.984L4789.554,2983h4.764" transform="translate(-45.845 0)"/><path class="b" d="M4714.647,3093.393l9.116,9.116h10.9a3.524,3.524,0,0,1,3.524,3.525h0a3.524,3.524,0,0,1-3.524,3.525h-15.983l-14.118-12.194H4699.8" transform="translate(0 -100.134)"/><path class="b" d="M4703.786,3046.743h12.478a2.8,2.8,0,0,1,1.98.82l8.815,8.814a2.852,2.852,0,0,1,0,4.033h0a2.853,2.853,0,0,1-4.034,0" transform="translate(-3.255 -62.029)"/><line class="b" x1="4.595" y2="4.595" transform="translate(4724.111 2990.116)"/><path class="b" d="M4738.847,3019.3a6.128,6.128,0,0,1,10.462-4.36l1.86,1.861,1.861-1.861a6.1,6.1,0,0,1,4.085-1.79" transform="translate(-31.893 -34.587)"/><path class="b" d="M4854.007,3041.029h-12.478a2.8,2.8,0,0,1-1.98-.821l-8.814-8.815a2.849,2.849,0,0,1,0-4.033h0a2.851,2.851,0,0,1,4.034,0" transform="translate(-106.265 -45.515)"/></g></svg>