<svg xmlns="http://www.w3.org/2000/svg" width="60" height="60" viewBox="0 0 60 60"><defs><style>.a,.b{fill:none;}.a{stroke:#000;stroke-miterlimit:10;}</style></defs><g transform="translate(-777.818 -3931.358)"><g transform="translate(785.818 3939.359)"><path class="a" d="M929.919,4161.157v-13.033a6.778,6.778,0,0,1,6.778-6.778h4.922a6.778,6.778,0,0,1,6.778,6.778v13.033" transform="translate(-916.702 -4122.82)"/><path class="a" d="M799.42,4175.9a6.752,6.752,0,0,0-4.237-1.487H792.6a6.778,6.778,0,0,0-6.778,6.778v10H803.3" transform="translate(-785.818 -4152.854)"/><circle class="a" cx="8.166" cy="8.166" r="8.166" transform="translate(14.138 0)"/><circle class="a" cx="5.802" cy="5.802" r="5.802" transform="translate(2.269 7.779)"/><path class="a" d="M1087.457,4175.758a6.751,6.751,0,0,1,4.055-1.346h2.587a6.778,6.778,0,0,1,6.778,6.778v10H1083.5" transform="translate(-1056.199 -4152.854)"/><circle class="a" cx="5.802" cy="5.802" r="5.802" transform="translate(30.804 7.779)"/></g><path class="a" d="M952.354,4279.128l-6.645-6.646a3.868,3.868,0,0,1,5.471-5.47l1.174,1.174,1.175-1.174a3.868,3.868,0,0,1,5.471,5.47Z" transform="translate(-144.197 -296.572)"/></g><rect class="b" width="60" height="60"/></svg>