<svg xmlns="http://www.w3.org/2000/svg" width="142" height="90" viewBox="0 0 142 90"><defs><style>.a,.b,.d{fill:none;}.a{stroke:#b6b59c;stroke-dasharray:3 7;}.c{fill:#f5333f;}.d{stroke:#1d1d1b;stroke-miterlimit:10;}.e{stroke:none;}</style></defs><g transform="translate(-21647 -16361)"><g class="a" transform="translate(21647 16361)"><circle class="e" cx="45" cy="45" r="45"/><circle class="b" cx="45" cy="45" r="44.5"/></g><path class="a" d="M783,730.707V777.77" transform="translate(22519.707 15622.5) rotate(90)"/><g transform="translate(21647 16361)"><rect class="b" width="90" height="90"/><path class="c" d="M4759.316,3015.6a17.545,17.545,0,0,0-2.2-2.454,6.1,6.1,0,0,0-4.085,1.79l-1.861,1.861-1.86-1.861a6.128,6.128,0,0,0-10.462,4.36c2.14.054,6.295,0,6.295,0l1.019.326,1.019.707,3.625,4.054,4.152,3.871,1.193.982,4.452-4.539-4.452-4.676-.7-.726.7-1.882.267-1.216,1.491-.6Z" transform="translate(-4711.693 -2979.39)"/><rect class="b" width="60" height="60" transform="translate(14 15)"/><g transform="translate(-4679.801 -2944.803)"><path class="d" d="M4779.471,2986.968l-9.115-9.115h-10.9a3.526,3.526,0,0,1-3.526-3.525h0a3.526,3.526,0,0,1,3.526-3.526h15.984L4789.554,2983h4.764" transform="translate(-45.845 0)"/><path class="d" d="M4714.647,3093.393l9.116,9.116h10.9a3.524,3.524,0,0,1,3.524,3.525h0a3.524,3.524,0,0,1-3.524,3.525h-15.983l-14.118-12.194H4699.8" transform="translate(0 -100.134)"/><path class="d" d="M4703.786,3046.743h12.478a2.8,2.8,0,0,1,1.98.82l8.815,8.814a2.852,2.852,0,0,1,0,4.033h0a2.853,2.853,0,0,1-4.034,0" transform="translate(-3.255 -62.029)"/><path class="d" d="M4854.007,3041.029h-12.478a2.8,2.8,0,0,1-1.98-.821l-8.814-8.815a2.849,2.849,0,0,1,0-4.033h0a2.851,2.851,0,0,1,4.034,0" transform="translate(-106.265 -45.515)"/></g></g></g></svg>