<svg xmlns="http://www.w3.org/2000/svg" width="123.225" height="55.362" viewBox="0 0 123.225 55.362"><defs><style>.a,.b{fill:#fff;}.a,.c{stroke:#1a1818;}.a{stroke-width:0.96px;}.b{stroke:#fff;stroke-width:0.144px;}.c{fill:#e82b3b;stroke-width:0.96px;}</style></defs><g transform="translate(0 0.362)"><g transform="translate(0 40.847)"><path d="M208.242,314.262H202.7v-.281c1.061-.056,1.369-.068,1.369-.439a5.139,5.139,0,0,0-.787-1.5h-3.85a5.791,5.791,0,0,0-.753,1.452c0,.428.822.462,1.4.484v.281h-3.474v-.281c.924-.09,1.164-.473,1.677-1.317l3.8-6.168h.479l3.816,5.92c.753,1.171,1.027,1.565,1.8,1.565h.068Zm-5.219-2.656-1.728-2.736-1.609,2.736Z" transform="translate(-196.605 -306.496)"/><path d="M222.493,316.855c.8,0,1.454.439,1.454.957,0,.54-.65.946-1.454.946-.821,0-1.437-.417-1.437-.946C221.056,317.305,221.672,316.855,222.493,316.855Z" transform="translate(-206.87 -310.845)"/><path d="M254.952,314.376h-5.681v-.281c1.027-.068,1.523-.1,1.523-.844v-5.673h-.034l-4.278,6.8h-.462l-4.278-6.63h-.034v5.234c0,.788.308,1.058,1.728,1.115v.281h-4v-.281c1.335-.079,1.558-.248,1.558-.9v-5.346c0-.585-.309-.743-1.524-.8v-.282h4.329l3.422,5.313,3.422-5.313h4.312v.282c-.958.045-1.506.067-1.506,1.035v4.975c0,.9.376.934,1.506,1.036Z" transform="translate(-214.585 -306.61)"/><path d="M269.545,306.767h9.873v2.263h-.428c-.393-1.6-1.609-1.88-3.918-1.88-.942,0-1.25.045-1.25.529v2.611h.086c1.591,0,2.43-.3,2.687-1.677h.445v3.8H276.6c-.205-1.407-1.078-1.744-2.773-1.744V313.4c0,.5.325.63,1.438.63,1.677,0,3.422-.292,4.5-1.992h.479l-.684,2.342H269.545v-.281c.975-.068,1.506-.1,1.506-.8v-5.447c0-.743-.718-.766-1.506-.8Z" transform="translate(-227.227 -306.61)"/><path d="M291.43,314.095c1.027-.079,1.506-.158,1.506-.9v-5.335c-.958-.777-1.232-.81-1.455-.81v-.282h3.611l5.937,4.806h.034v-3.41c0-.675-.205-1.047-1.591-1.114v-.282h3.679v.282c-1.232.1-1.335.36-1.335.9v6.63h-.479l-7.615-6.1h-.034v4.5c0,.81.36,1.025,1.626,1.115v.281H291.43Z" transform="translate(-236.415 -306.61)"/><path d="M325.783,314.262h-5.544v-.281c1.061-.056,1.369-.068,1.369-.439a5.137,5.137,0,0,0-.787-1.5H316.97a5.8,5.8,0,0,0-.752,1.452c0,.428.822.462,1.4.484v.281h-3.473v-.281c.924-.09,1.164-.473,1.677-1.317l3.8-6.168h.479l3.816,5.92c.752,1.171,1.026,1.565,1.8,1.565h.069Zm-5.219-2.656-1.728-2.736-1.609,2.736Z" transform="translate(-245.953 -306.496)"/><path d="M349.945,314.376h-3.508l-3.542-3.523h-.462v2.206c0,.9.377.934,1.506,1.036v.281h-5.784v-.281c1.163-.09,1.506-.124,1.506-1.036v-4.975c0-.968-.53-.99-1.506-1.035v-.282h5.51c1.2,0,4.826.091,4.826,1.981,0,1.384-1.763,1.734-2.687,1.924l3.439,3.208a1,1,0,0,0,.7.214Zm-7.513-3.883c2.242-.011,3.132-.259,3.132-1.722,0-1.137-.7-1.621-2.07-1.621-.942,0-.976.124-1.062.473Z" transform="translate(-256.032 -306.61)"/><path d="M367.474,314.376h-5.99v-.281c.924-.056,1.592-.1,1.592-.8v-5.447c0-.743-.8-.766-1.592-.8v-.282h5.99v.282c-.8.022-1.626.033-1.626.8V313.3c0,.721.684.754,1.626.8Z" transform="translate(-265.826 -306.61)"/><path d="M375.052,314.095c1.027-.079,1.506-.158,1.506-.9v-5.335c-.959-.777-1.233-.81-1.455-.81v-.282h3.61l5.937,4.806h.035v-3.41c0-.675-.205-1.047-1.592-1.114v-.282h3.679v.282c-1.232.1-1.335.36-1.335.9v6.63h-.479l-7.615-6.1h-.034v4.5c0,.81.36,1.025,1.626,1.115v.281h-3.884Z" transform="translate(-271.522 -306.61)"/><path d="M404.665,314.376h-5.989v-.281c.924-.056,1.591-.1,1.591-.8v-5.447c0-.743-.8-.766-1.591-.8v-.282h5.989v.282c-.8.022-1.624.033-1.624.8V313.3c0,.721.683.754,1.624.8Z" transform="translate(-281.44 -306.61)"/><path d="M197.319,328.468c.494-.009.563-.088.563-.417v-2.06c0-.344-.081-.4-.563-.418v-.088h1.724v.088c-.424.014-.569.046-.569.418v2.06c0,.361.139.408.569.417v.088h-1.724Z" transform="translate(-196.905 -314.468)"/><path d="M205.622,325.573c-.365.032-.551.05-.551.593v2.441h-.1l-2.553-2.542h-.012v1.809c0,.478.122.58.546.594v.088h-1.364v-.088c.441-.023.563-.093.563-.594v-2.046a.641.641,0,0,0-.563-.255v-.088h.993l2.223,2.231h.012v-1.55c0-.533-.163-.57-.557-.593v-.088h1.363Z" transform="translate(-198.697 -314.468)"/><path d="M209.849,328.468c.441-.019.511-.093.511-.417v-2.06c0-.344-.064-.39-.511-.418v-.088h1.567c1.393,0,2.315.506,2.315,1.545,0,.617-.458,1.526-2.234,1.526h-1.648Zm1.1-.274c0,.158.07.19.348.19.371,0,1.8,0,1.8-1.35a1.23,1.23,0,0,0-.54-1.053,2.054,2.054,0,0,0-1.335-.325c-.273,0-.273.088-.273.181Z" transform="translate(-202.165 -314.468)"/><path d="M222.06,325.573c-.447.037-.546.107-.546.593v1.211c0,.371,0,1.243-1.5,1.243-1.439,0-1.439-.905-1.439-1.183v-1.448c0-.344-.082-.395-.523-.418v-.088h1.642v.088c-.458.028-.528.088-.528.418v1.485c0,.3,0,.942,1.01.942a1.174,1.174,0,0,0,.952-.366,1,1,0,0,0,.133-.631v-1.253c0-.5-.139-.575-.546-.593v-.088h1.347Z" transform="translate(-205.608 -314.468)"/><path d="M229.028,326.361h-.145a1.091,1.091,0,0,0-1.08-.8c-.29,0-.586.144-.586.432,0,.7,1.938.788,1.938,1.739,0,.395-.395.84-1.225.84a5.752,5.752,0,0,1-.9-.158.161.161,0,0,0-.18.153h-.128l-.174-.984h.133a1.293,1.293,0,0,0,1.189.822c.465,0,.7-.265.7-.515s-.093-.422-.946-.821c-.534-.246-.905-.45-.905-.909,0-.529.528-.789,1.05-.789a5.616,5.616,0,0,1,.807.158.183.183,0,0,0,.2-.158h.121Z" transform="translate(-209.177 -314.421)"/><path d="M235.384,328.556H233.69v-.088c.529-.019.545-.125.545-.469V325.68h-.313c-.638,0-.8.088-.923.594h-.139l.034-.789h3.273l.035.789h-.139c-.122-.511-.284-.594-.922-.594h-.314v2.371c0,.315.07.4.558.417Z" transform="translate(-211.826 -314.468)"/><path d="M243.695,328.556h-.934l-1.381-1.429-.325.009v.914c0,.31.058.4.522.417v.088h-1.608v-.088c.47-.023.494-.121.494-.469v-2.008c0-.344-.088-.385-.494-.418v-.088h1.6c.516,0,1.474.1,1.474.812,0,.622-.754.733-1.051.78l1.2,1.174a.7.7,0,0,0,.5.218Zm-2.64-1.591c.487,0,1.358-.014,1.358-.678,0-.617-.76-.631-1-.631-.307,0-.36.033-.36.167Z" transform="translate(-214.81 -314.468)"/><path d="M247.649,328.468c.493-.009.563-.088.563-.417v-2.06c0-.344-.081-.4-.563-.418v-.088h1.724v.088c-.424.014-.569.046-.569.418v2.06c0,.361.14.408.569.417v.088h-1.724Z" transform="translate(-218.035 -314.468)"/><path d="M255.053,328.556h-3.134v-.088c.371-.019.5-.06.5-.417v-2.06c0-.367-.139-.395-.5-.418v-.088H255l.018.663h-.145c-.087-.413-.238-.487-.882-.487h-.784c-.121,0-.191,0-.191.158v1.03h.894c.516,0,.574-.111.639-.441h.133v1.076h-.133c-.07-.371-.157-.436-.639-.44l-.894-.009v1.15c0,.19,0,.195.865.195.726,0,1.016-.139,1.271-.607h.162Z" transform="translate(-219.827 -314.468)"/><path d="M265.106,327.484c-.064-.389-.2-.436-.638-.445h-.842v1.012c0,.348.116.4.529.417v.088h-1.625v-.088c.435-.019.5-.088.5-.469v-2.008c0-.367-.139-.395-.5-.418v-.088h3.081l.017.663h-.145c-.087-.413-.238-.487-.882-.487h-.789c-.145,0-.186.019-.186.158v1.03h.842c.476,0,.58-.093.638-.441h.133v1.076Z" transform="translate(-224.282 -314.468)"/><path d="M272.389,328.516h-1.48v-.088c.215,0,.406,0,.406-.176a.918.918,0,0,0-.11-.293l-.238-.445h-1.52l-.267.542a.435.435,0,0,0-.046.176c0,.195.273.195.395.195v.088h-1.149v-.088a.445.445,0,0,0,.3-.1,3.045,3.045,0,0,0,.424-.659l1.207-2.278h.116l1.445,2.635c.186.339.268.39.523.4Zm-1.5-1.193-.673-1.276-.667,1.276Z" transform="translate(-226.738 -314.428)"/><path d="M280.345,328.556h-.935l-1.381-1.429-.325.009v.914c0,.31.058.4.522.417v.088h-1.608v-.088c.47-.023.493-.121.493-.469v-2.008c0-.344-.087-.385-.493-.418v-.088h1.6c.516,0,1.474.1,1.474.812,0,.622-.755.733-1.051.78l1.2,1.174a.694.694,0,0,0,.5.218Zm-2.64-1.591c.487,0,1.358-.014,1.358-.678,0-.617-.76-.631-1-.631-.308,0-.36.033-.36.167Z" transform="translate(-230.197 -314.468)"/><path d="M289.177,325.573c-.366.023-.5.05-.5.418v2.06c0,.357.133.4.5.417v.088h-1.624v-.088c.453-.019.528-.088.528-.469v-2.083h-.012l-1.474,2.64h-.081l-1.445-2.534h-.012v1.851c0,.478.122.58.546.594v.088h-1.364v-.088c.441-.023.563-.093.563-.594v-1.883c0-.362-.122-.4-.551-.418v-.088H285.4l1.34,2.343,1.283-2.343h1.155Z" transform="translate(-233.396 -314.468)"/><path d="M298.169,328.516h-1.48v-.088c.215,0,.406,0,.406-.176a.918.918,0,0,0-.11-.293l-.238-.445h-1.521l-.267.542a.435.435,0,0,0-.046.176c0,.195.273.195.395.195v.088h-1.149v-.088a.445.445,0,0,0,.3-.1,3.046,3.046,0,0,0,.423-.659l1.207-2.278h.116l1.445,2.635c.186.339.267.39.523.4Zm-1.5-1.193-.673-1.276-.668,1.276Z" transform="translate(-237.561 -314.428)"/><path d="M305.413,326.417a1.221,1.221,0,0,0-1.277-.858,1.472,1.472,0,0,0-.871.283,1.449,1.449,0,0,0,.94,2.529,2.022,2.022,0,0,0,1.312-.469l.1.084a2.087,2.087,0,0,1-1.573.589c-.934,0-1.938-.446-1.938-1.6a1.766,1.766,0,0,1,1.973-1.6,5.708,5.708,0,0,1,1.022.153c.029,0,.22,0,.267-.153h.122l.052,1.044Z" transform="translate(-240.9 -314.421)"/><path d="M312.755,328.556H309.62v-.088c.372-.019.506-.06.506-.417v-2.06c0-.367-.14-.395-.506-.418v-.088H312.7l.017.663h-.145c-.086-.413-.238-.487-.882-.487h-.784c-.122,0-.191,0-.191.158v1.03h.893c.517,0,.574-.111.638-.441h.133v1.076h-.133c-.07-.371-.157-.436-.638-.44l-.893-.009v1.15c0,.19,0,.195.864.195.726,0,1.016-.139,1.272-.607h.162Z" transform="translate(-244.052 -314.468)"/><path d="M320.761,325.573c-.447.037-.545.107-.545.593v1.211c0,.371,0,1.243-1.5,1.243-1.439,0-1.439-.905-1.439-1.183v-1.448c0-.344-.081-.395-.523-.418v-.088h1.642v.088c-.458.028-.528.088-.528.418v1.485c0,.3,0,.942,1.01.942a1.172,1.172,0,0,0,.951-.366,1,1,0,0,0,.133-.631v-1.253c0-.5-.139-.575-.545-.593v-.088h1.347Z" transform="translate(-247.045 -314.468)"/><path d="M327.524,328.556H325.83v-.088c.528-.019.545-.125.545-.469V325.68h-.313c-.638,0-.8.088-.922.594H325l.035-.789h3.273l.035.789H328.2c-.122-.511-.284-.594-.922-.594h-.314v2.371c0,.315.07.4.557.417Z" transform="translate(-250.509 -314.468)"/><path d="M332.12,328.468c.493-.009.563-.088.563-.417v-2.06c0-.344-.081-.4-.563-.418v-.088h1.724v.088c-.424.014-.569.046-.569.418v2.06c0,.361.139.408.569.417v.088H332.12Z" transform="translate(-253.498 -314.468)"/><path d="M339.853,326.417a1.221,1.221,0,0,0-1.278-.858,1.469,1.469,0,0,0-.87.283,1.449,1.449,0,0,0,.94,2.529,2.019,2.019,0,0,0,1.312-.469l.1.084a2.085,2.085,0,0,1-1.573.589c-.934,0-1.938-.446-1.938-1.6a1.766,1.766,0,0,1,1.973-1.6,5.7,5.7,0,0,1,1.022.153c.029,0,.22,0,.267-.153h.122l.052,1.044Z" transform="translate(-255.359 -314.421)"/><path d="M344.13,328.468c.487-.019.511-.121.511-.469v-2.008c0-.344-.081-.39-.511-.418v-.088h1.613v.088c-.441.028-.511.088-.511.418v.9h1.759v-.9c0-.344-.082-.39-.511-.418v-.088h1.613v.088c-.441.028-.511.088-.511.418v2.06c0,.306.058.394.511.417v.088h-1.613v-.088c.487-.019.511-.121.511-.469v-.9h-1.759v.956c0,.306.058.394.511.417v.088H344.13Z" transform="translate(-258.54 -314.468)"/><path d="M355.414,328.556H352.28v-.088c.371-.019.505-.06.505-.417v-2.06c0-.367-.14-.395-.505-.418v-.088h3.081l.017.663h-.145c-.087-.413-.238-.487-.882-.487h-.784c-.122,0-.191,0-.191.158v1.03h.893c.517,0,.574-.111.638-.441h.133v1.076h-.133c-.07-.371-.157-.436-.638-.44l-.893-.009v1.15c0,.19,0,.195.864.195.726,0,1.016-.139,1.272-.607h.162Z" transform="translate(-261.962 -314.468)"/><path d="M366.666,328.556h-.935l-1.381-1.429-.325.009v.914c0,.31.058.4.522.417v.088H362.94v-.088c.47-.023.493-.121.493-.469v-2.008c0-.344-.087-.385-.493-.418v-.088h1.6c.516,0,1.474.1,1.474.812,0,.622-.755.733-1.051.78l1.2,1.174a.693.693,0,0,0,.5.218Zm-2.641-1.591c.488,0,1.359-.014,1.359-.678,0-.617-.761-.631-1-.631-.307,0-.36.033-.36.167Z" transform="translate(-266.437 -314.468)"/><path d="M370.619,328.468c.494-.009.563-.088.563-.417v-2.06c0-.344-.081-.4-.563-.418v-.088h1.724v.088c-.424.014-.569.046-.569.418v2.06c0,.361.139.408.569.417v.088h-1.724Z" transform="translate(-269.661 -314.468)"/><path d="M378.92,325.573c-.447.037-.546.107-.546.593v1.211c0,.371,0,1.243-1.5,1.243-1.439,0-1.439-.905-1.439-1.183v-1.448c0-.344-.081-.395-.523-.418v-.088h1.644v.088c-.459.028-.529.088-.529.418v1.485c0,.3,0,.942,1.011.942a1.172,1.172,0,0,0,.951-.366,1,1,0,0,0,.133-.631v-1.253c0-.5-.139-.575-.545-.593v-.088h1.347Z" transform="translate(-271.462 -314.468)"/><path d="M387.143,325.573c-.366.032-.552.05-.552.593v2.441h-.1l-2.554-2.542h-.012v1.809c0,.478.122.58.545.594v.088H383.11v-.088c.44-.023.562-.093.562-.594v-2.046a.64.64,0,0,0-.562-.255v-.088h.992l2.223,2.231h.011v-1.55c0-.533-.162-.57-.558-.593v-.088h1.365Z" transform="translate(-274.905 -314.468)"/><path d="M391.389,328.468c.494-.009.563-.088.563-.417v-2.06c0-.344-.082-.4-.563-.418v-.088h1.724v.088c-.425.014-.57.046-.57.418v2.06c0,.361.139.408.57.417v.088h-1.724Z" transform="translate(-278.381 -314.468)"/><path d="M398.234,328.556h-1.695v-.088c.528-.019.545-.125.545-.469V325.68h-.313c-.638,0-.8.088-.922.594h-.14l.035-.789h3.273l.035.789h-.139c-.122-.511-.284-.594-.922-.594h-.314v2.371c0,.315.07.4.558.417Z" transform="translate(-280.195 -314.468)"/><path d="M405.9,328.556h-3.134v-.088c.371-.019.505-.06.505-.417v-2.06c0-.367-.14-.395-.505-.418v-.088h3.081l.019.663h-.145c-.088-.413-.238-.487-.883-.487h-.783c-.121,0-.191,0-.191.158v1.03h.894c.516,0,.574-.111.638-.441h.134v1.076H405.4c-.07-.371-.156-.436-.638-.44l-.894-.009v1.15c0,.19,0,.195.864.195.726,0,1.016-.139,1.271-.607h.162Z" transform="translate(-283.159 -314.468)"/></g><g transform="translate(45.39 0)"><path class="a" d="M307.452,236.3v32.618H274.84V236.3Z" transform="translate(-274.84 -236.177)"/><path d="M307.452,236.091l-16.306,22.414L274.84,236.091Z" transform="translate(-274.84 -236.091)"/><path class="b" d="M302.776,264.366l-1.788-.451v-.75h2.273v.486h-1.536l-.186,0h-.185l1.906.471v.509l-1.906.467h1.906v.486h-2.273v-.759Z" transform="translate(-285.818 -247.457)"/><path class="b" d="M300.988,259.1h.4v1.32h.483v-1.213h.395v1.213h.584v-1.383h.408v1.894h-2.273Z" transform="translate(-285.818 -245.725)"/><path class="b" d="M303.261,256.888h-2.273v-.548l1.587-.995h-1.587v-.485h2.273v.521l-1.615,1.02h1.615Z" transform="translate(-285.818 -243.971)"/><path class="b" d="M302.4,251.12v.633l-.895-.321Zm.857.947-.465-.173v-.918l.465-.164v-.566l-2.273.885v.59l2.273.891Z" transform="translate(-285.818 -242.034)"/><path class="b" d="M301.423,246.8a.277.277,0,0,1,.277-.151.249.249,0,0,1,.256.157.7.7,0,0,1,.038.263v.591h-.61v-.606A.639.639,0,0,1,301.423,246.8Zm-.435,1.371h2.273v-.51h-.892v-.538a.5.5,0,0,1,.073-.315.38.38,0,0,1,.291-.086l.211,0a1.011,1.011,0,0,0,.2-.022c.029-.006.069-.018.12-.034v-.574H303.2a.186.186,0,0,1-.129.095.978.978,0,0,1-.211.015h-.154a.7.7,0,0,0-.356.07.471.471,0,0,0-.179.244.5.5,0,0,0-.222-.3.645.645,0,0,0-.318-.089.6.6,0,0,0-.24.046.669.669,0,0,0-.189.129.626.626,0,0,0-.161.24,1.288,1.288,0,0,0-.059.4Z" transform="translate(-285.818 -240.289)"/><path class="b" d="M300.988,244.56h2.273v.519h-2.273Z" transform="translate(-285.818 -239.647)"/><path class="b" d="M303.261,242.269h-2.273v-.548l1.587-.994h-1.587v-.485h2.273v.52l-1.615,1.02h1.615Z" transform="translate(-285.818 -237.834)"/><path class="b" d="M300.988,238.579h2.273v.519h-2.273Z" transform="translate(-285.818 -237.136)"/><path class="c" d="M285.364,281.813V267.021l10.2,14.585,10.2-14.585v14.791Z" transform="translate(-279.259 -249.077)"/></g></g></svg>