<svg xmlns="http://www.w3.org/2000/svg" width="90" height="90" viewBox="0 0 90 90"><defs><style>.a,.b{fill:none;}.b{stroke:#000;stroke-miterlimit:10;}.c{fill:#0783ff;}</style></defs><rect class="a" width="90" height="90"/><g transform="translate(12 12)"><path class="b" d="M146.943,149.326H115.52V115.52" transform="translate(-99.416 -99.416)"/><path class="b" d="M139.23,115.52h30.5v33.806" transform="translate(-119.821 -99.416)"/><line class="b" x2="11.427" transform="translate(4.677 22.778)"/><line class="b" x2="5.713" transform="translate(10.391 27.748)"/><line class="b" x2="5.713" transform="translate(10.391 37.687)"/><path class="b" d="M58.213,306H52.5l-3.57,4.391" transform="translate(-42.109 -263.343)"/><line class="b" x2="16.104" transform="translate(0 32.718)"/><circle class="b" cx="1.981" cy="1.981" r="1.981" transform="translate(3.558 46.612)"/><circle class="b" cx="1.981" cy="1.981" r="1.981" transform="translate(0.715 20.587)"/><line class="b" y2="11.427" transform="translate(43.679 4.677)"/><line class="b" y2="5.713" transform="translate(38.709 10.391)"/><line class="b" y2="5.713" transform="translate(28.77 10.391)"/><path class="b" d="M143.621,58.213V52.5l-4.391-3.57" transform="translate(-119.821 -42.109)"/><line class="b" y2="16.104" transform="translate(33.739)"/><circle class="b" cx="1.981" cy="1.981" r="1.981" transform="translate(15.885 3.558)"/><circle class="b" cx="1.981" cy="1.981" r="1.981" transform="translate(41.908 0.715)"/><line class="b" y1="11.427" transform="translate(23.256 49.91)"/><line class="b" y1="5.714" transform="translate(28.226 49.91)"/><line class="b" y1="5.714" transform="translate(38.165 49.91)"/><path class="b" d="M309.43,358.03v5.714l4.391,3.57" transform="translate(-266.295 -308.12)"/><line class="b" y1="16.105" transform="translate(33.196 49.91)"/><circle class="b" cx="1.981" cy="1.981" r="1.981" transform="translate(47.09 58.496)"/><circle class="b" cx="1.981" cy="1.981" r="1.981" transform="translate(21.065 61.338)"/><line class="b" x1="11.427" transform="translate(49.91 43.899)"/><line class="b" x1="5.714" transform="translate(49.91 38.929)"/><line class="b" x1="5.714" transform="translate(49.91 28.99)"/><path class="b" d="M358.03,145.2h5.714l3.57-4.391" transform="translate(-308.12 -121.181)"/><line class="b" x1="16.105" transform="translate(49.91 33.96)"/><circle class="b" cx="1.981" cy="1.981" r="1.981" transform="translate(58.496 16.105)"/><circle class="b" cx="1.981" cy="1.981" r="1.981" transform="translate(61.338 42.129)"/><path class="b" d="M170.849,188.269H168.63V165.2H175.6" transform="translate(-146.968 -144.016)"/><path class="b" d="M262.37,165.2h7.513v23.069H268.17" transform="translate(-225.152 -144.016)"/><path class="c" d="M191.219,150.99l8.208,14.217a9.047,9.047,0,0,1-2.373,11.735h0a9.047,9.047,0,0,1-10.543.271l-.538-.365a9.046,9.046,0,0,1-2.75-12.005Z" transform="translate(-158.128 -132.164)"/></g></svg>