<svg xmlns="http://www.w3.org/2000/svg" width="36.8" height="36.8" viewBox="0 0 36.8 36.8">
  <g id="icon_instagram" transform="translate(-1316.682 -3110.001)">
    <path id="Tracciato_3085" data-name="Tracciato 3085" d="M35.016,6.476a7.639,7.639,0,0,0-4.689-4.689A37.652,37.652,0,0,0,18.4,0,38.35,38.35,0,0,0,6.68,1.736,7.711,7.711,0,0,0,1.735,6.68,38.361,38.361,0,0,0,0,18.4,37.891,37.891,0,0,0,1.786,30.329a7.641,7.641,0,0,0,4.689,4.689A37.891,37.891,0,0,0,18.4,36.8a39.635,39.635,0,0,0,11.314-1.58c3.007-.969,4.638-3.67,5.5-6.575A36.706,36.706,0,0,0,36.8,18.4,38.157,38.157,0,0,0,35.016,6.476" transform="translate(1316.683 3110.001)" fill="#fff"/>
    <g id="Rettangolo_5633" data-name="Rettangolo 5633" transform="translate(1324 3118)" fill="none" stroke="#143f59" stroke-width="1.5">
      <rect width="20.802" height="20.802" rx="5" stroke="none"/>
      <rect x="0.75" y="0.75" width="19.302" height="19.302" rx="4.25" fill="none"/>
    </g>
    <g id="Ellisse_12" data-name="Ellisse 12" transform="translate(1328.045 3122.045)" fill="none" stroke="#143f59" stroke-width="1.5">
      <circle cx="6.356" cy="6.356" r="6.356" stroke="none"/>
      <circle cx="6.356" cy="6.356" r="5.606" fill="none"/>
    </g>
    <circle id="Ellisse_13" data-name="Ellisse 13" cx="1.011" cy="1.011" r="1.011" transform="translate(1339.891 3120.715)" fill="#143f59"/>
  </g>
</svg>