<?xml version="1.0" encoding="UTF-8"?><svg id="Livello_2" xmlns="http://www.w3.org/2000/svg" xmlns:xlink="http://www.w3.org/1999/xlink" viewBox="0 0 32.29 50.04"><defs><style>.cls-1{fill:#fff;}.cls-1,.cls-2{fill-rule:evenodd;}.cls-2{fill:#c60;}.cls-3{mask:url(#mask);}</style><mask id="mask" x="-2.71" y="-1.2" width="35.6" height="52.15" maskUnits="userSpaceOnUse"><g id="mask-2"><polygon id="path-1" class="cls-1" points=".78 -1.2 32.89 1.05 29.4 50.96 -2.71 48.71 .78 -1.2"/></g></mask></defs><g id="Livello_1-2"><g id="Page-1"><g id="D_04_SCIENTIFIC_LIBRARY_V2"><g id="Group-70"><g id="Group-3"><g class="cls-3"><path id="Fill-1" class="cls-2" d="m31.29,9.81c-.45.02-.89.03-1.34.02-.55-.01-1.09-.05-1.64-.07-.29,0-.59,0-.88.01-.39.03-.77.12-1.14.28-.16.07-.32.13-.48.19-.03.01-.08.07-.07.09.02.05.06.08.13.05.23-.13.47-.09.72-.03.47.11.76.48.86.91.05.2.12.39.15.59.05.35.21.66.34.97.03.06.08.12.14.16.29.21.58.41.87.61.15.1.31.2.47.3.02.01.03.03.05.04-.2.02-.62-.08-.86-.27-.36-.28-.72-.56-1.08-.85-.23-.18-.37-.43-.53-.67-.04-.06-.07-.12-.11-.18-.02-.02-.05-.03-.1-.02.01.03.03.06.04.09,0,0-.02.01-.02.02-.07-.06-.13-.13-.2-.19-.16-.15-.33-.29-.5-.44-.43-.37-.94-.49-1.48-.46-.26.01-.52.06-.77.13-.41.11-.82.24-1.22.38-.45.16-.89.33-1.34.5-.27.1-.55.2-.81.33-.22.12-.42.28-.62.42-.15.11-.3.22-.39.4-.03.05-.06.1-.09.15-.09.19-.28.33-.3.55-.02.23-.03.46-.04.69,0,.36.02.71.08,1.06.07.41.21.8.41,1.17.13.24.25.48.38.73.03.05.06.09.11.17-.23-.09-.44-.17-.65-.25,0,.01-.01.03-.02.04.11.05.23.11.34.16.16.07.33.12.47.21.09.05.15.16.22.24,0,0-.01.02-.02.03-.24-.11-.48-.22-.72-.32,0,0,0,.02-.01.03.19.15.44.21.65.32.21.12.42.24.63.36,0,.01-.01.03-.02.04-.33-.15-.67-.3-1-.45,0,.01-.01.02-.02.03.09.05.18.1.27.14.25.12.49.27.76.36.19.06.26.22.41.31,0,0,0,.02-.01.03-.26-.09-.53-.19-.79-.28,0,.01,0,.02-.01.03.38.22.86.24,1.18.59-.21-.07-.42-.13-.63-.2,0,.01,0,.03-.01.04.18.07.36.12.53.2.17.07.35.13.48.28-.23-.07-.45-.15-.68-.22,0,0,0,.02-.01.03.4.18.84.26,1.16.59-.19-.06-.38-.11-.57-.17,0,.01,0,.02-.01.03.39.16.82.24,1.16.55-.23-.06-.45-.11-.66-.17,0,.01,0,.03-.01.04.13.04.25.07.38.11.13.04.27.12.4.13.14,0,.2.11.3.18-.15-.02-.3-.04-.46-.06,0,0,0,.02,0,.03.35.08.71.13,1.02.35-.22-.03-.44-.07-.65-.1,0,.01,0,.02,0,.03.11.02.21.04.32.07.14.03.28.1.42.1.24,0,.36.2.56.28-.24-.03-.47-.07-.71-.1,0,0,0,.02,0,.03.05.02.1.03.16.04.22.04.43.1.65.12.1,0,.2,0,.3.05.03.01.06.03.09.06-.18,0-.37.02-.55.03,0,0,0,.01,0,.02.06,0,.11,0,.17.01.23.01.46.02.68.03.03,0,.06.02.08.03.23.07.46.16.7.19.23.03.46,0,.69-.01.42-.02.8-.16,1.18-.31.43-.17.85-.37,1.27-.56.24-.11.46-.24.72-.38-.08.09-.13.18-.21.24-.27.21-.54.43-.83.61-.32.2-.65.38-.99.55-.18.09-.38.14-.56.22-.24.1-.48.18-.74.2-.35.03-.71.05-1.06.06-.09,0-.18-.04-.26-.06-.03,0-.05.02-.08.03.02.02.03.05.05.06.23.19.53.27.77.44.23.16.39.37.56.58.35.46.63.95.85,1.48.26.63.42,1.28.38,1.97,0,.02,0,.04,0,.09-.03-.04-.05-.06-.06-.08-.04-.12-.08-.23-.11-.35-.02-.07-.03-.15-.05-.23,0-.04-.03-.07-.04-.11-.03-.09-.05-.18-.07-.26-.01-.04-.03-.08-.04-.13-.02-.07-.03-.14-.06-.21-.03-.09-.07-.18-.1-.27-.04-.09-.08-.18-.11-.28,0-.02-.01-.03-.02-.05-.06-.11-.13-.21-.19-.32-.15-.26-.3-.52-.46-.77-.28-.45-.67-.77-1.14-1.01-.1-.05-.21-.09-.32-.11-.05-.01-.11,0-.17.03-.01,0-.02.06-.01.09.12.27.16.55.19.84.01.13.03.26.03.39,0,.26-.04.51-.13.74-.1.26-.22.51-.34.75-.1.2-.22.4-.35.59-.18.27-.38.52-.57.78,0,.01-.02.02-.04.02.05-.1.12-.2.15-.31.12-.34.23-.69.33-1.04.04-.16.05-.32.08-.48.01-.08.05-.15.07-.23.02-.11.01-.22.02-.33.02-.17.04-.34.05-.51,0-.09-.02-.17-.03-.26-.03-.41-.1-.82-.3-1.19-.14-.26-.32-.49-.49-.74-.05-.07-.08-.15-.13-.22-.04-.06-.1-.12-.15-.17-.06-.07-.13-.15-.19-.21-.04-.04-.1-.05-.13-.09-.29-.34-.65-.61-1-.88-.25-.19-.48-.41-.73-.61-.24-.19-.47-.38-.72-.55-.28-.18-.58-.36-.88-.5-.29-.14-.61-.23-.9-.37-.28-.13-.56-.09-.84-.08-.31,0-.6.12-.86.3-.13.09-.27.16-.4.26-.07.05-.11.16-.18.18-.12.04-.17.14-.24.21-.17.16-.34.32-.5.49.23-.19.46-.37.69-.55,0,.03-.02.09-.04.15,0,.02-.02.05-.04.06-.29.17-.47.45-.71.66.23-.18.46-.37.7-.56-.05.12-.08.25-.14.36-.05.08-.14.13-.2.2-.15.18-.29.37-.42.57.23-.15.33-.43.57-.58-.1.32-.39.51-.53.81.05-.05.1-.09.14-.14.05-.05.09-.1.14-.15.06.13.01.25-.11.31-.02.01-.04.03-.05.05-.11.15-.21.31-.31.47,0,0,.02.01.03.02.1-.13.21-.26.31-.39.01,0,.03.01.04.02-.05.14-.1.28-.16.41-.07.13-.15.25-.23.38l.02.02.15-.17s.02,0,.03.01c-.02.09-.04.17-.07.26-.01.04-.06.08-.06.12,0,.12-.03.17-.17.15-.06,0-.1,0-.14-.05-.06-.1-.1-.46-.1-.53-.03-.35-.03-.7-.09-1.04-.07-.39-.22-.74-.43-1.08-.15-.25-.36-.39-.64-.41-.33-.02-.66-.04-.97.14-.46.27-.91.54-1.32.87-.41.32-.83.63-1.26.94-.27.19-.57.35-.84.55-.21.16-.4.34-.61.52-.11.09-.22.18-.33.28-.17.15-.33.31-.48.48-.1.11-.17.23-.27.34-.22.25-.35.55-.45.86-.12.36-.22.73-.33,1.12-.12-.16-.01-.87.03-1.01.05-.17.11-.34.19-.5.07-.16.18-.3.26-.46.19-.38.39-.75.47-1.17,0-.03.01-.07,0-.1,0-.06-.04-.08-.09-.05-.23.11-.48.11-.72.13-.15.01-.3,0-.44-.02-.11,0-.21-.04-.32-.04-.4-.02-.81-.05-1.21-.04-.28.01-.55.08-.83.15-.3.08-.61.16-.88.33.12-.21.31-.37.47-.55.18-.2.43-.27.67-.34.24-.07,1.6-.1,1.65-.09.08.01.72,0,.95-.04.17-.02.34-.06.52-.09.14-.02.28-.04.42-.07.14-.03.28-.06.42-.09.03,0,.05,0,.08,0,0,.03,0,.05-.01.08-.07.13-.14.25-.22.38,0,0,.01.01.02.02.07-.09.15-.18.21-.28.1-.18.24-.3.46-.32.12-.01.23-.06.36-.1-.1.19-.19.37-.28.55,0,0,.02,0,.02.01.08-.13.17-.26.25-.4.09-.16.21-.28.41-.34-.1.16-.2.3-.29.44,0,0,.02.01.02.02.11-.14.24-.28.33-.43.08-.12.18-.18.33-.25-.08.14-.14.26-.2.37,0,0,.01,0,.02.01.06-.08.14-.16.17-.25.1-.24.33-.35.54-.49l-.18.43c.2-.27.31-.6.64-.78-.09.16-.17.29-.25.43.01,0,.02.01.03.02.14-.21.28-.42.43-.63h.02c-.04.13-.08.25-.12.36h.01c.1-.14.21-.28.29-.43.08-.16.2-.28.32-.4-.04.15-.07.3-.11.45.2-.39.32-.83.65-1.15-.02.21-.18.38-.14.63.14-.37.28-.7.41-1.04,0,0,.02,0,.03,0-.04.17-.08.34-.11.51h.03c.03-.07.05-.15.08-.23.04-.13.09-.27.13-.4.03-.09.07-.17,0-.27-.02-.03.03-.09.05-.14.12-.28.25-.56.18-.88-.06-.26-.17-.49-.35-.69-.21-.23-.45-.39-.73-.49-.16-.06-.33-.06-.5-.07-.19,0-.37-.01-.56,0-.13.01-.25.07-.38.1-.23.06-.47.11-.7.16-.59.13-1.17.26-1.74.47-.3.11-.61.19-.92.3-.18.06-.35.14-.52.22-.22.09-.44.18-.65.29-.3.16-.6.32-.87.51-.25.18-.47.41-.7.61-.5.42-.85.95-1.17,1.51-.23.4-.41.82-.57,1.24-.08.2-.19.39-.31.58,0-.14,0-.28.03-.41.07-.35.16-.7.23-1.05.09-.49.35-.91.59-1.33.13-.24.24-.48.42-.7.21-.26.47-.46.75-.65.16-.11.34-.22.51-.32.02-.01.32-.19.42-.25.13-.07.26-.13.4-.19.11-.05.23-.09.35-.13,0-.01,0-.03,0-.04-.05,0-.1-.02-.15-.02-.29.04-.57.09-.86.12-.3.03-.61.04-.91.07-.3.03-.59.07-.89.1-.15.02-.3.04-.45.06-.04,0-.45.02-.6.08-.14.05-.27.13-.39.21-.17.1-.57.44-.59.51-.02.02-.06.1-.07.11-.07.12-.14.23-.21.35-.06.11-.12.23-.18.34-.05.09-.11.17-.16.25-.03.05-.06.11-.09.17-.1.22-.19.43-.28.65-.06.15-.1.31-.15.47,0,.03-.06.08-.07.08.01-.16.03-.32.03-.48.02-.57.17-1.12.32-1.67.08-.3.18-.59.31-.88.11-.25.26-.48.48-.66.08-.07.16-.14.25-.2.04-.03.21-.07.21-.08,0-.04,0-.1-.02-.13-.08-.09-.17-.16-.25-.25-.04-.04-.06-.1-.1-.14-.05-.06-.13-.1-.17-.17-.17-.24-.36-.49-.5-.75-.1-.18-.14-.39-.2-.58-.06-.23-.12-.46-.16-.69-.03-.16-.05-.33-.06-.49-.01-.14,0-.28-.01-.43.01,0,.06.04.06.07.15.42.33.82.56,1.2.21.34.45.66.72.96.26.29.6.45.91.66.11.08.23.16.36.21.14.05.28.08.43.11.04.01.09.03.13.03.31.04.62.08.93.12.08.01.92.01,1.14-.01.34-.04.68-.06,1.01-.1.25-.03.5-.08.75-.12.03,0,.07,0,.13,0-.17.15-.31.29-.46.42.3-.1.47-.42.79-.47.01.01.02.03.03.04-.15.16-.31.33-.46.49,0,0,0,0,.01.01.11-.09.23-.19.34-.29.09-.08.18-.18.27-.26.04-.03.1-.03.15-.05,0,.01.02.02.02.03-.12.13-.25.26-.37.39,0,0,0,.01.01.02.06-.05.13-.1.19-.15.09-.07.18-.14.27-.22.03-.03.04-.07.07-.13.09-.02.19-.04.3-.07,0,0,0,.01.01.02-.17.16-.33.33-.5.49,0,0,.01.01.02.02.15-.12.3-.24.45-.37.08-.07.15-.18.25-.21.23-.08.47-.12.7-.18-.18.16-.37.33-.56.5,0,0,.01.02.02.03.35-.21.63-.51.99-.72,0,.01.02.02.03.03-.1.11-.2.22-.3.33,0,0,.01.01.02.02.1-.08.2-.17.29-.25.07-.06.17-.1.2-.17.05-.14.18-.11.28-.16-.11.1-.22.21-.33.31.27-.16.51-.37.79-.52l.03.04c-.21.21-.41.43-.62.64,0,0,0,0,0,.01.07-.06.15-.11.21-.18.16-.15.32-.31.48-.47.03-.03.09-.04.04-.1,0,0,.02-.04.03-.05.09-.06.18-.12.28-.16-.13.16-.26.31-.38.47.3-.2.48-.54.8-.72,0,0,.02.02.03.03-.12.17-.25.35-.37.52,0,0,.01,0,.02.01.1-.11.21-.21.3-.32.09-.1.18-.2.26-.31.03-.04.03-.09.03-.14.13-.16.28-.31.39-.49.22-.35.28-.72.07-1.1-.12-.22-.25-.43-.44-.6-.2-.16-.38-.34-.59-.49-.19-.13-.4-.24-.61-.34-.46-.23-.92-.46-1.4-.67-.3-.14-.62-.24-.94-.35-.46-.16-.94-.28-1.39-.47-.33-.14-.67-.22-1.01-.32-.3-.08-.62-.1-.93-.15-.12-.02-.24-.06-.36-.07-.21-.02-.43-.04-.64-.04-.25,0-.5.01-.74.02-.08,0-.67.26-.85.36,0,0-.6.47-.71.58-.16.16-.36.21-.57.25-.26.05-.52.08-.78.05.07-.13.79-.48.94-.73.02-.04.06-.07.09-.1.03-.03.05-.06.08-.09.05-.07.08-.15.14-.21.28-.3.61-.55.98-.74.26-.13.56-.23.85-.2.28.02.55.11.82.18.19.04.37.1.56.14.06.01.12,0,.18,0,0,0,0-.02.01-.03-.02-.02-.04-.05-.06-.06-.28-.08-.5-.26-.72-.44-.29-.25-.57-.52-.85-.79-.14-.14-.26-.29-.39-.44-.14-.16-.26-.33-.42-.46-.2-.16-.42-.28-.64-.41-.2-.12-.41-.22-.6-.35.11.02.23.04.34.05.09.02.18.05.27.05.49,0,.94.09,1.3.47.33.34.69.64,1.03.97.44.43.93.78,1.47,1.06.17.09.35.17.5.28.14.1.3.1.44.19.31.21.68.3,1.02.45,0,0,.01.01.03.03-.27.01-.53.02-.79.03,0,0,0,.02,0,.03.11,0,.22.02.33.02.14,0,.29,0,.44,0,.03,0,.07-.03.1-.04v-.03c.09.04.19.07.28.11,0,0,0,.01,0,.02-.2.03-.41.06-.63.09.02.01.03.03.05.03.24-.01.48,0,.72-.04.19-.03.32.09.48.14-.21.03-.43.07-.64.1v.04c.06,0,.12,0,.18-.02.22-.02.43-.06.65-.06.12,0,.25.07.37.11v.04c-.24.02-.48.05-.73.07,0,.01,0,.02,0,.04.13,0,.27,0,.4,0,.18-.01.35-.05.53-.05.09,0,.19.03.28.06.17.06.34.13.52.19,0,0,0,.02,0,.03-.28.03-.56.06-.84.09,0,.01,0,.03,0,.04.07,0,.13,0,.2,0,.23-.02.46,0,.68-.06.25-.06.41.14.63.13,0,.01,0,.03,0,.04-.2.03-.41.06-.61.08,0,.01,0,.02,0,.03.09,0,.17,0,.26,0,.16,0,.32,0,.47-.04.12-.03.21-.02.32.04-.19.03-.36.06-.53.09,0,.01,0,.02,0,.03.16-.01.31-.02.47-.04.21-.03.41-.04.62.08-.29.04-.58,0-.86.12.06,0,.12,0,.18,0,.26-.02.52-.02.78-.05.21-.03.41.03.61.1-.25.02-.51.04-.76.06,0,0,0,.02,0,.03.06,0,.12.01.18.01.24,0,.48,0,.72-.04.11-.02.21-.02.32,0,.25.06.49,0,.73-.04,0,0,.02-.01.03-.02.3-.21.59-.42.89-.62.16-.11.22-.28.3-.44.03-.06.06-.11.1-.18.1.28.19.55.28.81,0,0,.01,0,.02,0-.07-.25-.13-.5-.2-.74-.03-.12-.05-.24.06-.33.09.23.17.47.26.71-.02-.35-.23-.67-.18-1.03.01,0,.02,0,.04,0l.23.67s.01,0,.02,0c-.02-.11-.04-.21-.07-.32-.05-.18-.13-.36-.16-.54-.03-.14-.03-.29.08-.43.09.21.17.41.25.61-.04-.28-.14-.54-.26-.79-.03-.07,0-.18.03-.27.07.16.15.32.22.48,0,0,.01,0,.02,0-.04-.13-.09-.26-.13-.4-.02-.06-.02-.12-.04-.18-.02-.09-.05-.17-.06-.26,0-.03.01-.07.02-.11.01,0,.02,0,.04,0,.07.15.14.31.21.46.01,0,.02,0,.03-.01-.08-.21-.17-.42-.25-.63-.02-.07-.03-.14-.04-.21,0-.05,0-.11,0-.16.01,0,.02,0,.03-.01.07.14.14.28.2.43,0,0,.01,0,.02,0-.03-.1-.07-.2-.1-.31-.04-.13-.07-.26-.12-.38-.06-.16-.09-.26-.06-.49.11.23.2.43.31.66,0-.05,0-.06,0-.08-.1-.24-.2-.48-.29-.72-.03-.1-.03-.21-.04-.32,0,0,.02,0,.03,0,.07.15.15.29.22.44,0,0,.02,0,.03-.01-.05-.12-.1-.23-.14-.35-.04-.11-.21-.42-.22-.44-.06-.13-.11-.26-.18-.38-.14-.23-.27-.47-.44-.68-.12-.16-.3-.28-.45-.42-.14-.12-.28-.24-.42-.37-.07-.07-.11-.15-.16-.23-.01-.01-.48-.5-.6-.8-.08-.21-.11-.45-.16-.67,0-.03,0-.06.02-.1.04.09.07.19.12.28.09.17.18.34.29.5.23.34.55.61.88.86.17.13.36.23.51.39.16.17.28.39.4.59.09.15.15.31.23.47.01.03.05.05.08.07.02-.03.06-.05.06-.08.03-.35.17-.66.3-.97.08-.21.22-.41.33-.61.03-.05.05-.1.08-.15.03-.05.07-.1.11-.14.03-.04.07-.07.11-.1.16-.15.33-.29.49-.44.13-.11.27-.22.4-.34.18-.17.35-.36.53-.54.05-.05.08-.1.12-.16.01,0,.02.01.03.02-.06.17-.11.35-.19.51-.09.18-.21.35-.34.51-.13.17-.29.33-.43.5-.23.28-.44.58-.55.94-.07.22-.14.43-.15.66,0,.03.1.3.11.28.15-.31.45-.42.73-.57.49-.26,1.03-.32,1.56-.41.54-.09,1.06-.22,1.53-.51.35-.21.72-.39,1.05-.69,0,.05,0,.07-.01.09-.24.39-.6.64-1.02.82-.33.14-.66.29-.99.43-.17.07-.35.14-.52.21-.5.21-1.01.39-1.46.69-.2.14-.42.27-.55.49-.1.17-.2.34-.28.52-.24.53-.28,1.11-.36,1.67-.08.54.03,1.07.13,1.59.05.25.1.5.2.73.1.25.24.48.37.71.12.21.3.36.53.44.01,0,.03.01.04.02,0,0,0,.01.01.03-.17,0-.34,0-.51,0v.02s.09.02.13.02c.19.02.38.04.56.06.06,0,.11.04.16.08-.14.01-.28.02-.42.03,0,0,0,.02,0,.02.02,0,.04.01.06.01.26-.04.5.04.75.11.19.05.39.08.59.1.36.04.73.03,1.09.1.16.03.34,0,.51,0,.04,0,.08,0,.13.02-.22.13-.44.26-.66.39,0,.01,0,.02.01.03.02,0,.05-.01.07-.02.2-.1.4-.21.6-.32.01,0,.03,0,.04-.02.09-.18.27-.09.41-.13.14-.03.28-.04.42-.05.02,0,.05,0,.1,0-.24.15-.44.29-.65.43,0,.01.01.02.02.03.03-.02.06-.03.09-.05.19-.11.39-.2.56-.33.24-.19.54-.15.81-.24.06-.02.12-.03.19-.05,0,0,.01.02.02.03-.08.06-.16.13-.24.19-.09.06-.18.12-.29.2.05,0,.06.01.07,0,.15-.1.31-.19.45-.3.04-.03.06-.09.1-.12.03-.03.06-.04.1-.06.2-.07.4-.12.59-.2.25-.1.46-.27.66-.45.02-.02.05-.04.08-.06.03-.05.05-.1.09-.14.21-.21.34-.47.44-.74.1-.27.19-.55.31-.81.12-.24.28-.47.51-.62.03-.02.07-.02.11-.04.07-.04.15-.1.23-.14.13-.07.25-.15.38-.22.04-.02.09-.03.09-.1,0-.02.04-.06.06-.05.12.05.19-.05.27-.1.02-.01.04-.03.05-.06-.06.03-.11.06-.17.09,0-.01-.01-.02-.02-.03.43-.26.86-.52,1.29-.77,0,0,.01.01.02.02-.09.11-.18.22-.29.32-.19.17-.39.34-.6.49-.29.21-.59.41-.9.6-.35.21-.58.51-.68.9-.06.24-.1.48-.15.72-.04.2-.14.38-.26.55-.01.02-.03.03-.04.05,0,.03-.02.08,0,.1.02.02.07.03.1.02.07-.02.14-.06.21-.09.4-.15.79-.3,1.19-.44.31-.11.62-.21.93-.3.1-.03.21-.04.31-.06.03,0,.06.01.08.02.03,0,.09.03.1.02.07-.09.17-.04.26-.07.02,0,.05.03.08.04.03.01.07.03.09.02.14-.1.28-.03.42,0,.01,0,.02.04.03.06.12-.09.18.06.27.1.28.12.55.29.83.4.15.06.33.06.5.07.31.02.61.03.92.05.03,0,.06.01.1.05-.14.03-.29.08-.43.08h0Zm-15.06,12.87c.13.06.15.19.12.3-.05.2-.13.4-.21.6-.02.06-.06.12-.08.19.19-.25.33-.52.37-.84.09.06.11.1.07.18-.13.32-.27.63-.4.95,0,0,0,.02,0,.06.23-.29.32-.62.47-.92.06.09.06.13.03.21-.12.31-.25.62-.38.94.2-.27.31-.57.45-.86,0,.11.06.23.01.31-.08.16-.07.34-.17.49-.1.15-.17.31-.24.47.2-.21.32-.45.43-.72,0,.11.08.21-.02.33-.08.09-.09.24-.15.35-.07.14-.16.26-.23.39-.01.02-.02.04-.03.06.01,0,.02.01.03.02.14-.21.27-.41.41-.62.04.09.02.17-.04.24,0,0-.01.02-.02.04-.06.27-.2.51-.35.74,0,0,0,.02,0,.06.19-.19.29-.41.4-.63.06.26-.06.46-.17.66-.1.17-.21.33-.31.5-.01.02-.03.05-.04.07,0,0,.02.01.03.02.16-.23.32-.45.47-.68,0,0,.02,0,.02,0-.02.09-.03.19-.07.26-.15.28-.31.55-.47.82,0,.01-.01.03-.02.05.01,0,.02.01.03.02.16-.25.32-.5.49-.76.01.14.02.27-.05.38-.17.28-.34.55-.51.82,0,.01-.01.02,0,.04.24-.19.36-.47.56-.7-.05.44-.31.77-.57,1.1,0,0,.02.02.03.02.09-.1.19-.2.27-.31.08-.11.15-.23.26-.35-.02.08,0,.18-.05.25-.16.25-.34.49-.51.73,0,.01-.02.03-.03.04,0,0,.02.02.03.02.16-.19.32-.38.5-.59,0,.39-.03.77-.3,1.04-.25.26-.55.47-.96.48.01-.16.02-.3.03-.45.02-.19.02-.38.06-.56.12-.57.06-1.16.11-1.73.03-.38.05-.75.08-1.13.03-.43.05-.86.09-1.29.03-.27.08-.54.11-.81.02-.15,0-.31,0-.47.01,0,.02-.02.04-.03.13.06.27.12.4.18h0Zm-.28,6.66c.21.09.33.27.36.48.01.08-.04.18-.08.26-.13.26-.27.51-.41.78.25-.22.35-.52.52-.77.01,0,.02,0,.03,0,0,.06,0,.12-.01.18-.08.32-.27.59-.43.88.08-.1.16-.19.24-.29.08-.11.14-.22.21-.33,0,0,.02,0,.03.01,0,.09.01.18.02.28-.12-.03-.09.07-.11.11-.09.17-.18.34-.27.51-.02.03-.03.06-.05.09.01,0,.02.01.04.02.13-.21.26-.42.38-.63.06.08.05.26,0,.34-.14.23-.27.47-.4.7,0,0,.02.01.03.02.14-.19.27-.38.41-.57.06.06.05.11.02.17-.16.29-.32.58-.47.88.16-.21.32-.43.48-.65.05.1.02.2-.03.28-.15.26-.3.52-.46.77,0,0,.01.01.02.02.13-.17.26-.35.4-.52.01,0,.02.01.03.02-.08.14-.17.29-.25.43-.09.15-.17.29-.25.44.19-.17.3-.4.46-.6,0,.09,0,.18-.06.26-.1.13-.18.29-.26.44-.05.09-.1.17-.15.26,0,0,.01.01.02.02.13-.18.26-.35.4-.55,0,.29-.05.55-.21.78-.15.22-.29.45-.43.69.12-.13.25-.26.37-.39,0,.11-.05.2-.12.27-.09.1-.17.22-.24.34-.03.05-.05.09-.1.12-.12.07-.46.13-.51.13,0-.15-.02-.3-.02-.45,0-.34-.02-.69-.01-1.03,0-.27.05-.53.07-.8.02-.31.03-.63.05-.94.02-.38.05-.77.07-1.15.02-.38.02-.77.02-1.15,0-.07,0-.14.01-.22,0-.13.21-.12.21-.14.14.06.28.11.41.17h0Zm-.39,6.08c.19.1.2.26.16.43-.05.23-.12.46-.25.67,0,0,0,.02,0,.03,0,0,.02,0,.03.01.07-.13.15-.25.21-.39.06-.14.09-.29.14-.44.09.11.06.23.04.34-.06.25-.14.49-.21.73,0,.01,0,.03.01.04.09-.25.19-.51.28-.76.02,0,.03,0,.05,0,0,.06.02.13,0,.19-.1.27-.22.53-.32.78.17-.15.23-.39.36-.59.01,0,.02,0,.03,0,.01.06.02.11.03.16-.04.03-.08.05-.09.07-.11.26-.22.52-.33.79.18-.22.3-.47.41-.73.01,0,.02,0,.03,0,0,.12.02.25-.03.35-.14.31-.31.61-.46.92.21-.21.32-.49.5-.76,0,.13.04.23-.03.34-.04.05-.04.12-.07.18-.12.22-.25.45-.38.67,0,.02-.02.03-.02.06.22-.2.35-.46.49-.73.08.37-.21.58-.31.88.1-.13.19-.26.29-.39,0,0,.02,0,.02,0-.03.08-.05.16-.09.23-.11.2-.23.4-.35.6-.04.07-.09.13-.13.21.25-.17.34-.47.54-.71-.02.14-.02.24-.1.35-.14.18-.24.39-.35.59.15-.13.26-.29.37-.45.03.09.02.08-.05.15-.05.06-.08.14-.13.21-.1.14-.2.27-.29.41-.01.02-.02.03-.02.06.19-.13.29-.33.46-.49-.02.09-.05.19-.07.28,0,.01,0,.03-.02.04-.13.1-.42.44-.46.59.06-.05.12-.1.19-.16-.07.27-.39.57-.63.6,0-.21,0-.43-.01-.64-.01-.37-.04-.74-.03-1.11.01-.56.05-1.13.08-1.69.03-.47.07-.93.09-1.4.01-.25,0-.5,0-.79.14.08.26.14.37.2.02.01.04.04.07.05h0Zm-.08,6.99c.06.11.12.21.19.31-.07-.26-.23-.48-.35-.73.11.07.22.21.38.48.11.18.22.35.33.53.01,0,.03-.02.04-.02-.08-.15-.17-.3-.25-.44,0,0,.01-.01.02-.02.23.26.46.52.69.78,0,0,.01,0,.02-.01-.04-.07-.08-.15-.12-.22,0,0,.01-.01.02-.02.27.19.41.49.65.7-.09-.14-.18-.27-.27-.41,0-.01.02-.02.03-.03.07.05.15.09.2.15.14.14.27.29.4.44.01.01.03.02.06.01-.1-.12-.2-.25-.3-.37,0,0,.01-.01.02-.02.21.09.3.33.53.41-.06-.07-.13-.14-.2-.22.47.1.77.42,1.11.69,0-.01.02-.02.03-.03-.1-.1-.21-.19-.31-.29.15.05.31.05.43.18.11.12.25.2.38.29,0-.01.02-.02.03-.04-.12-.1-.24-.19-.35-.29,0,0,0-.02.01-.03.09.01.17.03.26.04.02,0,.04.01.06.03.11.15.28.2.43.29,0,0,.01-.02.02-.03-.12-.08-.24-.16-.37-.25.36.02.64.2.93.36,0-.01.01-.02.02-.04-.07-.04-.14-.09-.22-.14.03,0,.05-.01.07-.02.06-.02.1-.02.15.04.09.09.23.11.37.08-.11-.04-.21-.07-.32-.11,0,0,0-.02,0-.02.12-.02.24-.05.36-.07.05.09.14.13.25.1-.05-.02-.07-.02-.1-.04-.03-.01-.05-.03-.09-.07.08-.05.15-.09.22-.14.06-.05.14-.1.17-.17.08-.17.2-.28.34-.38.15-.1.3-.19.46-.29.21-.13.42-.26.63-.39.18-.11.37-.2.55-.32.21-.13.41-.3.63-.42.23-.13.42-.32.69-.37.12-.02.23-.07.34-.09.12-.02.19.04.16.16-.04.16-.1.31-.26.39-.03.01-.05.03-.07.06-.06.09-.13.12-.26.1.02-.03.03-.05.04-.07.01-.02.03-.04.05-.07,0,0-.02-.02-.03-.02-.05.05-.1.11-.15.16-.08.09-.12.23-.28.23.04-.09.08-.17.12-.26,0,0-.02,0-.03-.01-.14.13-.19.36-.43.39.05-.1.1-.19.14-.28,0,0-.02-.01-.03-.02-.17.23-.3.49-.62.6.07-.1.12-.17.17-.25,0,0-.01-.01-.02-.02-.19.21-.38.41-.57.62-.01,0-.02-.02-.04-.03.09-.13.17-.26.26-.39,0,0-.02-.02-.03-.02-.03.03-.06.05-.08.08-.09.12-.19.23-.28.35,0,.01-.03.02-.02.03.03.14-.11.1-.17.15.05-.08.1-.16.15-.24,0,0-.02-.01-.02-.02-.2.17-.29.44-.53.62.05-.1.09-.18.13-.26-.01,0-.02-.01-.03-.02-.12.18-.24.35-.37.53,0,0-.02-.01-.03-.02.04-.08.07-.17.11-.25,0,0-.01,0-.02-.01-.03.04-.08.08-.1.13-.06.13-.18.24-.17.4,0,0,0,0,0,0-.06.06-.14.13-.08.2.06.07.16.12.25.15.1.04.22.06.33.07.31.04.62.11.94.11.5,0,.99-.06,1.49-.09.27-.02.54-.03.8-.07.35-.05.71-.09,1.06-.18.4-.11.81-.18,1.22-.25.14-.02.28,0,.42.03.15.03.18.12.07.24-.04.04-.09.09-.15.11-.21.09-.42.19-.66.2-.06,0-.12.04-.19.06,0-.03,0-.06.01-.09-.13.17-.33.18-.51.25.04-.04.08-.07.11-.11-.21.04-.37.23-.6.21.1-.09.2-.19.3-.28,0,0,0,0,0-.01-.12.08-.25.15-.36.24-.12.09-.25.13-.43.1.06-.06.1-.11.14-.16,0,0,0-.01,0-.02-.19.09-.38.18-.58.26,0-.01-.02-.03-.03-.04.06-.06.12-.11.17-.17,0,0,0-.01-.01-.02-.08.05-.16.08-.22.14-.13.13-.3.13-.49.14.1-.06.17-.11.24-.16-.23,0-.37.25-.64.17.11-.06.22-.11.32-.17-.26,0-.45.24-.73.16.11-.05.22-.09.32-.14,0-.01,0-.02-.01-.04-.08.03-.17.05-.25.08-.1.04-.18.1-.28.13-.09.02-.18,0-.27,0,0-.01,0-.02-.01-.03.12-.06.24-.13.36-.19,0,0,0-.02-.01-.02-.22.08-.45.16-.67.24,0-.01-.01-.03-.02-.04.11-.04.22-.08.34-.11,0,0,0-.02,0-.03-.32.05-.63.15-.95.1,0-.01,0-.02,0-.04.12-.03.24-.07.35-.1,0-.01,0-.02-.01-.04-.17.04-.34.05-.49.11-.13.05-.24,0-.37-.02.1-.03.2-.06.29-.08,0-.01,0-.03,0-.04-.16.03-.32.07-.48.1-.03,0-.06,0-.08,0-.37-.07-.74-.12-1.1-.2-.19-.04-.38-.12-.57-.18-.21-.07-.43-.14-.64-.2-.12-.04-.23-.08-.35-.11-.04.1.01.16.07.23.28.32.37.7.41,1.11.03.36,0,.71-.06,1.05-.07.52.05,1.01.16,1.51.02.11.04.22.05.33.01.11-.04.18-.14.22-.1.03-.2,0-.25-.08-.07-.12-.12-.25-.19-.41.06.02.09.03.15.04-.1-.14-.21-.25-.16-.42.05.04.11.08.16.13-.07-.13-.14-.25-.19-.38-.02-.04,0-.09,0-.16.06.05.09.08.13.12.01,0,.02,0,.03-.01-.11-.18-.28-.34-.22-.59.04.03.08.05.11.08-.08-.13-.18-.25-.15-.44.09.07.17.13.26.2-.07-.18-.29-.25-.29-.47.08.08.15.15.22.21,0,0,.01-.01.02-.02-.11-.19-.26-.37-.28-.61.09.08.19.16.28.24,0,0,.01-.01.02-.02-.06-.07-.11-.14-.17-.21-.1-.12-.19-.24-.16-.42.11.1.21.19.32.28,0,0,.01-.01.02-.02-.06-.07-.11-.14-.18-.2-.06-.07-.14-.13-.2-.2-.03-.03-.09-.07-.02-.13,0,0,0-.04,0-.05-.11-.03-.05-.14-.09-.2l.21.13s.01-.01.02-.02c-.16-.18-.32-.36-.48-.53.01-.01.02-.02.03-.03.11.1.22.21.34.31,0,0,.01,0,.02-.01-.03-.05-.07-.1-.1-.15-.06-.07-.14-.13-.17-.21-.05-.1-.1-.09-.16-.03-.14-.13-.27-.26-.41-.39-.17-.16-.38-.28-.6-.36-.25-.09-.47-.25-.68-.4-.11-.08-.23-.14-.34-.21-.38-.23-.75-.47-1.04-.83-.08-.1-.15-.2-.24-.29-.03-.03-.08-.04-.12-.05-.01,0-.03.06-.04.1-.01.04,0,.08-.02.11-.13.33-.26.66-.4.98-.06.14-.14.28-.22.42-.11.2-.22.4-.34.61-.06.11-.13.21-.18.32-.05.11-.07.23-.11.34-.02.06-.12.31-.03.33.04.05.09.1.13.14.03.04.07.08.1.11-.06.1,0,.22.22.37-.05-.09-.08-.15-.11-.21.08.03.17.03.18.16,0,.11.12.18.24.21-.04-.06-.08-.11-.13-.17,0,0,.01-.01.02-.02.08.05.17.09.25.14.07.05.13.13.22.18-.01-.03-.02-.07-.04-.1.27-.01.32.24.47.39,0,0,.02-.01.03-.02-.04-.08-.07-.16-.11-.25.05,0,.09.02.13.02-.01.12.07.2.24.2-.07-.06-.12-.1-.17-.14,0,0,.02-.02.02-.03.06.02.12.05.19.06.1.01.08.1.11.15.04.07.1.13.16.2.01,0,.03-.02.04-.02-.03-.05-.06-.11-.09-.18.04,0,.09-.01.11,0,.16.11.31.22.46.34.03.02.06.08.05.1-.02.03-.07.06-.11.06-.2.04-.38-.04-.57-.1-.41-.15-.77-.41-1.19-.54-.29-.09-.57-.22-.85-.34-.06-.03-.13-.09-.15-.16-.03-.13-.1-.15-.21-.11-.22.46-.14.91.09,1.35.09.17.19.33.28.5.16.3.4.53.7.71.11.07.22.14.33.21.13.08.21.19.27.32.05.1.03.22-.05.28-.1.08-.2.08-.3,0-.08-.07-.15-.15-.22-.23-.39-.43-.78-.87-1.17-1.3-.05-.05-.09-.11-.15-.18.06,0,.09.01.12.02,0,0,0-.01.01-.02-.11-.08-.22-.15-.32-.24-.05-.05-.09-.12-.12-.19-.05-.14-.09-.28-.14-.44.1.09.18.16.27.23,0,0,.02-.02.03-.03-.03-.03-.05-.05-.07-.08-.04-.05-.09-.1-.1-.16-.02-.08-.04-.11-.13-.04l.02-.35c.08.13.14.24.21.34.01,0,.02-.01.03-.02-.1-.15-.11-.35-.23-.49-.01,0-.02,0-.03.01.01-.06.03-.13.04-.22.06.13.11.23.16.34,0,0,.02,0,.03,0-.03-.1-.05-.21-.09-.31-.05-.13-.03-.24.04-.36.04.14.07.28.11.41.01,0,.03,0,.04,0-.01-.06-.02-.11-.03-.17,0-.07-.01-.14-.02-.2,0-.04-.03-.07-.05-.1-.01,0-.03,0-.04,0,.04-.11.08-.21.12-.32,0,0,.02,0,.03,0,.02.13.04.26.06.39.01,0,.03,0,.04,0,0-.03,0-.07,0-.1,0-.09,0-.18,0-.27,0-.01,0-.02,0-.03-.11-.17.08-.25.1-.38.01,0,.02,0,.03,0,.01.12.02.24.04.35,0,0,.01,0,.02,0,0-.02.02-.04.02-.06,0-.16,0-.32,0-.49,0,0,0,0,0-.01.06-.11.12-.21.18-.32.01,0,.02,0,.03.01,0,.14,0,.29,0,.43.01,0,.02,0,.03,0,.02-.13.04-.25.06-.38,0-.06.05-.13-.01-.19-.01-.01.01-.07.03-.11.03-.05.06-.11.11-.15,0,.1,0,.21,0,.31,0,0,.02,0,.03,0,.02-.12.04-.25.07-.37.02-.12.02-.25.14-.34,0,.11.02.2.03.3.01,0,.02,0,.03,0,.03-.19.05-.39.08-.58-.01,0-.02-.02-.04-.02-.09.06-.18.12-.26.19-.31.28-.6.57-.92.85-.13.11-.27.2-.42.29-.37.23-.79.36-1.21.47-.25.07-.51.13-.77.19-.14.03-.3.02-.44.05-.29.06-.58.12-.87.19-.27.06-.54.12-.81.18-.11.03-.21.08-.32.09-.12.01-.21.08-.31.11-.2.07-.39.13-.55.26-.01.01-.02.03-.05.08.08-.04.12-.06.17-.08.05-.02.1-.03.16-.03-.12.1-.25.2-.37.3,0,0,.01.01.02.02.05,0,.09-.01.16-.02-.14.13-.25.23-.36.33,0,0,.01.02.02.03.06-.03.12-.06.19-.09,0,.08-.04.12-.11.14-.09.03-.16.1-.19.2.06-.03.12-.07.19-.11-.03.2-.23.24-.31.39.04-.02.08-.04.13-.06-.05.21-.28.24-.34.42.04-.04.09-.07.13-.11,0,0,.01.01.02.02-.03.03-.05.07-.08.1-.19.21-.34.46-.59.62-.06.04-.13.06-.2.05-.12-.01-.14-.09-.06-.21.14-.2.29-.39.43-.59.2-.3.4-.59.58-.9.07-.12.09-.28.14-.42.02-.07.06-.13.07-.2.01-.11-.45.09-.49.11-.28.12-.51.21-.81.25-.31.04-.62.05-.92.12-.34.08-.68.19-1.01.31-.11.04-.2.13-.29.21-.1.09-.18.12-.28.08-.12-.05-.15-.09-.09-.23.02-.04.04-.08.05-.12.04-.07.26-.22.31-.25.11-.06.71-.33.92-.39-.07.1-.14.2-.2.3.01,0,.03.02.04.03.08-.1.19-.18.25-.29.05-.08.11-.08.19-.1-.05.08-.1.14-.15.2.18-.04.21-.28.43-.25-.03.06-.06.12-.09.18l.02.02c.14-.08.19-.33.42-.27-.04.07-.08.14-.12.21,0,0,.02.01.02.02.14-.09.18-.31.4-.31-.05.07-.09.14-.13.2.01.01.02.03.03.04.16-.26.4-.36.68-.35-.04.06-.08.12-.12.17.01.01.03.02.04.03.05-.07.11-.14.17-.22.06,0,.14-.02.24-.04-.04.07-.08.13-.11.19,0,0,.02.01.02.02.05-.04.11-.08.14-.13.07-.11.17-.13.28-.16.11-.03.22-.08.33-.12.03-.01.06-.05.06-.07,0-.03-.03-.07-.06-.07-.13-.03-.27-.05-.4-.09-.17-.05-.34-.12-.51-.18-.48-.19-.94-.42-1.44-.54-.31-.08-.62-.16-.94-.21-.23-.04-.45,0-.65.12-.11.06-.51.34-.63.39-.08.03-.17.08-.26.09-.1.02-.17-.06-.14-.16.05-.14.11-.27.17-.4.02-.04.07-.07.12-.1.15-.11.27-.28.49-.28,0,0,.01,0,.03,0-.03.04-.06.08-.08.12.15-.07.26-.22.46-.22-.07.07-.13.12-.19.17.21-.05.37-.26.63-.18-.08.04-.16.08-.23.12,0,.01,0,.02.01.03.06-.02.12-.02.17-.05.16-.08.32-.11.49-.04-.09.04-.18.08-.27.12,0,0,0,.01,0,.02.02,0,.05.01.06,0,.08-.05.19-.04.28-.12.04-.04.17.02.26.04,0,.01,0,.02,0,.03-.09.05-.19.09-.31.16.23.02.39-.19.62-.07-.08.04-.15.08-.22.11.18.01.36-.12.55,0-.07.04-.13.09-.2.13.18.01.35-.15.55,0-.07.02-.13.05-.18.07,0,.01,0,.02,0,.03.09,0,.18.01.25-.03.1-.05.17,0,.25.02.03.01.06.03.1.04-.1.03-.19.06-.28.09,0,0,0,.02,0,.03.1,0,.22.01.31-.03.15-.06.26.02.4.07-.09.03-.16.05-.23.08.19.04.38-.06.59.03-.07.03-.12.06-.17.08.21.02.42-.08.62.06-.08.03-.15.07-.23.1,0,.01,0,.02.01.03.12-.03.24-.08.36-.09.07,0,.14.02.21.04,0,0,0,.02,0,.03-.07.03-.14.06-.21.08,0,.01,0,.02,0,.04.24-.06.48-.13.76-.03-.06.03-.11.06-.16.08,0,.02.01.03.02.05.22-.2.49-.12.76-.15-.07.07-.12.13-.17.19,0,0,.01.02.02.03l.45-.29s.01.02.02.03c-.05.05-.1.11-.15.16,0,.01.02.02.02.03.08-.05.18-.08.23-.15.05-.08.11-.08.18-.09.06,0,.12-.01.18-.02-.06.09-.12.17-.18.25.01,0,.02.02.03.03.06-.12.24-.13.28-.29.09,0,.19-.02.3-.03-.09.09-.16.18-.24.26,0,0,.02.02.02.02.19-.1.32-.3.58-.37-.06.08-.1.14-.14.2.01.01.02.02.03.03.08-.07.18-.12.23-.2.07-.12.19-.13.3-.17-.06.08-.13.17-.19.25,0,0,.02.02.03.02.1-.12.25-.18.34-.32.03-.05.13-.07.21-.08-.07.1-.14.2-.2.31,0,0,.02.01.03.02.11-.12.24-.22.32-.39.04-.02.12-.04.2-.07-.03.05-.05.1-.09.17.21-.13.29-.39.55-.4,0,.01-.01.03-.02.06.17-.11.34-.22.51-.32,0,0,.01.02.02.03-.06.08-.11.17-.17.25,0,0,.02.01.02.02.16-.15.31-.31.47-.46.01,0,.02.02.03.03-.03.05-.07.11-.1.16,0,0,.02.01.02.02.15-.16.31-.33.46-.49,0,0,.01,0,.02.01-.05.07-.09.15-.14.22.17-.13.31-.27.39-.48.05-.13.16-.22.25-.34,0,0,.02.01.03.02-.05.09-.1.19-.15.28,0,0,.01.01.02.02.04-.05.08-.09.12-.14.08-.11.28-.51.31-.56.18-.25.36-.5.54-.74.03-.04.18-.48.21-.57.02-.05.04-.09.07-.16.05.02.42,0,.49-.02-.03.04.02.15.03.19.08.44.34.8.56,1.18h0Zm9.12-1.13c.02-.11.04-.22.1-.32.01-.02.21-.13.25-.13.22-.02.37.12.37.34,0,.05,0,.11,0,.16.01.19.12.3.26.41.08.06.39.47.31.56-.08.09-.28.09-.39.09-.2,0-.41.04-.61-.07.05-.1.11-.21.14-.31.02-.07.03-.15.01-.22-.03-.11-.13-.14-.23-.14-.1,0-.21.02-.34.03.04-.08.12-.35.13-.39h0Zm3.15,2.71c.1-.12.2-.24.3-.36.08-.09.18-.05.24.04.12.19.1.41.13.62.03.18.06.35.19.5.08.1.15.22.11.36-.03.13-.19.2-.31.14-.05-.02-.1-.04-.15-.05-.2-.06-.41-.12-.62-.17,0,0-.02-.01-.02-.01.11-.06.23-.12.33-.19.17-.13.21-.24.14-.37-.06-.12-.18-.14-.3-.16-.1-.02-.19,0-.32,0,.09-.11.18-.22.27-.32h0Zm-8.31,4.87c.23.11.43.2.64.3.08.04.15.1.14.2-.01.1-.07.16-.16.18-.13.03-.26.05-.4.05-.21,0-.39.04-.55.17-.17.14-.34.13-.49,0-.01,0-.03-.02-.03-.03.02-.1-.07-.19,0-.29.08-.11.13-.24.19-.36.13.13.29.26.48.16.14-.07.26-.19.18-.4h0Zm-3.3-2.29c.14-.05.26-.06.38.05.11.11.15.23.1.37-.04.13-.1.27-.16.4-.07.15-.14.31-.21.46-.01.03-.05.05-.07.08-.07.09-.13.06-.18,0-.12-.17-.23-.34-.34-.51.1-.02.21-.02.32-.05.13-.04.19-.21.12-.3-.05-.06-.11-.12-.16-.17-.06-.06-.14-.11-.21-.16.15-.05.28-.1.41-.15h0Zm-1.21,1.91c.11-.02.23.12.23.24,0,.19-.04.37-.17.53-.06.07-.06.19-.08.29-.03.14-.15.24-.3.25-.12,0-.23-.07-.29-.23.05,0,.1,0,.13-.02.1-.03.23-.05.28-.12.05-.06.03-.18.02-.28,0-.08-.29-.46-.42-.54.22-.05.41-.09.6-.12h0Zm-8.89.3s0,.05-.02.06c-.13.11-.26.18-.44.13-.19-.06-.37-.11-.56-.17-.01,0-.26.05-.34.07-.11.03-.21,0-.3-.06-.04-.03-.02-.19,0-.23.12-.18.32-.25.49-.36.07-.04.14-.08.21-.12,0,0,.02.01.02.02-.02.05-.04.1-.06.15-.04.1.11.22.19.25.12.04.24-.02.34-.08.04-.02.25-.11.29-.14.05.15.11.31.17.48h0Zm-3.15-1.11c-.03.09-.09.15-.2.1.01-.01-.23-.32-.29-.42-.04-.07-.09-.14-.13-.21-.08-.14-.16-.28-.23-.43-.04-.1.01-.16.14-.16.13,0,.27.02.42.03-.11.18-.21.35-.05.52.13.14.3.17.49.06-.04.12-.08.24-.11.37,0,.04-.02.1-.04.14h0Zm-.94-2.18c-.06.17-.24.27-.36.22-.08-.04-.15-.12-.21-.19-.14-.18-.27-.38-.42-.56-.07-.09-.18-.15-.26-.23-.02-.02-.06-.06-.06-.08,0-.04.04-.08.07-.1.14-.06.29-.08.45-.06.17.02.34.01.52.02-.02.05-.04.12-.06.18-.08.23.03.35.27.31.05,0,.09-.02.16-.03-.03.18-.05.36-.1.51h0Zm11.94-4.83c-.04-.05-.05-.1-.08-.12-.17-.13-.28-.31-.38-.48,0-.01,0-.03-.02-.07.15.11.28.2.41.29,0,0,.01-.01.02-.02-.21-.22-.53-.36-.51-.74.12.15.24.29.36.43.01,0,.02-.01.03-.02-.18-.28-.47-.52-.41-.93.13.18.25.35.37.51.01,0,.02-.01.03-.02,0-.02-.02-.04-.03-.06-.13-.22-.26-.43-.38-.65-.04-.07-.03-.16-.02-.24.17.25.31.51.59.7-.29-.37-.59-.7-.59-1.2.13.21.25.4.36.58.02,0,.03-.02.05-.03-.19-.26-.32-.55-.39-.85.01,0,.02,0,.03-.01.13.21.27.41.4.62,0,0,.02-.01.03-.02-.06-.11-.13-.21-.19-.32-.06-.11-.12-.23-.17-.35-.05-.12-.1-.24-.03-.38.05.12.11.24.16.37.06.12.16.21.27.28,0-.02,0-.03,0-.03-.23-.18-.27-.46-.38-.71-.07-.17-.02-.31.01-.48.14.28.27.56.41.83.02,0,.03-.01.05-.02-.2-.34-.34-.69-.4-1.07.13.23.26.46.38.68.01,0,.02,0,.03-.01,0-.02-.01-.05-.02-.07-.07-.14-.15-.28-.22-.42-.08-.18-.14-.36-.08-.56.09.23.17.45.26.68,0,0,.02,0,.03,0-.04-.13-.07-.26-.11-.38-.04-.13-.07-.27-.11-.4-.04-.14.02-.24.11-.38.08.29.15.57.38.77-.17-.27-.27-.56-.28-.9.17-.15.37-.3.64-.3.14,0,.18.02.17.16-.02.49-.05.98-.08,1.46,0,.14-.01.29-.02.43,0,.34-.02.69-.03,1.03-.01.33-.01.66-.04.99-.04.49-.1.99-.16,1.48,0,.04-.02.08-.04.15-.15-.07-.3-.14-.41-.19h0Zm.16-5.99c-.07-.04-.14-.08-.2-.12-.17-.11-.2-.3-.26-.49.12.11.23.2.33.3-.13-.26-.41-.45-.35-.81.13.17.26.33.38.49,0,0,.02-.01.02-.02-.14-.3-.45-.51-.44-.89.17.25.34.49.51.74,0,0,.01,0,.02,0,0-.03,0-.05-.02-.08-.13-.21-.26-.42-.39-.63-.09-.14-.15-.28-.12-.45.13.17.26.34.39.51,0,0,.02-.01.02-.02-.17-.3-.45-.55-.39-.95.14.25.28.48.42.72.01,0,.03-.01.04-.02-.19-.3-.34-.62-.41-.98.12.17.24.35.36.52,0,0,.02-.01.03-.02-.05-.08-.09-.17-.14-.25-.13-.19-.23-.39-.24-.63,0-.02,0-.04,0-.06,0-.02,0-.03.01-.06.12.2.24.4.36.59h.03c-.15-.35-.41-.66-.35-1.08.14.2.26.38.38.56,0,0,.02-.01.03-.02-.09-.16-.18-.32-.27-.49-.09-.17-.13-.34-.08-.55.1.23.2.43.29.64,0,0,.02,0,.03-.01-.04-.12-.09-.24-.13-.36-.06-.19-.12-.38-.17-.57-.02-.07.02-.15.03-.23.01,0,.02,0,.03,0,.13.28.26.56.39.84.01,0,.02,0,.03,0,0-.04-.02-.07-.03-.11-.09-.23-.19-.46-.28-.7-.07-.17-.04-.26.09-.37.02.31.16.57.37.79-.02-.04-.04-.08-.07-.12-.14-.21-.21-.45-.25-.7,0-.03.03-.07.06-.12.14.29.26.54.38.8h.03c-.04-.11-.08-.2-.11-.29-.06-.18-.12-.36-.17-.54,0-.02.01-.07.03-.08.19-.07.37-.14.56-.2.01,0,.03,0,.03,0-.04.58-.08,1.15-.12,1.72-.02.31-.12,2.48-.1,2.55,0,.02,0,.04,0,.06,0,.42,0,.83-.01,1.25,0,.02,0,.18-.01.2-.02.03-.43-.19-.6-.28h0Zm1.6-12.19c0,.28,0,.54,0,.8,0,.13-.2,1.52-.21,1.72,0,.11-.02.22-.02.33,0,.15,0,.31,0,.46,0,.24-.01.48-.02.72-.01.32-.01.64-.04.96-.02.33-.07.65-.1.98-.01.14-.02.27-.02.41,0,.07-.02.11-.1.1-.09-.01-.06-.07-.05-.11.04-.63.08-1.27.12-1.9.03-.53.06-1.07.09-1.61.02-.29.04-.57.05-.86,0-.35-.02-.7-.03-1.05,0-.22,0-.44-.02-.66,0-.11-.03-.21-.05-.33l.43.03Zm-.85,12.35c0-.44,0-.88,0-1.31,0-.22.03-.43.02-.65-.03-.65.08-1.3.08-1.95,0-.3.04-.61.06-.91,0-.11.01-.22.02-.32.02-.16.04-.32.06-.49.13,0,.15,0,.15.12-.01.44-.02.88-.05,1.31,0,.12-.13,1.46-.14,1.84,0,.34-.03.69-.03,1.03,0,.44.02.88.02,1.33,0,.06,0,.12,0,.18-.2,0-.21,0-.21-.18h0Zm.1,2.66c-.02.39-.05.78-.05,1.17,0,.32.02.64.03.95,0,.17,0,.33,0,.5,0,.24,0,.48.01.73-.15.09-.31.11-.43-.03.02-.04.13-.7.14-.94.01-.23.04-.46.05-.69.02-.26.03-.52.04-.78.01-.36.02-.71.04-1.07.03-.56.06-1.11.09-1.66,0-.15.02-.3.03-.45.15-.03.16-.02.16.13,0,.28,0,.56-.01.83,0,.19-.03.37-.05.56-.02.25-.02.49-.04.74h0Zm1.01-15.99c-.02.11-.04.22-.06.34-.11-.05-.09-.2.06-.34h0Zm-.13.51s.02.01.03.02c-.03.06-.06.12-.09.18-.02-.01-.04-.02-.05-.03.04-.05.07-.11.11-.16h0Zm-1.7,6.5s.07.03.1.05c0,0,.02-.01.03-.02-.24-.21-.45-.44-.44-.8.12.15.23.28.34.41,0,0,.02-.01.03-.02-.2-.28-.45-.53-.41-.94.15.22.29.42.43.62,0,0,.02-.01.03-.02-.18-.33-.45-.62-.47-1.04.12.16.22.3.32.44.01,0,.02,0,.03-.01-.2-.31-.41-.61-.34-1.01.12.2.23.39.35.59.01,0,.03-.01.04-.02-.21-.33-.39-.67-.37-1.07.1.17.19.34.29.51l.03-.02c-.16-.3-.35-.59-.3-.96l.39.78s.03-.01.04-.02c-.22-.37-.37-.76-.44-1.18,0,0,.02,0,.03-.01.11.19.22.38.32.57.01,0,.03-.01.04-.02-.15-.28-.36-.55-.26-.91.11.22.21.43.31.65.01,0,.02,0,.03-.01-.07-.15-.14-.31-.2-.46-.06-.15-.1-.3-.16-.48.02-.04.06-.12.1-.2.12.27.24.54.35.81.01,0,.03-.01.04-.02-.02-.04-.03-.09-.05-.13-.14-.29-.24-.59-.3-.9,0-.04,0-.08.02-.14.11.26.21.49.31.72.01,0,.02,0,.04-.01-.07-.18-.15-.35-.21-.53-.06-.18-.1-.37-.04-.56.1.22.19.44.29.66,0,0,.02,0,.03-.01-.05-.15-.11-.31-.16-.46-.03-.1-.08-.21-.07-.31,0-.08.06-.16.1-.26.12.37.23.72.34,1.06.01,0,.03,0,.04,0,0-.02,0-.05-.01-.07-.07-.23-.14-.47-.21-.7-.1-.3-.06-.4.23-.53.08-.04.17-.06.26-.08.09-.02.13.02.13.11.02.48.07.95.07,1.43,0,.56-.04,1.12-.07,1.68-.02.45-.04.91-.07,1.36-.02.33-.05.65-.07.98-.02.28-.03.56-.04.84,0,.04,0,.07,0,.13-.32-.08-.62-.18-.84-.44h0Zm18.11-18.96c-.3-.01-.59-.01-.89-.02-.21,0-.43-.02-.64-.04-.15-.01-.31-.02-.45-.08-.24-.1-.47-.23-.7-.35-.1-.06-.2-.15-.31-.18-.23-.05-.47-.08-.71-.08-.58,0-1.11.2-1.65.38-.41.14-.83.3-1.24.45.02-.1.06-.18.09-.26.07-.27.14-.55.19-.82.08-.39.26-.7.61-.91.31-.19.63-.37.93-.59.45-.33.85-.72,1.15-1.2.01-.02,0-.07-.01-.1,0-.01-.07,0-.09.01-.12.08-.22.18-.35.25-.53.3-1.05.61-1.54.97-.16.12-.35.21-.52.31-.26.15-.46.36-.63.6-.14.19-.23.39-.3.6-.11.3-.19.6-.37.87-.1.16-.22.29-.34.43-.16.18-.37.31-.58.41-.38.18-.79.28-1.2.36-.27.05-.55.11-.82.15-.23.03-.45.05-.68.07-.25.01-.51.04-.76.01-.28-.03-.56-.1-.84-.08-.02,0-.03-.01-.05-.02-.05-.01-.09-.03-.14-.03-.15,0-.32.02-.46-.03-.26-.09-.5-.23-.74-.35-.09-.04-.18-.08-.26-.13-.36-.23-.55-.6-.7-.98-.19-.48-.29-.99-.36-1.51-.04-.26-.05-.52,0-.78.05-.3.08-.6.14-.9.03-.18.08-.37.13-.55.08-.28.26-.51.42-.74.06-.08.11-.16.19-.22.33-.27.7-.46,1.09-.63.38-.16.77-.32,1.15-.48.25-.11.5-.23.75-.33.15-.06.31-.11.46-.18.35-.19.67-.43.85-.8.05-.11.08-.23.11-.35,0-.03-.21.06-.26.09-.25.18-.49.35-.75.51-.22.14-.46.26-.69.38-.39.2-.82.23-1.24.32-.26.05-.53.08-.79.14-.19.05-.38.14-.57.22-.26.11-.54.19-.75.43,0-.05-.01-.08,0-.1.09-.29.16-.58.28-.85.17-.39.48-.68.74-1,.21-.26.42-.52.51-.85.05-.19.3-.85.17-.95-.03.05-.52.77-.73,1-.15.17-.33.31-.51.45-.36.29-.73.56-.96.97-.12.22-.27.43-.36.66-.1.24-.16.51-.25.78-.03-.07-.06-.12-.07-.17-.04-.21-.17-.36-.29-.52-.12-.15-.24-.29-.39-.42-.14-.12-.32-.2-.46-.32-.25-.21-.46-.44-.67-.69-.3-.37-.55-.92-.55-1.4,0-.03-.02-.4-.02-.4-.02,0-.21.64-.21.73,0,.19.01.39.04.58.04.22.1.43.16.64.06.19.11.39.26.54.03.03.08.06.11.09.1.11.2.23.31.34.25.23.52.43.77.67.15.14.27.32.39.49.07.1.11.22.15.33.09.21.21.42.25.65.1.56.14,1.13.1,1.7-.03.42-.05.84-.15,1.25-.04.16-.05.52-.05.53-.05.1-.1.21-.15.31-.05.1-.1.2-.15.3-.06.11-.13.21-.2.31-.02.03-.05.04-.08.07-.07.07-.13.15-.21.21-.15.11-.31.2-.47.3-.27.16-.55.23-.86.17-.42-.09-.84-.17-1.25-.27-.35-.08-.69-.17-1.03-.28-.42-.13-.83-.29-1.25-.43-.44-.15-.89-.3-1.33-.47-.44-.17-.88-.34-1.31-.53-.36-.16-.71-.35-1.06-.53-.16-.08-.3-.21-.46-.28-.31-.14-.57-.35-.82-.58-.21-.19-.41-.4-.62-.59-.2-.19-.4-.37-.6-.56-.21-.2-.43-.4-.73-.45-.26-.04-.51-.07-.77-.11-.33-.04-.66-.09-.99-.13-.08-.01-.11.02-.12.09.06.02.12.04.17.06.27.14.55.28.82.43.26.15.52.29.73.51.31.33.62.64.94.96.24.24.49.47.74.7.02.02.04.04.05.06-.03-.03-.29-.02-.34-.03-.15-.02-.3-.05-.45-.06-.3-.02-.61,0-.87.17-.26.17-.52.35-.77.53-.16.12-.32.24-.43.42-.07.11-.14.23-.24.32-.27.27-.58.47-.96.56-.17.04-.33.09-.49.13-.07.02-.11.18-.02.18.32.01.64.02.96.03.09,0,.19.04.26.02.28-.09.58-.17.84-.32.3-.18.56-.43.83-.64.09-.07.17-.13.27-.18.49-.24,1.01-.2,1.53-.15.32.03.64.08.95.13.23.04.47.07.69.13.23.06.45.15.68.22.49.16.98.29,1.46.47.49.17.97.36,1.45.57.47.21.93.45,1.38.7.18.1.33.25.5.38.14.11.29.21.37.38,0,.01.02.02.03.02.05.03.12.05.15.1.07.11.13.22.19.34.14.28.13.55,0,.84-.16.32-.45.5-.68.74-.13.13-.31.21-.48.29-.31.16-.62.3-.93.44-.27.12-.53.24-.81.33-.26.09-.54.16-.81.22-.27.07-.54.13-.81.18-.16.03-.32.03-.48.06-.61.11-1.22.21-1.84.25-.52.03-1.03.06-1.54,0-.18-.02-.37-.05-.55-.1-.35-.08-.67-.22-.98-.39-.35-.19-.67-.42-.94-.7-.23-.25-.44-.52-.59-.83-.07-.15-.18-.29-.25-.45-.17-.37-.34-.74-.43-1.15-.01-.05-.02-.14-.12-.12-.01.14.02.27-.02.41-.04.16-.03.33-.03.49,0,.15,0,.31.03.46.06.3.13.59.21.88.1.35.19.7.44.98.18.2.34.43.52.64.06.08.15.14.23.22-.34.17-.58.44-.76.74-.18.31-.34.65-.43.99-.15.54-.33,1.07-.33,1.64,0,.23-.04.47-.04.7,0,.11.06.22.09.33,0,0,.01,0,.03,0,.04-.07.09-.15.13-.23.03-.06.03-.12.05-.18.12-.3.24-.6.37-.89.26-.56.5-1.12.93-1.59.24-.26.53-.43.87-.5.32-.07.65-.09.98-.13.46-.05.92-.09,1.39-.14.2-.02.41-.04.61-.07,0,.02-.01.03-.03.03-.42.21-.82.46-1.2.75-.29.22-.56.44-.74.76-.15.27-.29.55-.45.82-.16.28-.3.56-.38.87-.07.26-.12.51-.18.77-.05.26-.1.51-.14.77-.04.24-.06.47-.09.71,0,.02.02.06.03.07.03,0,.07,0,.1-.01.02-.02.03-.06.04-.1.07-.18.13-.36.21-.54.06-.14.15-.28.21-.42.18-.43.33-.87.57-1.28.35-.59.72-1.15,1.23-1.6.31-.27.62-.55.98-.75.3-.17.6-.33.92-.46.62-.25,1.25-.47,1.88-.7.31-.11.64-.19.96-.28.3-.08.61-.14.92-.21.21-.05.43-.12.64-.14.41-.04.82-.08,1.21.1.34.15.6.38.76.72.09.2.15.4.08.62-.05.18-.11.35-.17.52-.11.29-.24.57-.44.81-.19.23-.36.48-.55.71-.13.15-.27.3-.43.43-.29.23-.6.45-.9.67-.33.24-.69.44-1.07.59-.4.16-.82.23-1.25.31-.16.03-.32.04-.48.07-.25.04-.49.1-.74.12-.22.02-.45,0-.67.01-.29,0-.57.02-.86,0-.33-.01-.66.02-.97.14-.2.08-.4.17-.58.29-.15.1-.27.24-.4.38-.16.17-.32.36-.47.54-.02.02-.03.09-.01.1.03.02.07.02.11.03.02,0,.03-.02.05-.02.24-.12.47-.26.72-.35.53-.21,1.08-.33,1.66-.31.42.02.85.07,1.27.11.25.02.51.04.76-.03.07-.02.15-.04.26-.06-.08.22-.15.42-.23.6-.1.22-.22.44-.33.66-.1.2-.22.39-.3.59-.13.3-.15.63-.18.96-.03.32,0,.64.05.95,0,.03.05.08.08.08.05,0,.13-.01.15-.05.03-.07.04-.16.05-.24.02-.16.02-.33.06-.48.09-.39.43-1.33.47-1.42.07-.14.14-.29.23-.42.13-.18.27-.35.42-.51.18-.18.37-.34.56-.52.3-.29.61-.55.96-.77.28-.18.56-.35.83-.54.16-.11.31-.24.47-.36.09-.07.19-.14.28-.2.13-.09.26-.18.39-.27.21-.15.41-.32.63-.46.21-.14.45-.25.67-.37.03-.02.06-.04.09-.04.28-.04.56-.09.84,0,.08.03.15.07.21.12.18.16.25.39.33.6.07.18.11.38.16.57.04.15.09.31.11.47.02.13.01.26.02.39.02.24.04.48.05.73,0,.03-.03.08-.04.08-.25-.02-.46.09-.62.24-.15.14-.3.31-.37.5-.14.4-.26.81-.33,1.22-.07.42-.08.86-.09,1.29-.02.66-.02,1.31-.02,1.97,0,.22-.02.44.06.65.11.27.27.51.52.66.16.09.32.16.48.24-.45.16-.63.19-.82.47-.12.18-.23.36-.25.58,0,.12-.03.24-.04.36-.03.29-.06.59-.08.88-.02.23,0,.47-.04.7-.08.56-.09,1.12-.02,1.69,0,.08-.01.17,0,.25.02.14.05.28.08.41.01.06.04.12.08.16.18.16.4.27.62.37.04.02.07.07.1.1-.2.13-.44.13-.58.34-.14.2-.24.41-.29.65-.04.2-.11.39-.16.58,0,.03-.02.07-.03.1-.02.21-.05.43-.07.64-.03.38-.06.75-.06,1.13,0,.35.02.71.05,1.06.02.24.06.48.11.72.05.22.21.36.39.47.18.1.37.18.56.28-.02.07-.04.15-.06.23-.08.4-.32.73-.56,1.04-.21.29-.46.55-.69.82-.11.13-.23.27-.37.36-.32.2-.65.38-.99.54-.36.18-.73.33-1.1.48-.21.09-.43.18-.66.22-.37.07-.74.11-1.11.15-.33.04-.67.09-1,.05-.19-.02-.38-.04-.56-.08-.2-.04-.39-.11-.58-.18-.24-.08-.49-.16-.73-.25-.2-.07-.4-.16-.61-.23-.29-.1-.59-.16-.87-.28-.33-.14-.67-.18-1.02-.2-.23-.02-.47.04-.7.06-.34.03-.6.22-.81.47-.14.17-.31.22-.51.2-.21-.02-.42-.06-.62.01-.21.07-.25.3-.1.41.1.08.19.17.27.26.18.21.36.44.53.66.1.13.24.13.38.09.14-.03.26-.1.3-.25.03-.14.04-.28.06-.42.02-.12.02-.24.14-.31.18-.11.35-.24.53-.34.21-.11.43-.16.66-.11.24.06.48.11.72.16.54.1,1.02.37,1.52.57.16.06.32.12.49.18.09.03.18.04.27.07-.14.06-.28.11-.42.14-.21.04-.43.07-.64.11-.29.06-.58.14-.87.2-.37.08-.75.14-1.12.23-.17.04-.34.1-.48.2-.22.15-.44.23-.7.17-.12-.03-.25-.03-.35.09-.1.12-.09.25-.03.37.04.08.09.14.15.21.08.1.19.19.25.31.07.14.13.28.24.41.07.08.21.15.31.12.13-.03.26-.16.27-.27.02-.11.02-.22.05-.32.05-.2.12-.37.32-.47.08-.04.17-.07.25-.1.48-.17.98-.23,1.48-.29.4-.05.78-.13,1.1-.38.01,0,.03-.01.06-.02-.02.05-.04.08-.04.11.04.21-.09.36-.17.53-.06.12-.15.22-.22.33-.19.29-.39.57-.65.81-.02.02-.05.05-.08.06-.3.13-.58.29-.83.5-.09.07-.17.31-.12.4.07.14.3.24.45.18.21-.08.43-.08.63.03.04.02.08.03.12.04.23.07.44.07.64-.08.1-.08.12-.14.07-.26-.04-.1-.09-.2-.11-.31-.02-.07-.02-.38,0-.39.13-.17.26-.33.38-.51.07-.1.13-.21.19-.32.08-.13.16-.27.23-.41.05-.1.08-.2.13-.3.14-.25.39-.39.6-.57.06-.05.13-.09.21-.11.23-.07.47-.12.71-.18.3-.07.6-.14.9-.2.13-.03.27-.03.41-.05.22-.03.44-.07.66-.12.31-.07.62-.15.92-.25.28-.09.56-.2.81-.37.31-.21.59-.46.85-.73.06-.06.13-.12.19-.18-.07.16-.16.3-.25.45-.18.32-.35.64-.52.96-.09.17-.16.34-.22.52-.08.23-.18.46-.16.71.02.2.04.41.1.6.06.18.13.38.25.53.26.33.55.64.82.96.17.2.7.87.76.95.09.1.16.22.25.33.12.15.29.18.45.13.16-.05.29-.16.3-.37,0-.1.07-.2.11-.3.03-.07.08-.15.1-.22.02-.08.05-.2.04-.32,0-.18-.21-.35-.37-.33-.16.02-.32.04-.47.09-.17.06-.32,0-.46-.07-.14-.08-.28-.19-.38-.32-.13-.16-.22-.36-.35-.53-.2-.28-.31-.58-.36-.91-.02-.15,0-.31.08-.45.07.08.13.16.2.21.14.08.3.14.45.2.15.06.3.12.46.17.27.08.51.2.75.33.26.13.5.29.73.47.03.03.06.06.09.1.08.13.16.27.24.4.02.03.05.07.08.08.17.06.36-.04.43-.22.12-.29.21-.59.38-.86.1-.15.09-.33.03-.49-.02-.05-.09-.12-.15-.13-.21-.03-.42-.03-.63.05-.13.05-.26.07-.39.11-.04,0-.07.02-.12.03-.01-.01-.02-.04-.04-.04-.08-.03-.17-.06-.26-.09-.33-.1-.67-.19-.99-.32-.28-.12-.54-.29-.72-.55-.05-.08-.11-.19-.1-.27.04-.2.1-.39.19-.57.17-.34.38-.67.55-1.01.17-.35.3-.72.45-1.08.01-.03.03-.06.04-.08.15.15.3.3.45.44.09.09.19.18.29.25.15.11.31.22.47.32.3.19.6.39.91.56.24.13.51.21.73.4.24.2.45.43.58.71.11.24.19.5.24.76.05.25.04.52.07.78.04.37.11.74.13,1.12.02.31.06.61.12.91.01.06.01.14-.01.2-.06.14-.16.26-.21.4-.03.09-.05.2-.02.29.1.31.48.41.74.2.05-.04.1-.09.16-.12.04-.02.09-.04.13-.03.18.04.37.05.54-.03.15-.07.33-.11.36-.32.02-.12,0-.23-.1-.29-.15-.09-.31-.16-.45-.25-.13-.09-.28-.18-.37-.3-.08-.11-.1-.26-.13-.4-.09-.39-.11-.78-.06-1.18.04-.29.09-.58.06-.88-.04-.33-.05-.67-.22-.98-.04-.07-.08-.14-.14-.23.2.06.39.1.57.17.41.15.82.3,1.26.34.41.04.82.12,1.23.18.29.04.57.09.86.1.29.02.57.04.87.02.46-.03.91-.05,1.37-.11.54-.07,1.09-.12,1.62-.28.08-.02.16-.04.24-.07.15-.05.3-.12.46-.08.16.03.32.09.47.15.22.09.42.2.67.14.14-.03.28-.08.33-.26.06-.21,0-.39-.09-.57-.07-.14-.15-.28-.19-.43-.03-.11-.01-.24-.01-.37,0-.21-.2-.42-.38-.42-.21,0-.34.16-.44.3-.11.15-.19.32-.34.43-.15.11-.3.23-.5.26-.2.03-.39.08-.58.13-.38.11-.76.17-1.16.21-.29.03-.58.05-.87.08-.24.02-.48.06-.72.08-.17.01-.35.02-.52.02-.12,0-.23,0-.35,0-.19-.02-.37-.04-.56-.07-.23-.04-.46-.07-.68-.18.02-.02.02-.04.04-.05.2-.26.43-.49.7-.69.27-.19.53-.38.8-.57.11-.07.24-.12.33-.2.16-.14.35-.21.54-.29.21-.09.43-.17.65-.25.09-.04.17-.09.26-.12.12-.05.24,0,.36.04.25.07.51.1.75-.02.05-.02.09-.07.12-.12.08-.12.02-.24,0-.36,0-.05-.18-.31-.27-.38-.13-.09-.19-.22-.24-.37-.06-.17-.1-.35-.2-.49-.14-.2-.25-.28-.44-.22-.15.05-.28.16-.33.32-.05.16-.08.32-.13.48-.03.1-.24.4-.29.42-.04.02-.08.04-.11.06-.25.16-.49.34-.74.49-.36.23-.72.45-1.08.67-.06.04-.12.07-.18.11-.23.14-.47.27-.69.42-.1.07-.19.17-.27.28-.21.31-.51.44-.86.42-.28-.02-.56-.08-.85-.13-.18-.03-.37-.04-.54-.1-.3-.1-.59-.22-.87-.36-.38-.19-.76-.38-1.13-.6-.34-.2-.65-.45-.92-.74-.06-.06-.11-.14-.16-.2-.18-.21-.36-.41-.53-.62-.11-.14-.11-.32-.15-.48-.02-.07.01-.09.07-.12.12-.06.25-.1.33-.2.23-.27.48-.52.57-.89.13-.51.23-1.01.22-1.54,0-.27.01-.54.02-.82.01-.54,0-1.09-.18-1.61-.06-.17-.08-.36-.28-.45-.07-.03-.11-.1-.18-.15-.13-.09-.12-.14.02-.21.08-.04.16-.07.24-.11.02-.01.04-.03.06-.05.26-.38.41-.82.49-1.27.08-.42.13-.84.18-1.27.04-.34.06-.68.02-1.02-.05-.37-.06-.74-.09-1.12-.02-.32-.08-.62-.26-.89-.02-.03-.05-.07-.09-.08-.16-.07-.32-.12-.5-.19.16-.1.29-.18.42-.27.19-.13.38-.29.45-.51.08-.22.11-.46.15-.7.02-.12.02-.25.03-.37.03-.6.06-1.2.09-1.8.01-.29.04-.57.04-.86,0-.2,0-.4-.01-.59-.01-.3-.03-.6-.15-.88-.12-.29-.31-.5-.59-.64-.08-.04-.17-.05-.25-.07.01-.1.02-.18.03-.26.04-.21.08-.41.12-.62.05-.23.08-.47.15-.7.14-.46.29-.92.45-1.38.04-.11.07-.24.15-.32.12-.12.28-.22.42-.31.21-.14.43-.25.68-.26.17-.01.35,0,.53.02.23.03.46.06.67.15.42.18.83.37,1.23.6.35.2.67.45.99.7.28.22.55.45.83.69.25.21.51.41.73.64.28.29.54.59.79.91.18.23.34.48.47.74.21.44.23.93.2,1.41-.03.46-.11.92-.19,1.38-.09.61-.31,1.17-.68,1.68-.13.18-.24.36-.36.54-.02.03-.02.08-.03.12,0,.02.01.04.03.05,0,0,.03,0,.04-.02.05-.06.1-.13.15-.2.12-.14.25-.28.38-.42.02-.02.04-.03.06-.04.04-.03.08-.05.1-.08.02-.03.03-.07.05-.1.26-.36.51-.72.79-1.07.14-.17.21-.37.32-.56.08-.15.13-.33.21-.49.13-.28.19-.59.19-.89,0-.37-.04-.75-.16-1.11,0-.02,0-.05,0-.1.15.08.32.11.44.24.09.1.21.18.33.25.22.12.39.3.52.51.19.29.35.61.52.91.23.39.36.81.49,1.23.07.23.14.46.21.69.07.24.13.49.18.74.02.09,0,.18.02.27,0,.04.05.12.07.11.05,0,.11-.04.14-.08.02-.02.01-.08,0-.12,0-.06-.03-.11-.02-.17,0-.14.04-.27.03-.41,0-.18-.04-.35-.05-.53-.02-.17,0-.34-.04-.51-.06-.28-.13-.56-.23-.83-.14-.41-.3-.81-.54-1.18-.16-.24-.31-.48-.48-.72-.17-.23-.34-.47-.59-.62-.11-.07-.22-.13-.34-.2.24-.02.46-.05.67-.07.37-.04.73-.08,1.07-.24.4-.19.8-.37,1.19-.58.21-.11.41-.26.6-.41.21-.16.42-.33.62-.51.2-.18.37-.38.56-.58.02-.02.01-.08,0-.09-.03-.02-.08-.03-.11-.02-.25.16-.49.33-.75.48-.22.13-.46.25-.7.35-.32.14-.64.28-.96.41-.26.1-.53.2-.8.28-.37.1-.75.05-1.12.02-.26-.02-.52-.11-.76-.22-.24-.11-.48-.2-.72-.31-.16-.07-.3-.17-.45-.25-.5-.27-1-.55-1.44-.91-.35-.28-.71-.56-1.05-.86-.4-.36-.79-.73-1.17-1.11-.2-.2-.39-.43-.56-.67-.13-.18-.2-.39-.32-.58-.28-.46-.44-.96-.51-1.49-.06-.45-.06-.9,0-1.36,0-.04,0-.08.03-.11.16-.28.28-.58.53-.81.13-.12.26-.24.4-.35.23-.18.48-.29.75-.39.67-.25,1.34-.5,2-.77.5-.2,1.01-.33,1.54-.4.69-.09,1.28.13,1.79.59.22.2.43.42.64.64.15.16.29.34.44.5.08.09.15.18.25.24.14.08.28.16.36.3.01.02.03.04.05.04.18.04.3.18.44.28.17.12.33.25.54.29.18.04.37.06.56.09.13.02.26.05.39.06.03,0,.07-.03.11-.05-.02-.02-.04-.06-.07-.07-.22-.09-.45-.17-.63-.33-.06-.05-.13-.08-.19-.13-.28-.2-.57-.39-.85-.59-.08-.06-.17-.12-.21-.2-.17-.31-.28-.64-.34-.99-.06-.37-.18-.72-.37-1.05-.14-.23-.34-.39-.6-.47-.1-.03-.2-.06-.32-.09.42-.19.85-.27,1.29-.28.47,0,.95.03,1.42.05.46.02.93.05,1.39.05.32,0,.64-.04.96-.05.17,0,.31-.12.47-.15.09-.02.17-.04.26-.08.03-.01.05-.06.08-.1-.04-.02-.08-.05-.12-.05h0Z"/></g></g><path id="Fill-4" class="cls-2" d="m16.56,19.73s0,0,0,0"/><path id="Fill-6" class="cls-2" d="m13.38,45.84c.01.13.02.25.04.4-.06-.14-.11-.27-.15-.4-.01-.04,0-.11.01-.16.03.05.07.11.1.16"/><path id="Fill-8" class="cls-2" d="m16.39,12.16c-.1-.03-.2-.07-.29-.07-.08,0-.18.02-.25.06-.15.09-.29.2-.4.36-.15.2-.25.4-.29.64-.05.29-.08.58-.05.88.02.24.1.45.25.64.08.1.15.2.24.3.09.11.21.14.34.13.09,0,.19-.03.28-.04.08-.01.16-.02.23-.05.31-.12.54-.34.7-.62.07-.12.08-.26.14-.38.13-.24.13-.48.1-.73-.04-.3-.19-.56-.39-.78-.13-.14-.28-.27-.49-.3-.14.33-.34.63-.57.92.18-.29.37-.59.46-.94m-1.43,1.45c.01-.35.08-.7.24-1.01.12-.23.31-.43.55-.56.17-.09.34-.11.53-.07.26.05.51.12.7.3.4.39.67.84.54,1.42-.05.23-.1.47-.2.68-.17.34-.44.6-.8.76-.25.11-.5.17-.77.09-.08-.02-.17-.06-.21-.11-.16-.21-.33-.42-.46-.65-.15-.26-.12-.56-.11-.85"/><path id="Fill-10" class="cls-2" d="m19.85,10.86s-.04.06-.06.07c-.3.13-.61.25-.91.37-.05.02-.11.02-.16,0,.37-.16.74-.31,1.11-.47,0,0,.02.02.03.03"/><path id="Fill-12" class="cls-2" d="m12.87,10.49c.23-.01.47-.02.7-.04.11,0,.22-.03.32-.03.03,0,.05.02.08.03-.02.03-.05.09-.07.09-.21.01-.41.02-.62.02-.14,0-.28-.02-.42-.03,0-.01,0-.02,0-.03"/><path id="Fill-14" class="cls-2" d="m20.67,11s-.03.06-.05.07c-.28.14-.56.27-.84.4,0,0-.02,0-.06-.01.33-.17.63-.32.93-.48,0,0,.02.01.03.02"/><path id="Fill-16" class="cls-2" d="m19.54,11.41c.23-.09.46-.18.69-.27.02,0,.05.01.07.02-.02.02-.04.05-.06.06-.2.08-.41.15-.61.23-.02,0-.05,0-.08,0,0-.02,0-.03,0-.05"/><path id="Fill-18" class="cls-2" d="m16.03,4.39c.09.25.17.5.26.74,0,0-.02,0-.02,0-.1-.24-.2-.48-.29-.71,0,0,.02-.02.03-.04h.03"/><path id="Fill-20" class="cls-2" d="m9.42,9.69c.24-.03.48-.06.74-.09-.02.03-.04.07-.06.07-.23.02-.46.04-.68.06,0-.01,0-.03,0-.04"/><path id="Fill-22" class="cls-2" d="m21.02,11.35c.09-.1.19-.2.28-.29.08-.07.16-.14.24-.2.02-.01.04,0,.06,0,0,.03-.01.06-.02.07-.17.15-.35.29-.53.44,0,0-.02,0-.02,0,0,0,0-.02-.01-.02"/><path id="Fill-24" class="cls-2" d="m13.4,17.3c.02.24-.02.49-.04.73,0,0,0,0,0,0l.05-.73Z"/><path id="Fill-26" class="cls-2" d="m18.36,11.06c.24-.04.49-.11.74-.1,0,.02,0,.04,0,.06-.25.03-.49.05-.74.08,0-.01,0-.02,0-.03"/><path id="Fill-28" class="cls-2" d="m22.04,11.15c.06-.04.12-.09.18-.13.11-.06.22-.13.33-.19.01,0,.04,0,.06,0,0,.02-.01.04-.03.05-.17.09-.34.18-.5.28,0,0-.02,0-.03,0,0,0,0-.01-.01-.02"/><path id="Fill-30" class="cls-2" d="m23.93,10.59c-.18.1-.36.19-.57.3.1-.13.45-.33.55-.33,0,0,.01.02.02.03"/><path id="Fill-32" class="cls-2" d="m9.5,15.22c-.2.16-.39.31-.59.47-.01-.01.35-.36.54-.52.01.02.03.03.04.05"/><path id="Fill-34" class="cls-2" d="m8.87,21.59c.02-.12.19-.27.36-.34.01,0,.02.01.03.02-.13.11-.25.21-.39.33"/><path id="Fill-36" class="cls-2" d="m24.01,10.66c.14-.12.26-.23.39-.34.04.09-.2.32-.39.34"/><path id="Fill-38" class="cls-2" d="m24.65,9.89s.08,0,.06.04c-.05.11-.12.21-.2.31.05-.12.1-.23.15-.35,0,0,0,0,0,0"/><path id="Fill-40" class="cls-2" d="m18.34,44.38c-.13-.12-.23-.23-.34-.34,0,0,0-.04,0-.05.01,0,.04,0,.04,0,.1.11.2.22.3.33,0,0,0,.01,0,.06"/><path id="Fill-42" class="cls-2" d="m12.66,47.39c-.11-.05-.21-.11-.32-.16-.01,0-.01-.03,0-.03.02,0,.05-.01.06,0,.1.06.19.12.29.18-.01,0-.02.02-.03.02"/><path id="Fill-44" class="cls-2" d="m5.31,46.02c.05-.05.1-.1.15-.15.01,0,.03.01.04.02-.05.05-.1.1-.15.15-.02,0-.03-.02-.05-.03"/><path id="Fill-46" class="cls-2" d="m16.04,28.45c.2-.23.39-.45.6-.7-.01.06,0,.11-.03.14-.17.19-.35.37-.53.55,0,0-.02,0-.04,0"/><path id="Fill-48" class="cls-2" d="m15.91,34.25c.14-.24.27-.47.41-.71.06.14-.18.55-.41.71"/><path id="Fill-50" class="cls-2" d="m16.21,29.85c.05.07-.21.54-.41.71.14-.24.28-.47.41-.71"/><path id="Fill-52" class="cls-2" d="m14.24,36.35c-.09-.23-.18-.46-.27-.69,0-.02.02-.04.04-.06.02.02.06.04.07.06.04.13.06.26.1.39.03.1.08.19.11.29-.02,0-.03,0-.05.01"/><path id="Fill-54" class="cls-2" d="m16.39,14.16c.06-.08.12-.15.17-.23.12-.18.22-.36.34-.54.02-.04.07-.06.1-.09-.01.04-.02.09-.04.12-.1.16-.19.32-.3.47-.07.1-.16.19-.24.28-.01,0-.02-.02-.04-.03"/><path id="Fill-56" class="cls-2" d="m17.16,13.69c.06.13-.37.76-.61.88.21-.31.41-.59.61-.88"/><path id="Fill-58" class="cls-2" d="m16.32,13.9c.25-.32.44-.67.58-1.07.01,0,.02,0,.03,0,0,.03.01.06,0,.09-.15.35-.32.69-.59.95,0,0-.02.01-.03.02"/><path id="Fill-60" class="cls-2" d="m16.96,12.66c0,.05,0,.11-.02.15-.14.35-.33.65-.6.9.22-.33.48-.65.58-1.07.02,0,.03,0,.05,0"/><path id="Fill-62" class="cls-2" d="m15.99,13.31c.08-.13.18-.26.25-.4.11-.2.26-.37.29-.6,0-.02.03-.03.04-.04.01.02.04.04.04.06,0,.04-.02.09-.04.13-.17.28-.34.56-.52.84-.01.02-.03.03-.04.04,0,0-.01-.01-.02-.02"/><path id="Fill-64" class="cls-2" d="m16.26,13.44c.19-.29.39-.57.6-.88,0,.04.02.07,0,.1-.14.29-.35.54-.59.78,0,0-.02,0-.02,0"/><path id="Fill-66" class="cls-2" d="m16.56,14.38c.15-.22.3-.44.45-.66.04-.06.07-.13.1-.19,0-.01.03-.02.05-.02,0,.02.02.05,0,.07-.16.31-.37.58-.61.81"/><path id="Fill-68" class="cls-2" d="m15.94,12.68c.04-.09.09-.19.12-.28.03-.09.04-.18.08-.26.05.22-.05.39-.2.54"/></g></g></g></g></svg>