<svg id="Livello_2" xmlns="http://www.w3.org/2000/svg" viewBox="0 0 51.62 43.23"><defs><mask id="mask" x="20.01" y="34.65" width="12.32" height="8.57" maskUnits="userSpaceOnUse"><g id="mask-2"><path id="path-1" class="cls-1" d="M20.01 34.65h12.32v8.58H20.01v-8.58z"/></g></mask><mask id="mask-1" x="0" y="17.86" width="13.22" height="8.22" maskUnits="userSpaceOnUse"><g id="mask-4"><path id="path-3" class="cls-1" d="M0 17.86h13.22v8.22H0v-8.22z"/></g></mask><mask id="mask-2-2" x="39.3" y="16.79" width="12.32" height="6.97" maskUnits="userSpaceOnUse"><g id="mask-6"><path id="path-5" class="cls-1" d="M39.3 16.79h12.32v6.97H39.3v-6.97z"/></g></mask><style>.cls-1,.cls-2{fill:#fff;fill-rule:evenodd}.cls-2{fill:#3c3}</style></defs><g id="Livello_1-2"><g id="Page-1" style="opacity:.76"><g id="D_04_SCIENTIFIC_LIBRARY_V2"><g id="Group-116"><g style="mask:url(#mask)" id="Group-3"><path id="Fill-1" class="cls-2" d="M31.87 41.08c-.17.2-.47.35-.62.46-.49.36-1.03.52-1.64.56-1.09.08-2.15-.07-3.19-.35-.29-.08-.56-.22-.83-.33-.17-.07-.34-.15-.51-.22-.63-.29-1.14-.75-1.65-1.2-.16-.14-.34-.27-.51-.41-.04-.03-.07-.09-.07-.17.23.17.46.34.68.51.45.34.94.63 1.43.91.61.36 1.28.53 1.92.78.25.1.55.09.82.12.77.1 1.54.06 2.32.06.34 0 .65-.12.95-.26.35-.17.47-.36.68-.68.04-.07.27-.42.34-.18.05.15 0 .29-.11.4m-2.45 1.51c-.72.07-1.36-.12-1.93-.28-.45-.13-.81-.27-1.06-.39.65.19 1.2.29 1.61.34.74.09 1.41.18 2.21-.03a4.3 4.3 0 0 0 1.24-.55c-.44.37-1.15.83-2.08.91m-.63.4c-.4-.02-.74-.09-1.42-.31-.45-.14-.9-.28-1.48-.55-.56-.26-.95-.5-1.18-.64-1.18-.73-2.17-1.63-2.72-2.18.51.44 1.48 1.24 2.64 1.89.73.41 1.5.75 1.56.77.37.16.73.3.88.36.37.14.56.22.75.27.19.05.74.23 1.33.23.32 0 .99-.05 1.78-.52-.97.64-1.76.68-2.14.67m-7.78-5.2c-.18-.39-.41-.77-.48-1.21.3.43.42.95.76 1.36.33.4.62.84.92 1.25-.55-.33-.93-.82-1.19-1.4m-.56-2.14c.1-.36.37-.53.43-.56a2.32 2.32 0 0 0-.39 1.2.949.949 0 0 1-.04-.63m.5-.33c0 .15.02.35.06.58.04.23.11.65.32 1.09.23.49.37.46 1.02 1.43.06.09.12.19.23.31.21.25.46.46.74.63.39.24.76.53 1.17.76.4.23.83.41 1.25.61.24.12.48.25.73.34.36.13.73.23 1.09.34.08.03.17.05.25.08-.4.05-.77-.03-1.13-.14-.27-.09-.54-.2-.81-.31-.27-.11-.53-.22-.79-.35-.75-.4-1.45-.88-2.09-1.44-.05-.04-.1-.07-.15-.11-.57-.42-.92-.86-1.02-.99-.26-.34-.66-.85-.83-1.64-.11-.49-.08-.92-.04-1.19m1.27-.4c.68.12 1.31.36 1.92.67.68.35 1.27.81 1.9 1.23.24.16.5.3.77.41.45.19.9.36 1.36.51.49.15 1 .27 1.5.38.45.1.89.19 1.3.41.52.28.71.82.35 1.3-.4.53-.73.84-1.42.88-.47.03-.95-.02-1.42-.06-.47-.04-.94-.11-1.4-.2-.34-.06-.68-.17-1.02-.27-.54-.16-1.06-.36-1.54-.65-.42-.25-.83-.51-1.24-.77 0 0-.02-.01-.02-.02-.32-.35-.66-.69-.96-1.06-.3-.37-.57-.76-.82-1.16-.19-.31-.26-.81.09-1.05.08-.05.17-.08.24-.14.07-.06.12-.17.06-.25-.13-.18-.51.07-.66.12 0-.07-.01-.14-.02-.23.34-.11.69-.1 1.03-.04m9.64 4.56c.12.12.18.21.1.4-.26.65-.78 1-1.36 1.29-.58.29-1.21.33-1.85.26-.8-.09-1.56-.3-2.3-.61-.65-.28-.99-.39-1.1-.44-.39-.19-.32-.2-1.18-.69-.47-.27-.66-.36-.93-.59-.23-.19-.4-.38-.51-.51.12.1.32.26.57.43.9.62 1.74.94 2.49 1.22.43.16.64.27.94.32.68.12 1.37.19 2.05.26.38.04.78.08 1.16.04.47-.05.94-.14 1.27-.55.11-.13.25-.24.4-.34.18-.12.25-.28.25-.49m-.04-.56c-.33-.4-.7-.69-1.21-.82-.78-.19-1.57-.38-2.34-.63-.6-.19-1.19-.43-1.75-.72-.46-.23-.88-.55-1.3-.84-.74-.51-1.54-.89-2.4-1.14a3.29 3.29 0 0 0-1.84-.01c-.11.03-.22.08-.3.15-.35.31-.54.72-.66 1.17-.02.06 0 .13.02.18.11.33.18.69.34 1 .28.54.55 1.08.95 1.56.41.51.83 1.01 1.31 1.44.45.4.95.73 1.44 1.08.12.09.26.17.39.25v.01c.08.06.16.13.25.19.54.35 1.15.57 1.74.81.5.2 1.02.34 1.54.49.24.07.49.09.73.11.48.03.94-.07 1.39-.26.86-.37 1.54-.93 1.99-1.75.22-.4.29-.83.2-1.29-.07-.38-.25-.69-.49-.99"/></g><path id="Fill-4" class="cls-2" d="M46.81 34.51c-.26.39-.57.75-.87 1.12-.2.24-.43.47-.65.7-.21.22-.46.37-.72.53-.43.27-.89.42-1.39.47-.4.05-.52.05-1.01.16-.17.04-.23.06-.57.14-.27.06-.49.12-.72.16-.44.09-.77.12-1.11.15-.64.06-.97.05-1.13.05-.18 0-.4-.02-.4-.05 0-.06 1.04-.01 2.4-.31.09-.02.68-.17 1.85-.48.58-.15.61-.16.66-.17.66-.21 1.3-.48 1.85-.91.68-.53 1.26-1.15 1.69-1.9.25-.44.31-.95.33-1.3 0-.2-.01-.4-.01-.4-.02-.23-.06-.43-.11-.57.19.22.39.91.38 1.14 0 .53-.17 1.02-.46 1.45m-8.86 3.19c-.23 0-.44-.08-.62-.24-.16-.13-.38-.2-.51-.36-.22-.24-.41-.52-.56-.8-.17-.3-.3-.65-.3-1 0-.24 0-.5.03-.73.03-.2.15-.34.24-.52.04-.08.13-.25.06-.33-.06-.06-.2-.02-.25.03-.02.02-.03.04-.04.06-.04.08-.09.15-.11.24-.04.14-.06.26-.11.4-.03.09-.06.24-.06.34 0 .12-.01.22-.03.34-.15-.28-.1-.57-.03-.84.06-.25.15-.49.23-.73.07-.21.1-.43.2-.63.07-.16.15-.31.26-.44.15-.18.34-.32.53-.46.69-.49 1.43-.89 2.22-1.21.32-.13.66-.17 1-.21.45-.05.9-.12 1.34-.18.58-.09 1.16-.19 1.76-.13.33.03.65.08.98.13.59.09 1.15.24 1.68.51.33.17.64.36.76.73.31.95.34 1.86-.26 2.73-.53.75-1.14 1.4-1.94 1.87-.26.15-.52.3-.79.42-.24.1-.5.14-.74.21-.61.16-1.21.35-1.83.46-.73.13-1.45.35-2.2.35h-.89m-1.68-.4c-.33-.28-.55-.59-.87-.88a.862.862 0 0 1-.26-.82c.33.76 1.39 1.66 2.04 2.1-.15.07-.84-.35-.91-.41m-.85-2.07c.07.17.94 1.5.99 1.65-.25-.07-1.06-1.43-.99-1.65m9.85-4.79c-.32-.11-.66-.17-.99-.24-.32-.07-.65-.14-.98-.17-.62-.06-1.24 0-1.85.12-.49.09-.98.14-1.47.21-.29.05-.59.09-.87.18-.52.16-1.01.41-1.48.71s-.95.59-1.39.91c-.24.17-.44.4-.61.64-.34.46-.46 1-.52 1.56-.02.21-.07.42-.12.63-.04.17-.09.34-.13.5-.05.29.02.57.18.8.2.28.44.54.7.77.35.31.71.63 1.19.76.44.12.88.24 1.32.35.12.03.24.04.37.04.55-.01 1.09-.03 1.64-.05.04 0 .08-.02.12-.02.37-.07.75-.13 1.12-.2.18-.03.37-.06.55-.1.48-.11.96-.26 1.45-.33.89-.13 1.66-.48 2.3-1.1.15-.15.28-.33.44-.47.5-.46.8-1.04 1.04-1.65.13-.32.2-.67.24-1.01.05-.43-.13-.81-.3-1.2-.39-.86-1.07-1.35-1.93-1.64"/><path id="Fill-6" class="cls-2" d="M.67 32.77s-.08-.02-.11-.02c-.24.04-.07.64-.06.78.03.41.13.8.36 1.14.35.52.79.96 1.17 1.46.1.13.27.22.42.3.42.21.83.47 1.28.61 1.04.33 2.12.42 3.22.35.87-.05 1.71-.22 2.54-.46.64-.18 1.22-.5 1.68-.98.18-.19.43-.96.53-1.09 0 .19-.01.38-.03.57-.03.36-.13.66-.44.92-.38.32-.8.51-1.24.7-.53.24-1.09.36-1.66.48-.58.12-1.17.22-1.77.18-.53-.03-1.06-.06-1.6-.1-.2-.02-.4-.06-.6-.13-.69-.24-1.34-.58-1.97-.94-.25-.14-.5-.29-.72-.47-.16-.12-.29-.28-.42-.43-.39-.48-.73-.98-.94-1.57-.13-.35-.11-.68-.07-1.02.13-1.11.55-2.03 1.39-2.78.21-.18.46-.26.71-.38.65-.31 1.33-.42 2.05-.46.68-.04 1.35-.11 2.03-.11.42 0 .84.07 1.22.26.45.22.89.46 1.29.76.33.25.69.47 1 .75.25.22 1.3 1.4 1.45 1.66.14.24.2.53.29.8.02.06 0 .12 0 .18.07.36.02.7-.16 1.03-.05.09-.49 1.11-.87 1.39-.65.48-1.4.72-2.17.9-.83.19-1.67.18-2.51.18-.77 0-1.53-.12-2.24-.38-.53-.19-1.02-.52-1.52-.8-.09-.05-.16-.16-.23-.24-.2-.24-.39-.48-.59-.71-.17-.2-.34-.39-.4-.66-.04-.2-.18-.38-.24-.57-.06-.2-.08-.38-.06-.59 0-.09.12-.46-.02-.51m10.28 4.22c-.28.2-.56.43-.87.57-.38.18-.79.29-1.19.41-.71.21-1.44.36-2.18.35-.36 0-.72-.04-1.08-.08-.32-.03-.58-.21-.91-.18-.05.09.04.2.13.25.24.11.42.14 1.06.2.48.04.5.08.78.07.08 0 .26-.02.62-.07.3-.03.45-.05.54-.07.29-.04.55-.1.71-.13.28-.06.38-.09.38-.08 0 .02-.43.18-.89.3-.17.05-.32.1-.52.12-.66.08-1.31.1-1.96 0-.12-.02-.22-.01-.33-.05-.32-.1-.64-.23-.93-.39-.36-.19-.71-.38-1.07-.57-.3-.16-.63-.27-.89-.48-.52-.43-1.08-.82-1.49-1.36-.13-.18-.25-.37-.36-.57-.05-.09-.06-.21-.08-.31.02 0 .04 0 .06-.01.11.19.21.4.34.57.14.18.3.35.48.51.22.19.45.35.68.52.56.41 1.18.7 1.8 1 .44.22.91.38 1.41.37.36 0 .72 0 1.07.04.58.06 1.15-.02 1.71-.08.26-.03.52-.09.78-.17.58-.18 1.15-.37 1.72-.58.19-.07.36-.18.58-.25-.04.06-.07.13-.12.17m-.25-5.54c-.74-.69-1.55-1.3-2.43-1.82-.65-.38-1.34-.56-2.09-.52-.75.04-1.5.1-2.25.12-.44.01-.85.12-1.25.3-.21.09-.43.15-.63.26-.23.11-.46.24-.66.39-.23.18-.43.41-.64.62-.07.07-.14.16-.18.25-.12.28-.24.57-.32.86-.21.71-.32 1.44-.24 2.18.05.44.17.89.35 1.29.23.5.62.91 1.06 1.26l.33.27c.24.2.45.43.72.58.45.26.93.48 1.4.71v.01c.32.16.66.41 1.02.49.65.15 1.32.23 1.99.23.31 0 .61-.02.92-.09.64-.15 1.23-.46 1.81-.75.24-.12.48-.23.7-.37.21-.13.39-.29.59-.44.6-.44.99-.99 1-1.76 0-.36.06-.71.06-1.07 0-.56-.04-1.12-.26-1.65-.22-.54-.6-.96-1.01-1.34"/><path id="Fill-8" class="cls-2" d="M23.71 36.67c.1.03.21.02.32.03.43.03.75.33 1.11.53.39.22.8.41 1.23.56.62.21 1.25.39 1.87.6.37.13.74.25 1.01.57.1.12.24.23.16.39-.02.05-.03.1-.03.15 0 .02 0 .05.01.07.01.03.04.05.06.05.07.03.14.02.16.02.03 0 .11-.03.17-.08.09-.08.06-.21.03-.31-.04-.16-.14-.26-.25-.37a.862.862 0 0 0-.18-.14c-.64-.45-2.02-.86-2.02-.86-.66-.21-.81-.25-1.1-.39-.23-.11-.45-.21-.72-.4-.15-.1-.6-.42-1-.68a.974.974 0 0 0-.23-.11.778.778 0 0 0-.58.04c-.08.04-.16.11-.14.2.01.07.07.11.14.13"/><path id="Fill-10" class="cls-2" d="M26.06 38.25c.43.11.86.21 1.27.35.42.14.87.23 1.23.5.02.01.04.02.06.02.04 0 .09 0 .11-.03.02-.02.03-.08.02-.11-.03-.05-.07-.11-.12-.13-.24-.12-.48-.27-.73-.34-.58-.17-1.18-.29-1.76-.44-.21-.06-.41-.15-.6-.25-.36-.2-.69-.42-1.05-.62-.15-.09-.32-.15-.49-.2-.21-.06-.39.03-.53.19-.11.13-.05.35.02.49.08.16.21.29.37.37.06.03.13.05.18 0 .11-.09-.01-.31-.07-.39-.07-.1-.22-.21-.17-.34 0-.01 0-.02.02-.03.04-.06.09-.1.16-.1s.14.03.21.07c.25.13.47.28.71.43.37.24.75.44 1.18.55"/><path id="Fill-12" class="cls-2" d="M26.12 38.91c.38.1.77.16 1.16.23l.76.15c.13.02.22-.07.17-.15a.17.17 0 0 0-.06-.06c-.15-.09-.37-.09-.54-.11l-.59-.09c-.35-.05-.69-.13-1.02-.23-.14-.04-.33-.08-.45-.17-.12-.09-.25-.16-.37-.26-.15-.11-.3-.25-.47-.32-.05-.02-.1-.04-.16-.03-.11.03-.08.14-.05.22.05.11.16.17.25.24.1.08.21.13.32.18.11.05.21.1.32.15.23.11.48.19.73.25"/><path id="Fill-14" class="cls-2" d="M28.71 39.19c-.14.04-.29.06-.43.12-.36.14-.75.15-1.11.1-.16 0-.33-.04-.49-.07-.17-.03-.33-.07-.49-.12a4.68 4.68 0 0 1-.48-.18c-.14-.06-.27-.14-.39-.25-.04-.03-.08-.03-.11 0-.01.01-.02.03-.02.05-.01.08.05.14.1.18.11.11.26.18.4.23.44.16.89.25 1.35.31.23.03.46.05.7.06.23.01.45.04.68.01.14-.02.54-.11.53-.32-.01-.15-.12-.16-.22-.13"/><path id="Fill-16" class="cls-2" d="M38.13 34.01s.06-.02.06-.03c.03-.05.07-.11.08-.17.16-.49.52-.78.93-1 .38-.21.79-.34 1.2-.46.42-.12.8-.35 1.26-.37.38-.02.76-.02 1.13.09-.17.05-.33.09-.5.11-.71.08-1.41.26-2.06.56-.44.2-.84.48-1.27.69-.28.14-.52.3-.67.58-.09.16-.24.35-.1.52.07.08.18.12.28.1.15-.04.15-.16.17-.3.03-.23.07-.45.26-.59.19-.14.28-.24.83-.48.84-.38.83-.44 1.33-.61.35-.12.63-.18.74-.2.13-.03.32-.07.7-.1.25-.02.51-.06.76-.01.02 0 .04 0 .06.01.19.04.39.07.57.17.13.07.29.27.21.44-.08.16-.35.32-.19.53.16.21.47-.23.53-.36.09-.16.05-.46.02-.64-.04-.21-.13-.43-.29-.57-.25-.21-.53-.34-.82-.48-.54-.26-1.09-.39-1.68-.38-.41 0-.82.07-1.22.19-.2.06-.4.14-.6.23-.16.08-.39.14-.46.33v.02s.01 0 .02.01c.32.03 1.45-.46 1.77-.52.62-.1 1.22-.01 1.8.2.21.08.42.16.62.26.26.14.52.29.58.69-.08-.06-.12-.08-.15-.11-.27-.28-.61-.41-.96-.51-.45-.13-.9-.2-1.36-.12-.85.14-1.65.46-2.46.78-.32.12-.56.35-.79.6-.16.18-.26.43-.37.65-.04.09-.04.18.06.23"/><path id="Fill-18" class="cls-2" d="M40.32 37.59c.65-.08 1.25-.36 1.87-.57.79-.26 1.52-.65 2.21-1.11.69-.45 1.25-1 1.64-1.74.43-.83.51-1.67.24-2.56-.02-.05-.04-.11-.09-.15-.05-.04-.12-.04-.16.02-.02.04-.02.08-.02.1 0 .17.06.28.06.28.11.21.13.47.14.7.02.21 0 .38-.01.49-.01.15-.04.26-.04.29-.04.23-.1.39-.14.49-.03.07-.1.26-.23.48-.02.04-.05.09-.08.13-.19.31-.43.59-.71.83-.06.06-.13.11-.2.16-.4.31-.84.58-1.29.83-.31.18-.64.32-.98.44-.66.23-1.32.43-1.98.63-.47.14-.95.11-1.43.11-.05 0-.45 0-.37-.12.02-.03.07-.04.1-.04h.42c.35 0 .7-.04 1.05-.09.45-.06.89-.21 1.33-.33.53-.15 1.03-.37 1.51-.66.57-.35 1.12-.71 1.62-1.15.56-.48 1.05-1.01 1.15-1.79.03-.22.09-.44.1-.66 0-.18-.04-.36-.07-.54 0-.05-.02-.11-.07-.13-.03-.02-.08-.02-.11-.01-.04.01-.05.06-.06.11-.04.2.05.38.05.38.18.39.03 1.21-.41 1.83-.01.01-.02.02-.03.04-.36.48-.82.85-1.3 1.21-.6.45-1.23.85-1.95 1.08-.47.16-.96.3-1.45.4-.71.16-1.43.17-2.14.06-.07 0-.13-.02-.2-.03-.4-.07-.75-.2-1.02-.51-.24-.29-.4-.64-.54-.98-.03-.06-.05-.13-.11-.17-.05-.04-.14-.05-.19 0-.03.04-.03.1-.02.15.02.15.03.31.13.44.26.37.56.72.8 1.11.25.41.77.55 1.21.6.57.07 1.17 0 1.74-.07"/><path id="Fill-20" class="cls-2" d="M38.03 34.65c0-.14 0-.14-.11-.27-.14-.17-.26-.36-.17-.57.09-.19.25-.36.38-.54.06-.08.12-.16.19-.23.04-.04.12-.08.06-.15-.06-.07-.17 0-.23.05-.15.11-.3.28-.39.44-.12.21-.22.45-.25.69-.04.32.2.55.52.59"/><path id="Fill-22" class="cls-2" d="M40.82 33.52c.31-.29.72-.51 1.16-.55.18-.02.37-.04.56-.02.09 0 .2.03.28.08.12.08.06.16.09.28.03.12.19.11.29.07a.43.43 0 0 0 .15-.15c.05-.07.08-.15.07-.21 0-.07-.05-.12-.14-.17-.13-.07-.27-.1-.41-.13-.29-.06-.61-.02-.91-.01-.49.01-.92.17-1.38.31-.3.1-.67.18-.93.36-.53.35-.54.35-.67.96a.57.57 0 0 0 0 .29c.02.11.18.29.29.15.03-.03.03-.08.02-.12v-.1c0-.03-.02-.07-.03-.1-.06-.18-.05-.47.1-.61.06-.05.11-.09.18-.13.12-.07.33-.14.31-.12-.06.07-.11.16-.18.22-.18.17-.24.38-.29.6-.02.08.03.2.09.26.08.08.18.05.25-.03-.04-.11-.11-.21-.1-.3.02-.17.12-.33.26-.43.07-.05.05.17.02.23-.06.14-.13.33-.12.48.01.13.21.17.31.1.05-.03.05-.1.05-.15-.05-.47.4-.76.71-1.05"/><path id="Fill-24" class="cls-2" d="M1.05 34.49c.16.39.45.69.79.96.38.31.81.53 1.23.76.34.18.68.34 1.03.51.78.38 1.55.45 2.4.42.63-.02 1.25-.12 1.86-.29.3-.08.61-.13.9-.23.31-.1.63-.21.92-.37.28-.16.53-.38.76-.61.18-.18.33-.39.44-.62.1-.21.13-.45.19-.68.08-.32.05-.63-.07-.94-.04-.1-.08-.21-.26-.24.04.17.07.31.11.45.16.57-.02 1.09-.25 1.6 0 .02-.02.04-.03.05-.3.32-.62.64-1.02.85-.77.4-1.6.58-2.45.71-.7.1-1.39.16-2.1.06-.57-.07-1.09-.2-1.57-.51a2.42 2.42 0 0 0-.36-.18c-.8-.32-1.49-.75-2.07-1.35-.11-.12-.14-.29-.22-.43-.03-.05-.07-.1-.09-.16-.11-.3-.06-.74 0-1.05.01-.07.14-.66.05-.7-.22-.08-.26.21-.27.35-.02.31-.06.61-.05.92.01.24.07.48.16.7"/><path id="Fill-26" class="cls-2" d="M2.77 33.58c.04.17.05.35.13.49.16.27.36.52.56.76.06.07.12.15.21.17.04.01.14.01.17-.02.04-.04.01-.12-.01-.16a.318.318 0 0 0-.12-.11c-.09-.07-.18-.12-.26-.19a4.84 4.84 0 0 1-.28-.32l-.09-.12c-.07-.11-.11-.21-.14-.34-.05-.21-.05-.43-.08-.64-.04-.23.05-.41.21-.57.07-.07.7-.91 1.11-1.04.38-.12.79-.16 1.18-.2.21-.02.43.03.64.05.33.03.65.06.96.2.42.19.88.27 1.28.54.15.1.33.18.46.3.21.19.39.45.47.73.07.26-.04.48-.16.72-.07.15-.17.44.07.45.2.01.25-.2.27-.35.05-.28.12-.59.09-.87-.05-.42-.43-.81-.78-1.02-.34-.21-.63-.41-1-.56-.39-.16-.71-.21-1.2-.29-1.18-.18-1.76-.07-1.92-.03-.18.04-.32.08-.44.13-.11.04-.43.15-.71.46-.23.25-.4.54-.6.82-.14.19-.17.41-.12.64.03.13.04.26.07.39"/><path id="Fill-28" class="cls-2" d="M8.7 33.79c.05.02.11.02.16-.02.33-.24-.52-1.19-.69-1.36-.46-.46-1.12-.56-1.73-.7-.57-.13-1.24-.14-1.81.02-.47.14-.82.45-1.14.81-.23.26-.3.56-.25.88.04.27.15.53.25.78.02.06.05.12.1.17.06.06.16.11.25.09h.01c.06-.02.06-.1.05-.15-.03-.13-.12-.23-.2-.34-.09-.14-.16-.29-.23-.45a.745.745 0 0 1 .05-.7c.37-.57.89-.92 1.59-.98.41-.03.82.04 1.22.12.32.06.62.08.92.21.29.13.55.3.77.53.27.27.32.61.52.93.04.06.08.13.15.15"/><path id="Fill-30" class="cls-2" d="M8.37 33.7c-.1-.34-.28-.64-.59-.83-.35-.21-.7-.42-1.08-.58-.22-.1-.48-.15-.71-.14-.59.04-1.12.25-1.64.55a.87.87 0 0 0-.21.17.88.88 0 0 0-.22.64c0 .12.03.23.07.34.02.06.05.23.13.26.19.08.09-.51.09-.59-.01-.25.02-.49.23-.65.27-.21.6-.34.93-.41.89-.2 1.6.08 2.32.61.29.22.44.54.56.87.18-.02.15-.14.12-.23"/><path id="Fill-32" class="cls-2" d="M7.47 33.58c.1.13.16.27.22.42.04.12 0 .39.13.45h.02c.3.12.18-.43.15-.53-.03-.1-.13-.2-.18-.29-.35-.57-.94-.77-1.58-.77-.39 0-.79.13-1.17.26-.07.02-.14.06-.21.09-.15.07-.27.14-.35.28-.02.03-.03.06-.03.09s.01.07.05.08c.1.05.28-.16.36-.21.16-.09.36-.19.54-.24.36-.1.84-.22 1.21-.12.33.08.64.23.85.48"/><path id="Fill-34" class="cls-2" d="M6.88 33.75s.08-.04.08-.07c.02-.07-.08-.17-.17-.2-.28-.12-.7-.08-1-.03-.12.02-.36.08-.41.19-.07.13.02.12.13.11.17-.02.32-.08.49-.09.16 0 .32 0 .48.03.09.01.31.1.4.07"/><path id="Fill-36" class="cls-2" d="M5.16 33.64c.14-.09.29-.17.45-.2.16-.04.32-.05.47-.1.02 0 .04-.02.04-.04s-.02-.04-.04-.05c-.13-.05-.27-.02-.4 0-.12.01-.24.06-.35.1-.2.09-.43.22-.55.42-.11.17-.22.4-.04.57.1.09.28.06.41.1.2.06.39.18.6.2.11 0 1.24.05 1-.29-.06-.09-.24-.03-.32-.02-.21.04-.43.08-.64.06-.2-.02-.56-.1-.72-.21-.23-.16-.08-.42.09-.53"/><path id="Fill-38" class="cls-2" d="M35.52 26.64s-.46.44-.48.47c0-.04.68-.85.81-1.03.14-.18.28-.36.39-.55.44-.72.88-1.43 1.12-2.24.02-.05.07-.09.15-.13-.03.19-.04.4-.09.58-.17.61-.45 1.18-.79 1.72-.29.47-.75.78-1.12 1.17m-.91.59c-.43.43-.86.85-1.29 1.28-.23.22-.44.46-.68.68-.16.14-.33.28-.51.38-.18.1-.7.46-1.38.7-.96.33-1.86.31-2.37.26.73-.07 1.32-.22 1.74-.35.34-.11.76-.21 1.23-.5.42-.26.82-.58 1.2-.9.64-.52 1.19-1.13 1.74-1.74.85-.93 1.62-1.91 2.3-2.97.26-.4.42-.87.48-1.35 0-.06.01-.13 0-.18-.11-.45-.13-.91-.13-1.37 0-.03-.04-.06-.07-.1-.15.12-.09.28-.09.41 0 .34 0 .69.1 1.03.12.45-.09.85-.31 1.22-.28.49-.59.96-.94 1.41-.52.68-1.04 1.35-1.63 1.98-.84.89-1.72 1.75-2.78 2.39a3.9 3.9 0 0 1-1.14.46c-.48.12-.97.22-1.45.32-.04 0-.08.01-.08.01-.13.02-.23.03-.31.04h-.58c-.22 0-.43.01-.64.03.05-.02 1.35-.17 1.39-.19.64-.16 1.26-.37 1.84-.71.55-.32 1.14-.59 1.67-.94.47-.3.91-.64 1.33-1 .2-.17.84-.81.97-.94.16-.16.31-.33.46-.5.3-.35.58-.7.82-1.1.34-.57.67-1.14.94-1.75.23-.53.26-1.09.18-1.65-.06-.39-.1-.79-.35-1.19.09.03.15.04.19.07.41.26.67.62.74 1.11.03.25.13.49.16.75.07.49-.11.93-.31 1.36-.34.73-.7 1.44-1.18 2.09-.26.35-.56.68-.85 1.02-.13.16-.28.31-.42.45m-7.83 2.87c-.61.09-1.34-.29-1.48-.89-.03-.14.06-.41.02-.5.03.08.05.13.07.18.09.32.31.5.62.63.62.26 1.28.22 1.92.24.48.01.92-.16 1.33-.38.43-.24.86-.49 1.28-.75.37-.24.72-.5 1.07-.76.35-.24.71-.46 1.04-.73.64-.51 1.33-.97 1.88-1.58.24-.26.42-.58.62-.88.14-.2.26-.42.39-.63.27-.44.44-.9.45-1.42 0-.16.06-.32.1-.47.1-.44-.02-.85-.22-1.24-.1-.19-.19-.39-.33-.55-.14-.16-.33-.27-.52-.39-.12-.08-.26-.13-.4-.19.45-.17.94-.03 1.23.34.28.35.43.76.53 1.2.2.85.02 1.61-.38 2.37-.31.58-.6 1.17-1 1.69-.32.42-.71.8-1.07 1.19-.59.65-1.3 1.17-2 1.7-.5.38-1.08.64-1.64.93-.45.23-.89.48-1.39.6-.57.13-1.13.34-1.73.3-.13 0-.27-.01-.4 0m-1.09-2.09c.05.17.09.35.14.52.16.47.5.72 1 .72.23 0 .45 0 .68-.02.64-.06 1.26-.16 1.85-.46.32-.17.69-.25 1.05-.35-.63.42-1.25.86-2.01 1.04-.24.06-.49.06-.74.06-.22 0-.43 0-.65-.02-.42-.03-.82-.09-1.19-.32a.477.477 0 0 1-.24-.37c-.03-.27 0-.54.1-.8m9.62-6.9c-.08-.21-.07-.45-.11-.71.4.24.54.63.69 1 .13.33.09.65-.01.99-.08.25-.08.52-.15.78-.12.44-.31.86-.6 1.23-.16.21-.29.45-.44.66-.08.11-.74.74-.53.52.14-.26.51-.74.62-1.01.2-.48.37-.97.53-1.46.06-.18.07-.38.09-.57.06-.48.08-.95-.09-1.42m-9.2 6.13c.23-.77.75-1.51 1.51-1.84.2-.09.4-.17.58-.28.38-.25.74-.51 1.1-.79.36-.28.7-.59 1.04-.9.12-.11.22-.25.31-.38.09-.11.16-.24.24-.36.35-.49.69-.99 1.05-1.48.38-.51.87-.98 1.49-1.19.6-.2 1.39-.19 1.58.54.15.6.28 1.2.23 1.85-.07.74-.29 1.42-.59 2.09-.32.72-.81 1.31-1.38 1.83-.52.48-1.09.91-1.58 1.2-.71.38-1.3.68-1.94.88-.25.08-.48.2-.72.29-.58.23-1.2.32-1.82.32-.23 0-.47.03-.7-.06-.34-.14-.54-.37-.54-.73 0-.33.05-.66.14-.99m10.53-1.44c.19-.3.37-.61.54-.93.43-.82.65-1.68.42-2.6-.08-.33-.2-.64-.28-.97-.09-.35-.25-.65-.55-.86-.15-.11-.27-.25-.43-.36-.28-.2-.56-.38-.85-.56a.494.494 0 0 0-.24-.05c-.36 0-.72 0-1.09.02-.1 0-.2.04-.3.08-.13.05-.26.13-.4.17-.68.22-1.16.7-1.6 1.22-.29.34-.52.73-.78 1.1l-.59.83c-.1.14-.21.29-.33.4-.39.35-.79.7-1.19 1.03-.42.35-.86.66-1.38.88-.26.11-.51.28-.73.46-.3.26-.53.58-.74.9-.27.41-.63.83-.8 1.31-.14.4-.4.93-.28 1.36.19.64.64 1.06 1.24 1.33.51.23 1.05.32 1.6.33.83.02 1.67.03 2.5-.13.67-.13 1.3-.34 1.86-.73.71-.48 1.35-1.04 1.9-1.7.09-.1.16-.22.25-.31.63-.62 1.26-1.23 1.9-1.85.12-.12.27-.24.36-.38"/><g style="mask:url(#mask-1)" id="Group-42"><path id="Fill-40" class="cls-2" d="M.34 22.17c.31.74.73 1.11.96 1.28.38.27.97.53 1.27.63.28.09.56.21.82.36-.09-.02-.18-.03-.27-.06-.45-.16-.89-.33-1.35-.47-.3-.09-.57-.25-.81-.43-.25-.19-.35-.46-.41-.58-.14-.29-.2-.56-.22-.73m.75.53c.36.32.71.5 1.39.85.1.05.32.16.77.37.26.12.76.4.76.42-.2-.07-.41-.13-.61-.21-.43-.16-.85-.32-1.27-.5-.68-.29-1.02-.77-1.09-.85a3.68 3.68 0 0 1-.44-.62c.1.13.26.34.5.55m-.38-1.45c0-.09.03-.17.06-.25.04-.1.1-.19.13-.3.04-.15.06-.28.15-.41.25-.37.62-.63 1-.83.48-.25.96-.48 1.45-.7.23-.1.49-.16.74-.23.76-.19 1.53-.35 2.33-.37.7-.01 1.38.13 2.06.29.27.06.55.12.8.24.66.3 1.31.63 1.96.96.23.12.44.27.66.41.15.1.2.22.2.42 0 .29-.02.56-.13.83-.02.05-.05.09-.11.2-.01-.2-.03-.32-.02-.44 0-.18 0-.37-.05-.55-.03-.11-.03-.3-.17-.33-.13-.02-.16.13-.13.23.09.27.12.55.13.83.01.23-.05.41-.16.6-.23.42-.59.7-.95.97-.34.26-.72.44-1.11.63-.41.2-.85.33-1.3.41-.34.06-.67.13-1.01.2-.6.12-1.22.14-1.83.13-.6 0-1.2-.1-1.75-.37-.62-.3-1.23-.6-1.84-.91-.14-.07-.26-.18-.37-.29-.14-.14-.27-.28-.41-.43-.16-.17-.23-.27-.29-.49-.04-.15-.06-.31-.05-.46m3.51 3.14s.31-.02.45-.01c.65.05 1.3.04 1.95-.02.43-.04.85-.16 1.28-.24.31-.06.63-.13.93-.21.67-.18 1.28-.51 1.86-.89.36-.24.69-.49.93-.86.08-.12.16-.24.23-.36-.15.62-.49 1.1-1.01 1.44-.56.37-1.17.62-1.83.76-.41.09-.82.21-1.23.31-.07.02-.14.04-.21.05-.9.09-1.8.18-2.7.13-.22-.01-.44-.07-.66-.1m8.27-3.57c.09.38.04 1.01-.15 1.34-.13.21-.24.44-.38.65-.38.58-.94.91-1.56 1.14-.53.2-1.08.37-1.62.53-.58.17-1.15.34-1.74.45-.74.15-1.49.28-2.23.02-.32-.11-.63-.25-.93-.42l.42.12c.46.12.92.07 1.39.06 1.02-.03 2.02-.1 3-.41.39-.13.81-.2 1.19-.33.58-.2 1.13-.47 1.55-.94.32-.35.6-.73.71-1.23.05-.23.25-.72.36-.98m.34.76c.13.16-.09.78-.16.92-.06.12-.13.24-.21.35-.44.58-.98 1.01-1.62 1.33-.94.48-1.95.74-2.98.93-.26.05-.52.13-.79.18-.2.04-.41.07-.61.1l-.15.02c-.4.06-1.27.18-1.91.14-.82-.05-1.42-.39-2.05-.74-.6-.34-1.05-.71-1.35-.98.76.4 1.36.63 1.78.78.26.09.6.2.69.23.44.14.82.26 1.12.34.7.17 1.29.2 1.62.14.99-.16 1.97-.37 2.92-.71.56-.2 1.15-.33 1.68-.62.26-.14.55-.27.77-.46.22-.19.4-.45.57-.7.17-.24.51-.97.68-1.25m.18.89c-.16.34-.55.98-.78 1.23-.85.88-1.91 1.39-3.06 1.72-.39.11-.78.22-1.17.3-.31.07-.61-.01-.91-.18.18-.05.37-.12.55-.15.8-.12 1.58-.34 2.35-.59 1.02-.33 1.92-.88 2.61-1.74.05-.07.37-.58.42-.6m-8.35 3.33c.16-.03 1.56-.06 1.81-.12.12-.03.43-.07.53.07-.37.09-2.09.03-2.34.05m-2.28-.5c.49.26 1.03.44 1.56.61.28.09.59.15.88.16.59.02 1.17 0 1.92 0 .51-.06 1.18-.01 1.84-.21.78-.24 1.57-.43 2.29-.86.37-.22.74-.41 1.05-.71.32-.31.65-.62.9-.99.29-.42.42-.86.36-1.36-.05-.45-.16-.88-.38-1.28-.24-.45-.55-.81-.99-1.05-.21-.11-.43-.2-.63-.32-.95-.58-1.95-1.02-3.05-1.21-.51-.09-1.01-.21-1.54-.2-.67.01-1.32.13-1.97.26-.64.12-1.26.35-1.86.61-.44.19-.85.42-1.26.67-.29.18-.52.42-.73.67-.13.15-.22.36-.26.56-.04.17-.09.32-.21.44-.14.15-.21.33-.26.54-.21.85.09 1.58.54 2.25.44.67 1.11 1.07 1.79 1.43"/></g><path id="Fill-43" class="cls-2" d="M18.58 32.1c-.5.04-1.01.05-1.51-.06-.42-.1-.82-.11-1.02-.15-1.1-.22-2.11-.96-2.73-1.5.57.44 1.1.71 1.48.88 0 0 1.48.65 3.32.61.42 0 .81-.07.81-.07s.3-.05.6-.12c.5-.12 1.46-.57 2.57-1.37-.22.29-.58.67-1.08 1.01-1 .66-2 .73-2.44.77m-6.02-2.63c1.14.98 2.2 1.41 2.83 1.61.69.22 1.21.27 1.33.29.74.12 1.46.02 2.17-.15.65-.15 1.17-.28 1.5-.39.72-.25 1.31-.54 1.76-.8-.2.14-1.35.9-2.2 1.23-.26.11-.51.17-.52.18-.34.07-.68.12-1.02.16-.57.07-1.13.03-1.7-.07-.28-.05-.57-.06-.84-.11-.35-.07-.69-.17-1.03-.27 0 0-.06-.03-.13-.06-.6-.28-1.9-1.41-2.15-1.63m6.48 1.47c-.54.16-1.37.32-2.38.23a6.596 6.596 0 0 1-3.19-1.21c.61.3 1.73.8 2.46.92.02 0 .12.02.24.04.43.06.86.1 1.3.14.2.02.41.04.61.02.27-.03.54-.09.81-.13h.16m-6.75-2.26c-.15-.23-.28-.46-.42-.7-.12-.21-.29-.41-.27-.67 0-.11.02-.21.05-.31.02-.09.15-.38.17-.44.05-.15.49-.94.72-1.13.3-.24.64-.39 1.01-.48.3-.07.59-.24.89-.29.4-.07.78-.22 1.2-.18.22.02.45-.03.67-.01l1.5.12c.36.05.73.08 1.08.15.19.04.37.15.54.25.71.43 1.17 1.1 1.63 1.78.03.05.13.13.2.27.18.34.17.68.16.8-.04.4-.24.67-.42.89-.42.54-.94.8-1.21.89-.41.14-.84.17-1.24.31-.62.21-1.27.16-1.91.19-.13 0-1.29-.14-1.74-.29-.39-.13-.79-.26-1.17-.43-.21-.09-.4-.24-.58-.39a3.5 3.5 0 0 1-.97-1.22c-.04-.09-.1-.2-.1-.3v-.27c0-.21.06-.42.16-.6.04-.08.08-.15.1-.24.02-.08 0-.24-.12-.25-.06 0-.1.07-.13.11-.07.12-.11.26-.17.39-.07.14-.08.33-.07.48 0 .16.01.32.05.48.08.31.26.58.44.83.25.33.51.65.86.88.11.07.22.14.34.2.76.34 1.53.62 2.34.79.72.15 1.45.24 2.21.23.69-.01 1.32-.15 1.94-.42.42-.18.83-.39 1.19-.67.33-.25.51-.58.56-.99.01-.1.04-.2.06-.3 0 0 .2.33.24.51.02.08 0 .19-.05.26-.13.18-.27.36-.43.52-.64.64-1.45.96-2.3 1.21-.97.29-1.95.29-2.93.13-1.01-.17-1.98-.46-2.86-1.01-.33-.21-.64-.44-.93-.69-.12-.11-.21-.26-.3-.39m9.3-.52c.03.43-.1.79-.44 1.06-.55.44-1.17.76-1.84.97-.4.13-.81.2-1.23.18-.24-.01-.49.02-.73.01-.17 0-.34-.05-.51-.07.33 0 .62 0 .89-.02.37-.03.59-.05.89-.12.18-.04.43-.12.86-.2.06-.01.07-.01.09-.02.81-.28 1.53-.68 1.85-1.57.03-.08.09-.15.16-.21m.67.93c.02.1.03.26-.05.43-.04.09-.1.16-.15.22-.57.55-1.71.9-1.71.9-.27.08-.63.19-1.07.28.46-.1 1.15-.32 1.87-.82.5-.34.86-.71 1.11-1.01m.15.73c.08-.43.17-.86-.02-1.28-.07-.15-.15-.29-.23-.43-.27-.45-.47-.94-.81-1.34-.21-.25-.4-.52-.58-.8-.34-.53-.81-.9-1.31-1.24a.979.979 0 0 0-.37-.14c-.4-.08-.79-.14-1.19-.2-.13-.02-.79-.05-1.01-.07-.38-.03-.77-.02-1.15-.02-.66 0-1.29.18-1.91.36-.2.06-.4.14-.6.21-.44.16-.85.37-1.15.77-.33.43-.58.88-.73 1.42-.14.5-.1.94.15 1.37.38.64.86 1.21 1.38 1.74.38.38.8.74 1.24 1.05.68.47 1.04.68 1.41.8.11.04.18.05.3.08.95.24 1.74.25 1.98.25.63 0 1.17-.05 1.51-.15.03 0 .06-.01.09-.02.63-.11 1.23-.34 1.76-.68.59-.38 1.11-.87 1.26-1.65"/><g style="mask:url(#mask-2-2)" id="Group-47"><path id="Fill-45" class="cls-2" d="M50.66 21.3c.26-.32.61-1.03.75-1.31.08.34-.32 1.14-.75 1.31m-2.06 1.61s-.53.22-1.02.36c-1.65.47-3.49.08-4.28-.12.93.19 2.67.41 4.69-.18 1.15-.34 2.05-.84 2.67-1.25-.46.35-1.15.81-2.06 1.19m-7.02-.5c-.31-.18-.61-.37-.9-.58-.26-.19-.49-.32-.65-.62-.1-.19-.17-.39-.19-.6.08.06.13.08.14.11.14.4.51.61.81.86.19.17.47.23.72.34.34.14.67.31 1.02.42.89.29 1.82.41 2.76.34.76-.06 1.52-.15 2.29-.22.4-.03.81-.03 1.19-.18.5-.19 1.04-.29 1.45-.66.06-.05.14-.08.24-.08-.17.13-.35.25-.52.38-.44.35-.95.56-1.49.74-1.08.36-2.18.46-3.31.42-.48-.02-.95-.04-1.43-.09-.25-.03-.47-.12-.71-.16-.49-.09-.98-.17-1.41-.43m-1.96-2.79c.08-.27.08-.56.14-.84.02-.11.1-.23.19-.3.73-.56 1.55-.93 2.46-1.11 1.21-.25 2.44-.38 3.67-.37.38 0 .76.09 1.14.12.64.06 1.28.09 1.92.16.34.04.68.11 1 .22.25.09.45.28.56.51.14.29.11.58.11.89 0 .25-.16.52-.27.74-.06.1-.22.38-.51.66-.15.14-.52.46-2.22.99-.37.12-.56.17-.73.21-1 .24-1.81.21-2.31.19-.65-.03-1.12-.11-1.24-.14-.36-.07-.79-.22-1.37-.39-.5-.15-.88-.48-1.27-.79-.08-.06-.12-.14-.17-.22-.06-.09-.1-.18-.14-.28a2.49 2.49 0 0 1-.09-.37c0-.03-.01-.06-.03-.09-.02-.03-.07-.06-.1-.05-.04 0-.07.05-.1.08-.02.03-.05.07-.04.12 0 .08 0 .17.02.25.04.09.07.18.12.27.07.16.21.27.34.38.15.13.29.27.43.4-.14-.04-.28-.1-.4-.18-.13-.09-.24-.19-.34-.32l-.14-.2c-.03-.05-.05-.1-.07-.15-.03-.1-.07-.19-.1-.29a.815.815 0 0 1 0-.27.47.47 0 0 0 .04-.16v-.07c0-.02 0-.04-.02-.06-.01-.02-.04-.02-.06-.03-.09-.01-.16.05-.19.13-.03.09-.07.18-.08.28v.23c0 .07.04.14.07.2l.12.21c.17.26.38.49.64.67.23.16.48.28.74.37.06.02.12.03.17.06.56.32 1.17.51 1.78.72.17.06.35.13.53.17.64.16 1.29.11 1.94.13.8.02 1.59-.08 2.34-.37.42-.16.83-.37 1.25-.54.5-.2.94-.47 1.3-.87.15-.16.26-.34.34-.54.08-.2.17-.38.27-.6.1.11.1.18.02.25-.17.15-.23.36-.26.56-.08.49-.38.85-.74 1.16-.6.51-1.32.77-2.09.88-.77.11-1.54.17-2.32.24-.37.03-.74.07-1.12.07-.75.01-1.49-.15-2.2-.37-.61-.19-1.19-.48-1.75-.79-.33-.18-.58-.49-.76-.83-.07-.13-.15-.19-.29-.13-.17-.25-.26-.48-.17-.78m11.3-.1c-.06.44-.25.8-.59 1.08-.34.28-.71.52-1.14.66-.34.12-.66.29-.99.43-.18.08-.36.15-.55.2-.84.24-1.7.24-2.56.22-.18 0-.35-.01-.53-.02-.62-.02-1.73-.53-1.72-.55.26.06.52.1.78.18.76.22 1.53.24 2.31.17.07 0 .53-.04.67-.07.53-.12 1.05-.27 1.57-.4.44-.11.83-.3 1.21-.53.36-.22.75-.38 1.01-.73.14-.19.28-.37.43-.56.03-.04.07-.06.1-.09m.11-.43c.03-.22.02-.41 0-.55.02.02.24.24.18.55-.05.26-.25.39-.28.42.04-.11.08-.25.1-.42m.45-.21c-.17-.47-.43-.88-.76-1.25-.08-.09-.17-.17-.28-.24-.32-.21-.69-.28-1.06-.32-.83-.09-1.67-.15-2.51-.22-.33-.03-.66-.06-.99-.06-.9 0-1.8.09-2.69.24-.79.13-1.6.23-2.32.65-.23.13-.48.24-.7.39-.37.24-.69.52-.7 1.02 0 .19-.02.41-.11.56-.1.17-.07.3-.01.45.11.3.2.62.32.92.16.4.38.78.73 1.04.33.24.7.42 1.06.63.47.27.99.4 1.5.57l.44.15c1.69.56 3.26.29 3.26.29.47-.08.88-.23 1.71-.54.95-.35 1.34-.62 1.54-.71.39-.18.75-.4.98-.77.41-.46.63-.99.71-1.59.05-.41.03-.8-.12-1.2"/></g><path id="Fill-48" class="cls-2" d="M21.28 9.16s-.12.09-.17.11c-.11.05-.22.08-.33.12-.25.09-.48.21-.7.38-.32.24-.68.43-.99.68-.18.15-.38.27-.58.4-.15.1-.27.29-.36.45-.06.11-.2.45.02.43.13-.01.15-.12.17-.23.06-.33.29-.47.55-.65.3-.2.6-.4.9-.61.1-.07.21-.13.3-.21.33-.29.76-.38 1.13-.58.33-.18.7-.21 1.07-.21.14 0 .3.02.37.15.05.09.02.21.06.31.04.12.18.16.25.02.05-.1.02-.29-.02-.39a.565.565 0 0 0-.34-.32c.44-.12.84-.3 1.29-.15.29.1.4.26.26.54-.12.23-.28.44-.45.62-.26.26-.56.48-.83.73-.62.57-1.34.97-2.13 1.27-.3.11-.58.25-.88.36-.15.05-.31.06-.46.1-.58.17-1.18.23-1.79.24-.25 0-.56-.15-.62-.41a.85.85 0 0 1 .2-.7c-.03-.01-.05-.03-.08-.04-.08.09-.17.18-.29.32.03-.04.06-.31.01-.33-.05-.03-.12 0-.16.05-.12.13-.14.35-.18.52-.04.12-.05.25-.06.38 0 .07-.05.3-.02.36-.25-.39-.17-.97.14-1.27.17-.17.29-.4.52-.52.16-.08.31-.2.47-.29.27-.15.53-.31.81-.43.39-.18.79-.32 1.18-.49.37-.16.74-.35 1.11-.52.14-.06.41-.22.57-.19.04 0 .05.02.05.03m3.14.76c-.18.2-.37.38-.56.57-.43.43-.85.88-1.36 1.2-.6.37-1.2.74-1.89.92-.46.13-.92.29-1.37.44-.56.18-1.14.27-1.72.21-.18-.02-.42-.08-.58-.17-.06-.04-.3-.2-.2-.28.02-.02.06-.01.1 0 .12.06.23.14.37.19.31.1.63.07.94.02.13-.02.26-.03.38-.04.53-.07 1.01-.3 1.5-.48.57-.21 1.14-.45 1.69-.71.15-.07.29-.16.42-.25.34-.23.67-.46.98-.74.11-.1.21-.22.33-.32.13-.12.28-.21.4-.34.06-.06.61-.69.56-.74.21.25.21.29.01.51M24.05 11c-.26.29-.53.57-.87.78-.39.24-.79.48-1.19.7-.21.12-.45.2-.68.28-.51.18-1.02.38-1.54.52-.56.15-1.1.42-1.69.42-.24 0-.49-.04-.73-.1-.04-.01-.36-.17-.23-.22.08-.03.29.07.37.09.65.13 1.27-.03 1.88-.25.36-.13.71-.26 1.08-.35.58-.15 1.12-.4 1.63-.7.38-.22.75-.46 1.1-.71.2-.15.37-.35.55-.54.15-.15.28-.3.43-.44.03-.03.11-.12.15-.09.18.08-.22.55-.28.62m-.67.99s-.23.24-.43.4c-.38.3-.82.49-1.27.68-1.17.49-2.38.82-3.62 1.03-.16.03-.33.03-.49 0-.06-.01-.46-.18-.39-.26.03-.03.12 0 .15 0 .38.15.76.13 1.14.04.23-.05.44-.15.66-.22.33-.1.67-.18.99-.28.54-.17 1.08-.33 1.6-.54.29-.12.84-.34 1.21-.64.02-.02.05-.04.22-.18.36-.3.42-.34.53-.44.15-.14.21-.21.21-.2.01.01-.23.32-.53.62m-2.55-2.95c-.47.21-.93.43-1.39.64-.24.11-.47.27-.72.34-.26.07-.82.37-.87.39-.52.24-1.03.5-1.37 1-.24.35-.48.72-.37 1.18.13.54.33 1.02.83 1.35.42.28.82.43 1.31.34l.18-.03c.32-.08.63-.16.95-.23.83-.2 1.64-.43 2.43-.77.48-.21.97-.39 1.35-.76.34-.26.57-.6.81-.94.25-.34.48-.68.68-1.07.12-.24.21-.51.16-.78-.02-.14-.09-.26-.13-.39-.03-.11-.25-.39-.28-.41-.1-.08-.2-.15-.31-.21-.18-.09-.36-.09-.55-.1-.16 0-.75.15-.89.16-.48.06-.95.1-1.43.16-.14.02-.28.07-.41.13"/><path id="Fill-50" class="cls-2" d="M32.04 13.73s.06.07.08.11c.03.09.09.16.13.24.04.08.15.21.5.42.33.2.6.31.62.32.62.25 1.16.32 1.29.34.43.05.93.03 1.94-.1.74-.09 1.11-.17 1.57-.34.36-.13 1.62-.94 1.89-1.2.27-.27.61-.65.69-1.03.02-.08.03-.17.06-.25.13.29.14.55-.06.84-.47.69-1.11 1.15-1.86 1.49-.99.44-2.04.66-3.12.77-.79.08-1.58.1-2.36-.06-.22-.05-.43-.12-.64-.21-.23-.09-.38-.26-.47-.5-.07-.2-.19-.38-.27-.57a.444.444 0 0 1 0-.28m.12-1.07c.02-.26.08-.5.23-.74.09-.14.18-.28.3-.4.1-.1.51-.47.64-.56.24-.17.5-.37.78-.48.11-.05.19-.07.3-.14.11-.08.75-.36.95-.44.48-.17.98-.28 1.48-.22.58.06 1.15.19 1.66.51.14.09.27.18.42.25.6.3 1.1.73 1.57 1.21.07.07.12.17.14.27.01.05.02.09.01.14 0 .07 0 .12-.03.19-.02.06-.04.13-.06.19-.05.11-.11.22-.17.32-.11.16-.24.31-.39.44-.47.43-.92.87-1.48 1.18-.55.31-1.16.44-1.78.52l-.45.06c-.3.01-.59.03-.63.03-.5.04-1.01 0-1.5-.11a3.75 3.75 0 0 1-.71-.25c-.22-.1-.39-.23-.58-.35-.17-.11-.39-.27-.49-.44-.13-.22-.2-.49-.21-.75v-.43m8.86.43c.08.15.07.26-.05.39-.24.24-.46.5-.69.73-.32.32-.71.53-1.12.72-.86.38-1.77.58-2.68.75-.65.12-1.3.1-1.96.1-.35 0-.69-.01-1.04-.03-.28-.01-.47-.16-.6-.43.28.05.54.11.79.15.48.09.96.08 1.44.04.45-.04.89-.06 1.34-.11.84-.1 1.66-.28 2.44-.63.45-.2.87-.43 1.27-.73.32-.24.57-.55.79-.88.01-.02.04-.03.08-.07m-1.28 1.95c-.13.07-.59.3-1.11.58-.04.02-.07.04-.11.05-.74.19-1.47.37-2.21.55-.52.13-1.06.11-1.59.08-.33-.02-.65-.05-.98-.1-.32-.05-.62-.16-.85-.4.55.17 1.1.17 1.68.15.72-.03 1.43-.02 2.14-.15.73-.13 1.46-.25 2.16-.55.82-.35 1.29-.7 1.41-.79.36-.28.62-.57.8-.79-.26.37-.78 1.05-1.34 1.38m-.09.46c-.29.16-.56.24-.84.33-.66.21-1.24.3-1.63.33.82-.15 1.46-.38 1.9-.58.69-.3 1.01-.56 1.09-.63.43-.34.7-.71.87-.98-.48.94-1.09 1.34-1.4 1.51m-7.44-.46c.25.06.32.23.44.34.12.11.23.23.23.41-.3-.15-.49-.39-.67-.74m-.41-1.63c-.01.24 0 .49.03.73.04.24.08.48.17.71l.06.15c.04.08.08.17.1.25.04.11.07.21.13.31.14.22.34.43.59.52.13.04.24.14.36.21.14.08.28.15.43.19.36.11.71.17 1.08.13.69-.08 1.38-.16 2.07-.22.81-.08 1.6-.23 2.36-.5.68-.24 1.26-.63 1.69-1.22.22-.3.4-.62.38-1.01-.02-.28 0-.58-.06-.85-.15-.6-.22-1.25-.86-1.59-.02 0-.03-.03-.04-.04-.88-.74-1.81-1.4-2.99-1.62-.5-.1-.99-.11-1.48.03-.4.11-2.23.84-2.61 1.15-.09.07-.16.16-.26.23-.28.19-.51.48-.69.77-.18.28-.28.6-.41.91-.11.26-.04.51-.06.78"/><path id="Fill-52" class="cls-2" d="M27.54 17.67c-.29.51-.66.94-1.16 1.22-.47.26-.96.48-1.48.59-.37.08-.74.19-1.11.27-.1.02-.02-.09.14-.14.44-.14.88-.26 1.32-.41.22-.08.42-.21.62-.32.14-.08.27-.17.41-.25.39-.23.69-.55.98-.89.08-.09.13-.21.2-.33.11.06.15.12.08.25m-1.62 1.8c-.86.52-1.66.68-2.08.76-.23.04-.47.07-.94.13-.72.08-1.13.13-1.63.13-.37 0-.9-.04-1.54-.17a6.313 6.313 0 0 0 1.97-.01c1.06-.13 1.59-.19 1.92-.26.52-.11.9-.23 1.22-.33.59-.18.88-.28 1.2-.44.34-.17.85-.49 1.36-1.08-.54.66-1.1 1.06-1.48 1.28m-1.84.96c-.1.02-.37.07-.92.16-.3.05-.5.08-.76.11-.21.02-.39.03-.53.03-.58.01-1.15 0-1.16 0-.27.02-.5-.05-.66-.11-.43-.17-.64-.27-.64-.28 0-.02.25.05.74.19.17.04.31.06.39.07.14.01.3.02.34.02h.02c1 .01 1.55-.02 1.55-.02.82-.04 1.48-.21 1.62-.24.56-.14 1.05-.34 1.45-.53-.59.37-1.09.53-1.43.61m-4.89-.63c.12-.01.24.07.35.09.17.04.34.07.52.09.34.04.69.03 1.04.02.35-.01 2.11-.19 2.47-.18-.39.17-2.21.37-2.62.4-.38.03-.77.05-1.14-.03-.07-.01-.13-.03-.2-.05-.09-.03-.18-.06-.27-.1-.08-.04-.36-.22-.14-.24m-.35-.33a.582.582 0 0 1-.26-.44c-.02-.17.01-.34.06-.5.04-.13.16-.29.18-.41 0 .09 0 .18-.03.26-.11.25-.09.45.11.6.19.15.39.26.64.29.28.03.57.11.85.15.56.08 1.12.05 1.68-.04.57-.09 1.13-.21 1.69-.33.32-.07.63-.22.95-.26.41-.05.72-.3 1.06-.47.43-.22.74-.59 1-1 .05-.07.06-.23.14-.28.15-.08.23.13.27.26.03.08 0 .22-.06.29-.39.44-.8.87-1.31 1.18-.47.29-.99.4-1.49.57-.6.21-1.22.26-1.84.34-.63.08-1.26.12-1.9.15-.26.01-.53-.04-.79-.08-.21-.03-.42-.08-.63-.14-.11-.03-.21-.08-.3-.14m.15-1.19c.02-.15.17-.57.22-.65.04-.07.05-.14.09-.2.08-.14.22-.25.35-.34.16-.11.33-.22.53-.25.26-.05.5-.13.77-.15.22-.01.44-.16.64-.26.42-.22.86-.33 1.32-.41.14-.03.29-.03.43-.07.43-.11.83.03 1.25.1.22.04.65.19.65.2.23.06.46.13.68.18.26.06.47.23.6.46.16.29.02.46-.15.72-.06.09-.11.18-.19.24-.49.35-.99.65-1.58.82-.99.27-2 .45-3.02.59-.52.07-1.04.06-1.55-.08-.27-.07-.55-.06-.8-.22-.26-.17-.28-.36-.23-.67m8.39-1.34c-.38-.32-.8-.53-1.29-.65-.53-.12-1.04-.31-1.56-.48 0 .01-.88-.17-1.22-.05-.05.02-.1.02-.15.02-.32.04-.65.13-.96.22-.19.05-.39.11-.58.17-.17.05-.31.14-.47.22-.04.02-.08.04-.13.06-.16.06-.36.07-.52.09a2.528 2.528 0 0 0-1.32.68c-.27.26-.49.6-.65.95-.12.27-.12.59-.14.89 0 .12.05.25.11.36.09.18.2.34.31.5.25.35.6.58.97.75.29.13.63.18.95.21.71.06 1.41.04 2.12-.08.35-.06.7-.11 1.05-.16.28-.04.57-.09.82-.23.24-.14.49-.26.73-.39.32-.18.61-.41.9-.65.44-.36.89-.7 1.3-1.1.16-.16.22-.32.19-.53-.06-.33-.23-.59-.47-.79"/><path id="Fill-54" class="cls-2" d="M7.27 13.75c.23.26.55.45.85.68-.81-.24-1.35-.87-1.41-1.6.18.31.32.65.56.92m.13-.63c.13.19.27.34.39.45.22.23.54.29.83.34.63.11 1.27.17 1.91.13.2-.01.4 0 .6 0 .48-.01.96-.02 1.44-.11.4-.08.7-.3 1.04-.59-.12.37-.31.58-.62.68-.8.27-1.62.45-2.47.5-.65.03-1.31-.05-1.94-.2-.23-.05-.44-.14-.63-.26a1.95 1.95 0 0 1-.7-.79c-.2-.39-.24-.75-.25-.95.06.21.18.5.38.8m.02-1.14c.11-.14.26-.25.42-.35.27-.17.56-.36.85-.48.4-.16.84-.21 1.27-.21.68 0 1.36.1 2 .31.29.09.56.27.83.43.16.09.29.22.43.34.15.13.25.32.29.52.08.38-.04.82-.4 1-.31.16-.64.25-.99.29-1.13.11-2.25.03-3.38-.11-.43-.05-.79-.28-1.07-.59-.15-.17-.27-.35-.36-.55-.1-.21-.05-.41.1-.59m2.95 2.77c.92-.11 1.82-.26 2.7-.53-.81.62-1.76.57-2.7.53m-3.7-.73c.27.24.55.51.88.64.49.2 1.03.33 1.55.42.79.14 1.59.14 2.4.08.58-.04 1.09-.2 1.54-.57.09-.08.19-.15.27-.24.27-.33.48-.69.57-1.11.08-.35.05-.68-.17-.97-.41-.52-.92-.94-1.57-1.15-.39-.12-.78-.23-1.18-.3-.45-.07-.91-.11-1.36-.1-.46 0-.9.18-1.3.39-.32.16-.65.32-.96.51-.18.11-.35.23-.5.39-.29.32-.43.71-.42 1.13 0 .31 0 .65.25.87"/><path id="Fill-56" class="cls-2" d="M24.9 4.33h.01c.07-.02.04.12.02.16-.06.09-.18.12-.28.11h-.01v-.01c-.04-.16.16-.22.27-.25m.71 1.85c.34.35.75.62 1.14.91.33.25.68.46 1.04.63.44.21.87.46 1.36.54l.63.09c-.35.2-.71.2-1.07.04-.36-.16-.73-.32-1.07-.53-.48-.31-.97-.6-1.39-1-.16-.16-.36-.28-.52-.43-.28-.26-.55-.52-.81-.8-.1-.12-.15-.29-.22-.44-.08-.17-.02-.28.14-.38.02.07.05.13.06.2.11.48.39.84.72 1.18m-.49-1.49c.01-.09.03-.19.13-.22.12-.03.25-.05.37-.06h.1c.16-.01.33-.04.48 0 .16.05.33.09.49.14.32.12.63.27.94.42.39.18.68.5 1.03.73.44.29.75.73 1.12 1.1.35.35.54 1.43-.22 1.33-.22-.03-.46-.01-.66-.1-.71-.3-1.42-.62-2.06-1.07-.48-.34-.93-.71-1.31-1.17-.26-.32-.47-.66-.4-1.11m3.57 4.02c-.41-.06-.76-.28-1.1-.5-.53-.34-1.07-.68-1.59-1.04-.3-.21-.58-.45-.88-.67-.22-.16-.35-.38-.38-.7.24.22.43.41.64.59.3.26.62.5.92.76.52.46 1.11.79 1.72 1.1.42.22.84.47 1.34.45-.22.12-.45.05-.67.02m-2.53-1.2c.65.41 1.31.82 1.95 1.23-.38 0-1.66-.77-1.95-1.23m-1.23-.74c.43.41.84.84 1.33 1.19.5.36 1.02.68 1.59.92.68.28 1.35.32 2.04.05.27-.11.42-.28.45-.57.06-.52 0-1.01-.28-1.48-.2-.34-.49-.59-.76-.85-.37-.37-.81-.66-1.23-.96-.4-.29-.84-.5-1.31-.67-.58-.21-1.16-.37-1.79-.25-.05 0-.1.03-.15.02-.24-.04-.34.12-.4.3-.16.46-.19.94-.05 1.42.11.35.29.65.54.89"/><path id="Fill-58" class="cls-2" d="M16.79 1.71c.05-.08.11-.13.21-.22.04-.03.07-.07.08-.06.02.01-.1.14-.2.35-.06.14-.12.27-.06.38 0 0 .05.1.14.11h.05c.04-.03-.03-.14-.03-.21 0-.2.57-.34.9-.42.73-.19.4-.14 1.09-.32.62-.16 1.24-.26 1.88-.28.31 0 .9.07 1.02.4.05.13-.03.26-.2.28-.49.08-.98.14-1.48.21H20v-.24c.2 0 .39-.06.57.09.11.09.22-.09.12-.2-.06-.07-.23-.1-.31-.1-.5 0-1 .04-1.47.21-.07.02-.14.04-.21.05-.32.04-.55.22-.74.45-.04.05-.04.13-.06.23-.39.13-.76.04-1.11-.17-.04-.02-.09-.11-.1-.23-.01-.13.05-.24.1-.31m4.6-.86c-.68-.02-1.35.05-2.01.2-.66.16-1.31.38-1.98.58.47-.48 3.38-1.06 3.99-.78m-3.43.12c.28-.1.58-.16.87-.24.61-.17.54-.17.81-.22.27-.05.62-.12 1.06-.07.21.02.54.08.91.26-.27-.05-.67-.1-1.14-.08-.37.02-.67.07-1.43.27-.45.11-1.03.27-1.7.47.16-.2.39-.29.62-.37M19.14.4c.41-.11.78-.15 1.06-.16-.35.08-.71.17-1.08.27-.31.08-.62.17-.91.26.24-.12.55-.26.93-.36m2.25.09c-.29-.08-.6-.16-.88-.24.31-.08.73.04.88.24m-2.74 1.66c-.14.03-.26.06-.38.07.05-.06.13-.16.26-.24.14-.08.3-.12.32-.1 0 .02-.07.06-.06.09 0 .03.09.04.39 0-.15.06-.33.11-.53.16m-2.03.25c.26.2.57.23.89.28h.12c.14-.04.28-.07.42-.12a8.74 8.74 0 0 1 2.63-.49c.41-.01.8-.09 1.18-.24.32-.12.37-.28.18-.56-.07-.1-.15-.19-.12-.33a.24.24 0 0 0-.04-.18c-.22-.38-.49-.69-.97-.72-.27-.02-.54-.05-.81.03-.11.03-.23.03-.34.05-.61.12-1.23.19-1.76.57-.23.17-.49.31-.75.43-.4.19-.61.51-.77.88-.09.21-.06.27.14.41"/><path id="Fill-60" class="cls-2" d="M10.83 5.29c.16-.22.35-.39.64-.39.32 0 .6.12.89.21.67.21 1.35.36 2.06.33.28-.01.55-.05.82-.09.32-.05.68.01.96.18.14.08.27.2.36.35.12.21.09.33-.03.52-.13.21-.36.32-.58.39-.57.18-1.15.29-1.74.32-.45.02-.87-.11-1.3-.22-.53-.13-1.03-.37-1.5-.65-.22-.14-.41-.35-.59-.55-.1-.11-.09-.28 0-.4m1.7 1.77a4.68 4.68 0 0 1-1.63-1.08c.38.32.96.72 1.74.98 1.53.52 2.87.16 3.41-.03-.42.18-1.88.75-3.51.12m1.02.71c-1.35-.16-2.18-1.05-2.41-1.3.34.29.92.72 1.74.97 1.25.38 2.31.11 2.76-.03-.33.17-1.1.49-2.09.37M12 7.54c.47.27 1 .34 1.52.41.47.06.94.15 1.42.04.34-.07.68-.2.96-.42.26-.2.5-.41.74-.63.2-.19.32-.47.33-.76 0-.32-.2-.55-.44-.72-.11-.08-.23-.16-.34-.23-.15-.09-.33-.08-.49-.1-.22-.03-.44 0-.66 0-.35.03-.7.11-1.04.08-.68-.06-1.36-.18-2-.46-.36-.15-.71-.16-1.03.08-.36.27-.53.51-.38.98.25.78.74 1.34 1.41 1.73"/><path id="Fill-62" class="cls-2" d="M1.47 11.83c.17-.27.38-.52.62-.74.25-.22.49-.46.73-.68.51-.47 1.06-.88 1.74-1.08.16-.05.34-.08.44.08.1.17.09.37.09.56 0 .14 0 .28-.02.42-.06.36-.17.7-.5.91-.11.07-.19.19-.29.28-.17.18-.37.32-.59.45-.55.35-1.09.7-1.73.86-.19.05-.36.15-.57.1a.375.375 0 0 1-.21-.14.31.31 0 0 1-.06-.13c-.1-.27.2-.68.34-.91m3.83-2.44c.18.01.26.15.29.28.17.7 0 1.23-.68 1.64v-.05c.38-.42.45-.93.45-1.46 0-.13-.05-.27-.07-.41m-3.99 3.79c.17 0 .42 0 .72-.06.33-.08.62-.2 1.13-.54.24-.16.5-.3.74-.47.19-.13.35-.3.53-.44.15-.12.3-.22.46-.33-.11.16-.21.34-.35.47-.26.25-.54.49-.84.71-.17.13-.32.19-.52.29-.3.15-.53.26-.8.34-.22.06-.59.12-1.07.04m2.46-.31c-.16.1-.45.27-.88.39-.47.13-.88.14-1.18.12.31-.02.71-.08 1.16-.24.25-.09.53-.19.82-.41 0 0 .17-.11.34-.25.6-.48 1.49-1.48 1.62-1.64-.22.36-.89 1.41-1.89 2.02m-2.68.59c.22.07.45.12.68.12.59 0 1.17-.12 1.74-.28.14-.04.27-.13.37-.22.43-.38.84-.78 1.28-1.15.46-.4.71-.89.73-1.49 0-.42-.03-.61-.16-.92-.11-.24-.29-.39-.55-.41-.2-.01-.4 0-.59.03-.52.09-.95.38-1.37.69-.34.25-.63.58-.97.84-.36.28-.62.65-.93.97-.29.3-.41.69-.57 1.06-.13.3.02.65.34.75"/><path id="Fill-64" class="cls-2" d="M32.58 23.87c-.01.44-.66 1.16-1.35 1.62.03-.05.06-.1.1-.15.06-.06.12-.11.18-.17.2-.22.19-.31-.09-.46.27-.31.92-.79 1.15-.83m-1.49.72c.07-.06.13-.13.2-.18.07-.05.16-.09.27-.16-.16.14-.3.26-.43.38l-.04-.04m-.22 1.06c-.07.1-.15.19-.19.25-.16.22-.42.41-.67.52-.06.03-.69.09-.67.05.25-.42.96-1.13 1.45-1.23.38-.08.24.18.08.41m1.19-2.19c-.63.64-1.34 1.18-2.15 1.56-.5.23-.95.52-1.36.89-.31.28-.52.62-.51 1.06 0 .16.03.31.25.35 0-.05.02-.1 0-.13-.17-.35-.02-.66.19-.92.18-.22.42-.41.66-.57.48-.3.98-.56 1.47-.84.07-.04.15-.05.22-.08 0 .02.02.03.03.05-.26.2-.54.38-.79.59-.27.22-.53.44-.77.69-.12.13-.19.32-.25.49-.04.09.01.22.13.21.33-.04.67 0 .96-.22.37-.27.74-.55 1.11-.82.41-.29.79-.63 1.09-1.02.2-.25.32-.55.45-.84.04-.09.07-.23-.05-.31-.12-.08-.24-.01-.36.03-.04.02-.07.05-.1.07-.17.12-.33.24-.5.36.26-.3.52-.59.8-.86.16-.16.33-.31.5-.45.15-.11.31-.04.3.15-.01.37.01.75-.26 1.07-.15.17-.28.36-.43.53-.21.24-.43.48-.65.72-.04.04-.09.09-.08.15.03.22.27-.08.31-.13.13-.13.26-.26.38-.4.2-.23.39-.48.58-.73.28-.37.36-.8.32-1.23-.03-.4-.32-.51-.62-.26-.31.26-.61.54-.89.83"/><path id="Fill-66" class="cls-2" d="M27.94 27.31c.09.02.19.06.22-.08.03-.11-.05-.13-.13-.17-.21-.09-.37-.32-.31-.48.1-.25.2-.52.38-.69.34-.33.69-.66 1.12-.89.24-.13.46-.31.69-.46.38-.24.77-.46 1.13-.72.38-.27.71-.62 1-1 .22-.28.41-.6.72-.8.12-.08.25-.16.38-.25-.04-.04-.05-.06-.06-.06h-.09c-.41.05-.64.35-.85.66-.3.44-.67.8-1.06 1.16-.1.09-.21.15-.32.23.14-.24.3-.44.45-.64.31-.41.62-.82.94-1.22.19-.24.44-.39.74-.46.11-.03.21-.09.3-.15.03-.02.04-.1.03-.14-.02-.03-.09-.07-.12-.06-.3.11-.62.17-.87.42-.5.5-.91 1.06-1.31 1.64-.47.66-1.08 1.17-1.75 1.57-.34.2-.68.46-1.09.55-.2.05-.36.29-.36.48.17-.1.33-.2.49-.3 0 .01.02.02.03.04-.05.05-.09.11-.15.16-.27.23-.42.53-.54.85-.13.34.07.75.39.82"/><path id="Fill-68" class="cls-2" d="M2.71 20.73c.18-.17.34-.34.53-.49.44-.34.96-.45 1.47-.53.3-.05.61-.01.92-.03.45-.03.9-.07 1.35-.1.23-.02.47-.03.77-.03.88 0 1.32 0 1.7.18.64.31.95.97.94.97 0 0-.19-.3-.55-.56-.28-.2-.57-.32-.87-.39-.66-.16-1.05-.03-2.49.07-.73.05-1.46.03-2.17.27-.13.04-.26.08-.39.11-.6.13-1 .53-1.29 1.07-.04.07-.07.17-.06.25 0 .07.08.13.12.2.04-.05.1-.1.11-.16.05-.28.21-.48.41-.67.37-.34.84-.45 1.28-.6.42-.15.87-.15 1.31-.18 1.08-.07 2.15-.22 3.23-.12.54.05 1.14.54 1.22 1.1.02.1 0 .23-.05.31-.28.51-.67.88-1.22 1.02-.11.03-.19.07-.2.2.1.09.2.06.29 0 .25-.13.51-.24.73-.4.33-.25.62-.54.77-.96.11-.31.19-.62.03-.95-.22-.46-.56-.76-1.03-.86a9.58 9.58 0 0 0-1.31-.17c-.4-.02-.8.02-1.2.04-.53.03-1.07.08-1.6.09-.39.01-.77.05-1.16.12-.71.12-1.23.56-1.76 1.01-.04.04-.08.15-.06.19.06.1.14.05.21-.02"/><path id="Fill-70" class="cls-2" d="M9.6 21.3c.08-.18.05-.33-.06-.48-.21-.28-.52-.42-.85-.45-.44-.03-.88.02-1.32 0-.55-.02-1.1.07-1.64.15-.21.03-.42.07-.63.12-.37.09-.75.17-1.11.31-.39.16-.77.35-1.02.71-.06.1-.13.22-.12.33.01.13 0 .28.07.4s.17.26.28.34c.12.09.22.2.36.26.09.04.19.05.28.04.02 0 .04 0 .05-.02.02-.01.02-.03.02-.06 0-.08-.06-.15-.12-.2-.08-.06-.16-.1-.24-.14-.02-.01-.05-.03-.07-.04-.31-.18-.5-.54-.27-.85.19-.27.48-.39.76-.52.31-.15.64-.23.97-.28.41-.07.82-.17 1.23-.22.2-.03.4-.06.6-.07.2-.01.4 0 .6-.01.41-.04.84 0 1.25.09.24.05.49.12.69.26.18.12.1.37 0 .53-.16.23-.38.38-.64.47-.07.02-.14.03-.2.06s-.12.11-.09.17c.09.24.61-.12.72-.21.22-.18.39-.41.5-.68"/><path id="Fill-72" class="cls-2" d="M4.43 22.54c-.21-.14-.88-.15-.52-.54.22-.22.47-.45.76-.56.48-.18 1-.28 1.5-.37.69-.12 1.39-.16 2.09-.13.06 0 .12.02.18.04.17.05.61.16.45.43-.02.04-.05.07-.05.11-.02.16.27.15.34.07a.52.52 0 0 0 .1-.31c-.02-.21-.29-.37-.46-.43a2.45 2.45 0 0 0-.89-.15c-.85 0-1.68.15-2.52.32-.46.1-.9.23-1.31.45-.28.15-.68.62-.49.96.02.03.04.07.07.1.07.07.15.12.24.16.11.06.41.22.53.13.09-.07.05-.23-.04-.29"/><path id="Fill-74" class="cls-2" d="M8.23 21.53c-.12-.04-.25-.05-.38-.06-.19-.02-.38-.03-.57-.04h-.13c-.2 0-.4.02-.6.04-.1.01-.52.07-.63.08-.27.05-.54.11-.8.2-.11.04-.29.08-.38.15-.09.07-.14.3-.03.37.07.04.16.06.23.03.02 0 .04-.01.05-.03.02-.02.03-.04.04-.06.03-.09.06-.19.13-.25.06-.05.11-.05.18-.07.07-.02.14-.05.21-.07.17-.05.35-.08.53-.09.37-.02.74-.07 1.11-.06.32 0 .63.07.94.12.09.01.2.05.24-.05.05-.12-.04-.18-.15-.22"/><path id="Fill-76" class="cls-2" d="M8.23 21.97c-.08-.01-.15.02-.23.04-.17.04-.35.1-.52.11-.63.05-1.27.08-1.91.12-.09 0-.21 0-.21.14 0 .17.13.12.21.12h.09c.44-.04 2.02-.09 2.15-.1.15-.01.32-.03.45-.13.04-.03.13-.09.13-.15v-.01c-.01-.08-.11-.12-.17-.13"/><path id="Fill-78" class="cls-2" d="M19.92 27.44c.03-.2-.02-.41-.03-.61.02 0 .21.46.21.69 0 .22-.18.38-.39.53.08-.22.18-.41.21-.61m-5.74.69c.14.08.43.28.6.22.03 0 .05-.03.06-.07a.15.15 0 0 0-.04-.11c-.03-.03-.07-.05-.1-.07a2.03 2.03 0 0 0-.26-.11.708.708 0 0 1-.28-.16c-.02-.01-.03-.02-.05-.04-.02-.01-.03-.03-.05-.04-.4-.32-.3-.91-.04-1.29.32-.45.74-.74 1.26-.88.39-.1.8-.17 1.21-.19.41-.02.82 0 1.23.05.51.07 1 .24 1.43.53.23.15.48.28.56.63-.13-.1-.23-.19-.33-.26-.13-.09-.26-.21-.41-.26-.51-.15-1.03-.28-1.55-.41-.15-.04-.3-.09-.45-.09-.62-.02-1.24.03-1.8.33-.15.08-.26.2-.4.28-.29.16-.41.42-.51.73-.04.1.03.37.19.3.04-.02.06-.06.09-.09.07-.14.1-.3.18-.43.08-.12.18-.23.28-.34.1-.1.18-.22.31-.29.18-.1.41-.15.6-.19.43-.1.88-.12 1.31 0 .23.06.47.08.7.14.41.11.82.18 1.21.37.33.16.64.71.59 1.07-.03.17-.07.31-.21.43-.12.11-.25.24-.4.32-.05.03-.11.03-.17.06-.06.02-.12.05-.18.06-.05.02-.12.03-.16.06-.12.1 0 .21.12.2.19-.01.38-.08.56-.14.32-.11.63-.2.86-.46.22-.25.36-.48.18-.85-.14-.27-.23-.57-.42-.82-.09-.12-.17-.27-.29-.36-.48-.34-1.01-.59-1.6-.7-.13-.02-.26-.07-.4-.07-.44 0-.88.02-1.32.02-.48 0-.9.2-1.33.34-.25.08-.44.26-.65.4-.1.07-.19.16-.26.26-.09.12-.18.25-.25.39-.17.32-.26.67-.1 1.01.11.23.3.41.52.53"/><path id="Fill-80" class="cls-2" d="M18.61 27.62s.05.08.08.11c.07.07.16.1.28.1.16 0 .31-.05.39-.19.21-.35.13-.72-.19-.98-.18-.15-.38-.22-.59-.28-.39-.11-.77-.27-1.17-.3-.78-.06-1.5.14-2.13.64-.38.3-.38.88.13 1.09.4.16.82.27 1.24.39.09.02.31.03.24-.12-.04-.09-.17-.11-.25-.13-.11-.03-.22-.05-.34-.08-.22-.05-.45-.11-.67-.17a.814.814 0 0 1-.31-.18c-.19-.17-.21-.35-.04-.53.12-.13.28-.23.43-.32.62-.38 1.28-.43 1.98-.33.3.04.56.2.86.25.21.04.43.19.59.35.08.08.12.19.12.3 0 .17-.13.3-.3.29-.1 0-.11-.1-.14-.17a.743.743 0 0 0-.13-.21.847.847 0 0 0-.42-.28c-.16-.05-.34-.07-.51-.09-.63-.09-1.22.07-1.81.25-.07.02-.19.14-.09.21.03.02.06.02.09.02.17 0 .31-.07.46-.13.16-.06.32-.11.49-.13.29-.04.58-.02.87-.03.15 0 .32.05.46.13.11.06.26.17.31.29.03.07.04.15.07.22"/><path id="Fill-82" class="cls-2" d="M17.97 27.7c-.02.05-.18.07-.22.08-.09.01-.18.01-.26 0-.06 0-.46-.04-.45-.15.03-.11.33-.08.41-.08.1 0 .2 0 .3.02.05 0 .27.05.22.14m.02-.31c-.08-.03-.17-.07-.25-.07-.24 0-.48.01-.72.05-.08.01-.2.09-.22.16-.06.24.19.38.36.44.26.09.53.08.8.04.15-.02.25-.15.26-.3 0-.15-.06-.26-.23-.32"/><path id="Fill-84" class="cls-2" d="M41.85 19.58c.07.06.18.07.27.06.03 0 .06 0 .07-.02 0 0 .01-.02.02-.03.01-.04.01-.09-.02-.12-.04-.04-.09-.06-.11-.11-.02-.05 0-.12.02-.16.05-.09.11-.2.21-.23.43-.16.87-.31 1.32-.4.63-.12 1.27-.14 1.9-.25.57-.1 1.15-.1 1.73-.1.38 0 .75.03 1.09.19.24.11.54.22.53.57 0 .08.04.16.16.13.12-.25.1-.42-.1-.57-.17-.12-.36-.23-.56-.31-.58-.24-1.2-.19-1.81-.15-.64.04-1.27.17-1.91.21-.76.05-1.49.21-2.22.42-.33.09-.55.31-.63.63-.02.08-.04.19.04.25"/><path id="Fill-86" class="cls-2" d="M48.46 18.88a1.71 1.71 0 0 0-.52-.31c-.41-.16-.85-.15-1.28-.16-.4-.02-.81 0-1.21.05-.54.07-1.08.1-1.62.21-.24.05-.48.11-.71.18-.11.04-.24.07-.34.13-.14.08-.3.16-.27.36 0 .02.01.04.03.05.01 0 .03.01.05 0 .11 0 .22-.06.31-.14.13-.1.23-.22.39-.29.15-.06.31-.09.47-.11.5-.06 1-.14 1.5-.21.65-.09 1.3-.11 1.96-.03.2.02.41.06.6.14.28.12.57.26.49.66 0 .01.02.03.04.05.12.03.17-.04.21-.13.06-.17.04-.34-.09-.45"/><path id="Fill-88" class="cls-2" d="M47.02 18.93c-.29 0-.57.02-.86.03-.4.03-.8.05-1.2.1-.26.03-.53.11-.79.14-.27.03-.53.11-.78.23-.12.06-.24.13-.36.2-.09.05-.2.16-.16.29.01.05.06.08.11.08s.09 0 .13-.03c.18-.08.3-.25.45-.38.17-.14.37-.2.58-.23.57-.09 1.14-.15 1.71-.19.4-.03.8-.03 1.2-.03.22 0 .39.09.51.28.05.08.1.19.2.16.11-.03.11-.18.09-.28-.09-.39-.55-.38-.84-.38"/><path id="Fill-90" class="cls-2" d="M47.31 19.59c-.03-.15-.1-.22-.25-.23-1.03-.1-1.19-.05-1.19-.05-.43.04-.64.05-.84.08-.81.1-1.05.19-1.23.36-.05.04-.22.21-.21.4 0 .12.06.2.17.21.15.02.44.06.46-.16 0-.04-.02-.09-.06-.1H43.93c-.04-.02-.06-.08-.04-.12.04-.1.16-.14.25-.17.1-.04.19-.07.29-.1a5.634 5.634 0 0 1 1.46-.23c.21 0 .51 0 .86.03-.45 0-.98.04-1.57.19-.1.03-.2.05-.3.08-.09.03-.18.04-.25.09-.04.03-.08.09-.07.14 0 .08.09.16.16.21.07.06.16.09.26.1h.11c.34 0 .67-.02 1-.09.16-.03.3-.07.45-.12.05-.02.13-.03.14-.1.02-.2-.19-.12-.3-.1-.17.03-.34.06-.52.08-.19.03-.37.05-.56.07-.06 0-.41.06-.33-.1.02-.05.11-.07.16-.09.14-.05.28-.09.42-.1l.49-.03c.23-.01.46-.04.69.02.06.02.18.03.22.07.09.08-.01.2 0 .29 0 0 0 .02.01.02l.02.01c.34.12.37-.24.34-.48 0-.03 0-.05-.01-.07"/><path id="Fill-92" class="cls-2" d="M18.92 11.77s.04-.05.05-.08c.13-.28.37-.43.6-.61.56-.43 1.12-.85 1.79-1.07.19-.06.38-.08.57-.12.07-.01.17-.06.24-.03.12.05.07.17 0 .25-.03.04-.18.13-.19.19v.03c.08.11.34-.1.41-.15.11-.08.12-.21.07-.34-.08-.19-.21-.23-.5-.21-.54.04-1.01.28-1.46.54-.43.25-.82.58-1.21.88-.15.11-.63.4-.52.64.03.06.1.09.15.06"/><path id="Fill-94" class="cls-2" d="M21.53 10.65c-.12.02-.27.2-.36.27-.2.16-.42.29-.65.39-.12.05-.24.1-.36.14-.13.07-.24.12-.39.12h-.03v-.03c.04-.11.13-.19.22-.25.08-.06.17-.11.25-.16.2-.13.41-.24.62-.34.14-.07.29-.11.43-.17.06-.02.3-.09.31-.16 0-.04-.03-.08-.08-.09-.06 0-.12 0-.18.02-.09.03-.18.07-.25.1-.17.06-.33.13-.49.21-.32.15-.62.34-.89.56-.1.08-.2.22-.22.35-.04.28.41.17.55.12.2-.07.39-.15.58-.25.2-.11.38-.23.56-.36.09-.07.18-.14.27-.22.05-.04.17-.1.18-.17 0-.04-.04-.07-.08-.07"/><path id="Fill-96" class="cls-2" d="M35.7 13.02c.24-.13.73-.21.81-.23.1-.03.19-.07.29-.09.2-.03.41-.04.61 0 .11.02.25.05.33.13.17.17-.21.22-.31.24-.15-.37-.46-.22-.71-.21-.12 0-.34.05-.34.21 0 .04.02.07.05.09.11.1.37.05.51.06-.11 0-.25.05-.36.07-.13.02-.25.04-.38.04-.15 0-.52.04-.62-.1-.06-.08 0-.15.11-.21m-.51.32c.02.09.12.16.2.2.19.1.42.11.63.1.46-.02.92-.08 1.36-.2l.63-.18c.2-.06.37-.18.54-.28.27-.16.21-.39.21-.62 0-.23-.2-.26-.36-.32-.86-.35-1.74-.27-2.61-.06-.32.08-.63.21-.93.36-.22.11-.44.22-.63.38-.13.11-.22.24-.27.41-.02.09-.01.23.07.3.09.09.22.05.25-.08v-.1c0-.21.14-.45.31-.57.12-.09.28-.16.41-.22.14-.07.29-.14.44-.19.3-.1.61-.17.92-.2.49-.06 1.08-.09 1.55.07.22.08.48.15.6.38s-.15.41-.33.45c-.1-.25-.21-.37-.47-.42-.59-.11-1.19-.14-1.78.03-.37.11-.73.22-1.06.46a.9.9 0 0 0-.32.35c-.04.08-.03.34-.1.37-.04.02-.14-.04-.18-.05-.08-.03-.16-.04-.24-.07-.16-.06-.3-.16-.44-.26-.03-.02-.05-.04-.08-.04-.05 0-.11.04-.11.09 0 .13.23.23.32.28.13.07.27.12.42.16.29.07.59.09.89.13.32.04.62.11.94.13.37.03.74.04 1.1 0 .57-.07 1.13-.28 1.53-.69.03-.03.06-.07.09-.11.05-.07.08-.16.07-.24 0-.01 0-.03-.02-.04h-.04c-.15.03-.24.17-.36.25-.13.09-.26.17-.4.24-.27.13-.57.23-.87.28-.38.06-.77.1-1.15.1-.32 0-.63-.07-.92-.22-.12-.06-.22-.19-.18-.33.03-.09.11-.14.18-.18.07-.03.14-.05.21-.07 0 .08-.04.2-.02.28"/><path id="Fill-98" class="cls-2" d="M33.56 13.03c.16.04.17-.12.21-.23.06-.16.14-.31.26-.43.01-.01.02-.02.03-.04.16-.17.37-.27.56-.4.19-.13.35-.31.55-.38.44-.15.89-.28 1.35-.36.28-.05.59-.02.88.01.28.03.56.11.83.18.31.08.62.16.69.56.02.09.05.19.2.17.02-.04.05-.08.05-.13.01-.23-.22-.58-.43-.66-.52-.2-1.06-.29-1.6-.36-.19-.03-.4-.06-.58 0-.61.2-1.27.28-1.87.68.04-.09.04-.14.07-.18.23-.33.57-.5.92-.64.48-.2.96-.34 1.48-.15.11.04.24.04.36.07.34.1.72.05 1.03.25.21.13.42.25.63.39.31.21.35.77.08 1.04-.03.03-.06.08-.1.11-.05.05-.15.19-.07.26.05.04.16.02.21-.02.06-.04.1-.1.14-.16.06-.11.11-.23.16-.35.04-.11.06-.24.04-.35-.02-.1-.01-.21-.04-.31-.04-.12-.08-.26-.17-.32-.36-.25-.71-.52-1.14-.64-.07-.02-.14-.02-.21-.03-.19-.03-.39-.03-.57-.1-.61-.22-1.2-.18-1.79.07-.4.17-.78.37-1.05.73-.1.12-.18.26-.28.38-.12.15-.31.24-.44.38-.11.11-.22.21-.31.33-.12.16-.4.55-.07.65"/><path id="Fill-100" class="cls-2" d="M20.27 18.51c.16.05.31.1.47.14.83.17 1.64.15 2.44-.14.49-.18.99-.34 1.48-.53.32-.12.63-.26.82-.56.12-.19.08-.47-.11-.57-.15-.08-.31-.15-.47-.22-.1-.04-.16 0-.16.12.06.03.11.07.17.11.06.04.13.07.19.1.23.12.27.29.09.48-.06.07-.13.13-.21.17-.44.25-.9.47-1.41.6-.13.03-.26.07-.38.12-.93.31-1.86.39-2.8.02-.2-.08-.25-.21-.13-.37.05-.07.14-.15.23-.11.08.04.07.14.1.21.02.07.06.13.11.19.11.11.28.16.44.17.15.01.31.02.47 0 .29-.03.58-.06.86-.11.33-.05.66-.09.97-.18.34-.09.66-.23.98-.36.23-.1.49-.24.54-.5.04-.2-.28-.44-.47-.31-.04.03-.06.07-.05.11 0 .03.03.05.05.08.04.05.08.11.08.18.01.11-.05.17-.14.22-.1.06-.21.12-.31.16-.21.09-.44.16-.67.21-.34.08-.69.13-1.03.19-.16.03-.32.02-.48.04.08-.06.16-.06.23-.08.55-.16 1.09-.32 1.63-.49.14-.05.28-.14.4-.22.04-.02.07-.06.07-.11a.3.3 0 0 0-.06-.11c-.01 0-.03-.01-.05 0-.1.01-.15.1-.23.14-.12.06-.22.14-.35.19l-.48.15-.96.27c-.25.07-.51.09-.77.08-.13 0-.27-.02-.39-.07-.05-.02-.12-.04-.15-.08a.406.406 0 0 1-.04-.19v-.06c0-.03 0-.06-.02-.09 0-.02-.02-.04-.04-.04h-.06c-.29.02-.53.34-.63.58-.1.22 0 .42.23.49"/><path id="Fill-102" class="cls-2" d="m21.55 17.17.35-.09c.5-.14 1.01-.25 1.54-.25.08 0 .39-.04.36.1-.03.11-.26.14-.35.17-.32.09-.64.17-.97.25-.16.04-.32.09-.48.12-.13.02-.24-.05-.36-.09-.05-.02-.11-.01-.14.02-.04.04-.05.16 0 .21.07.06.18.09.27.08.57-.05 1.11-.19 1.64-.39.12-.05.25-.09.37-.15s.21-.08.3-.19c.02-.02.04-.05.04-.08.04-.21-.26-.28-.41-.26-.18.03-.37.04-.55.05-.59.03-1.15.21-1.71.38-.04.01-.15.06-.18.12v.04c.04.06.23-.03.28-.04"/><path id="Fill-104" class="cls-2" d="M8.84 13.12c.35.09 1.12.28 1.24-.3.05-.24.25-.37.48-.3.06.02.12.07.08.13-.03.05-.12.04-.13.12-.04.25.34.07.42.03.2-.1.21-.27.03-.4a.326.326 0 0 0-.19-.08c-.32-.04-.64-.02-.94.09-.13.05-.21.12-.11.27.03.04 0 .12 0 .16-.15.01-.46-.01-.46-.22 0-.13.04-.16.15-.2.12-.05.24-.1.37-.14.25-.06.5-.08.75-.09.16 0 .32 0 .48.06.14.05.28.1.35.26.07.16-.03.34-.19.41-.08.04-.16.11-.04.22.08-.02.18-.02.24-.08.12-.12.29-.26.3-.39 0-.17-.05-.39-.26-.48-.37-.16-.75-.3-1.16-.21-.32.07-.64.14-.96.23-.31.09-.38.21-.29.52.02.06.06.11.1.19a.832.832 0 0 1-.51-.23c-.22-.21-.21-.41.06-.57.36-.21.76-.3 1.18-.28.48.02.95.08 1.43.12.29.02.56.24.67.51.06.16.06.32-.07.43-.09.08-.24.09-.31.18-.13.17.19.12.26.09.28-.09.5-.32.5-.59 0-.1-.03-.22-.12-.32-.21-.29-.61-.47-.95-.52-.41-.06-.83-.09-1.25-.12-.4-.03-.8.04-1.18.19-.19.07-.36.21-.51.36-.15.14-.14.35-.01.52.14.19.31.37.53.43"/><path id="Fill-106" class="cls-2" d="M26.24 5.48s.09-.04.11-.08c.03-.07.02-.18.13-.18.05 0 .1.02.14.02.19.02.39.06.56.14.23.1.47.2.72.28a1.975 1.975 0 0 1 1.1.96c.05.1.13.21.13.32 0 .13-.13.13-.23.15h-.04c-.04.02-.08.06-.08.11v.03c0 .01.02.02.03.02.11.06.24.05.37.05.11 0 .16-.09.24-.14.04-.03.04-.01.03-.06 0-.03-.02-.06-.03-.09-.02-.06-.03-.12-.06-.17-.11-.19-.25-.37-.36-.56-.22-.39-.57-.61-.98-.77-.31-.11-.61-.23-.91-.37-.25-.11-.51-.16-.77-.17-.21 0-.35.24-.25.41.02.04.08.07.13.07"/><path id="Fill-108" class="cls-2" d="M28.87 6.62c-.22-.21-.44-.44-.71-.58-.21-.11-.43-.22-.65-.32-.11-.05-.22-.1-.33-.14-.09-.04-.17-.09-.26-.13a.313.313 0 0 1-.1-.05c-.04-.02-.09-.03-.13-.04a.56.56 0 0 0-.42.11s-.01.01-.01.02v.02c.03.06.11.08.18.08.09 0 .18-.02.27 0 .1.01.2.06.3.09.19.07.37.16.55.25.2.11.4.21.58.33.09.06.18.13.27.2.06.05.21.17.19.26-.01.05-.16 0-.21 0-.04 0-.07 0-.11.02-.01 0-.09.07-.08.08.15.19.35.16.55.09.18-.06.24-.18.12-.29"/><path id="Fill-110" class="cls-2" d="M27.39 6.28s-.16-.05-.14-.1c0 0 0-.01.01-.02.04-.04.15 0 .2.02.07.02.13.05.19.09.06.04.12.1.18.15.03.03.12.16.15.16-.24 0-.4-.16-.6-.29m.7.1a2.38 2.38 0 0 0-.54-.35c-.1-.04-.2-.08-.3-.1-.05-.01-.1-.03-.16-.03-.05 0-.09.01-.14.01h-.09c-.03.01-.05.05-.06.08-.05.14.07.22.16.27.26.16.52.32.78.46.1.05.22.06.33.05.13-.01.17-.12.11-.25a.327.327 0 0 0-.11-.15"/><path id="Fill-112" class="cls-2" d="M11.99 5.86s.07.03.11.03.08-.02.1-.06c.01-.03.01-.06.02-.09.02-.06.07-.09.13-.11.05-.01.1 0 .16 0 .12.02.24.07.35.09.18.05.36.09.54.13.15.03.29.05.44.07.05 0 .25.02.25.1 0 .14-.57.07-.65.05-.17-.03-.34-.09-.51-.14-.12-.04-.31-.14-.37.04-.06.19.19.4.32.48.18.12.4.24.61.29.26.07.54.06.77-.07.04-.08-.03-.18-.11-.21-.05-.02-.3-.03-.2-.13.06-.06.17-.02.24-.02.11 0 .22-.03.33-.06.14-.06.24-.08.37-.18.03-.02.07-.05.1-.04.05.01.07.07.07.12 0 .05 0 .11.03.15.03.04.08.05.12.05.13 0 .26-.08.31-.21.05-.13.01-.29-.09-.38-.04-.04-.1-.06-.15-.08-.11-.04-.23-.05-.34-.04-.12 0-.23.04-.35.06-.34.05-.73.03-1.06-.07-.26-.08-.53-.15-.8-.2-.25-.04-.57-.11-.82-.03a.18.18 0 0 0-.09.06c-.01.02-.02.03-.02.05-.02.07 0 .15.04.21s.1.11.16.14"/><path id="Fill-114" class="cls-2" d="M2.2 12.45c.05-.01.1-.03.14-.07.03-.04.03-.11-.02-.13-.02 0-.04-.01-.06-.02-.1-.05.14-.25.17-.3-.08.1.15.08.17.07.13-.03.16-.07.23-.17.18-.23.49-.35.67-.58-.03.03-.01.15-.04.2-.03.06-.09.1-.15.14-.12.08-.31.14-.26.32.1.03.2.01.29-.02.09-.04.18-.09.26-.15.05-.03.09-.07.13-.11.05-.07.1-.2.08-.29 0-.02-.1-.2-.08-.2.12-.02.37-.15.32.1 0 .04-.03.08-.04.13v.02s.01 0 .02.01c.05 0 .1-.02.14-.04.08-.05.16-.11.17-.19 0-.03-.01-.07-.02-.1-.02-.06-.04-.12-.09-.16-.11-.11-.3-.07-.44-.09.12-.06.23-.15.36-.18.03 0 .07 0 .08.02 0 .01 0 .02.01.03.01.02.04.04.07.03.08 0 .14-.08.14-.15 0-.08-.05-.15-.12-.18a.328.328 0 0 0-.29.02c-.33.19-.68.37-.98.61-.31.25-.58.57-.86.85-.14.14-.28.27-.41.42-.03.04-.02.15.01.18.09.08.28.01.38-.02"/></g></g></g></g></svg>