<svg id="group-171" xmlns="http://www.w3.org/2000/svg" width="48" height="48" viewBox="0 0 48 48">
  <g id="ellipse-10" fill="#fff" stroke="#00adf2" stroke-width="1">
    <circle cx="24" cy="24" r="24" stroke="none"/>
    <circle cx="24" cy="24" r="23.5" fill="none"/>
  </g>
  <path id="path" d="M34.587,0,31.469,0C27.966,0,25.7,2.318,25.7,5.906V8.63H22.567a.49.49,0,0,0-.49.49v3.946a.49.49,0,0,0,.49.489H25.7v9.956a.49.49,0,0,0,.49.489h4.09a.49.49,0,0,0,.49-.489V13.554h3.666a.49.49,0,0,0,.49-.489l0-3.946a.49.49,0,0,0-.491-.49H30.773V6.321c0-1.11.265-1.673,1.713-1.673h2.1a.49.49,0,0,0,.49-.489V.494A.49.49,0,0,0,34.587,0Z" transform="translate(-5.077 12)" fill="#00adf2"/>
</svg>
