<?xml version="1.0" encoding="UTF-8"?>
<svg id="group-171" xmlns="http://www.w3.org/2000/svg" version="1.1" viewBox="0 0 48 48">
  <defs>
    <style>
      .cls-1 {
        fill: #000;
        stroke-width: 0px;
      }

      .cls-2 {
        fill: #fff;
        stroke-miterlimit: 10;
      }

      .cls-2, .cls-3 {
        stroke: #1d1d1b;
      }

      .cls-3 {
        fill: none;
      }
    </style>
  </defs>
  <g id="ellipse-10">
    <ellipse class="cls-2" cx="24" cy="24.1" rx="23.4" ry="23.4"/>
    <ellipse class="cls-3" cx="24" cy="24.1" rx="22.9" ry="22.9"/>
  </g>
  <path id="path" class="cls-1" d="M29.5,12h-3.1c-3.5,0-5.8,2.3-5.8,5.9v2.7h-3.1c-.3,0-.5.2-.5.5v3.9c0,.3.2.5.5.5h3.1v10c0,.3.2.5.5.5h4.1c.3,0,.5-.2.5-.5v-10h3.7c.3,0,.5-.2.5-.5v-3.9c0-.3-.2-.5-.5-.5s0,0,0,0h-3.7v-2.3c0-1.1.3-1.7,1.7-1.7h2.1c.3,0,.5-.2.5-.5v-3.7c0-.3-.2-.5-.5-.5h0Z"/>
</svg>