<svg xmlns="http://www.w3.org/2000/svg" width="72" height="73" viewBox="0 0 72 73">
  <g id="group-4" transform="translate(71.648 72.57) rotate(180)">
    <g id="rectangle-5" transform="translate(-0.352 -0.43)" fill="#fff" stroke="#00adf2" stroke-width="2">
      <rect width="72" height="73" rx="36" stroke="none"/>
      <rect x="1" y="1" width="70" height="71" rx="35" fill="none"/>
    </g>
    <g id="Layer_x0020_1" transform="translate(53.473 58.753) rotate(180)">
      <g id="_491904688" transform="translate(0 0)">
        <g id="Raggruppa_91" data-name="Raggruppa 91" transform="translate(0)">
          <g id="Raggruppa_80" data-name="Raggruppa 80" transform="translate(4.34)">
            <path id="_491906392" d="M28.172,40.721H2.785A2.789,2.789,0,0,1,0,37.936V2.786A2.789,2.789,0,0,1,2.785,0H18.828a.616.616,0,0,1,0,1.232H2.785A1.555,1.555,0,0,0,1.232,2.786v35.15a1.555,1.555,0,0,0,1.553,1.553H28.172a1.555,1.555,0,0,0,1.553-1.553V12.13a.616.616,0,1,1,1.232,0V37.936A2.789,2.789,0,0,1,28.172,40.721Z" fill="#00adf2" fill-rule="evenodd"/>
          </g>
          <g id="Raggruppa_81" data-name="Raggruppa 81" transform="translate(22.552 0)">
            <path id="_491906152" d="M12.13,12.746H3.111A3.115,3.115,0,0,1,0,9.634V.616A.616.616,0,0,1,1.052.18L12.565,11.694a.616.616,0,0,1-.436,1.052ZM1.232,2.1V9.634a1.881,1.881,0,0,0,1.879,1.879h7.531Z" fill="#00adf2" fill-rule="evenodd"/>
          </g>
          <g id="Raggruppa_82" data-name="Raggruppa 82" transform="translate(0 4.34)">
            <path id="_491905360" d="M28.172,40.721H2.786A2.789,2.789,0,0,1,0,37.936V2.785A2.789,2.789,0,0,1,2.786,0H4.955a.616.616,0,1,1,0,1.232H2.786A1.555,1.555,0,0,0,1.232,2.785V37.935a1.555,1.555,0,0,0,1.553,1.553H28.172a1.555,1.555,0,0,0,1.553-1.553V35.765a.616.616,0,1,1,1.232,0v2.169a2.789,2.789,0,0,1-2.786,2.786Z" fill="#00adf2" fill-rule="evenodd"/>
          </g>
          <g id="Raggruppa_83" data-name="Raggruppa 83" transform="translate(10.306 28.97)">
            <path id="_491905600" d="M18.408,1.232H.616A.616.616,0,0,1,.616,0H18.408a.616.616,0,1,1,0,1.232Z" fill="#00adf2" fill-rule="evenodd"/>
          </g>
          <g id="Raggruppa_84" data-name="Raggruppa 84" transform="translate(10.306 34.893)">
            <path id="_491905960" d="M18.408,1.232H.616A.616.616,0,0,1,.616,0H18.408a.616.616,0,1,1,0,1.232Z" fill="#00adf2" fill-rule="evenodd"/>
          </g>
          <g id="Raggruppa_85" data-name="Raggruppa 85" transform="translate(10.306 16.108)">
            <path id="_491905912" d="M17.273,9.185H1.752A1.754,1.754,0,0,1,0,7.432V1.752A1.754,1.754,0,0,1,1.752,0h15.52a1.754,1.754,0,0,1,1.752,1.752v5.68a1.754,1.754,0,0,1-1.751,1.752ZM1.752,1.233a.521.521,0,0,0-.52.52v5.68a.521.521,0,0,0,.52.52h15.52a.521.521,0,0,0,.52-.52V1.753a.521.521,0,0,0-.52-.52Z" fill="#00adf2" fill-rule="evenodd"/>
          </g>
          <g id="Raggruppa_86" data-name="Raggruppa 86" transform="translate(17.543 18.222)">
            <path id="_491905528" d="M1.961,4.958H.616A.616.616,0,0,1,0,4.342V.616A.616.616,0,0,1,.616,0H1.9a3.675,3.675,0,0,1,.8.07,1.871,1.871,0,0,1,.806.4,2.133,2.133,0,0,1,.618.889,3.1,3.1,0,0,1,.186,1.1,3.188,3.188,0,0,1-.127.932,2.392,2.392,0,0,1-.345.725,1.936,1.936,0,0,1-.5.488,1.988,1.988,0,0,1-.637.272,3.089,3.089,0,0,1-.745.083ZM1.232,3.725h.729a1.964,1.964,0,0,0,.452-.046.762.762,0,0,0,.246-.1.741.741,0,0,0,.184-.187,1.2,1.2,0,0,0,.164-.361,1.97,1.97,0,0,0,.074-.574,1.9,1.9,0,0,0-.106-.667.913.913,0,0,0-.263-.385.649.649,0,0,0-.284-.136A2.442,2.442,0,0,0,1.9,1.232H1.233V3.725Z" fill="#00adf2" fill-rule="evenodd"/>
          </g>
          <g id="Raggruppa_87" data-name="Raggruppa 87" transform="translate(13.072 18.222)">
            <path id="_491905456" d="M.616,4.958A.616.616,0,0,1,0,4.342V2.827a.616.616,0,0,1,.616-.616h.956c.779,0,.779-.287.779-.517a.379.379,0,0,0-.358-.434,2.97,2.97,0,0,0-.464-.027H.616A.616.616,0,0,1,.616,0h.913A4.205,4.205,0,0,1,2.2.044,1.605,1.605,0,0,1,3.583,1.693c0,1.1-.752,1.75-2.011,1.75h-.34v.9a.617.617,0,0,1-.616.616Z" fill="#00adf2" fill-rule="evenodd"/>
          </g>
          <g id="Raggruppa_88" data-name="Raggruppa 88" transform="translate(13.072 18.222)">
            <path id="_491905240" d="M.616,3.443A.616.616,0,0,1,0,2.827V.616a.616.616,0,1,1,1.232,0V2.827A.616.616,0,0,1,.616,3.443Z" fill="#00adf2" fill-rule="evenodd"/>
          </g>
          <g id="Raggruppa_89" data-name="Raggruppa 89" transform="translate(22.819 18.222)">
            <path id="_491905768" d="M.616,4.958A.616.616,0,0,1,0,4.342V.616A.616.616,0,0,1,.616,0H3.13a.616.616,0,0,1,0,1.232h-1.9V4.342A.616.616,0,0,1,.616,4.958Z" fill="#00adf2" fill-rule="evenodd"/>
          </g>
          <g id="Raggruppa_90" data-name="Raggruppa 90" transform="translate(22.819 20.085)">
            <path id="_491904616" d="M2.909,1.232H.616A.616.616,0,1,1,.616,0H2.909a.616.616,0,1,1,0,1.232Z" fill="#00adf2" fill-rule="evenodd"/>
          </g>
        </g>
      </g>
    </g>
  </g>
</svg>
