<?xml version="1.0" encoding="UTF-8"?>
<svg id="group-172" xmlns="http://www.w3.org/2000/svg" version="1.1" viewBox="0 0 48 48">
  <defs>
    <style>
      .cls-1 {
        fill: #000;
        stroke-width: 0px;
      }

      .cls-2 {
        fill: #fff;
        stroke-miterlimit: 10;
      }

      .cls-2, .cls-3 {
        stroke: #1d1d1b;
      }

      .cls-3 {
        fill: none;
      }
    </style>
  </defs>
  <g id="ellipse-10">
    <circle class="cls-2" cx="24" cy="24" r="23.5"/>
    <circle class="cls-3" cx="24" cy="24" r="23"/>
  </g>
  <path id="Tracciato_253" data-name="Tracciato 253" class="cls-1" d="M17.4,36h-5v-16.2h5v16.2ZM14.9,17.6c-1.6,0-2.9-1.3-2.9-2.9s1.3-2.9,2.9-2.9,2.9,1.3,2.9,2.9-1.3,2.9-2.9,2.9ZM36.2,36h-5v-7.9c0-1.9,0-4.3-2.6-4.3s-3,2-3,4.1v8h-5v-16.2h4.8v2.2h0c1-1.7,2.8-2.7,4.7-2.6,5.1,0,6,3.3,6,7.7v8.9h0Z"/>
</svg>