<svg xmlns="http://www.w3.org/2000/svg" width="90" height="91" viewBox="0 0 90 91">
  <g id="group-4" transform="translate(769 872.5) rotate(180)">
    <g id="rectangle-5" transform="translate(679 781.5)" fill="#fff" stroke="#00adf2" stroke-width="2">
      <rect width="90" height="91" rx="45" stroke="none"/>
      <rect x="1" y="1" width="88" height="89" rx="44" fill="none"/>
    </g>
    <g id="location_2928989" transform="translate(754.192 857.146) rotate(180)">
      <path id="Tracciato_299" data-name="Tracciato 299" d="M61.894,28.581a6.335,6.335,0,1,0-6.336,6.336A6.335,6.335,0,0,0,61.894,28.581Zm-11.17,0a4.835,4.835,0,1,1,4.835,4.836,4.835,4.835,0,0,1-4.835-4.836Z" transform="translate(-25.517 -10.104)" fill="#00adf2"/>
      <path id="Tracciato_300" data-name="Tracciato 300" d="M55.478,54.512,49.362,38.477a.751.751,0,0,0-.7-.483H37.085c.071-.115.141-.227.212-.343,4.454-7.374,6.7-13.825,6.663-19.171a13.919,13.919,0,1,0-27.837,0c-.032,5.348,2.209,11.8,6.663,19.173.071.117.141.229.212.343H11.422a.751.751,0,0,0-.7.483L4.606,54.512a.749.749,0,0,0,.7,1.018h49.47a.749.749,0,0,0,.7-1.018ZM17.624,18.477a12.418,12.418,0,0,1,24.836,0c.064,10.66-9.9,23.8-12.418,26.956-2.518-3.151-12.483-16.292-12.418-26.959ZM29.47,47.108a.75.75,0,0,0,1.143,0,79.625,79.625,0,0,0,5.531-7.614h12l.96,2.519L25.656,50.352,17.3,39.492h6.641a79.626,79.626,0,0,0,5.532,7.615Zm-3.841,4.845h0l13.988-4.973,5.426,7.05H19.8ZM11.94,39.492H15.4l8.764,11.388-8.85,3.148H6.4Zm35,14.536-5.835-7.581,8.532-3.034,4.049,10.615Z" fill="#00adf2"/>
    </g>
  </g>
</svg>
