<svg id="group-172" xmlns="http://www.w3.org/2000/svg" width="48" height="48" viewBox="0 0 48 48">
  <g id="ellipse-10" fill="#fff" stroke="#00adf2" stroke-width="1">
    <circle cx="24" cy="24" r="24" stroke="none"/>
    <circle cx="24" cy="24" r="23.5" fill="none"/>
  </g>
  <path id="Tracciato_253" data-name="Tracciato 253" d="M5.417,24.217H.4V8.06H5.417ZM2.906,5.856A2.919,2.919,0,1,1,5.811,2.923,2.93,2.93,0,0,1,2.906,5.856ZM24.2,24.217H19.189V16.352c0-1.874-.038-4.278-2.609-4.278-2.609,0-3.008,2.037-3.008,4.143v8H8.56V8.06h4.812v2.2h.07a5.272,5.272,0,0,1,4.747-2.609c5.078,0,6.011,3.344,6.011,7.687v8.875Z" transform="translate(12 11.764)" fill="#00adf2"/>
</svg>
