<?xml version="1.0" encoding="UTF-8"?>
<svg id="Livello_1" data-name="Livello 1" xmlns="http://www.w3.org/2000/svg" version="1.1" viewBox="0 0 27.7 20.8">
  <defs>
    <style>
      .cls-1 {
        fill: #fff;
        stroke-width: 0px;
      }
    </style>
  </defs>
  <g id="grip-solid-horizontal">
    <path id="Tracciato_301" data-name="Tracciato 301" class="cls-1" d="M26,20.8H1.7c-1,0-1.7-.8-1.7-1.7,0-1,.8-1.7,1.7-1.7h24.3c1,0,1.7.8,1.7,1.7,0,1-.8,1.7-1.7,1.7h0Z"/>
    <path id="Tracciato_302" data-name="Tracciato 302" class="cls-1" d="M26,12.1H1.7C.8,12.1,0,11.4,0,10.4s.8-1.7,1.7-1.7h24.3c1,0,1.7.8,1.7,1.7s-.8,1.7-1.7,1.7Z"/>
    <path id="Tracciato_303" data-name="Tracciato 303" class="cls-1" d="M26,3.5H1.7C.8,3.5,0,2.7,0,1.7,0,.8.8,0,1.7,0h24.3c1,0,1.7.8,1.7,1.7,0,1-.8,1.7-1.7,1.7h0Z"/>
  </g>
</svg>