<svg xmlns="http://www.w3.org/2000/svg" width="91.762" height="91.753" viewBox="0 0 91.762 91.753">
  <path id="intestine" d="M93.26,38.638A19.683,19.683,0,0,1,73.6,58.3H21.168a2.185,2.185,0,0,1,0-4.369H73.6a15.292,15.292,0,1,0,0-30.584H25.538a2.185,2.185,0,0,1,0-4.369H73.6A19.683,19.683,0,0,1,93.26,38.638ZM25.538,5.869H56.122a6.561,6.561,0,0,1,6.554,6.554h4.369A10.935,10.935,0,0,0,56.122,1.5H25.538a19.7,19.7,0,0,0-14.55,6.439,19.5,19.5,0,0,0-5.02,15.147A20.225,20.225,0,0,0,26.289,40.823H73.6a2.185,2.185,0,1,0,0-4.369H26.289A15.827,15.827,0,0,1,10.316,22.668a15.3,15.3,0,0,1,15.222-16.8Zm4.369,65.538H21.919A15.827,15.827,0,0,1,5.947,57.621a15.1,15.1,0,0,1,6.512-14.043,27.414,27.414,0,0,1-3.68-2.612,19.471,19.471,0,0,0-2.161,1.926A19.5,19.5,0,0,0,1.6,58.04,20.225,20.225,0,0,0,21.919,75.777h7.987a6.561,6.561,0,0,1,6.554,6.554v8.738a2.185,2.185,0,1,0,4.369,0V82.33A10.935,10.935,0,0,0,29.907,71.407Zm21.254-6.554a15.177,15.177,0,0,1,2.776,8.738V91.069a2.185,2.185,0,1,0,4.369,0V73.592a19.416,19.416,0,0,0-2.141-8.738Z" transform="translate(-1.498 -1.5)" fill="#38344d"/>
</svg>
