<svg xmlns="http://www.w3.org/2000/svg" width="91.703" height="83.152" viewBox="0 0 91.703 83.152">
  <path id="love-wave" d="M86.7,46.3H61.656l-8.09,12.135a2.185,2.185,0,0,1-3.635,0L34.272,34.944,27.351,45.325a2.191,2.191,0,0,1-1.818.973H8.057a2.185,2.185,0,1,1,0-4.369H24.364l8.09-12.135a2.272,2.272,0,0,1,3.635,0L51.749,53.283,58.67,42.9a2.19,2.19,0,0,1,1.818-.973H86.7a2.185,2.185,0,1,1,0,4.369ZM68.581,2.606A24.5,24.5,0,0,0,51.134,9.834L47.38,13.588,43.623,9.834A24.578,24.578,0,0,0,2.956,35.375H7.579A20.292,20.292,0,0,1,40.534,12.923l5.3,5.3a2.184,2.184,0,0,0,3.089,0l5.3-5.3A20.281,20.281,0,0,1,87.176,35.375H91.8A24.586,24.586,0,0,0,68.581,2.606ZM72.6,52.852,47.38,80.215,22.156,52.852h-5.94L45.773,84.917a2.185,2.185,0,0,0,3.213,0L78.54,52.852Z" transform="translate(-1.499 -2.469)" fill="#353149"/>
</svg>
