<svg id="icon_list_sviluppo" xmlns="http://www.w3.org/2000/svg" width="90" height="90" viewBox="0 0 90 90">
  <g id="Raggruppa_2792" data-name="Raggruppa 2792" transform="translate(24.006 14.94)">
    <rect id="Rettangolo_522" data-name="Rettangolo 522" width="4.672" height="6.129" transform="translate(29.686 5.12) rotate(-54.819)" fill="#6fcbe6"/>
    <rect id="Rettangolo_525" data-name="Rettangolo 525" width="1.709" height="7.74" transform="matrix(0.576, -0.817, 0.817, 0.576, 31.196, 1.582)" fill="#6fcbe6"/>
    <rect id="Rettangolo_519" data-name="Rettangolo 519" width="28.996" height="14.478" transform="matrix(0.576, -0.817, 0.817, 0.576, 9.568, 26.414)" fill="none" stroke="#000" stroke-width="1"/>
    <rect id="Rettangolo_520" data-name="Rettangolo 520" width="3.135" height="18.933" transform="translate(5.942 27.693) rotate(-54.819)" fill="#fff"/>
    <rect id="Rettangolo_521" data-name="Rettangolo 521" width="3.71" height="18.933" transform="translate(5.942 27.693) rotate(-54.819)" fill="#6fcbe6"/>
    <path id="Tracciato_3082" data-name="Tracciato 3082" d="M41.247,197.106H.5v-2.65a7.763,7.763,0,0,1,7.763-7.763H41.247Z" transform="translate(-0.367 -137.119)" fill="none" stroke="#000" stroke-width="1"/>
    <path id="Tracciato_3083" data-name="Tracciato 3083" d="M115.517,81.352a14.561,14.561,0,0,1,.743,22.2" transform="translate(-84.843 -59.75)" fill="none" stroke="#000" stroke-width="1"/>
    <path id="Tracciato_3084" data-name="Tracciato 3084" d="M125.691,66.92a19.245,19.245,0,0,1,.377,30.2" transform="translate(-92.315 -49.15)" fill="none" stroke="#000" stroke-width="1"/>
    <line id="Linea_742" data-name="Linea 742" x1="12.785" transform="translate(5.764 46.87)" fill="none" stroke="#000" stroke-width="1"/>
    <rect id="Rettangolo_526" data-name="Rettangolo 526" width="41.013" height="60.12" fill="none"/>
    <circle id="Ellisse_270" data-name="Ellisse 270" cx="8.855" cy="8.855" r="8.855" transform="translate(17.14 40.719)" fill="#6fcbe6"/>
    <circle id="Ellisse_271" data-name="Ellisse 271" cx="4.679" cy="4.679" r="4.679" transform="translate(21.316 44.896)" fill="none" stroke="#000" stroke-width="1"/>
  </g>
  <rect id="Rettangolo_527" data-name="Rettangolo 527" width="90" height="90" fill="none"/>
</svg>
