<svg xmlns="http://www.w3.org/2000/svg" width="142" height="90" viewBox="0 0 142 90">
  <g id="startup" transform="translate(-21647 -16361)">
    <g id="Ellisse_224" data-name="Ellisse 224" transform="translate(21647 16361)" fill="none" stroke="#c3ccd0" stroke-width="1" stroke-dasharray="3 7">
      <circle cx="45" cy="45" r="45" stroke="none"/>
      <circle cx="45" cy="45" r="44.5" fill="none"/>
    </g>
    <path id="Tracciato_2744" data-name="Tracciato 2744" d="M783,730.707V777.77" transform="translate(22519.707 15622.5) rotate(90)" fill="none" stroke="#c3ccd0" stroke-width="1" stroke-dasharray="3 7"/>
    <g id="Icon_Area_Bus_inn_research" data-name="Icon Area Bus_inn research" transform="translate(21647 16361)">
      <rect id="Rettangolo_181" data-name="Rettangolo 181" width="90" height="90" fill="none"/>
      <g id="icon_startup">
        <g id="Raggruppa_3174" data-name="Raggruppa 3174" transform="translate(24.505 19.5)">
          <path id="Tracciato_3530" data-name="Tracciato 3530" d="M.5,38.376h0L.5,8.606,8.866.554,28.742.5v0" fill="none" stroke="#000" stroke-width="1"/>
          <path id="Tracciato_3531" data-name="Tracciato 3531" d="M39.152,42.512l-.329-1.005h.658Z" fill="none" stroke="#000" stroke-width="1"/>
          <rect id="Rettangolo_647" data-name="Rettangolo 647" width="18" height="27" transform="translate(16.533 22.195)" fill="none" stroke="#000" stroke-width="1"/>
          <rect id="Rettangolo_648" data-name="Rettangolo 648" width="9.111" height="4.556" transform="translate(20.77 26.527)" fill="#bd6fe6"/>
          <path id="Tracciato_3532" data-name="Tracciato 3532" d="M19.63,44.75h0Z" fill="none" stroke="#000" stroke-width="1"/>
          <path id="Tracciato_3533" data-name="Tracciato 3533" d="M24.186,44.75h0Z" fill="none" stroke="#000" stroke-width="1"/>
          <path id="Tracciato_3534" data-name="Tracciato 3534" d="M28.742,44.75h0Z" fill="none" stroke="#000" stroke-width="1"/>
          <path id="Tracciato_3535" data-name="Tracciato 3535" d="M19.63,40.194h0Z" fill="none" stroke="#000" stroke-width="1"/>
          <path id="Tracciato_3536" data-name="Tracciato 3536" d="M24.186,40.194h0Z" fill="none" stroke="#000" stroke-width="1"/>
          <path id="Tracciato_3537" data-name="Tracciato 3537" d="M28.742,40.194h0Z" fill="none" stroke="#000" stroke-width="1"/>
          <path id="Tracciato_3538" data-name="Tracciato 3538" d="M19.63,35.639h0Z" fill="none" stroke="#000" stroke-width="1"/>
          <path id="Tracciato_3539" data-name="Tracciato 3539" d="M24.186,35.639h0Z" fill="none" stroke="#000" stroke-width="1"/>
          <path id="Tracciato_3540" data-name="Tracciato 3540" d="M28.742,35.639h0Z" fill="none" stroke="#000" stroke-width="1"/>
          <path id="Tracciato_3541" data-name="Tracciato 3541" d="M39.152,18.864v0Z" fill="none" stroke="#000" stroke-width="1"/>
          <path id="Tracciato_3542" data-name="Tracciato 3542" d="M39.152,23.42v0Z" fill="none" stroke="#000" stroke-width="1"/>
          <path id="Tracciato_3543" data-name="Tracciato 3543" d="M6.137,13.294h0Z" fill="none" stroke="#000" stroke-width="1"/>
          <path id="Tracciato_3544" data-name="Tracciato 3544" d="M6.137,17.85h0Z" transform="translate(0 0)" fill="none" stroke="#000" stroke-width="1"/>
          <path id="Tracciato_3545" data-name="Tracciato 3545" d="M6.137,21.95h0Z" fill="none" stroke="#000" stroke-width="1"/>
          <path id="Tracciato_3547" data-name="Tracciato 3547" d="M5.251,33.633c1.321-2.228,2.142-2.624,2.659-2.525,1.168.222,1.318,2.946,2.354,3.024.74.056.979-1.257,2.192-2.25a4.388,4.388,0,0,1,1.552-.8,4.388,4.388,0,0,0-1.552.8c-1.213.993-1.452,2.306-2.192,2.25-1.036-.078-1.186-2.8-2.354-3.024C7.393,31.009,6.572,31.405,5.251,33.633Z" fill="none" stroke="#000" stroke-width="1"/>
          <path id="Tracciato_3548" data-name="Tracciato 3548" d="M8.784.5V8.622H.522" fill="none" stroke="#000" stroke-width="1"/>
        </g>
        <rect id="Rettangolo_651" data-name="Rettangolo 651" width="90" height="90" fill="none"/>
      </g>
    </g>
  </g>
</svg>
