<svg width="28" height="27" viewBox="0 0 28 27" fill="none" xmlns="http://www.w3.org/2000/svg">
<path d="M5.87618 2.93956C5.87579 3.71879 5.56587 4.46595 5.0146 5.01667C4.46332 5.5674 3.71585 5.87657 2.93662 5.87618C2.15739 5.87579 1.41023 5.56587 0.859508 5.0146C0.308785 4.46332 -0.000389247 3.71585 3.67792e-07 2.93662C0.000389983 2.15739 0.310311 1.41023 0.861586 0.859508C1.41286 0.308785 2.16033 -0.000389247 2.93956 3.67792e-07C3.71879 0.000389983 4.46595 0.310311 5.01667 0.861586C5.5674 1.41286 5.87657 2.16033 5.87618 2.93956ZM5.96432 8.05184H0.088143V26.4443H5.96432V8.05184ZM15.2487 8.05184H9.40189V26.4443H15.1899V16.7927C15.1899 11.416 22.1973 10.9165 22.1973 16.7927V26.4443H28V14.7948C28 5.73075 17.6285 6.06863 15.1899 10.5198L15.2487 8.05184Z" fill="#1C1D1D"/>
</svg>
