<svg width="349" height="131" viewBox="0 0 349 131" fill="none" xmlns="http://www.w3.org/2000/svg">
<path d="M308.402 45.9346H348.994V48.4816H311.203V73.247H348.994V75.7992H311.203V100.976H348.974V103.528H308.402V45.9346Z" fill="white"/>
<path d="M119.734 45.9346H160.326V48.4816H122.535V73.247H160.326V75.7992H122.535V100.976H160.306V103.528H119.734V45.9346Z" fill="white"/>
<path d="M233.102 45.9346H230.301V103.534H233.102V45.9346Z" fill="white"/>
<path d="M250.467 103.528V45.9346H291.059V48.4816H253.268V73.247H291.059V75.7992H253.268V103.528H250.467Z" fill="white"/>
<path d="M174.572 45.9346H177.373V100.976H215.138V103.528H174.572V45.9346Z" fill="white"/>
<path d="M296.398 125.865C296.07 125.592 295.901 125.227 295.901 124.774C295.901 124.403 296.05 124.074 296.352 123.776C296.655 123.477 297.209 123.112 298.014 122.674C297.419 122.458 296.973 122.129 296.691 121.692C296.403 121.249 296.26 120.719 296.26 120.102C296.26 119.17 296.696 118.29 297.563 117.462C298.43 116.634 299.579 116.217 301 116.217C301.738 116.217 302.39 116.335 302.944 116.572C303.503 116.809 303.713 116.927 303.585 116.927H306.042V118.182H304.555C304.596 118.373 304.632 118.532 304.652 118.671C304.673 118.81 304.683 118.965 304.683 119.139C304.683 120.205 304.262 121.12 303.426 121.882C302.59 122.644 301.41 123.024 299.897 123.024C299.569 123.024 299.168 122.983 298.712 122.906C298.599 122.906 298.476 122.999 298.353 123.174C298.225 123.354 298.163 123.508 298.163 123.642C298.163 123.878 298.337 124.095 298.691 124.28C298.856 124.372 299.056 124.455 299.297 124.527L300.471 124.861C301.497 125.155 302.231 125.443 302.662 125.726C303.401 126.199 303.77 126.858 303.77 127.691C303.77 128.628 303.277 129.405 302.292 130.027C301.308 130.645 300.087 130.959 298.625 130.959C297.671 130.959 296.84 130.84 296.132 130.614C294.916 130.223 294.311 129.539 294.311 128.561C294.311 127.928 294.634 127.408 295.28 127.012C295.639 126.796 296.275 126.554 297.188 126.287C296.829 126.158 296.563 126.014 296.388 125.865M301.051 127.83C300.836 127.63 300.548 127.449 300.184 127.3C299.933 127.197 299.528 127.058 298.968 126.873C298.414 126.688 298.081 126.595 297.973 126.595C297.973 126.487 297.686 126.642 297.111 127.058C296.537 127.475 296.25 127.964 296.25 128.52C296.25 128.865 296.383 129.184 296.65 129.472C297.086 129.961 297.814 130.207 298.83 130.207C299.625 130.207 300.251 130.063 300.702 129.775C301.154 129.487 301.374 129.117 301.374 128.659C301.374 128.304 301.267 128.026 301.056 127.825M301.42 120.94C301.872 119.999 302.092 119.103 302.092 118.244C302.092 117.858 302.015 117.534 301.856 117.282C301.697 117.03 301.441 116.906 301.082 116.906C300.4 116.906 299.851 117.411 299.435 118.419C299.02 119.428 298.814 120.328 298.814 121.115C298.814 121.517 298.907 121.825 299.097 122.031C299.281 122.237 299.522 122.345 299.81 122.345C300.436 122.345 300.974 121.877 301.42 120.935" fill="white"/>
<path d="M306.171 126.435C306.776 124.326 307.274 122.504 307.659 120.986C308.105 119.35 308.326 118.378 308.326 118.069C308.326 117.796 308.233 117.616 308.054 117.539C307.874 117.457 307.566 117.421 307.125 117.421V116.834C308.064 116.777 308.859 116.7 309.505 116.608C309.926 116.551 310.639 116.427 311.645 116.242L310.419 120.168L310.516 120.189C311.147 118.964 311.655 118.095 312.034 117.58C312.701 116.685 313.343 116.242 313.963 116.242C314.394 116.242 314.712 116.386 314.917 116.674C315.123 116.963 315.225 117.282 315.225 117.637C315.225 118.064 315.112 118.444 314.887 118.784C314.661 119.124 314.348 119.293 313.943 119.293C313.763 119.293 313.594 119.257 313.44 119.185C313.286 119.113 313.153 119.005 313.045 118.861L312.84 118.604C312.804 118.563 312.768 118.522 312.727 118.496C312.686 118.465 312.635 118.455 312.573 118.455C312.291 118.455 311.927 118.836 311.475 119.602C311.024 120.369 310.639 121.146 310.331 121.938C310.116 122.489 309.849 123.266 309.531 124.274C309.213 125.283 308.982 126.008 308.828 126.446H306.166L306.171 126.435Z" fill="white"/>
<path d="M323.432 116.746C324.468 117.338 324.986 118.342 324.986 119.767C324.986 121.336 324.391 122.864 323.196 124.341C321.893 125.952 320.405 126.754 318.733 126.754C317.876 126.754 317.066 126.487 316.301 125.952C315.537 125.417 315.152 124.516 315.152 123.25C315.152 121.671 315.747 120.142 316.932 118.666C318.235 117.05 319.733 116.242 321.426 116.242C322.175 116.242 322.842 116.412 323.432 116.752M317.922 125.442C318.102 125.854 318.441 126.06 318.938 126.06C319.856 126.06 320.682 125 321.416 122.88C322.026 121.1 322.334 119.561 322.334 118.259C322.334 117.914 322.293 117.642 322.206 117.446C322.042 117.086 321.734 116.906 321.277 116.906C320.221 116.906 319.333 118.033 318.615 120.281C318.061 121.99 317.784 123.41 317.784 124.542C317.784 124.923 317.83 125.221 317.922 125.437" fill="white"/>
<path d="M326.792 124.136C326.854 123.812 326.926 123.513 327.008 123.235L328.157 119.031C328.213 118.841 328.259 118.681 328.28 118.543C328.306 118.404 328.321 118.27 328.321 118.131C328.321 117.848 328.229 117.663 328.044 117.575C327.859 117.483 327.541 117.431 327.09 117.421V116.834C328.603 116.7 329.737 116.561 330.491 116.433C331.25 116.304 331.66 116.237 331.722 116.237L330.722 119.623L329.66 123.029C329.609 123.189 329.552 123.395 329.485 123.657C329.383 124.048 329.337 124.336 329.337 124.522C329.337 124.707 329.383 124.835 329.47 124.923C329.557 125.01 329.685 125.052 329.85 125.052C330.198 125.052 330.66 124.707 331.23 124.017C331.799 123.328 332.332 122.412 332.83 121.264C333.153 120.524 333.435 119.762 333.692 118.99C333.861 118.481 334.107 117.647 334.441 116.495H337.052L336.211 119.566C336.175 119.685 336.026 120.23 335.764 121.203C335.503 122.18 335.338 122.767 335.287 122.963C335.179 123.343 335.087 123.698 335.005 124.028C334.928 124.357 334.887 124.583 334.887 124.702C334.887 124.841 334.923 124.944 334.99 125.021C335.056 125.098 335.144 125.134 335.241 125.134C335.472 125.134 335.78 124.882 336.17 124.378C336.39 124.095 336.595 123.801 336.775 123.493L337.237 123.77C336.811 124.573 336.277 125.252 335.631 125.818C334.99 126.384 334.323 126.667 333.641 126.667C333.04 126.667 332.62 126.503 332.384 126.168C332.225 125.947 332.148 125.648 332.148 125.283C332.148 124.918 332.173 124.63 332.235 124.383C332.291 124.136 332.425 123.678 332.635 123.024L332.584 123.004C331.696 124.3 331.029 125.165 330.593 125.597C329.875 126.317 329.137 126.678 328.383 126.678C328.018 126.678 327.69 126.585 327.408 126.395C326.936 126.101 326.705 125.597 326.705 124.892C326.705 124.707 326.736 124.45 326.803 124.125" fill="white"/>
<path d="M336.098 130.418C336.6 130.398 336.949 130.315 337.149 130.177C337.349 130.032 337.524 129.657 337.683 129.034L340.319 119.366C340.355 119.237 340.412 119.006 340.489 118.681C340.566 118.352 340.602 118.146 340.602 118.059C340.602 117.791 340.509 117.616 340.319 117.539C340.13 117.457 339.827 117.421 339.401 117.421V116.834L340.432 116.726C340.694 116.695 341.13 116.639 341.73 116.546C342.33 116.459 342.925 116.351 343.515 116.237L342.787 118.496L342.828 118.543C343.315 117.894 343.746 117.41 344.121 117.091C344.798 116.52 345.495 116.237 346.224 116.237C346.906 116.237 347.475 116.464 347.932 116.917C348.389 117.369 348.619 118.069 348.619 119.006C348.619 120.786 347.978 122.52 346.701 124.197C345.398 125.901 344.033 126.75 342.602 126.75C342.264 126.75 341.997 126.714 341.807 126.642C341.612 126.57 341.345 126.436 340.997 126.24L340.612 127.702C340.489 128.144 340.386 128.545 340.304 128.906C340.222 129.271 340.181 129.533 340.181 129.688C340.181 129.981 340.278 130.171 340.473 130.249C340.668 130.331 341.048 130.382 341.617 130.413V130.995H336.098V130.413V130.418ZM341.515 125.731C341.689 125.88 341.92 125.952 342.197 125.952C343.095 125.952 343.951 124.985 344.767 123.055C345.47 121.403 345.819 120.076 345.819 119.062C345.819 118.738 345.783 118.486 345.711 118.306C345.583 117.976 345.336 117.807 344.967 117.807C344.572 117.807 344.151 118.013 343.71 118.424C343.264 118.836 342.895 119.438 342.602 120.241C342.371 120.863 342.089 121.764 341.751 122.947C341.412 124.131 341.243 124.846 341.243 125.088C341.243 125.371 341.33 125.582 341.504 125.731" fill="white"/>
<path d="M174.874 125.875C175.71 125.87 176.253 125.721 176.505 125.427C176.756 125.134 176.879 124.697 176.879 124.115V113.624C176.879 113.022 176.736 112.631 176.448 112.44C176.161 112.25 175.653 112.126 174.92 112.07V111.509H180.465L184.795 121.733H184.979L189.288 111.509H194.839V112.07C194.095 112.126 193.582 112.265 193.31 112.481C193.038 112.697 192.9 113.233 192.9 114.087V123.853C192.9 124.666 193.038 125.196 193.31 125.448C193.582 125.7 194.09 125.839 194.839 125.87V126.431H187.529V125.87C188.18 125.849 188.673 125.741 189.001 125.541C189.329 125.345 189.493 124.908 189.493 124.239V113.444H189.334L183.938 126.426H183.348L177.895 113.701H177.798V123.688C177.798 124.424 177.931 124.964 178.208 125.304C178.48 125.644 179.08 125.834 180.014 125.87V126.431H174.863V125.87L174.874 125.875Z" fill="white"/>
<path d="M195.707 126.436V125.875C196.338 125.854 196.784 125.767 197.051 125.618C197.461 125.386 197.667 124.959 197.667 124.326V113.628C197.667 112.985 197.456 112.553 197.031 112.332C196.784 112.198 196.348 112.111 195.707 112.075V111.514H208.393V115.965H207.854C207.577 114.539 207.1 113.567 206.428 113.042C205.756 112.517 204.54 112.255 202.766 112.255C202.094 112.255 201.663 112.322 201.483 112.466C201.298 112.605 201.211 112.882 201.211 113.304V118.414C202.463 118.429 203.314 118.198 203.761 117.729C204.207 117.261 204.546 116.397 204.782 115.146H205.341V122.607H204.782C204.623 121.347 204.305 120.462 203.822 119.947C203.34 119.433 202.468 119.175 201.216 119.175V124.527C201.216 124.995 201.334 125.314 201.575 125.479C201.817 125.648 202.309 125.731 203.053 125.731C204.458 125.731 205.602 125.458 206.495 124.913C207.382 124.367 208.172 123.343 208.86 121.841H209.47L208.578 126.436H195.712H195.707Z" fill="white"/>
<path d="M210.393 125.875C211.208 125.854 211.737 125.695 211.973 125.407C212.209 125.113 212.326 124.686 212.326 124.12V113.659C211.654 112.903 211.239 112.46 211.08 112.327C210.921 112.193 210.705 112.111 210.434 112.075V111.514H215.102L222.668 120.74H222.776V114.251C222.776 113.505 222.642 112.97 222.371 112.651C222.099 112.332 221.56 112.136 220.744 112.075V111.514H225.474V112.075C224.787 112.188 224.325 112.342 224.094 112.538C223.863 112.733 223.745 113.165 223.745 113.834V126.847H223.135L213.45 115.038H213.301V123.698C213.301 124.377 213.393 124.856 213.578 125.139C213.871 125.592 214.476 125.839 215.384 125.875V126.436H210.398V125.875H210.393Z" fill="white"/>
<path d="M226.336 125.875C226.864 125.839 227.295 125.597 227.618 125.154C227.824 124.876 228.121 124.254 228.511 123.297L233.4 111.21H234.015L238.93 122.813C239.484 124.115 239.894 124.954 240.166 125.329C240.438 125.705 240.822 125.89 241.325 125.875V126.436H234.2V125.875C234.918 125.844 235.39 125.782 235.616 125.689C235.841 125.597 235.954 125.36 235.954 124.979C235.954 124.81 235.898 124.547 235.78 124.192C235.708 123.986 235.611 123.734 235.487 123.436L234.928 122.098H229.983C229.66 122.978 229.45 123.549 229.357 123.811C229.162 124.377 229.065 124.794 229.065 125.051C229.065 125.37 229.275 125.597 229.701 125.741C229.952 125.823 230.327 125.864 230.83 125.87V126.43H226.336V125.87V125.875ZM234.6 121.228L232.481 116.119H232.297L230.312 121.228H234.6Z" fill="white"/>
<path d="M242.193 125.875C242.936 125.839 243.449 125.7 243.721 125.453C243.993 125.211 244.127 124.676 244.127 123.858V114.092C244.127 113.237 243.968 112.687 243.644 112.43C243.429 112.26 242.947 112.141 242.193 112.075V111.514H249.277C250.744 111.514 251.934 111.668 252.847 111.977C254.612 112.605 255.489 113.726 255.489 115.352C255.489 116.551 255.027 117.498 254.104 118.187C253.396 118.702 252.652 119.036 251.862 119.181L256.541 125.468C256.664 125.643 256.792 125.756 256.925 125.808C257.064 125.859 257.228 125.895 257.428 125.911V126.441H252.837L247.702 119.541H247.692V123.863C247.692 124.64 247.82 125.165 248.076 125.432C248.333 125.7 248.851 125.849 249.626 125.88V126.441H242.188V125.88L242.193 125.875ZM250.785 118.218C251.406 117.832 251.713 116.942 251.713 115.548C251.713 114.694 251.595 114.02 251.36 113.52C250.949 112.682 250.205 112.26 249.123 112.26C248.533 112.26 248.148 112.332 247.969 112.481C247.784 112.63 247.692 112.872 247.692 113.212V118.831C249.133 118.81 250.164 118.604 250.785 118.223" fill="white"/>
<path d="M258.09 125.875C258.716 125.86 259.162 125.782 259.434 125.649C259.88 125.417 260.101 124.975 260.101 124.321V113.624C260.101 112.975 259.89 112.538 259.465 112.317C259.208 112.183 258.746 112.101 258.09 112.07V111.509H265.784V112.07C265.097 112.101 264.625 112.178 264.369 112.306C263.938 112.528 263.722 112.965 263.722 113.624V124.321C263.722 124.939 263.892 125.35 264.235 125.561C264.579 125.767 265.097 125.875 265.784 125.875V126.436H258.09V125.875Z" fill="white"/>
<path d="M266.656 125.875C267.472 125.854 268 125.695 268.236 125.407C268.472 125.113 268.59 124.686 268.59 124.12V113.659C267.918 112.903 267.503 112.46 267.344 112.327C267.185 112.193 266.969 112.111 266.697 112.075V111.514H271.365L278.932 120.74H279.04V114.251C279.04 113.505 278.906 112.97 278.634 112.651C278.362 112.332 277.824 112.136 277.008 112.075V111.514H281.738V112.075C281.05 112.188 280.589 112.342 280.358 112.538C280.127 112.733 280.009 113.165 280.009 113.834V126.847H279.399L269.714 115.038H269.565V123.698C269.565 124.377 269.657 124.856 269.842 125.139C270.134 125.592 270.74 125.839 271.648 125.875V126.436H266.661V125.875H266.656Z" fill="white"/>
<path d="M282.559 125.875C283.184 125.86 283.631 125.782 283.903 125.649C284.349 125.417 284.569 124.975 284.569 124.321V113.624C284.569 112.975 284.359 112.538 283.933 112.317C283.677 112.183 283.215 112.101 282.559 112.07V111.509H290.253V112.07C289.566 112.101 289.094 112.178 288.837 112.306C288.407 112.528 288.191 112.965 288.191 113.624V124.321C288.191 124.939 288.36 125.35 288.704 125.561C289.048 125.767 289.566 125.875 290.253 125.875V126.436H282.559V125.875Z" fill="white"/>
<path d="M108.085 103.559H4.46875V0H108.09V103.559H108.085ZM5.23821 102.787H107.321V0.771829H5.23821V102.787Z" fill="white" fill-opacity="0.7"/>
<path d="M56.2798 1.15757C84.1242 1.15757 106.777 23.7979 106.777 51.6249C106.777 79.4519 84.1242 102.092 56.2798 102.092C28.4355 102.092 5.77728 79.4519 5.77728 51.6249C5.77728 23.7979 28.4303 1.15757 56.2798 1.15757ZM56.2798 0.385742C27.9635 0.385742 5.00781 23.3245 5.00781 51.6249C5.00781 79.9253 27.9635 102.864 56.2747 102.864C84.5859 102.864 107.542 79.9253 107.542 51.6249C107.542 23.3245 84.591 0.385742 56.2798 0.385742Z" fill="white" fill-opacity="0.7"/>
<path d="M107.431 0.127113L4.57422 102.904L5.11727 103.451L107.974 0.673925L107.431 0.127113Z" fill="white" fill-opacity="0.7"/>
<path d="M5.12117 0.111391L4.57812 0.658203L107.435 103.435L107.978 102.889L5.12117 0.111391Z" fill="white" fill-opacity="0.7"/>
<path d="M107.705 26.0518H4.85352V26.8236H107.705V26.0518Z" fill="white" fill-opacity="0.7"/>
<path d="M30.4004 93.7874V55.4583L47.6159 55.0776C47.6159 55.0776 58.9117 74.1675 66.0523 80.5685C91.2292 103.157 106.762 102.777 106.762 102.777C103.854 102.555 100.642 99.9774 96.7745 97.1268C88.9567 91.369 80.4772 82.5135 76.0502 77.0592C67.504 66.5315 59.0399 53.2355 59.0399 53.2355C62.6359 51.6403 65.5496 49.5307 70.351 44.9666C74.6806 40.8502 77.0197 34.5726 77.0197 26.7617C77.0197 15.1225 73.039 7.99082 63.236 3.0048C57.1419 0.709899 56.6392 0.771645 47.5031 0.771645H8.99391C8.99391 0.771645 17.9453 1.47658 17.9453 9.98729C17.9453 11.603 17.93 14.5205 17.93 16.5839V87.0776C17.93 89.141 17.9453 92.1717 17.9453 93.7822C17.9453 93.7822 17.894 102.205 8.97852 102.777H39.3929C39.3929 102.777 30.5184 101.727 30.4004 93.7874ZM30.3953 49.6336V10.9752C30.3953 8.62887 30.1491 7.10579 31.1494 6.49862C32.1651 5.87601 38.5978 5.54155 43.0863 5.54155C49.7499 5.54155 53.3612 7.12637 57.7831 10.1056C62.0562 12.9871 65.3187 20.5408 65.5085 26.9367C65.6881 33.0547 63.9645 41.0663 59.5067 44.3954C54.4436 48.1774 41.8039 49.2271 30.3953 49.6336Z" fill="white"/>
<path d="M8.97782 1.54331C13.4971 1.54331 17.1752 5.23266 17.1752 9.76587C17.1752 14.2991 13.4971 17.9936 8.97782 17.9936C4.4585 17.9936 0.775324 14.3042 0.775324 9.76587C0.775324 5.22751 4.4585 1.54331 8.97782 1.54331ZM8.97782 0.771484C4.02247 0.771484 0.00585938 4.80043 0.00585938 9.76587C0.00585938 14.7313 4.02247 18.7654 8.97269 18.7654C13.9229 18.7654 17.9395 14.7364 17.9395 9.76587C17.9395 4.79529 13.9332 0.771484 8.97782 0.771484Z" fill="white" fill-opacity="0.7"/>
<path d="M8.97269 85.5599C13.492 85.5599 17.1701 89.2493 17.1701 93.7825C17.1701 98.3157 13.492 102.005 8.97269 102.005C4.45337 102.005 0.775324 98.3157 0.775324 93.7825C0.775324 89.2493 4.45337 85.5599 8.97269 85.5599ZM8.97269 84.7881C4.01734 84.7881 0.00585938 88.817 0.00585938 93.7825C0.00585938 98.7479 4.02247 102.777 8.97269 102.777C13.9229 102.777 17.9395 98.7479 17.9395 93.7825C17.9395 88.817 13.9229 84.7881 8.97269 84.7881Z" fill="white" fill-opacity="0.7"/>
<path d="M39.3711 85.5599C43.8905 85.5599 47.5685 89.2493 47.5685 93.7825C47.5685 98.3157 43.8905 102.005 39.3711 102.005C34.8518 102.005 31.1738 98.3157 31.1738 93.7825C31.1738 89.2493 34.8518 85.5599 39.3711 85.5599ZM39.3711 84.7881C34.4158 84.7881 30.4043 88.817 30.4043 93.7825C30.4043 98.7479 34.4209 102.777 39.3711 102.777C44.3214 102.777 48.338 98.7479 48.338 93.7825C48.338 88.817 44.3214 84.7881 39.3711 84.7881Z" fill="white" fill-opacity="0.7"/>
</svg>
