<?xml version="1.0" encoding="UTF-8"?><svg id="Livello_2" xmlns="http://www.w3.org/2000/svg" xmlns:xlink="http://www.w3.org/1999/xlink" viewBox="0 0 46.7 47.06"><defs><style>.cls-1{fill:#fff;}.cls-1,.cls-2{fill-rule:evenodd;}.cls-3{opacity:.22;}.cls-2{fill:#b62623;}.cls-4{mask:url(#mask);}</style><mask id="mask" x="0" y="0" width="46.7" height="47.06" maskUnits="userSpaceOnUse"><g id="mask-2"><polygon id="path-1" class="cls-1" points="0 0 46.7 0 46.7 47.06 0 47.06 0 0"/></g></mask></defs><g id="Livello_1-2"><g id="Page-1" class="cls-3"><g id="D_04_SCIENTIFIC_LIBRARY_V2"><g id="Group-258-Copy-2"><g id="Group-3"><g class="cls-4"><path id="Fill-1" class="cls-2" d="m40.46,39.55c-.06.01-.12,0-.19-.01.12-.18.27-.69.3-.94.09-.71.08-.58,1.08-.74,0,.49-.27.99-.59,1.36-.17.19-.37.28-.61.33m-.22-.73c.05-.14.03-.12.07-.11-.03.15-.02.13-.07.11m-.19.71s0-.04,0-.04c.1-.03.08,0,.1.07-.04-.01-.07-.02-.1-.03m-.26,0c.05.12-.01.21-.03.32-.34.05-.23-.14-.43-.23-.21-.1-.25-.19-.21-.42.11-.55.47-.83.99-1.01.12.63-.35,1.27-.32,1.34m.58-1.57s.02.09.03.18q-.14-.11-.03-.18m.92-.49c-.4-.1-.64-.19-.52.23-.33.06-.27.07-.34,0,.33-.84.39-1.25,1.03-1.66.53-.34,1.02.32.21,1.3-.11.14-.2.17-.38.13m-13.01,1.38c.14.11.25.2.3.36-.08.06-.15.12-.23.18-.02-.18-.04-.34-.07-.54m-1.07-.61q-.29-.06-.21-.19c.07.06.14.12.21.19m1.41-.65c0-.05,0-.11,0-.17.06.01.1.02.17.03-.13.18-.1.16-.17.14m.36.07s.04-.08.05-.11c.44.05,1.21.45,1.11.89-.12.52-.42.76-.97.73-.47-.03-.67-.95-.97-.42-.08,0-.16-.02-.27-.03.02.11.02.19.04.26.1.25-.03.48-.06.72,0,.02-.03.04-.05.05-.28.15-.54.4-1.23.1-.24-.11-.3-.39-.47-.58,0,0,0-.03,0-.05-.05-.24,0-.43.21-.57.22-.14.43-.27.7-.12.1.05.23.06.39.09-.01-.14-.02-.22-.03-.29.06,0,.13,0,.22,0,0-.12.03-.23-.13-.27-.05-.01-.08-.08-.13-.11q-.33-.27-.16-.65c.2-.46.64-.54.98-.2,0,.1-.03.21.01.27.13.18.15.34.03.54-.06.09,0,.21.12.25.33.13.21-.2.59-.5m10.14-11.53c-.03.31-.29.47-.44.73-.16-.09-.3-.17-.44-.26-.17-.11-.32-.6.14-1.25.33.07.39.08.67.32.12.11.28.1.39.17.16.11.29.04.42-.01.4.51.48,1.06.22,1.39-.08-.03-.16-.06-.24-.09-.01.42-.09.58-.29.61-.32.05-.42,0-.53-.32.16-.16.05.07.6-1.06.04-.09.04-.3-.13-.26-.09.02-.15,0-.22-.05-.06-.04-.14-.02-.15.07m-.55-1.12s-.06.07-.11.12c.06-1.27.22-1.26.91-1.59.44-.21.72.03.81.41.12.51.13,1.04-.23,1.5-.26-.08-.38.27-.64.2-.08-.24-.4-.51-.74-.64m-6.04,6.98c0-.14,0-.24,0-.38.11.1.19.17.29.26-.11.04-.19.08-.3.12m-.06-1.7c0-.12,0-.22,0-.35.13.04.24.07.4.12-.16.09-.27.16-.4.23m.7-.18c.28.03.56.05.82.18.45.21.21.92-.14,1.34-.07.08-.18.14-.27.2-.34.2-.55-.09-1.05-.59-.04.05-.06.09-.09.13-.09-.04-.2-.14-.29.01.19.36.13.79-.16,1.01-.14.11-.22.21-.14.38-.36.17-.7.21-1.06.06-.1-.04-.22-.08-.23-.23,0-.05-.19-.11-.22-.15-.27-.43-.06-.59.17-1.11.15-.33.46-.06,1.32-.13-.07-.13-.09-.24-.23-.25-.03,0-.18-.14-.49-.25-.11-.04-.22-.04-.3-.15.07-.35.28-.6.53-.83.18-.17.24-.1.93.15-.3.92-.34,1-.23,1.13.65.03.31-.47.79-.64.14-.05.28-.1.32-.27m7.15,6.93c-.14.47-.21.92-.67,1.08-.18.06-.64.4-.8.85-.06-.26-.11-.5-.17-.75.16-.13.33-.27.37-.54-.25.04-.32.27-.5.37-.04-.07-.08-.14-.11-.2.19-.23.37-.45.54-.65q-.07-.25-.19-.33c-.04.33-.29.51-.5.73-.29-.26-.53-.54-.75-.85.3-.46.38-.5.21-.63-.13.15-.26.3-.39.46-.17-.16-.32-.3-.47-.44.19-.2.39-.36.44-.68-.11.08-.2.12-.25.19-.19.24-.39.26-.68.15-.44-.17-.76-.01-.96.41-.29.63-.57.28-.9.62-.38.39-.34.69-.55.79-.63.31-.95.18-1.21.68-.27.53-.72.5-.81.3-.1-.23-.2-.46-.3-.68-.13,0-.23,0-.33.01.01.11.04.19.03.26-.06.22.12.15.23.66-.34.29-.46.35-.41.45.08.15.38-.08.52-.18.03.03.05.04.05.05.07.24.17.48-.17.6-.03.01-.06.09-.04.12.01.04.07.08.11.08.35,0,.3-.22.29.35-.41.24-.61.61-.72,1.04-.04.16-.15.23-.32.29.11-.51.16-.61.12-1.02-.01-.14-.07-.27-.07-.41,0-.35-.18-.64-.25-.97-.02-.11-.08-.21-.12-.32-.04-.1-.09-.2-.21-.22.21-.81-.42-.78-.05-1.14.4-.39.97-.1,1.65-1.1.02-.03.03-.12.01-.13-.04-.03-.12-.05-.15-.03-.45.3-.33.48-.95.68-1.17.39-.59.84-1.58-.29-.03-.04-.06-.09-.08-.13,1.17-.92.6-.22,1.36-1,.12-.12.12-.25.02-.41-.27.19-.44.49-.76.61-.3.11-.48.44-.83.53-.08-.12-.16-.24-.25-.37.09-.07.16-.15.25-.17.43-.14.77-.42,1.13-.67.16-.11.17-.23.28-.58-.26-.18-.09.23-.89.69-.29.17-.59.3-.92.44-.08-.16-.15-.31-.21-.45.15-.11.48-.25.69-.62.02-.04,0-.1,0-.15-.04,0-.09,0-.13.02-.13.06-.42.51-.84.36-.06-.02-.24.02-.17.21.14.38,0-.08.33.91-.22.05-.46-.03-.59.2.11.12.23.07.35.08.37.01.38-.03.49.26.04.11.03.23-.1.28-.02,0-.03-.01-.05-.02-.51-.32-1.12-.16-1.39.37-.31.62-.29,1.02-.71,1.19.06-.24.13-.45.17-.68.12-.69-.01-.9.27-1.13.1-.08.16-.19.11-.35-.1.04-.19.07-.29.11.04-.32.02-.61-.1-.89-.09-.03-.17-.06-.25-.09-.09.06-.1.13-.05.19.18.25.14.42.04,2.14-.31.09-.6.16-.88.25-.19.06-.36.16-.56.15-.06,0-.11.04-.17.06.05.23.2.19,1.51-.15-.09.27-.17.5-.25.74-1.01.41-.87-.12-1.74.12-.67.18-.82.19-.75.35.13.29.43.03.63-.03,1.07-.29.49.13,1.81-.13.07.21.12.4.2.57.3.57,1.07.94,1.72.61.26-.13.51-.3.74-.47.64-.48.65-.03,1.21-.27.21-.09.39-.24.6-.37.06.16.13.34.2.53-.15,0-.27-.01-.37.03-.1.05-.16.17-.25.26-.51.51-.77-.1-1.57.65-.4.37-.74.23-1.35.21-.92-.03-.96.52-1.49.43-.52-.09-.59-.27-.94-.06-.15.09-.3.12-.46.05-.22-.09-.48.11-.5.33-.03.59-.02.07-.05.96-.07.01-.12.02-.17.04-.03.01-.08.06-.08.07.04.13.15.11.29.12.04.21.09.41.02.61-.24-.02-.46-.02-.68.05.1.17.01.13.7.16-.05.13-.06.25-.13.31-.21.18-.44.33-.74.34-.5.02-.62.37-.18.28.33-.06.65-.13.96-.32-.05.98-.45.53-1.17.84-.18.08-.32.05-.49.01-.2-.05-.25-.22-.36-.3.66-1.42.5-.89,1.06-2.84.07-.25-.06-.08-.12-.55-.03-.21-.19-.15-.34-.1-.29-.5-.29-.32.24-.26.27.03.47.01.46-.22-.39-.06-.33,0-.43-.03-.57-.14-.57-.09-.55-.65,0-.02.02-.04.03-.08.43.18.72.03,1.15-.08.26-.07.32.07.97.26.19.06.39,0,.57-.06.14-.04.25-.15.28-.36-.49.12-.61.16-.75.14-.54-.06-.67-.39-1.14-.22-.34.12-.88.24-1.14.08-.02-.14-.03-.29-.05-.42,1-.29.92-.21.91-.49-.32-.08-.58.18-.92.16.07-.47-.08-.93.12-1.37-.4-.2-.38-.28-.43.65-.03.51-.09.48-.4,1.38-.11.31-.1.52-.35.53-.27.01,0-.31-1.06-.92.65-1.01.43-.57.85-1.69-.1-.05-.17-.08-.24-.11-.19.07-.11.35-.34.84-.11.24-.43.89-.68.99-.75.31-.74.54-1.03.86-.22.23-.22-.2-.96-.18-.38.01-.56-.26-.75-.37-.59-.34-.61-.27-1.07-.32-.26-.03-.27-.18-.5-.52-.07-.1-.06-.08-.7-.32-1.28,1.14-1,1.6-1.67,2.48-.26.34-.32.49-.54.41-.35-.13-.71-.24-1.06-.37-1-.37.54-1.48.64-1.6.53-.67.47-.48.85-.95.64-.79.41-.51.46-.81.05-.39-.09-.62-.48-.72-.56-.15-.67-.1-.9-.68-.31-.79-.91-.2-1.28-1.05-.39-.91-1.01-.61-1.06-1.28-.02-.3-.1-.21.8-.69,0-.09-.01-.17-.02-.27-.06,0-.12,0-.15.01-.23.12-.47.23-.68.39-.46.36-.94.71-1.29,1.2-.13.18-.39.18-.46-.07-.08-.3-.21-.57-.21-.9,0-.86.94-1.25,1.93-1.74-.01-.09-.02-.18-.04-.29-.36.18-.69.35-1.03.52-.57-.55-.28-.95-.82-1.45-.59-.55-.15-.95-.45-1.33-.54-.66-.08-.75-.42-1.18-.08-.1-.11-.23-.17-.36.07-.04.12-.08.18-.11.17.12.13.12.22.03.69-.73,1.46-.92,2.46-1.09.35-.06.68-.23,1.05-.17.05,0,.05-.03.11-.25-.11-.1-.23-.07-.35-.05,0,0-1.5.25-1.93.43-.65.27-.56.17-.4-.97,0-.04.03-.1.06-.12.15-.12.28-.27.49-.3,2.09-.24,1.86-.16,1.96-.53-2.63.07-3.01-.36-4.02-1.22-.35-.3.16-.85-.02-1.24-.34-.75.54-1.24.21-1.51-.27-.22-.13-.41-.01-.71.38-.07.72.08,1.08.15.06-.08.12-.15.2-.25-.13-.05-.23-.11-.34-.12-2.35-.24-2.26-.19-3.13-.22.38-.64.51-.69.49-.93.39-.25.55-.45.99-.35.61.15,1.23.25,1.83.45.23.08.59-.19.49-.24-.27-.12.08.08-1.1-.38-.1-.04-.16-.1-.11-.2.09-.18.15-.39.34-.5.11-.06.16-.16.18-.28.02-.14.07-.27.07-.41,0-.32.15-.56.39-.75.28-.22.21-.47.28-.91.1-.63.47-.32.74-.9-.01-.02-.02-.06-.05-.08-.36-.22-1.21-.89-3.75-1.22.06-.14.11-.26.16-.38.9-.16,1.01-.16,1.24-.96.3-.12.37.08,1.23.54.2.11.42.17.57.36,0,0,.85.62.99.61.15-.01.35-.03.43-.21-.09-.19-.1-.19.06-.31.54-.42.16-.88.64-.96.14-.02.21-.1.22-.23.63.17,1.22.41,1.71.85,1.71,1.56.95,1.41,1.6,1.39-.02-.07-.03-.14-.07-.2-1.54-2.14-2.75-2.09-3.11-2.4.16-.25.17-.25.4-.22,1.04.12.93.17,1.35-.14.48.49.99.91,1.41,1.44.22.28.7.18.71.16.07-.14-.13-.25-.25-.4-.11-.14-.2-.31-.33-.41-.12-.09-.19-.19-.25-.31-.58-1.19-.49-1.18-.52-1.49.03-.02.02-.04.01-.05-.26-.17-.03-.17.05-.35.24-.54.66-.03,1.06-.59.13-.18.49-.5.69-.41.26.11.46,0,.67-.11,0-.36-.22-.61-.39-.9,0,0,0,0,0,0-.03-.05-.06-.11-.07-.17-.18-.05-.13-.39-.78-1.05-1.45-1.47-1.54-1.1-1.47-1.28.13.02.39,0,1.01.31.26.12.7.07.89.03.61-.14,1.11.68,1.33,1.27.34.93.4,1.05.58.91.44-.35.64-.12.99-.47.33-.32.5-.62.85-.58.37.04.62.26,1.02.08.12-.05.59-.18.75-.09.13.07.25.16.37.23.2.12.42.01.45-.22.03-.23.05-.47.08-.7.35-.02.46-.07.56-.3-.21.02-.42.07-.6-.05-.08-.33-.16-.66-.24-1,.25-.05.53.01.71-.26-.28-.12-.55.05-.81-.04-.1-.34-.08-.25-.08-.33q.31-.1.42-.3c-.18-.12-.36.08-.56-.02-.05-.1-.11-.23-.18-.36.34-.07.5-.02.76-.09.19-.05.26,0,.5.1.63,1.17.58.82.52,2.2-.24.2-.54.37-.47.76.13.77.61.74.91,1.18.22.32.45.75.56,1.13-.31-.02-.6-.05-.88-.07-.03.3-.07.24.99.34,0,0,.21,1.12.18,1.31-.03.23.04.42.18.6.24-.06.18-.24.13-.78q.29-.13.38-.27c-.14-.14-.42.16-.46-.14-.05-.39-.12-.62-.29-1.26.24.11.49,0,.73-.01.02,0,.04-.07.08-.15-.14,0-.25-.02-.34,0-.18.05-.33,0-.48-.1-.03-.22-.05-.44-.08-.67.14-.04.26-.06.37-.11.42-.17.61.19,1.13.18.04,0,.11.02.12.06.21.49.04.31.1.58.05.23.03.45-.03.66-.24.02-.51.02-.55.15-.04.14.21.18.32.15.06-.01.11-.06.18-.09.01,1.12-.1,1.2.06,1.49-.04.18.1.23.2.32.19-.12.06-.29.07-.43,0-.15,0-.3,0-.47.83.12,1.17-.23.82-.22-.27,0-.53,0-.81-.09.04-.21.08-.41.13-.61,2.02.16,1.9.41,1.97,0-.61-.24-1.29-.11-1.95-.29.15-.77.12-.9.39-1.15.82.03.83,0,1.09.03.19.03.36.02.54-.07-.06-.23-.34-.23-1.47-.21.18-.17.33-.3.47-.43.1-.01.2,0,.29-.04.33-.14.6-.05.85.19.13.12.21.23.1.37.04.05.19.24.22.23.14-.05.11-.07.25-.81.2,0,.38.16.55-.02-.06-.21.04-.14-.48-.28.05-.67.03-.4.1-1.04q.4.18.57.14c0-.05.02-.11.02-.16.01-.12-.58-.04-.4-.71.33.3.33.35.47.15-.06-.1-.09-.22-.18-.28-.29-.21-.33-.5-.27-.82.01-.08,0-.04.07-.08.08-.04.07.03-.05-.56.66.18.21.78.95,1.07.28.11.52.11.77,0,.17-.07.19-.07.3.08.51.66.38.38.26.47-.21.16-.41.14-.61-.02-.04-.03-.13-.02-.19-.02-.05.33.16.4.39.45-.12.33-.39.45-.4.46.02,0,.06-.08-.42.59-.17-.1-.32-.23-.52-.1.02.22.27.23.36.4-.21.35-.42.71-.47,1.13.07.06.13.12.21.2.29-.49.05-.27.84-.22.3.02.48.2.63.44.1.15.27.2.42.29.17.1.32.13.49,0,0,.5-.15,1.32-.28,1.57-1.45-.27-1.46-.4-1.84-.36-.05,0-.18.13-.03.22.03.02,1.63.41,1.67.42.09-.06.05-.19.19-.13-.08.22-.15.45-.23.68-.43-.09-1.14-.52-1.61-.6-.08.32.16.31.81.59.42.18.08.14.72.21-.09.24-.17.46-.26.69-1.43-.71-1.43-.81-1.55-.45,1.16.53,1.15.61,1.42.55.11-.02-.11.24.04.42.47-.16.29-.54.61-.84.36.21.4.29.51.18-.05-.24-.27-.32-.41-.49.08-.12.15-.23.22-.34.24.07.43.31.69.07-.36-.17-.23-.07-.57-.38.13-.35.25-.68.38-1.01.19.68.47,1.25,1.31,1.33-.16.17-.39.2-.51.38-.15.23-.44.4-.84.95-.13.17-.23.35-.35.53.04.09.1.18.09.25-.03.24.17.15.44.61.11.19.34.47.47.29.07-.1-.15-.32-.19-.38-.13-.19-.22-.4-.42-.53-.13-.08.05-.41.22-.5.16.17.31.32.46.47.09.08.21.12.25.25.03.09.14.08.2,0,.04-.05.05-.11.07-.17-.26-.29-.63-.46-.77-.86.1-.09.19-.19.28-.26.14.05.24.11.35.14.57.11.72,1.08,1.1,1.18.04-.08.09-.14.12-.21-.12-.16-.27-.31-.36-.48-.3-.61-.78-.69-.96-.85.2-.29.23-.3.51-.15,1.55.78,1.12.82,1.66,1.25.02.02.08,0,.11,0,.12-.3.13-.1-.31-.65-.31-.38-.47-.4-1.46-.93.07-.22.19-.09.3-.09.67.04.78.46,1.77,1.16.13.09.2.06.23-.11.03-.2-.26-.22-.78-.69-.31-.27-.62-.54-1.06-.61.23-.2.48-.11.74-.13-.03.24.16.16.34.36.72.78,1.28.62,1.52,1.42.1.34.22.34.86,1.01.27.29-.12.34.06.74.12-.05.24-.09.36-.13.09.06.18.13.27.19.16-.18,0-.29-.04-.43.09-.08.18-.16.29-.25.28.46.33.59.52.49.02-.01.02-.11,0-.15-.34-.67-.37-.45-.13-.77.46.04.37.78.8.53-.19-.27-.26-.59-.56-.81.38-.43.17-.3.53-.02.08.06.11.25.3.15.04-.3-.18-.46-.37-.65.12-.15.24-.29.36-.43.17.05.24.25.44.26,0-.24-.11-.41-.27-.56.05-.08.09-.15.13-.21.25.27.5.54.75.81.27.29.26.69-.05.94-1.48,1.21-1.6,1.09-2.59,1.46.04.12.06.24.13.32.4.52.68.6.66.9-.03.51.49.34.66.94-.83-.09-.68.86-1.5,1.33-.17-.88-.06-.68-.56-1.5-.45-.74-.43-.82-.67-.82.1.33-.02.13.48,1.01.5.87.42.83.46,1.57-.03.02-.08.06-.14.1-.13-.23-.28-.44-.37-.67-.1-.25-.3-.45-.34-.72-.02-.09-.11-.13-.23-.12,0,.15-.1.28,0,.44.12.18.75,1.17.58,1.3-.12.09-.22.22-.4.18-.13-.25-.09-.62-.48-.7-.07.11-.04.19,0,.29.31.65.25.61.03.65-.18.03-.08.11-.47-.49-.21-.33-.33-.68-.56-.46-.07.06-.08.13,0,.19.26.21.4.51.55.8.04.08.15.15.04.25,0,0,.03.08.06.09.17.06.18.03.71-.16.1.38.06.33.15.33.05-.16.1-.31.15-.48.08-.03.17-.06.27-.1.02.11.04.32.21.29.29-.05-.16-.48.49-.62.11.25.11.53.13.83.12-.07.2-.12.28-.17-.02-.24-.04-.47-.06-.71.93.3,1.25,1.92-.75,1.9-.64,0-1.01-.3-1.33.04-.15.16-.32.28-.52.3-.05.12-.09.22-.15.36.21-.02.39-.03.59-.05.18.86.08,1.01.31,1.15.3-.18-.11-.36-.02-1.24.31-.04.62-.08.93-.12.16.52.34,1.39.37,2.05,0,.25.22.47.11.73,0,.02.05.07.08.08.3.07.03-1.3,0-1.41-.13-.53.12-.34-.2-1.09-.06-.14-.08-.26,0-.4.09,0,.2,0,.31-.01.18.47.22.27.19,1.36,0,.24.13.42.25.61,0,0,.03,0,.08,0,.04-.09.09-.2.14-.3.17.29.27.58.19.93-.05.22-.05.45-.07.73-.83.48-.57.4-1.24.42-.04-.22-.05-.45-.14-.63-.36-.81-.06-1.66-.32-1.85-.24,0-.19.08-.12,1.47,0,.07.04.15.08.2.2.26.15.57.22.88-.33.11-.63.09-.96.03.09-.33.06-.62-.07-.92-.01-.03.04-.68-.28-1.24-.25.12-.12.12-.01,1.04.04.33.04.67.1.99.03.16.06.32,0,.49.84-.02.57-.03,1.33.25.21.08.21.19.12,1.01-.02.22-.41.47-.64.43-.8-.15-.71-.16-.89.04.03.16.11.12.64.19.05.3,0,.58.11.84.23-.2.09-.48.19-.69.26-.05.41.14.62.27-.18,1.39-.17,1.08-.06,1.34.3-.2.25-.29.36-1.16.18.13.33.22.45.34.1.1.18.19.38.16-.52.88-.31.4-.58,1.87-.05.27-.15.42.02.48.26-.06.26-.21.48-1.02.1-.35-.19-.47.21-.93.3.31.65.3,1.06.17-.23,1.12-.9,2.18-.54,2.28.29-.1.25-.37.3-.58.12-.44.21-.88.4-1.3.13-.31,0-.62.17-.79.36-.37.35-1.19.04-1.58-.3-.39.31-.55.27-1.57-.03-.68.03-.51-.57-1.24,0-.21.05-.48-.21-.7-.21.23.03.48-.06.67-.19.05-.36.09-.55.14-.12-.44.17-.64-.04-1.19-.22-.56.04-.89-.17-.95-.21-.06-.19.2-.23.6-.2-.42.01.25-.23-1.52.28.03.5.17.67.31,0,.15,0,.26.02.37.23,1.14.22,1.15.37,1.13.11-.44-.08-.86-.11-1.33.49.33.93.55,1.61-.23.13-.15.19-.31.11-.51q.24.03.27.22c.08.42.08.51.21.5.13-.16.1-.05,0-.71.14-.03.26-.05.38-.07.08.16.03.4.27.41.19-.13.03-.32.11-.47.11-.02.22-.05.33-.08.15.23.27.32.32.67.02.12.06.16.19.12.05-.57.08-.33-.12-.9.09-.04.18-.09.3-.15.22.77.23.98.43.8-.11-.92-.16-.85.04-.92.1.14.17.29.28.41.25.28.42.82-.05.91-.51.09-.85.29-1.51.15-.38-.08-.76-.08-1.15-.04-.31.03-.6.08-.82.38.42.51.66.64.41,1.21-.28.65-.16.85.01,1.21.17.34.07.75-.08,1.04-.22.42-.15.79.01,1.2.16.4,0,.49-.15.74-.13.23-.13.25.04.44-.15.16-.1.18.08.25.24.09.37.28.35.54-.01.25-.03.31.21.25,0-.22.02-.44.03-.69.12-.01.23-.03.36-.05.02.13.03.26.07.37.04.11.03.28.21.28.15-.22,0-.44.01-.68.22,0,.42,0,.67-.01,0,.21-.01,0,.04.54.02.18.08.25.25.26,0-.26,0-.51-.01-.78.16-.04.34-.02.52.04,0,.08-.02.14-.01.21.06.55.07.73.25.67.08-.22.09-.43.06-.66-.01-.09.03-.18.05-.28.12,0,.21,0,.31-.01-.04.19-.05.35.05.53.05-.14.09-.26.12-.37.14.57-.05.75-.08,1.22-.02.38-.47.81-.69.6-.17-.16-.37-.29-.57-.41-.55-.33-.48-.33-1.55-.54-.42-.08-.18.15-.68.02-.21-.06-.31-.19-.45.37-.01.05.06.25-.02.4-.39.68-.52.63-.55,1.04-.06.66-.08.96-.43,1.09-.16.06-.29.15-.36.34-.21-.26-.32-.58-.66-.66.04-.09.11-.18.31-.77.2-.57.27-.75.11-.85-.14-.09-.22.17-.27.33-.24.8-.23.79-.23.79-.07.3-.3.45-.41.45-.52-.04-1.01-.16-1.48-.41-.27-.14.03-.31-.16-.48-.22.28-.17.31-.47.15-.19-.1-.21-.1-.42.09.07.05.15.1.2.16.73.75.61.64.67.82,0,0,.2.21.31.38.22.33.25.38.24.99,0,.2-.09.28-.27.35-.26.1-.45-.04-.62-.18-.56-.43.1-.62-.25-.81-.11.11-.06.05-.21.21-.09-.13-.2-.24-.25-.37-.05-.12.09-.18.13-.27.04-.09-.03-.34-.19-.15-.06.07-.11.13-.16.19-.2-.12-.37-.22-.56-.33.05-.6.13-.83-.21-1.1-.54-.41-.93-.42-1.81-.93.02-.1.04-.18.04-.26-.08-1.55.2-1.04.05-1.62-.02,0-.04,0-.05-.01-.29.45-.34.92-.26,1.21.05.18,0,.35-.02.48q-.36-.19-.33-.54c0-.07.04-.15.03-.21-.04-.14.09-.28-.02-.43-.24.17-.21.65-.34.82-.11-.07-.21-.18-.31-.19-.15,0-.22-.07-.29-.16.07-.18.14-.35.19-.51.01-.04-.03-.14-.05-.14-.37-.03-.11.62-.59.61-.23.58.18.35.68.67.14.09.27.21.25.36-.16.11-.32.17-.4.29-.13.19-.31.31-.45.47-.09.1-.15.22-.23.35-.02-.19-.16-.25-.27-.32-.19-.14-.4-.26-.6-.37-.09-.05-.31.06-.14.2.07.05.12.13.19.21-.03.07-.06.14-.1.21-.49.77-.39.52-.41.74.05,0,.11,0,.15-.02.32-.15.21-.35.56-.7.24.82.49.96-1.07,2.4-.26.24-.77.32-.83.38-.11.13-.23.21-.38.27-.07.03-.07.12,0,.16.23.15.53-.26.79-.31.66-.14,1.4-1.14,1.63-1.41.27.12-.1.24.21.73.03.05.07.11.1.16-.23.35-.39.72-.72,1,.07.03.15.06.2.03.1-.06.21-.13.28-.22.61-.77.26-.62.59-.49.4.15.55.3,1.35-.04.13-.06.25-.15.32-.29.09-.2.28-.32.44-.44.34-.26.61.16,1.26-.33.18-.14.34-.29.44-.49.25.21.48.41.71.61-.22.31-.44.66-.79.77-.34.1-.56.32-.76.58-.11.14-.11.15.1.28.41-.4.47-.47.56-.51.52-.23.51-.32,1.08-.88.21.2.55.74.64.99.06.15,0,.17-.27.68-.23.43-.56.25-.91.78-.17.25-.19.23-.98.96.21.3.26.2.82-.38.46-.47.45-.62.89-.88.19-.11.44-.49.64-.76.07.13.1.27.19.33.15.1.16.23.18.37.11.56.46.5.64.69.29.29.53-.05.75.16.33.31.73.23.81.57.03.12-.02.18-.05.27-.02.09,0,.18.08.2.14.04.29-.27.3-.3.14.09.27.16.38.22.05.18-.14.3-.05.47.21.03.23-.18.36-.28.64.38.35.27.66.64m-2.84-2.29s-.02.08-.03.13c-.03-.39-.54.15-.76-.56-.18-.58.09-.8.37-1.09.28-.28.73-.35,1.02-.16,0,.13,0,.25.01.37.06.6-.34.51-.2.76.08.14.17.07.28.02-.21.45-.34.56-.69.53m1.16-1c-.01-.07-.06-.45-.18-.51-.2-.1-.09-.38-.3-.46-.03,0,.04-.09.07-.13q-.11-.11-.25-.12c-.35-.02-.44-.11-.55-.44-.24-.81.9-1.15,1.28-.54.09.14.15.29.22.42-.17.29-1,.58-.27.84.2-.2.4-.39.61-.58.27.22.34.54.19.92-.16.39-.37.59-.83.6m7.51-5.92c-.03-.14-.16-.08-.71.2-.09.04-.17.11-.25.16-.15-.65-.06-1.45.08-1.95.12-.47.85-.27,1.02.18.23.63,0,1.43-.03,1.51-.07.17-.16.22-.4.22.12-.09.33-.22.3-.32m-1.08.93c.41.5.48,1.21.45,1.28-.08.18-.2.34-.3.51-.24-.07-.42-.17-.48-.38-.13-.52.05-.79.33-1.4m.65,1.11c.17-.28.07-.48-.24-1.39,1.21-.24.45-.19.82.23.09.11.08.18.04.51-.05.4-.2.55-.63.64m-.63-10.2c.19-.27.15-.58.15-.7.57.39.71.64.82.4-.12-.1-.24-.18-.33-.29-.1-.11-.28-.14-.35-.34.67.4.79.44.78.65.22.33.22.71.24,1.08.05.86-.57.75-.52,1.21-.16.1-.31.14-.48.03.03-.21-.1-.28-.28-.3-.17-.4-.18-.36-.18-.68,0-.36-.08-.73.16-1.05m-.35.05c-.45-.42-.51-1.05,0-1.42.27.35.27,1.08,0,1.42m1.26-.82c-.99-.78-.91-.79-1.13-.83,0-.16,0-.31.03-.45.11-.56.89-.22,1.07.69.03.18.11.36.03.59m-5.41,1.65c-.13.13-.32.19-.52.19-.32,0-.2-.14-.4-.26-.53-.34-.69-1.39.49-1.69.2-.05.37-.03.48.21.07.15.24.26.38.37.04.03.14.02.18,0,.13-.1.02-.22-.39-.9.1-.1.12-.27.21-.41.12-.19.15-.44-.07-.64.37,0,.71.13.83.34.38.7.13,1.4-.23,1.61-.2.12-.4.22-.58.32-.02.49,0,.48-.38.86m-.06-2.26c-.04.5-.33,0-1.21.19-.33-.76-.61-1.27-.27-2.12.14-.36.38-.15.59-.04.73.36.71.47,1.05,1.01-.12.28-.09.02-.15.96m.64-6.28c.03-.3.02-.45.09-.54.73-.88.64-.78.75-.77-.05.53.07.92,0,1.38-.03.2.02.24.24.27.05.24-.08.4-.23.55-.09.1-.2.1-.31.03-.34-.22-.59-.48-.55-.92m1.42.03c-.1-1.05,0-.54-.37-1.58-.02-.05-.02-.11-.03-.2.43.07.78.42.83.79.04.31-.22.89-.42.98m-1.51-.84c-.38-.28-.33-.22-.32-.31.82-.1.76-.16.32.31m-.55-.53c-.29-.18-.71-1-.23-1.59.55-.68,1.68.81,1.68,1.13-.4.45-.96.35-1.45.45m-6.22-1.22c-.23-.06,0-.1-.5-1.35.51-.53,1.46.16,1.05.9-.02.04,0,.12,0,.17.09.34-.24.35-.56.27m-.58-.16c-.3.2-.68.52-.94.28-.31-.29-.57-.6-.57-1.06,0-.23.02-.26.24-.25.38.01.76.04,1.12-.16-.11.31-.11.15.15,1.19m-1.95-1.27c.12.17.13.21.05.35-.14-.39-.14-.32-.05-.35m1.31-.04c-.27.1-.55.03-.82.07-.03,0-.07-.01-.09-.03-.19-.22-.4-.43-.46-.73-.1-.57.67-.6,1.24-.29.3.17.48.42.64.67.17.26-.28.23-.51.31m-1.6-4.2c-.19.09-.36.07-.52-.07-.04-.03-.1-.04-.13-.07-.29-.33-.38-.45-.29-.55.29-.34.37-.25,1.4-.1.18.21.14.44.06.67-.1.32-.36.05-.53.13m-.24-1.28c-.26.12-.56.02-.75.26-.07-.04-.03.07-.26-.89.4.14.74.3,1.01.63m-2.18-.27c0,.07.02.13.03.23.68-.23.3-.22.95-.4.16.83.23.92.06,1.03-.22.15-.45.22-.71.08-.42-.21-.24-.3-.4-.62-.2-.4-.31-.37-.67-.64-.18-.13-.3-.4-.25-.52.05-.14.34-.27.55-.26.4.03.77.13,1.08.4.19.17.06.19-.64.69m-3.14,3.8c-.81.52-.64.55-1.67.37-.09-.02-.18-.07-.27-.11.12-1.33.21-.81-.59-1.45.18-.05.32-.08.45-.12.23-.07.13-.31.54-.18.28.09.55.2.64.56-.32.03-.63.05-.96.08.29.64.96.07,1.69.37-.07.15-.01.32.17.48m-2.11-.19c-.04.11.04.27-.18.3.15-.37.12-.33.18-.3m-.8-.85c.23.13.46.26.74.24-.09.35-.34.63-.32,1.02-.28.08-.56.07-.83.05-.13-.01-.37-.22-.52-.23-.15,0-.22-.09-.26-.22-.1-.32-.15-.52.15-.74.35-.25.94-.18,1.04-.12m-.21-2.67q-.12.06-.19-.03s.09.02.19.03m.41-.41c-.45.31-.61.14-1.51-.12-.12-.03-.2-.1-.24-.21.08-.02.17-.02.21-.06.27-.28.61-.42.97-.54.69-.24.99.65.57.93m-1.86.08c-.67.24-1.81.5-2-.18-.1-.35.13-.25.74-.74.49.18,1,.36,1.26.92m-.08-.7c-1.03-.44-1.05-.42-1.12-.55.31-.54,1.79-.61,2.18-.21-.47.11-.78.44-1.06.76m-7.13,3.24c-.18.11-.29.02-.9-.23.07-.37.12-.87.37-1.11.24-.23.12-.23,1.37.28.04.02.07.06.13.1-.09.23-.18.45-.28.68-.18.4-.62.24-.69.28m.78-1.34c-.37-.13-.33-.09-.29-.18.37.17.32.13.29.18m.39-.13c-.41-.25-.84-.39-1.35-.32.03-.2.1-.36.25-.46.41-.29.81-.33,1.25-.06.45.28.21,1.06-.15.83m-2-.01c-.24.69-.16.39-.3,1.14-.39.03-.53.14-1.22-.18-.13-.06-.16-.22-.1-.31.13-.17.25-.35.46-.43.38-.15.77-.24,1.16-.21m-1.27,6.39c.18.57-.27,1.05-.9.95-.75-.12-.82-.21-.96,0-.24.38-1.03.34-1.15-.08-.1-.37-.07-.5.32-1.09.15-.23.28-.19.86-.24.15.07.29.14.44.21-.23.75-.31.79-.03.93.2-.19.29-.44.32-.71.38-.09.73,0,1.08.03m.06-.56c-.7-.15-.85.38-1.67-.07.19-.27.35-.53.54-.77.32-.39,1.02-.32,1.25.11.13.25.07.28-.12.73m-6.42,2.7c-.13.57-.89.56-1.02.47-.28-.21-.25-.41-.35-1.16.17-.05.3-.09.44-.13-.11.41-.18.42-.05.53.23-.6.14-.5,1.1-.6.03.66.02.28-.12.89m-.35-1.37c-.75.25-.75.3-1.04.29-.15,0-.19-.08-.12-.21.35-.67.41-.6.88-.96.08.32.09.41.13.37.1-.12,0-.41.55-.53.11-.02.22,0,.25.09.12.36.07.52-.16.8-.05.06-.33.09-.48.14m-1.68.85c.13-.09.27-.1.44-.04.06.54.02.97.38,1.3-.06.26-.19.41-.45.43-.09,0-.17.05-.25.08-.58.22-1.12-.28-.9-1.19.04-.16.21-.21.79-.58m-.43,8.13c-.24-.5-.47-.99-.69-1.45.14-.26-.07-.14,1.32-.58.18.43.23.85.23,1.29,0,.41-.44.67-.86.75m.61-2.28c-.3.11-.6.22-.91.33.02-.19-.04-.1.25-.22.48-.19.64-.32.67-.12m.03-.16c-.37-.18-.62.07-1.05.23-.16.06-.33-.04-.32-.18.15-1.3,1.35-1.33,1.47-.62.03.18.01.37-.1.57m-1.79,1.08c.21.68.1.56.72,1.28.07.09.16.15.28.07.01.02.02.04.03.06-.77.77-.75.82-.98.76-.92-.27-.81-1.99-.06-2.16m3.27,5.58c.37-.03.38.11.67.58-.17.24-.27.26-.41.94-.02.1,0,.21.02.31.02.09.13.11.17.06.05-.07.16-.11.13-.23-.06-.26.1-.47.18-.69.02-.05.08-.08.12-.12.64.31.89.31.82,1.45-.01.22-.05.43-.21.61-.08.09,0,.03-.32.59-.21-.03-.24-.01-.35.14-.06.09-.16.39-.44.3-.68-.23-.5-.41-.62-.48-.24-.13-.27-.37-.31-.61.07,0,.14.02.21.03.11-.48.4-.46.52-.78.03-.08-.03-.11-.1-.14-.01,0,0-.05-.02-.08-.06-.13.02-.08-.53-.29-.15.13,0,.21,0,.31-.31-.22-.43-.51-.33-.88.14-.51.24-.99.78-1.03m-.44,1.92c.13.03.26.06.4.1-.08.06-.15.11-.21.16-.07-.09-.13-.17-.19-.26m-.27.22s.07.05.12.09c-.36.72-.35.53-.15,1.23-1.42.35-.85.17-2.2.71-.16-.09-.21-.21-.15-.37.23-.6.74-1.59,1.29-1.57.04,0,.07-.03.11-.05.28-.09.16-.13.98-.04m-2.92,1.45c-.15-.15-.26-.26-.38-.37-.14-.13-.07-.31-.11-.46.11-.05.11-.15.12-.25.06-.33.31-.51.53-.77.38.69.4.69.39.79-.03.42-.24.75-.55,1.05m-.25-2.31c-.42.8-.29.43-.49,1.38-.07,0-.41.05-.46-.11-.06-.19-.14-.4-.12-.59.05-.43.16-.86.44-1.22.44-.55.59.36.64.53m-.91,1.91c.14.18.13.2.45.02.3.55.93.5.73,1.17-.1.34-.45.84-.81.66-.35-.19-.6-.31-.63-.68-.03-.37-.04-.93.25-1.17m4.32,7.88c-.12-.03-.2-.08-.22-.21-.03-.2-.17-.07-.18-.45-.01-.46-.02-.94.31-1.21.22-.19.54-.16.7.09.07.11.13.23.18.33-.69,1.87-.3.89-.79,1.45m1.2-1.11c.74.2.65.59.77.85.13.27.08.52-.06.76-.27.01-.83-.17-1.37-.45.21-.39.43-.77.65-1.17m-.87,1.42c.98.33.88.41,1.29.54.27.09.35.27.41.51.07.25.1.49-.05.73-.11.18-.14.19-.33.11-.29-.14-.98-.65-1.08-.93-.11-.3-.24-.59-.24-.95m4.9,6.24c-.14.27-.39.14-1.12.16-.06-.17-.12-.32.04-.46.35-.3.74,0,1.08.3m-.42.42c-.13.05-.21.07-.28.1.04-.16.13-.15.28-.1m-.33.31c.37,0,.55-.28.83-.43.11.42.22.81.32,1.21-.47-.12-.85-.34-1.16-.78m1.58.88c-.62-.94-.28-.92-.55-1.52.6.1.19.03.84.23,1.23.38,1.59,1.94.62,1.87-.39-.03-.63-.31-.9-.54-.01,0,0-.03-.02-.04m7.89-2.97c.23.13.32-.12.49-.17.46.07.83.55.93.97-.25.23-.49.45-.74.67.1.2-.03.34-.14.49-.53.74-1.81,0-1.58-.82.2.06.99.37,1.3.23-.08-.13-.15-.24-.22-.35.11,0,.22,0,.32,0-.26-.2-.56-.29-.87-.38.14-.25.27-.49.5-.65m2.57.98c-.04-.18-.05-.15.03-.16.02.18.03.15-.03.16m-1.03-.01c-.12-.12-.11-.09-.07-.15.19.21.46.22.7.32.17.07.32.19.47.29.04.03.06.1.06.14-.06.59-.55.64-1.14.59-.25-.02-.44-.13-.52-.39.33-.07.42-.48.49-.8m1.37,4.6c.6.16-.16.8-.5,1.15.14.09.24.11.34.01.29-.26.24-.23.29-.19-.21.29-.13.17-.33.47-.26-.12-.54-.21-.55-.39,0-.38-.44-.13-.42-.47.02-.4.53-.76,1.18-.58m.09,1.45c.29-.32.41-.68.43-1.09.79.65.88.72,1.02.8.16.1.26-.04.26-.09-.02-.21-.59-.33-1.16-1.09.12-.04.22-.1.3-.08.23.04.53-.07.65-.06.71.1,2.04.2,1.58.9-.28.43-.78.58-1.26.55-.78-.06-.84.42-1.82.16m9.71-5.44c.05-.27.27-.64.51-.69.57-.11,1.32.12,1.37.39-.28.14-.55.55-.72,1.08-.04-.02-.07-.03-.11-.05-1.1-.61-1.09-.56-1.05-.74m-.1.5c.11-.01.24-.09.34.07-.13-.03-.23-.05-.34-.07m-.29.15c.61.3,1.06.29,1.41.62.06.06.14.08.22.13.05-.09.09-.15.12-.21.11.05.03-.02-.06.3-.12.39-.44.54-.79.64-.19.06-.37-.03-.45-.21-.06.03-.11.07-.17.08-.22.05-.43-.02-.65-.04-.1,0-.08-.19-.08-.28-.1.02-.18.03-.28.05-.06-.11,0-.21.06-.31.34-.54.37-.49.67-.79m2.35-.41c-.26.28-.2.25-.27.17.1-.04.12-.18.27-.17m-.41,1.13c.22-.51.24-.6.41-.76.49-.46.24-.79.52-.75.33.05.44.05.51.13.5.55-.21,1.5-1.14,1.45-.09,0-.18-.04-.3-.07m.54-1.4s-.03,0-.06.01c0-.06.02-.12.03-.21.12.09.07.14.03.2m8.31-3.37c.03-.36-.15-.25.09-.75.2-.43.34-.67.18-1.11-.1-.26-.32-.39-.61-.33-1.6.32-3.03-.13-3.6-.67.15-.23.29-.45.45-.65.5-.62.82.06,1.33-1.17.09-.22.03-.45,0-.68-.06-.43-.26-.46-.42-.66.01-.03.1-.27.21-.31.88-.36.26-1.26,1.04-2.06.19-.19.22-.52.2-.78.03-.01.05-.03.07-.03.45.03.9.03,1.34.11.56.1,1.47.6,2.01,1.49.13.22.12.09.34.28.29.25.71.38.97.05.12-.15.15-.4.51-.54.5-.19.5-.76.55-1.29.02-.22-.18-.12-.14-.55.07-.83.14-1.24-.05-1.92-.09-.32-.66-.6-.95-.57-.56.06-.37.53-1.2.83-.46.16-.41.38-1.9.44-1.19.05-.89.03-1.33,0-.06-.34.36-.43.25-.89-.2-.8-.23-.89-.11-1.21.27-.69.36-.88.03-1.69-.11-.27-.02-.31.18-.88.24-.69-.34-1-.34-1.14.03-.02.07-.05.11-.05,1.7-.05,1.75.2,2.59.06.09-.01.91.32.94.33.06.03.12.09.15.15.26.43.83.53,1.2.18,0,0,.02,0,.02-.02.22-.41.6-.74.59-1.25-.02-1.48-.31-1.18-.42-1.99-.06-.45-.27-.84-.51-1.2-.31-.45-1.11-.47-1.16.24-.01.18-.11.31-.23.42-.31.28-.61.57-1,.74-.39.17-.8.33-1.25.38.04-.15.07-.29.11-.43.1-.39-.04-1.03-.37-1.24-.23-.14-.45-.3-.73-.33-.13-.02-.25-.08-.32-.21-.41-.82-1.1-.61-1.03-1.11.06-.43-.64-.71-.64-.95,0-.52-.41-.65-.47-.82.5-.28.44-.35,1.87-.81.73-.23,1.25.36,1.69-.19.35-.44.26-.59.38-.64.3-.12.41-.4.53-.65.11-.23.2-.48.17-.76,0-.05,0-.1-.02-.14-.22-.42-.48-.83-.97-.98-.37-.11-.35-.66-1.37-1.18-.34-.17-.74-.08-.95.27-.11.18-.19.39-.27.59-.04.1.13.31-.18.89-.27.52-.47.73-1.6,1.96-.07.07-.15.13-.23.2-.64-.97-.79-.76-.98-1.24-.27-.7-.54-.72-1.14-1.1-.16-.1-.2-.17-.6-.62.19-.13.24-.33.24-.55,0-.28.06-.55-.03-.82-.14-.4-.59-.71-1.1-.69-.14,0-.21-.05-.28-.18-.64-1.17-2.01-1.1-2.26-.61-.34.68-.05.61-.4.5-.72-.23-.47-.79-1.3-.8-.18,0-.35-.05-.53-.15.08-.18.15-.36.24-.52.39-.69.95-1.25,1.27-1.47.68-.45.73.1,1.33-.36.26-.2.17-.4.22-.54.22-.76-.71-.89-.98-1.34-.03-.05-.09-.09-.15-.12-2.34-1.35-1.69-1.07-2.54-1.16-.3-.03-.55.08-.77.25-.04.03-.06.1-.08.15-.36.9.16-.15-.04,2.92-.04.58-.09,1.23-.18,1.82-.09-.05-.16-.06-.2-.1-.24-.22-.51-.26-.82-.17-.54.15-.31-.36-.88-.51-.62-.16-.29-.64-1.09-.91-.57-.2-.68.11-1.43.25-.26.05-.53.06-.82.08-.23-1.54.88-2.35,1.11-2.63.31-.37.31-.96-.28-1.21-.29-.12-.09-.13-.53-.46-.26-.19-.88-.41-1.19-.32-.02,0-.05.02-.07.01-.42-.14-.78.1-1.16.21-.26.07-.37.4-.6.74-.1.14-.39.26-.48.35-.34.39.14,1.01.47,1.08.06.01.12.09.16.14.24.31.35.68.46,1.05.22.81.41,1.48.24,2.22-.49-.24-.56-.32-.83-.24-.57.16-.73.2-1.05.09-.52-.18-.94-.04-1.25.39-.21.3-.5.37-.83.4-.6-1.01-.79-2.18-.71-2.94.02-.23.06-.01.17-.98.03-.3-.4-.62-.72-.73-.97-.32-1.44.44-1.48.56-.16.51-.55.2-1.65.53-.36.11-.61.38-.78.71-.09.19,0,.37.14.51.24.24.47.22.55.41.06.14.24-.07,1.35.87.33.28.57.63.83.97.11.14.17.33.26.51,0,0,0,0,0,0,.06.07.11.13.14.21.14.17.23.37.31.61-.37-.02-.65-.11-1.02.21-.31.28-.3.45-.65.47-.22.01-.42.08-.58.23-.01.01-.05.01-.1.02,0-.08-.01-.16-.02-.24-.02-.81-1-1.26-1.7-.71-.66.53-.41.91-.82.94-.1,0-.2.04-.29.03-.19-.03-.33.06-.46.17-.81.63-.69,1.72-.31,1.86.15.05.29.13.44.15.2.03.6.18.41.21-.72.11-.22.74-.81,1.01-.08.04-.13.14-.21.23-.94-.56-1.16-.83-1.89-1.5-.41-.38-.61-.86-.66-1.41-.04-.44-.33-.62-.76-.46-.29.11-.8.06-1.35.84-.1.13-.33.47-.32.62.02.27-.17.23-.81.65-.05.04-.38.28-.4.35-.17.54-.22.7,0,1.21.29.67.65.5,2.1.4.81-.06.7.12,1.62.31.47.1,1.29.51,1.71.73-.56.33-.66.3-.73,1.06-.07.74-.6.47-.67,1.45-.02.27-.1.48-.3.67-.15.14-.24.34-.37.54-.49-.09-1.35-.81-1.36-.82-.21-.18-.39-.38-.42-.71-.04-.47-.49-.88-1.05-.79-.12.02-.23.12-.34.19-.81.52-.35,1.18-.68,1.36-.04.02,0,.17,0,.29-.58.46-.86.56-.95,1.3-.07.54.14,1.54.8,1.71.35.09.79-.3.89-.38.45-.35,1.2-.27,2.71-.2.04,0,.07.03.14.05-.12.28-.25.56-.01.77.09.07.09.17.04.27-.05.1-.09.21-.15.31-.33.53-.05,1.11-.07,1.22-.05.25-.11.49-.17.74-.8.19-1.08.83-1.15,1.65-.03.32.16.44.26.59-.06.01-.1.04-.14.03-2.16-.28-2.5-1.15-2.73-1.23-.11-.04-.18-.1-.22-.21-.07-.19-.57-.27-.85.11-.1.14-.21.27-.24.45-.05.26-.49,1.02.07,1.84-.55.5-.54,1.82.03,2.19,1.1.72,1.12-.08,1.58-.26.32-.12.34-.36,1.34-.75.16-.06.28-.13.38-.15.86-.15,1.11-.23,1.3,0,.46.51.7.18.81.52.07.22.25.54.23.63-.12.7.48.74.41,1.24-.12.85.54.79.73,1.64.05.2.19.49.39.76-.28.12-1,.46-1.66.27-.33-.1-.56-.31-.72-.15-.07.07-.85-.08-.97.74-.07.48-.16.75.06,1.22.09.2,0,.58.34.86.61.5.33.73.82,1.13.29.24.59.46.9.68.25.18.57.16.75-.19.49-.99.22-1.47,1.06-2.32.17-.17.32-.35.49-.53.13.03.12.14.12.22,0,.31.22.38.63.61.24.13.26.26.47.69.38.78,1.12.38,1.26,1.06.1.49.64.61,1.12.74.16.04.21.15.2.31,0,1.08-3.13,2.77-3.15,2.77-.28.01-.39.26-.57.41-.14.11-.15.28-.08.42.54,1.11.69,1.45,2.02,1.83.3.08.62.63,1.24.59.44-.03.63-.48.67-.51.26-.16-.04-.56.14-1.37.07-.33.09-.68.24-.99.02-.04.04-.09.04-.14.01-.26.48-.94.6-1.09.17-.2.35-.39.53-.57.11-.11.49.07.55.31.2.71,1.02.19,1.45.67.5.55.96.4,1.43.58.1.04.13.12.08.22-.2.35-.08.71-.02,1.07.04.23.93.66.98.64.31-.08.68-.01.91-.34.13-.19.51.26.98.19.06,0,.13.02.19.02,1.19-.09.98-.54,1.18-.71.13-.02.22.03.23.18,0,.09.02.18,0,.27-.58,3.52-2.48,3.31-1.65,4.28.33.38.22.43.52.59.61.32,1.42.39,1.9.26.95-.26,1.63-.28,1.74-.37.51-.43.94-1.07.39-1.44-.29-.2-.39-.11-.58-.45-.85-1.57-.64-2.87-.61-3.29.09,0,.15,0,.19.02.41.23.44-.32.99-.06.4.19.82.04,1.21-.17.74-.41,1.35.1,1.91-.23.59-.34.66-.59,1.1-.56.37.02.67-.1.9-.39.08-.1.13-.1.4-.11.43,1.08-.04,2.23-.2,2.44-.16.21-.33.7-.1.93.46.44.74.23,1.15.51.1.07.22.08.77-.03.47-.1.7-.47.92-.85.66.02.95.09,1.37-.25.26-.21.42-.48.51-.79.1-.34-.05-.61-.28-.86-.35-.38-.82-.39-1.71-1.22-.24-.22-.44-.49-.67-.74.04-.03.07-.05.09-.06.41-.08.61-.54.74-.7.27-.35.55.04,1.24-.61.18-.17.19-.72.83-.8.41-.05.45-.44.69-.73.05-.06.15-.12.21-.11.18.05.4.09.53.21.41.36,1.23,1.22,1.55,1.66.61.86.27,1.15.37,1.37.27.58.47.65,1.07.75.33.06.3-.16.71-.19.9-.07,1.55-1.07,1.64-2"/></g></g><path id="Fill-4" class="cls-2" d="m32.44,25.01c-.63-.44-.42-.27-.77-.92-.08-.14.2-.34.38-.51.45.14.92.09,1.17.56-.09-.02-.17-.03-.23-.04-.24.6-.1.36-.55.91m.64.18c.12-.37.08-.32.16-.32.21.56.25.53-.16.32m.62.38c.34-.22-.33-.35-.31-1.24.32-.15.15-.21-.22-.71.14.1.26.22.45.22.06-.14,0-.22-.1-.27-.33-.18-.63-.71-.56-.85.07-.13.15-.26.3-.31.46-.13.87-.24,1.33.26.24.26.19.37.19,1.03-.35.06-.68.12-1.03.18.04.1.08.16.1.23.01.06-.03.14.05.17.06.02.13.03.19.02.45-.08.31.22.75.22.21.37.21.74.1,1.12-.04.15-.11.23-.28.25-.38.06-.67-.09-.96-.34m.67-1.49c.18-.11.33-.12.41-.03,0,.05,0,.11,0,.2-.15-.06-.28-.12-.42-.17m-1.62-1.02c.14.2.27.37.4.55-.22-.08-.44-.17-.69-.26.12-.11.2-.2.3-.29m-1.66,2.16c-.05.48-.1.96-.16,1.46.27.07.27-.25.46-1.48.14-.04.26.03.4.09-.06.25,0,.47.06.72.2-.04.16-.04.14-.64,1.2.35,1.09.36,1.18.29.07-.06.29.14.68.42.11.07.09.09-.09.81-.07.27.19.17.22.07.07-.24.11-.49.16-.72.58-.01.88.06,1.01-.4.36-1.27-.14-1-.06-2.3.01-.24-.03-.49-.09-.73-.03-.11-.13-.21-.21-.29-.63-.62-.01-.47-.58-2.09-.04-.11-.14-.26-.24-.19-.21.13.43.46.21,1.79-.34-.05-1.08.03-1.29.3-.21.27-.53.3-.8.47.11-.36-.03-.65-.16-.96-.14-.32-.13-.9-.26-1.11-.11,0-.14.06-.14.14.11,1.17.24,1.01.35,1.37.06.2.03.4-.06.57-.09.17-.27.09-.43.14-.08-.18-.17-.34-.16-.54,0-.07,0-.15-.09-.14-.16.03-.11.32-.08.48.04.21,0,.3-.21.42.15.23.19.52.42.72.1.09.17.24.2.37.04.24.19.41.29.62.08.16.11.05-.52,0-.27-.02-.24,0-.36.29.07.02.13.03.2.05"/><path id="Fill-6" class="cls-2" d="m11.52,28.28c.15.25.14.47-.02.7-.31.45-.37.64-.22.75.25.18.61-.36.78-.61.21.1.34.23.48.38.19.2.16.43.08.66-.08.21-.2.38-.46.42-.48.06-.56-.26-.8-.1.02.28.03.24.83.42-.06.38-.37,1.1-.73.97-.27-.1-.54-.2-.68-.48.08-.05.04-.18.12-.48.04-.15.19-.27.1-.45-.18-.04-.21.14-.34.22-.02-.13-.02-.25-.05-.37-.13-.5-.31-.46-.29-.67.42.31.43.36.58.11-.15-.2-.9-.65-.85-.91.02-.11.01-.25.17-.27,0-.14,0-.27.01-.4.04-.41.45-.61.83-.42.23.12.33.32.45.53m2.73-.11s-.08-.02-.12,0c-.18.07-.83.4-1.43.28-.54-.1-.85-.21-1.07-.56-.51-.81-1.79-.68-1.89.91-.06.92.61,1.14.57,1.77-.02.3.1.9.32,1.13.18.18.39.32.63.41.2.08.38.04.57-.03.1-.04.18-.15.31-.1.02,0,.08-.05.1-.09.49-.7.04-.36.94-1.19.69-.64,1.39-.72,1.52-.75-.04-.47.17-.46-1.44.29,0-.16.03-.32,0-.46-.07-.36.13-.9.68-1.18.17-.09.29-.2.3-.42"/><path id="Fill-8" class="cls-2" d="m33.38,13.44c.93-.66,1.64.72,1.45,1.09-.04.08-.11.19,0,.31.09-.06.19-.12.29-.19.29.47,1.01.33,1.15.75.12.36-.12.75-.47.81-.12-.3.09.04-.65-.91-.13-.17-.13-.17-.29-.02.16.36.32.71.47,1.03-.5.4-.68.6-.96.38-.03-.02-.62.06-.55-.58.04-.35-.05-.31.06-.49.34-.57.63-.54.59-.7-.07-.25-.48-.03-1,.17-.15-.19-.3-.37-.44-.55-.22-.28-.06-.82.36-1.11m-1.18,1.35c-.54.63-.89.79-1.17,1.16-.05.06-.03.17-.04.25.15.15.23.02.65-.38.07.08.12.16.18.23.16-.08.09-.2.07-.31.14-.12.28-.23.42-.35.07.04.15.09.23.14.15-.1.03-.21-.02-.33.1-.12.21-.25.33-.39.22.23.43.46.55.73.26.59.03,1.03-.45,1.26-.71.34-.53.14-1.31.64.03.38.11.37.29.24.59-.42.49-.32.82-.41.3-.08.6-.17.9-.24.58-.14.55.69,1.22,1.57.03.03.09.03.15.05.03-.16,0-.27-.06-.39-.16-.28-.33-.71-.41-.78-.12-.11-.16-.24-.19-.42.95.08.58-.37,1.35-.45.8-.09,1.25-1.27.58-1.65-.59-.34-1.02-.32-1.2-.96-.15-.54-.53-.87-1.05-1.04-.29-.1-.56,0-.8.17-.66.48-.48.98-1.06,1.66"/><path id="Fill-10" class="cls-2" d="m18.63,9.83c-.15.51-.46.47-1.31.58q-.06-.34-.51-.45c.23-.09.29-.39.47-.59.1-.11.18-.25.3-.3.21-.09.44-.12.68-.03.49.19.49.32.36.79m-1.4-.89q-.05.22-.22.33c.05-.13.09-.26.22-.33m-.22-.26c-.57,1.26-.27,1.04-.56.99-.72-.14-.83-.11-.8-.28.04-.17.07-.33.12-.5.13-.42.57-.64.93-.46.12.06.21.17.31.25m-.31,2.15c-.11.14-.23.3-.38.36-.36.14-.73.13-1.07-.07-.15-.09-.27-.41-.22-.59.21-.65.58-.92,1.2-.65.34.15.58.82.48.95m1.89-1.96c-.25-.1-.5-.2-.78-.1-.15.06-.29,0-.4-.11-.33-.29-.22-.38-1-.58-.13-.03-.24,0-.34.08-.31.25-.48.33-.52.59-.16.92-.54,1.04-.76,1.63-.25.64.3.98,1.39,1.64.18.11.63.7.72.9.09.22.24.42.38.65.05,0,.14.02.24.03.06-.09,0-.15-.03-.22-.71-1.4-1.4-1.66-1.47-1.79.46-.08.78-.39,1.09-.71.12-.12.03-.09.94-.13.61,1.51.56,1.41.68,1.57.31.42.25.32.54.44,0-.19.04-.13-.12-.44-.23-.44-.1-.51-.17-.68-.25-.71,0-1.47-.03-1.5-.17-.28.4-.96-.35-1.26"/><path id="Fill-12" class="cls-2" d="m24.38,11.73c.03-.13.07-.19.16-.19.05.07.08.03-.16.19m1.56-.07c.16.19.16.4.16.63,0,.21-.09.33-.27.41-.53.23-.57.32-1.07.17-.15-.05-.23-.2-.3-.33-.14-.26-.14-.27-.38-.12-.14.08-.11-.04-.14.46-.25.09-.51.17-.78.16-.39-.01-.26-.16-.28-.45-.16.09-.15.21.02-.66.32,0,.65,0,.94.18.18.11.26-.27-.05-.36-.3-.09-.6-.13-.92-.03-.1-.47.19-.94.43-.98.41-.07.77-.11,1.25.33-.25.29-.47.41-.3.74.2.4.24.1,1.01-.31.24-.13.5-.05.68.16m-.54-.53c-.2.03-.36.02-.45-.14-.08-.14-.71-.57-1.19-.6-.18-.01-.36.01-.54.05-.19.04-.33.17-.44.35-.41.7-.11.95-.3,1.72-.1.42.18.95.39,1.42.49,1.05-.26,1.31.22,1.37.05,0,.11.02.19.03.07-1,.15-.87-.18-1.67,1.81-1.05,1.55-.02,1.57,0,.16.24-.02.46-.06.68-.18,1.15-.3,1.13.09,1.23.17-.18.03-.31.1-.62.18-.85.26-1.44.97-1.81.19-.1.64-.36.73-.62.24-.71-.41-1.48-1.11-1.38"/><path id="Fill-14" class="cls-2" d="m29.27,16.37c-.07.06-.13.1-.23.18.05-.46.02-.47.23-.18m-1.26-1.11c.53-.08.43-.09.89.38-.02,0-.04.01-.06.02-.02.08-.05.16-.04.23.05.29-.01.55-.13.81-.02.04,0,.07.07.25.09-.01.24.01.29-.04.47-.58,1.47-.25,1.44.34-.01.27-.03.55-.33.67.06.22,0,.26-.24.32-.28.07-.56.03-.84-.04,0-.76.03-.85-.15-.87-.06.05-.13.15-.19.14-.21-.02-.19.05-.41.73-.3.06-.57.05-.75-.19-.2-.25-.23-.55-.06-.84.27-.05.54-.1.81-.16-.1-.25-.05-.22-.75-.11.02-.19.03-.38.06-.57.14-.85.18-1.03.4-1.06m.69,2.68c.06,0,.04-.04.08.16-.1.01-.08.04-.08-.16m-1.37-1.61c0,.27-.22.23-.42.76-.34.91-.12.6-.58,1.49.03.05.07.13.11.2.22.02.21-.08.62-1.13.05.12.09.19.11.26.06.38.64.63.96.59.33-.05.19-.07.53-.07-.76.66-.68.58-.69.61-.11.21-.14.24-.33.37,0,.03,0,.07.01.09.1.14.42.2.56.11.77-.5.48-.88,1.82-1.08.23-.03.51-.31.54-.54.02-.19.71-1.29-.65-1.71-.72-.23-.51-.59-1.01-1.13-.27-.29-.6-.27-.97-.23,0-.06-.26.11-.31.14-.37.48-.28.69-.29,1.26"/><path id="Fill-16" class="cls-2" d="m12.64,20.85c.08.26.15.52.23.79.09-.04.16-.07.25-.11-.28-.94-.29-1.17.98-1.49,0,.11-.04.58.04.62.2.09.14.25.13.41-.05.02-.12.03-.15.07-.38.45-.78.32-.78.54,0,.15.15.09.5.04-.03.09-.06.18-.09.26-.31-.06-.51.13-.72.27-.04.03-.04.14-.06.22.11.01.18.02.24.02.27-.26.3-.28.52-.27.16.48.17.49.07.83-.22.71-.63,1.14-1.23.7-.42-.32,0-.6.06-.84.03-.15-.05-.2-.19-.18-.46.08-.57.76-.85.39-.13-.17-.15-.94-.08-1.09.13-.26.32-.47.61-.55.12.21.17.45.38.6.06-.04.12-.08.17-.11-.13-.28-.25-.53-.38-.8.13-.12.24-.22.35-.33m-.29-.12c-.12.11-.43.52-.64.7-.75.63-.47,1.14-.49,1.39-.02.32.13.55.38.67.34.16.65.37.96.59.68.47,1.67-.66,2.33-.58.63.08.83.18.87-.17-.29-.11-.6,0-.9-.05-.31-.05-.58.11-.88.23.13-.46.25-.69.11-1.12-.03-.1-.07-.25-.02-.31.11-.13.16-.3.35-.37.51-.21.79.25,1.63.34.15.02.15.02.34-.12-.04-.04-.08-.08-.12-.1-1.18-.61-.91-.41-1.25-.89-.1-.14-.17-.31-.29-.43-.18-.18-.36-.33-.41-.6-.03-.12-.18-.15-.29-.13-.74.15-.78.13-1.66.94"/><path id="Fill-18" class="cls-2" d="m17.99,35.94c.14-.02.27-.04.43-.06-.21.3-.31.31-.43.06m.49.39c.48-.62.29-.46.27-.72-.03-.43-.23.14-1.02,0-.52-.08-.8-.07-.99-.52-.08-.19-.05-.31.11-.45.33-.27.7-.42,1.13-.31.16.28.32.57.49.86.08-.07.14-.12.17-.15.07-.31-.08-.42-.26-.88.49-.39,1.54-.28,1.52.53,0,.11-.02.22-.03.36-.29-.07-.49.13-.73.21-.15.05-.12.29.27.31.24.01.47,0,.73,0,.19.6.26.67.09.85-.21.21-.44.36-.77.26-.33-.1-.69-.09-.98-.35m.29.5c.92.23,1.08.24,1.45-.05.43-.34.49-.6.39-.96-.22-.78-.2-1.54.14-2.29.09-.2.07-.22-.2-.34-.21.39-.29.79-.33,1.22-.48-.73-.41-.66-1.26-.78-.03-.44.09-.37.16-1.06,0-.07-.05-.15-.07-.23-.14.02-.15.13-.2.2-.65,1.14-.27.75-2.15,1.79-.57.31-.29,1.07.19,1.27.25.11.44.33.7.42.17.06.05.18.51.43.18.1.46.3.67.35"/><path id="Fill-20" class="cls-2" d="m10.4,14.09c.57.47.12.86.38,1.26.13.2.23.39.15.61-.07.18-.05.44-.3.61-.15.1-.23.24-.25.42-.06.44-.45.64-.89.43,0-.07-.02-.18.03-.22.17-.13.18-.34.25-.51.04-.09.04-.2.06-.3-.11-.05-.19-.09-.27,0-.1.11-.31,0-.34.31-.06.77.03.69-.08.8-.61.56-1.21-.25-.86-.8.42-.65.46-.55.75-.7.18.11.38.03.57.08.13.03.2-.01.23-.11-.71-1.22-.52-.95-.55-1.31.09-.04.15-.06.22-.09.04-.35.31-.44.52-.55.16-.09.25-.07.39.05m-.95,1.82c-.13-.03-.2-.04-.29-.06.11-.43.07-.42.29.06m.73-2.21c-.84.1-.66.07-.97.38-.19.19-.16.26-.27,1.34-.02.19-.08.35-.29.43-.36.15-.51.61-.66.81-.4.56.12,1.41.81,1.28.18-.03.44-.23.59-.18-.07.58.41-.04,1.36.17.29.06.57.12.87.17.41-.4.23-.3-1.2-.51.24-.65.23-.66.27-.68.55-.34.29-.33,1.51-.02.05.01.11.05.13.03.12-.11.21-.01.31.04.07-.05.12-.1.19-.15-.15-.3-.34-.12-1.18-.84-.23-.2-.63-.88-.64-1.19-.02-.48-.36-1.17-.83-1.11"/><path id="Fill-22" class="cls-2" d="m23.41,31.43c-.04-.08-.07-.15-.11-.23-.51.3-.43.36-.38-.44.2.03.36.18.59.11-.09-.25-.3-.32-.54-.41,0-.16-.04-.34-.02-.52.03-.26.3-.29.38-.47.04-.09.25-.12.36-.07.08.03.16.07.22.09.02.32.05.63.07.98.09-.05.16-.06.19-.1.06-.1.1-.21.06-.34-.03-.11-.02-.23-.03-.37.25.15.46.27.67.39-.14.17-.37.38-.24.46.04.02.11.01.15,0,.06-.03.04-.14.28-.21.1-.03.2-.04.35-.06.09.05.54.26.63.37.3.39-.15,1.19-.72.9-.18-.09-.43-.33-.56-.36-.13-.02-.24.1,0,.32.1.09.21.18.31.27-.19.18-.38.35-.59.54,0-.33,0-.2-.05-.55-.1-.04-.18-.07-.26-.1-.04.13-.04.13,0,.27.08.36-.12.72-.36.76-.04,0-.07.08-.11.12-.21.23-.35-.05-.51-.27-.26.05-.4-.06-.37-.31.04-.5.27-.57.64-.77m-.77,1.34c.04.05.25.28.31.3,1.07.28,1.45-.34,2.07-.96.09-.09.57-.25.68-.28.48-.13.77-.59.66-1.07q-.06-.26.18-.38c.36-.19.36-.15.34-.42-.17-.08-.2.12-.31.16-.11.04-.21.12-.34.2-.05-.12-.1-.21-.15-.33.32-.16.69-.26.79-.68-.26.04-.01-.02-.55.32-.1.06-.19.13-.33.05-.13-.08-.18-.17-.18-.31.01-.24-.38-.46-.42-.1-.02.19-.04.39-.06.6-.56-.1-.98-.48-1.47-.71.55-.76.4-.53.49-.81-.15-.11-.17-.12-.25,0-.19.26-.34.68-.79.76-.15.03-.25.11-.25.29-.37.18-.44.34-.42.73.11,1.76-.44,2.04,0,2.63"/><path id="Fill-24" class="cls-2" d="m17.24,27.28c-.14-1.21-.93-1.37-.56-1.97.08-.13-.1-.15.23-.54.41.12.81.23,1.22.35-.04.54,0,.44.22.53-.07.24-.02.33.19.33.06-.16.09-.32.17-.47.06-.11.09-.2-.01-.36.43.16.73.37,1.03.62-.14.23-.25.41-.36.59-.1,0-.22-.02-.27.03-.19.16-.39.11-.75.11-.04.12-.02.21.09.25.28.1.35.06.66.04-.18.43-.38.97-.68,1.33-.24.29-.56.28-.77-.02-.06-.08-.1-.16-.14-.23.28-.4.2-.34.39-.62.06-.08.15-.15.21-.23.08-.11-.01-.23-.13-.22-.13.01-.19.07-.53.53-.17.23-.06.23-.18.2-.01-.08-.03-.16-.04-.25m1.39-2.08c-.3.4-.27.4-.25-.04.09.01.15.03.25.04m-1.63,2.2c.01.12.29.72.67,1.07.68.63,1.54-1.13,2.38-1.54.12-.06.28-.25.17-.34-.13-.11-.52.29-.87.47.01-.2.26-.29.79-1.34.05-.1.05-.05-.11-.75-.86.13-1.39-.24-1.56-.21-.45.08-.96-.06-1.39-.21-.36-.13-.68.32-.66.66.01.2-.15.62.11,1.01.25.36.42.75.47,1.19"/><path id="Fill-26" class="cls-2" d="m21.65,16.33c.06.69-.38.6-.73.98.18.15.12.19.65-.1.06,1.35.17.98-.82,2.11-.09.1-.2.08-.31.03.15-.31-.05-.18-.17-.48-.13-.32.07-.61.13-.82.05-.17-.12-.2-.18-.15-.32.26-.43.95.1,1.43-.48-.14-.27-.11-.77-.14.05-.52,0-.32.22-.77-.37.07-.28.58-.66.62-.35.03-.32-.34-.48-.34-.04,0-.08.05-.12.08-.12-.25-.1-.62.06-.76.23-.22.75-.44,1.08-.22,0,0,.03,0,.04-.01q.01-.24-.39-.35c.22-.33.56-.51.86-.76q-.04.42.07.51c.23-.26.32-.58.37-.93.29-.19.21-.22.55-.29.22-.04.48.15.5.36m-1.81.24c-.24.24-.95.77-1.56,1.37-.27.27-.12.88.22,1.04.13.06.39.3.63.35.33.07.35.19.93.75.17.16.27.22.33-.14-.1-.13-.21-.26-.34-.43.71.15.79.2,1.22-.38.13.01.25.03.39.04.03.06.05.13.09.17.1.08.29.13.25-.09-.24-1.4-.05-.94-.13-1.48-.06-.43-.06-.87-.02-1.3.05-.55-.27-.8-.64-.79-.52.01-.94.44-1.38.89"/><path id="Fill-28" class="cls-2" d="m24.87,25.05c-.61-.19-1.2.23-1.68.02-.04-.02-.08-.02-.12-.03-.28-.06-.47-.39-.36-.64.05-.1.32-.69.49-.87.08.03.16.05.27.09-.08.09-.13.15-.2.21-.38.37-.57.92-.04,1.07.56.16.94-.06,1.12-.41.1-.2.12-.52.35-.35.11.09.05.14-.15.57.58.1.42.08.59.09-.15-.29-.39-.65-.04-.71.02,0,.08.06.08.09.02.26.27.61.43.64.18.03.36.06.54.09.7.12.93-.86.45-1.03-.25-.09-.51-.19-.79-.14-.12.02-.23.03-.32-.07.07-.19.1-.22.27-.21.71.03.61.31-.04-.85-.39.5-.2.5-.37.68-.02.02-.19.04-.15-.13,0-.04.35-.47.25-1,.05-.03.1-.06.17-.1-.12-.32-.15-.43-.22-.48-.4-.26-.54-.34-.73-.21-.29.2-.54.44-.59.81-.03.2-.11.4-.13.6-.04.38-.3.57-.3.57-.11-.08-.15.08-.24.09.04-.38.3-.53.38-.99.14-.88.37-1.09.69-1.27.39-.23.61-.04,1.13.3.08.05.27.64.3.75.27,1.14,1.09,1.35,1.2,1.98.06.34-.18.77-.51.89-.23.09-.45.06-.69.04-.83-.09-.87-.06-1.03-.11"/><path id="Fill-30" class="cls-2" d="m27.75,28.25c-.09-.05-.07-.23.01-.3.12-.1.25-.18.41-.3.08.26.16.5.24.75-.26.08-.46-.04-.66-.14m.81-.31c0-.29-.25-.5-.1-.77.18.04.39.05.36.28-.02.17-.08.32-.26.48m-.66-1.02c0,.17.21.29.06.48-.12.15-.24.31-.47.3-.2-.43-.04-.76.41-.78m.78,1.44c.02-.07.06-.15.11-.21.36-.46.48-1.12-.09-1.26-.53-.13-.48.05-.55-.03-.09-.11-.15-.27-.34-.25-.2.02-.39.08-.52.25-.47.62.08.8.08,1.26,0,.29.02.45.82.58.26.05.43-.08.49-.34"/><path id="Fill-32" class="cls-2" d="m13.96,33.37c.14.11.04.4,0,.66-.05.27-.26.11-.31.03-.18-.32.14-.81.31-.68m.2,1.08c.11.16.16.11.19.59,0,.02-.06.07-.08.07-.2-.04-.17-.45-.11-.66m.32-.02c-.16-.25-.14-.45.07-.74.23.46.29.55-.07.74m-.74.14c.11.62.08.82.45.88.29.05.58-.38.39-.64.35-.35.55-.46.41-.88-.07-.21-.18-.38-.37-.51-.16-.11-.15-.12-.37-.05-.34-1.01-1.69.47-.51,1.2"/><path id="Fill-34" class="cls-2" d="m35.66,12.1c-.05.11-.12.21-.18.32-.22-.21-.22-.37-.01-.48.2-.1.21.11.19.16m.25.27c.08.05.12.08.17.1.26.12.21.39.07.56-.18.21-.54-.09-.4-.36.05-.09.11-.18.17-.29m.03-.48c-.17-.33-.44-.38-.73-.14-.54.43-.03.76.14.9.02.55.4.85.92.69.87,1.42.86,1.51,1.03,1.46.33-.1-.25-.65-.85-1.71.1-.29.1-.7-.17-.82-.17-.07-.27-.21-.35-.37"/><path id="Fill-36" class="cls-2" d="m27.54,9.02c.14.13.05.44-.13.43-.43-.02-.38-.9.13-.43m.32.71c.08-.23.13-.25.39-.17-.07.39-.12.56-.44.35-.11-.08.02-.09.05-.18m-.53.02c-.05.08-.08.14-.14.24-.06-.11-.1-.17-.16-.28.14.02.21.03.3.04m-.24-1.12c-.19.03-.32.28-.26.49.03.09.07.18.1.27-.3.14-.34.27-.16.55.11.19.3.3.48.41.21.12.29-.16.32-.24.2.1.65.41.83-.1.24-.67.24-.87-.47-.79-.1-.18-.23-.7-.84-.59"/><path id="Fill-38" class="cls-2" d="m7.55,22.15c-.09,0-.17.02-.24.02-.18-.27-.04-.57.1-.58.21-.01.15.31.14.55m.3.29c.14-.03.26-.05.4-.08.04.29-.18.61-.37.39-.09-.1-.05-.2-.03-.31m-.4.05c-.03.2-.12.36-.27.52-.13-.13-.13-.26-.09-.37.06-.13.2-.14.36-.15m-.33-1.05c-.21.28-.19.51-.09.79-.08.13-.29.14-.29.34.02.71.4.88.66.64.25-.23.16-.28.35-.18.42.23.56.07.7-.28.05-.13.05-.28.06-.43.02-.33-.31-.24-.51-.21-.23.03-.22-.09-.22-.29,0-.39-.45-.65-.66-.38"/><path id="Fill-40" class="cls-2" d="m36.86,29c-.07.18-.11.22-.2.18,0-.05-.01-.12-.03-.22.1.02.16.03.23.04m-.63-.32c-.32.02-.39-.42-.24-.56.09-.09.24-.08.27.06.03.16.09.34-.03.5m.55-.48c.08-.14.15-.15.24-.07.41.37-.05.55-.19.48-.15-.07-.09-.24-.05-.41m.37.71c.22-.22.7-.54-.02-1.09-.29-.22-.45-.02-.62.16-.12-.23-.31-.21-.5-.18-.46.07-.45.64-.2.91.14.15.21.16.41.07.24.36-.02.7.41.71.4.01.59-.21.53-.59"/><path id="Fill-42" class="cls-2" d="m15.37,16.02c-.12-.29-.12-.34.08-.61.14.03.21.13.22.26,0,.19-.16.26-.3.35m.36.15c.33.09.37.29.13.59-.24-.09-.29-.31-.13-.59m-.63.02c.23.13.21.33.22.52,0,.11-.08.14-.17.14-.23,0-.35-.13-.35-.39.19-.17.11-.1.3-.26m.79-.51c.07-.48-.64-.81-.83-.28-.06.18-.07.37-.11.59-.18.12-.35.3-.43.56-.09.32.1.39.4.51.22.09.43.09.58-.14.05.02.06.02.08.03.48.28.67-.11.69-.66.01-.44-.45-.17-.38-.61"/><path id="Fill-44" class="cls-2" d="m34.55,36.08c.81-.39,1.17-1.42,1.29-.94.03.13,0,.24-.12.32-.16.32-.48.49-.73.73-.11.11-.43.13-.73.51-.34.42-1.4,1.14-2,1.48-.1.06-.2.05-.26-.04-.13-.21.21-.1.84-.68.19-.17.55-.17,1.1-.87.17-.22.36-.39.61-.51"/><path id="Fill-46" class="cls-2" d="m31.36,34.56c.34-.44.75-1.05.87-1.15,1.31-1.16,1.47-1.29,1.63-1.05-.03.05-.05.1-.09.12-.09.07-.2.11-.28.19-.34.29-.68.58-.99.9-.4.41-.75,1.06-.94,1.26-.15.16-.35.28-.53.41-.03.02-.1,0-.13-.03-.15-.15.32-.45.46-.64"/><path id="Fill-48" class="cls-2" d="m37.89,15.14c-.16-.69-.46-.72-.67-1.14-.07-.14-.54-1.14-.58-1.27-.05-.18.07-.32.18-.21.07.07.07.13.45.96.32.71.28.46.66.98.33.45.12.69.39,1.14.09.15.1.33.05.52-.19.04-.25,0-.48-.98"/><path id="Fill-50" class="cls-2" d="m28.28,7.96c-.91-.22-1-.45-1.57-.41-.12,0-.24,0-.36-.03-.14-.02-.15-.06-.07-.21.5-.04.92-.07,1.44.19.58.28.59.11,1.94.57-.21.35.08.23-1.38-.11"/><path id="Fill-52" class="cls-2" d="m19.83,6.71c-.22-.03-.53.26-1.35.16-.72-.09-.72.35-1.54.53,0-.08.03-.13.06-.15.73-.55.88-.71,1.32-.66,1.23.13,1.26-.41,1.83-.06-.13.21-.13.21-.31.18"/><path id="Fill-54" class="cls-2" d="m33.09,35c.28-.19.58-.39.77-.65.59-.79.88-.47,1.18-1.1.07-.14.17-.26.26-.38.05-.06.12-.1.19-.04.11.11-.07.18-.32.58-.31.5-.68.54-1.03,1.07-.25.39-.6.51-.69.7-.03.06-.35.12-.37-.19"/><path id="Fill-56" class="cls-2" d="m32.09,34.77s.11-.05.17-.08c.02.12.04.22.05.33-.04.04-.74.78-.75.8-1.45,1.21-1.22.91-1.4,1.08-.12.11-.24.12-.38.11-.04-.12,0-.18.1-.23,1.04-.53,1.81-1.57,2.21-2"/><path id="Fill-58" class="cls-2" d="m30.88,7.79c.08.08.27.23.2.32-.03.04-.09.06-.15.07-.04,0-.09-.03-.13-.06-.48-.35-.85-.24-1.35-.42-.11-.04-1.12-.44-1.19-.53-.03-.04-.05-.11-.04-.15.1-.25.82.38,1.54.44.38.03.74.14,1.12.33"/><path id="Fill-60" class="cls-2" d="m33.21,36.08c-.06.1-.13.17-.27.13-.15-.05-.35.04-.44-.24-.07-.23.14-.45.41-.3.19.11.41.22.3.41m-.07-.62c-.55-.31-1.04.08-.92.49.09.31.37.62.47.61.54-.06.8-.11.84-.67.01-.21-.15-.33-.39-.43"/><path id="Fill-62" class="cls-2" d="m21.63,27.32c.08-.24.12-.54.36-.49.28.05.24.12.31.52-.3.13-.34.13-.67-.02m-.11.22c.28.27.58.18.88.11.27-.06.17-.66,0-.93-.21-.32-.7-.27-.91.04-.15.43-.23.52.03.77"/><path id="Fill-64" class="cls-2" d="m21.15,9.42c-.01.22-.07.42-.29.53-.09-.15-.19-.29-.29-.46.1-.34.29-.37.58-.07m-.9.46c.16-.01.23.03.29.16.24.58.85-.04.82-.68-.01-.25-.39-.44-.63-.42-.43.04-.45.48-.48.93"/><path id="Fill-66" class="cls-2" d="m19.23,7.69c-.11.04-.25.07-.3-.04-.05-.13.07-.18.2-.23.95-.36,1.45.03,2.8-.24.02.04.05.09.09.16-.13.08-.24.19-.34.19-1.3.1-1.78-.1-2.45.16"/><path id="Fill-68" class="cls-2" d="m30.55,12.08c.28.05.35.18.77.69-.13.2-.26.21-.38,0-.36-.69-.66-.18-1.61-1.21-.38-.42-.66-.21-.76-.21-.17,0-.15-.11-.07-.26.07,0,.13.02.18,0,.65-.21.94.85,1.86,1.01"/><path id="Fill-70" class="cls-2" d="m33.47,20.77s-.05.14-.14.1c-.17-.07-.24-1.51-.3-1.7-.08-.26-.18-.5-.28-.77.28-.28.46.46.58.83.02.06.04.58.09.96.03.28.19.44.05.59"/><path id="Fill-72" class="cls-2" d="m18.87,21.66c.24.11.42.19.63.29-.13.25-.15.43-.47.34-.23-.07-.17-.3-.16-.63m-.08.84c.63.07.64.03.78-.15.35-.43-.06-.75-.61-.91-.18-.05-.36.06-.36.23,0,.23.03.46.07.69,0,.05.08.13.13.14"/><path id="Fill-74" class="cls-2" d="m35.41,13.88c-.34-.31-.52-.73-.85-1.05-.02-.02-.04-.04-.04-.06.03-.21.05-.16.21-.17.02.03.66.89.68.91.72.83,1.02.99.82,1.16-.19.15-.33-.36-.82-.79"/><path id="Fill-76" class="cls-2" d="m26,39.91c-.01.18-.13.36-.3.48-.2.15-.57-.04-.9,0-.48.07-1.21.49-1.24.06.48-.1.61-.12.74-.18.31-.14.63-.16.95-.1.43.07.47-.42.74-.27"/><path id="Fill-78" class="cls-2" d="m35.19,27.59c.03-.14.13-.19.33-.2-.16.39-.24.79-.45,1.15-.29.5-.21.72-.62,1.18-.05.05-.14.07-.21.1-.09-.1-.09.03.23-.67.5-1.08.62-1.15.71-1.56"/><path id="Fill-80" class="cls-2" d="m40.06,21.5c.16-.11.24-.1.29.07.14.41.19.56.11,1.45,0,.08-.13.33-.23.29-.31-.13.23-.42-.17-1.8"/><path id="Fill-82" class="cls-2" d="m12.5,36.23c-.2.03-.28-.46-.76-.55-.46-.09-.7-.38-.68-.88.06.05.14.09.18.16.43.72,1.23.51,1.26,1.28"/><path id="Fill-84" class="cls-2" d="m6.49,20.88c.11,1.03-.06,1.24-.18,1.5-.01.02-.11.05-.15.04-.19-.06.05-.44.02-1.76.22.03.3.11.31.23"/><path id="Fill-86" class="cls-2" d="m8.15,30.88c-.17-.17-.53-.82-.62-1.23,0-.03.03-.07.06-.15.4.42.55.92.82,1.37-.11.08-.19.1-.26.02"/><path id="Fill-88" class="cls-2" d="m20.69,6.67s-.06-.05-.11-.09c.54-.08,1.03-.09,1.55,0-.04.05-.07.1-.11.15-.06,0-.11,0-.15,0-.66-.09-.72.04-1.18-.06"/><path id="Fill-90" class="cls-2" d="m19.59,8.07s.07-.04.11-.05c1.48-.2,1.59-.26,1.66-.04-.15.19-.15.18-.34.2-1.03.08-1.49.24-1.42-.1"/><path id="Fill-92" class="cls-2" d="m25.3,32.48s.05.06.04.07c-.24.41.21.06-1.15,1-.02.01-.04.04-.06.04-.04,0-.08-.01-.1-.04-.08-.13.13-.23,1.27-1.07"/><path id="Fill-94" class="cls-2" d="m27.02,21.5c0-.79-.62-.79-.42-1.17.22.21.64.53.55.81-.01.04.2.5-.04.51-.09,0-.09-.08-.09-.15"/><path id="Fill-96" class="cls-2" d="m10.59,12.1c-.2.06-.28.25-.42.37-.28.22-.23.42-.31.57-.06-.02-.12-.05-.22-.08.12-.4.34-.7.63-.95.07-.06.18-.06.28-.07.03,0,.07.04.08.07,0,.03-.01.09-.04.1"/><path id="Fill-98" class="cls-2" d="m37.57,29.27c.06.13.09-.04-.12.87-.09.4-.12.47-.25.45-.11-.02-.17-.07-.14-.18.05-.19.11-.85.5-1.14"/><path id="Fill-100" class="cls-2" d="m34.52,27.89c-.2.53-.1.3-.39.87,0,0-.03,0-.06.03-.18.13-.27-.04-.18-.2.43-.78.45-.81.63-.69"/><path id="Fill-102" class="cls-2" d="m31.26,13.59c.36.34.84.69.49.88-.83-.8-.71-.79-.49-.88"/><path id="Fill-104" class="cls-2" d="m30.1,14.38s.07-.09.1-.13c.44.13.66.44.78.85-.25.14-.18-.18-.86-.66-.01,0-.01-.03-.02-.06"/><path id="Fill-106" class="cls-2" d="m7.44,17.35c-.03.08-.11.13-.18.09-.04-.02-.05-.11-.06-.17,0-.02,0,.05.25-.92.02-.09.07-.13.18-.11,0,.08-.04.15-.02.21.08.33-.08.6-.17.89"/><path id="Fill-108" class="cls-2" d="m23.02,38c-.08.29-.1.23-1.21.44-.04-.26.13-.26.96-.41.07-.01.14-.02.26-.03"/><path id="Fill-110" class="cls-2" d="m16.82,38.92c-.22.06-.23.14-.79-.01-.14-.04-.46-.15-.42-.29.05-.21.46.17,1.09.14.08,0,.13.04.12.17"/><path id="Fill-112" class="cls-2" d="m33,33.99c-.19.22-.28.34-.39.36-.19.05-.24-.13-.13-.23.16-.14.31-.28.46-.42.18.13.18.15.06.29"/><path id="Fill-114" class="cls-2" d="m31.91,37.66c-.13.03-.2.01-.26-.1.15-.2.45-.2.63-.36.05-.04.14-.05.21-.08.01.02.03.04.04.05-.16.21-.3.42-.62.49"/><path id="Fill-116" class="cls-2" d="m35.03,20.3c-.09-.87-.07-.67,0-.86.02,0,.04,0,.06.01.12.31.13.63.08.98-.11-.04-.11-.03-.12-.13"/><path id="Fill-118" class="cls-2" d="m18.7,16.26c.02.2-.05-.01-.79.07-.2.02-.26,0-.31-.12.38-.05.76-.18,1.1.05"/><path id="Fill-120" class="cls-2" d="m11.52,12.42c-.41.49-.43.59-.56.44.03-.06.08-.12.08-.17-.02-.27.18-.37.36-.48.06-.04.13-.08.2-.01.07.09,0,.15-.07.23"/><path id="Fill-122" class="cls-2" d="m24.79,22.98c-.29.24-.51.02-.75-.06-.1-.03-.17-.11-.13-.25.19-.03-.03-.11.87.31"/><path id="Fill-124" class="cls-2" d="m29.6,15.47c-.16-.1-.03.08-.5-.66.37,0,.69.45.5.66"/><path id="Fill-126" class="cls-2" d="m14.85,9.31c-.34.15-.48.09-.52.25,0,.03-.09.04-.14.06-.01-.05-.02-.11-.02-.12.16-.3.4-.36.64-.43.03,0,.1.07.13.12.01.02-.04.11-.08.12"/><path id="Fill-128" class="cls-2" d="m33.12,17.46c-.12-.17.15-.33.25-.15.34.59.26.51.27.7-.21-.04-.08.08-.52-.54"/><path id="Fill-130" class="cls-2" d="m12.15,13.81c.12-.15.15-.16.36,0-.26.22-.5.43-.76.65-.05-.18.06-.21.41-.66"/><path id="Fill-132" class="cls-2" d="m23.9,37.32c.05-.15.1-.18.62-.31.04-.01.11,0,.13.03.14.17-.4.47-.66.39-.04-.01-.09-.09-.09-.11"/><path id="Fill-134" class="cls-2" d="m28.83,12.84s-.04-.05-.06-.08c.15-.24.07-.22.77.04-.06.37-.28.23-.71.03"/><path id="Fill-136" class="cls-2" d="m25.77,35.92c.09.3-.24.27-.5.39-.12.06-.19.03-.26-.09.27-.26.54-.37.76-.3"/><path id="Fill-138" class="cls-2" d="m30.19,25.19c-.12-.15-.21-.55-.2-.86,0-.07.05-.14.09-.24.13.22.08.4.1.57.01.17.07.34.02.53"/><path id="Fill-140" class="cls-2" d="m30.91,20.73s-.02.07-.04.14c-.07-.04-.13-.05-.14-.07-.03-.21-.08-.41-.18-.61-.05-.11.18-.12.25-.02.11.17.29.34.11.56"/><path id="Fill-142" class="cls-2" d="m35.87,25.19c.05-.07.09-.14.21-.1.22.08.07.25-.16.65-.22-.21-.22-.3-.05-.55"/><path id="Fill-144" class="cls-2" d="m24.43,23.36c.14.07.17.21.11.39-.23-.02.02-.27-.67-.38-.1-.02-.2-.08-.3-.12.31-.11.59-.03.86.12"/><path id="Fill-146" class="cls-2" d="m29.36,4.63c-.03-.06-.06-.12,0-.17.06-.06.12-.05.18,0,.4.29.38.15.29.38-.2.05-.35-.01-.46-.21"/><path id="Fill-148" class="cls-2" d="m31.87,33.08c.18-.17.2-.49.48-.6.03.07.05.12.08.17-.41.47-.45.57-.55.43"/><path id="Fill-150" class="cls-2" d="m28.68,22.76c-.5-.61-.41-.44-.44-.5-.18-.37.83-.06.44.5"/><path id="Fill-152" class="cls-2" d="m21.14,35.87c.94-.51.74-.43.88-.38.03.3-.69.48-.78.51-.07.03-.11-.05-.11-.13"/><path id="Fill-154" class="cls-2" d="m8.82,20.55c-.01.07-.09.13-.17.22,0-.16-.03-.26-.02-.37.04-.3.15-.49.44-.36-.17.15-.21.32-.25.51"/><path id="Fill-156" class="cls-2" d="m21.13,14.23c.32-.74,1.06.08.66.13-.16-.22-.38-.24-.66-.13"/><path id="Fill-158" class="cls-2" d="m27.33,31.77c.22-.65.19-.62.37-.62.03,0,.07.04.07.06-.08.38.02.29-.39.6-.02-.01-.06-.03-.06-.04"/><path id="Fill-160" class="cls-2" d="m32.43,19.67c0-.07.04-.14.14-.11.03.21.05.42.07.62-.18.09-.24.08-.21-.51"/><path id="Fill-162" class="cls-2" d="m29.22,31.35c.13-.27.27-.55.55-.36-.09.22-.25.37-.5.49-.02-.05-.07-.1-.05-.13"/><path id="Fill-164" class="cls-2" d="m28.5,34.02c.11.19-.02.28-.09.35-.11.12-.19.29-.42.31.06-.22.16-.42.51-.66"/><path id="Fill-166" class="cls-2" d="m9.69,22.87s-.06-.05-.06-.07c0-.32-.04-.61.2-.59.07.26-.05.44-.13.66"/><path id="Fill-168" class="cls-2" d="m20.48,12.67c.03-.11.35-.07.45-.07.4.02.34,0,.23.09-.15.13-.35.12-.54.11-.1,0-.17-.06-.14-.14"/><path id="Fill-170" class="cls-2" d="m14.27,36.45c.02-.1.1-.12.17-.09.21.12.44.21.61.43-.37-.03-.55-.11-.77-.34"/><path id="Fill-172" class="cls-2" d="m25.88,16.13c-.2-.02-.28-.09-.54-.45.24-.13.13-.2.48.16.08.08.08.18.06.29"/><path id="Fill-174" class="cls-2" d="m8.96,29.18s-.04.08-.07.09c-.03,0-.08-.02-.09-.05-.04-.19-.1-.38-.02-.62.17.16.17.37.18.57"/><path id="Fill-176" class="cls-2" d="m16.2,30.97c-.26-.25-.39-.52-.08-.47.04,0,.07.04.37.39-.1.18-.17.2-.29.08"/><path id="Fill-178" class="cls-2" d="m15.71,13.99c-.11.06-.19.18-.29.25-.03.02-.08,0-.13,0,0-.02-.02-.03-.02-.05.46-.46.57-.68.77-.3-.12.03-.24.04-.33.1"/><path id="Fill-180" class="cls-2" d="m28.07,20.88c-.25-.05-.36-.24-.51-.39-.02-.02,0-.08.01-.12.01-.02.08-.05.09-.04.33.2.52.32.4.55"/><path id="Fill-182" class="cls-2" d="m29.76,21.46c.15.14.31.29.33.53-.12-.04-.54-.37-.55-.43-.02-.16.19-.13.22-.1"/><path id="Fill-184" class="cls-2" d="m19.14,38.05c-.09.03-.16.07-.2.06-.16-.05-.36-.04-.47-.21.25-.01.45,0,.66.16"/><path id="Fill-186" class="cls-2" d="m25.22,18.45c-.21-.08-.45-.1-.54-.42.21-.07.32.06.43.16.07.06.15.13.11.27"/><path id="Fill-188" class="cls-2" d="m17.81,39.09c-.1-.03-.22-.05-.22-.21.19,0,.36,0,.55.06-.1.13-.2.18-.34.14"/><path id="Fill-190" class="cls-2" d="m27.53,11.38c-.21-.03-.41-.07-.64-.1.12-.18.27-.13.6,0,.08.03.07.07.03.11"/><path id="Fill-192" class="cls-2" d="m29.13,29.16c.07.1.13.04.02.49,0,.03-.07.07-.09.06-.13-.05-.06-.15.07-.55"/><path id="Fill-194" class="cls-2" d="m31.32,18.7c.12-.04.13-.05.16,0,.07.16.09.32.04.51-.17-.11-.14-.34-.19-.52"/><path id="Fill-196" class="cls-2" d="m19.33,31.04c-.11-.02-.26-.01-.3-.2.21-.02.05-.03.55.04-.06.07-.12.19-.26.16"/><path id="Fill-198" class="cls-2" d="m17.25,36.81s0,.04.01.05c-.44.17-.48.22-.55-.06.18-.07.36.04.54,0"/><path id="Fill-200" class="cls-2" d="m21.48,23.58c.11.13.23.26.2.5-.24-.12-.34-.29-.44-.48.08-.07.16-.11.24-.02"/><path id="Fill-202" class="cls-2" d="m23.62,17.01c-.16-.04-.32-.08-.5-.12.1-.11.27-.13.44-.06.13.05.15.11.06.18"/><path id="Fill-204" class="cls-2" d="m26.56,13.88c-.01-.1.43-.11.55.14-.2.03-.54,0-.55-.14"/><path id="Fill-206" class="cls-2" d="m24.9,34.6c-.08.1-.35.31-.41.3-.05,0-.1-.06-.14-.1.18-.2.36-.53.55-.21"/><path id="Fill-208" class="cls-2" d="m13.34,15.35c.44-.38.33-.3.5-.33-.17.21-.27.43-.47.55-.08-.07-.13-.14-.03-.23"/><path id="Fill-210" class="cls-2" d="m12.06,25.96c-.1-.01-.2-.02-.29-.03q-.17-.31-.13-.52c.21.14.26.38.42.55"/><path id="Fill-212" class="cls-2" d="m13.72,25.32c-.04.17-.08.33-.12.53-.22-.36-.03-.63.12-.53"/><path id="Fill-214" class="cls-2" d="m23.24,36.75c-.33.17-.41.18-.55.09.24-.18.37-.2.55-.09"/><path id="Fill-216" class="cls-2" d="m18.7,8.18c-.48.25-.51-.01-.55-.1.45-.03.49-.02.55.1"/><path id="Fill-218" class="cls-2" d="m9.07,30.93c.34.09.56.36.55.66-.16-.25-.42-.4-.55-.66"/><path id="Fill-220" class="cls-2" d="m22.25,21.43s0-.07,0-.11c.3,0,.43.07.44.22-.13,0-.41-.07-.43-.11"/><path id="Fill-222" class="cls-2" d="m25.59,27.62s-.05.04.06-.55c.12,0,.14.01.13.06-.04.43-.07.36-.19.49"/><path id="Fill-224" class="cls-2" d="m29.2,33.04c.07-.15.13-.15.35-.07-.22.33-.23.44-.38.36-.14-.07-.01-.2.03-.29"/><path id="Fill-226" class="cls-2" d="m19.59,14.92c-.3.14-.17.14-.55-.01.22-.15.43-.14.55.01"/><path id="Fill-228" class="cls-2" d="m10.77,19.88c-.07-.3-.06-.35.18-.55-.01.21-.11.36-.18.55"/><path id="Fill-230" class="cls-2" d="m16.16,32.59c.25-.03.49.05.55.21-.22-.03-.43-.05-.55-.21"/><path id="Fill-232" class="cls-2" d="m28.21,25.19c-.14-.16-.2-.3-.22-.45,0-.02.06-.05.11-.1.09.18.12.34.1.55"/><path id="Fill-234" class="cls-2" d="m29.21,25.3c-.04.62-.01.48-.1.55-.16-.41-.15-.44.1-.55"/><path id="Fill-236" class="cls-2" d="m27.55,30.38c-.14.15-.14.46-.44.44.04-.26.2-.43.44-.44"/><path id="Fill-238" class="cls-2" d="m15.61,37.57c.12-.05.13.04.21.16-.01.01-.02.03-.03.04-.07,0-.15,0-.18-.1,0-.03,0-.1,0-.1"/><path id="Fill-240" class="cls-2" d="m36.29,31.06c-.02.07-.04.13-.06.2-.3-.09-.11-.28.06-.2"/><path id="Fill-242" class="cls-2" d="m20.69,29.21c-.16.14-.34.14-.55.09.11-.12.2-.07.29-.06.09,0,.17-.01.26-.02"/><path id="Fill-244" class="cls-2" d="m15.38,18.81c-.04.06-.08.12-.13.19-.21-.12,0-.29.13-.19"/><path id="Fill-246" class="cls-2" d="m29.77,19.33c.09.02.17,0,.18.04.04.11.06.25,0,.4-.06-.14-.11-.26-.18-.44"/><path id="Fill-248" class="cls-2" d="m6.75,26.16c-.05.11-.1.21-.17.35-.11-.04-.21-.06-.29-.11-.58-.4-.66-.47-.65-.72,0-.12.11-.17.24-.17.11.13.23.27.33.41.12.17.34.15.53.23"/><path id="Fill-250" class="cls-2" d="m4.61,11.56c.04-.17.02-.15.08-.14-.01.17,0,.14-.08.14"/><path id="Fill-252" class="cls-2" d="m10.44,15.47c.04.29-.11.45-.32.55-.14-.04-.25-.07-.38-.11,0-.25.21-.39.36-.54.1-.1.24-.2.41-.07-.03.06-.08.11-.07.16"/><path id="Fill-254" class="cls-2" d="m17.15,26c.69.14.7-.44,1-.21-.12.32-.47.53-.82.5-.17-.01-.22-.06-.29-.26.05-.01.08-.03.11-.03"/><path id="Fill-256" class="cls-2" d="m21.36,18.01c-.17-.05-.32-.07-.48-.03-.18.05-.3-.18-.04-.19.41,0,.47-.03.51.22"/></g></g></g></g></svg>