<?xml version="1.0" encoding="utf-8"?>
<!-- Generator: Adobe Illustrator 27.9.0, SVG Export Plug-In . SVG Version: 6.00 Build 0)  -->
<svg version="1.1" id="Livello_1" xmlns="http://www.w3.org/2000/svg" xmlns:xlink="http://www.w3.org/1999/xlink" x="0px" y="0px"
	 viewBox="0 0 1792 1713" style="enable-background:new 0 0 1792 1713;" xml:space="preserve">
<style type="text/css">
	.st0{fill:#197881;}
</style>
<g transform="translate(0.000000,1713.000000) scale(0.100000,-0.100000)">
	<path class="st0" d="M1924,17120c-322-31-580-103-849-235C422,16565,34,15959,3,15215c-24-602,210-1172,637-1552
		c297-265,688-438,1135-505c141-21,619-18,765,5c427,67,799,223,1084,456c441,362,696,909,696,1496c0,531-198,1038-544,1394
		c-319,328-718,521-1231,597C2424,17124,2050,17132,1924,17120z"/>
	<path class="st0" d="M13132,11819c-862-62-1601-346-2196-845c-139-117-386-365-501-504c-98-119-229-293-320-429l-70-103l-3,811
		l-2,811H8114H6188l6-22c3-13,11-633,17-1378c8-1006,7-2451-3-5610c-7-2340-13-4320-13-4400V5h1920h1920l5,3430
		c5,3266,6,3436,23,3555c27,179,67,327,126,465c115,265,278,516,469,716c440,465,1032,680,1702,618c975-89,1555-775,1690-1999
		c28-255,30-504,30-3592V0h1920h1920v3453c0,3457-2,3630-36,3997c-245,2641-1686,4205-4026,4370
		C13691,11831,13300,11831,13132,11819z M10038,9898c-2-6-10-14-16-16c-7-2-10,2-6,12C10023,9912,10044,9916,10038,9898z"/>
	<path class="st0" d="M230,5780V0h1920h1920v5780v5780H2150H230V5780z"/>
</g>
</svg>
