<?xml version="1.0" encoding="UTF-8"?>
<svg width="35px" height="35px" viewBox="0 0 35 35" version="1.1" xmlns="http://www.w3.org/2000/svg" xmlns:xlink="http://www.w3.org/1999/xlink">
    <title>Group 7 Copy 9</title>
    <defs>
        <polygon id="path-1" points="0 0 12.9977896 0 12.9977896 9.25780968 0 9.25780968"></polygon>
    </defs>
    <g id="Page-1" stroke="none" stroke-width="1" fill="none" fill-rule="evenodd">
        <g id="D_02_DIALOGS-v2a" transform="translate(-540.000000, -1662.000000)">
            <g id="Group-7-Copy-9" transform="translate(540.000000, 1662.000000)">
                <circle id="Oval-Copy" fill="#FFFFFF" cx="17.5" cy="17.5" r="17.5"></circle>
                <g id="Group-6-Copy" transform="translate(10.888889, 8.555556)">
                    <g id="Group-3">
                        <mask id="mask-2" fill="white">
                            <use xlink:href="#path-1"></use>
                        </mask>
                        <g id="Clip-2"></g>
                        <path d="M7.61155958,2.3666832 L1.42563948,2.3666832 L3.13943758,0.64962944 C3.21656355,0.544630188 3.2389353,0.40909393 3.19955405,0.284908942 C3.16024244,0.160654314 3.06394815,0.0627234917 2.94044215,0.0212356428 C2.81693615,-0.0202522061 2.68099946,-0.000248203418 2.57469447,0.0751019477 L0.119895183,2.51684379 C0.0431174178,2.59341264 -6.9639696e-06,2.69733247 -6.9639696e-06,2.80574407 C-6.9639696e-06,2.91415567 0.0431174178,3.01805809 0.119895183,3.09464435 L2.57469447,5.53638619 C2.67793532,5.63960963 2.82835706,5.67987878 2.96934263,5.64213407 C3.11032819,5.60431971 3.22042855,5.49421936 3.2582429,5.35323379 C3.29598762,5.21224823 3.25573588,5.06182648 3.15249503,4.95858563 L1.37668278,3.18277338 L7.61152476,3.18277338 C8.82362108,3.18277338 9.9860643,3.66426224 10.8431549,4.52130057 C11.7001932,5.37839113 12.181682,6.54085176 12.181682,7.75293067 L12.181682,8.84975588 C12.181682,8.99556399 12.259487,9.13021235 12.3857089,9.20312511 C12.5119309,9.27603787 12.6675408,9.27603787 12.7937627,9.20312511 C12.9199847,9.13022976 12.9977896,8.99556399 12.9977896,8.84975588 L12.9977896,7.73660016 C12.9966232,6.79245998 12.7469126,5.86538153 12.2737109,5.04833379 C11.8004395,4.2313557 11.1204427,3.55339585 10.302037,3.08257927 C9.4836313,2.61190198 8.55582163,2.36495961 7.61150735,2.36666579 L7.61155958,2.3666832 Z" id="Fill-1" fill="#134686" mask="url(#mask-2)"></path>
                    </g>
                    <path d="M10.4091603,12.1630733 C10.3059194,12.0598325 10.1554977,12.0195807 10.0145121,12.0573255 C9.87352655,12.0951398 9.76342619,12.2052402 9.72561184,12.3462257 C9.68786712,12.4871939 9.72813628,12.637633 9.83135972,12.7408739 L11.607172,14.5166861 L5.37232998,14.5166861 C4.16308889,14.5123337 3.00492851,14.0289297 2.15131994,13.1723789 C1.29783323,12.3157584 0.818572843,11.1557874 0.818572843,9.94649404 L0.818572843,8.84966883 C0.818572843,8.70386072 0.740767893,8.56921236 0.614545944,8.4962996 C0.488323995,8.42338684 0.332714094,8.42338684 0.206492145,8.4962996 C0.0802701956,8.56919495 0.00246524524,8.70386072 0.00246524524,8.84966883 L0.00246524524,9.95627842 C0.00246524524,11.381037 0.568009217,12.7476115 1.57485994,13.7556461 C2.58171067,14.7637156 3.94765849,15.3309657 5.37231257,15.3326719 L11.574598,15.3326719 L9.8607999,17.0497256 C9.78423105,17.1256851 9.74117631,17.2291349 9.74117631,17.3369894 C9.74117631,17.4448439 9.78423105,17.5482936 9.8607999,17.6242531 C9.93595854,17.7021799 10.0397913,17.745844 10.1480636,17.7450371 C10.2571542,17.7452347 10.3618053,17.7017099 10.4386005,17.6242531 L12.8803423,15.1825113 C12.9571375,15.105925 13.0002444,15.0020226 13.0002444,14.893611 C13.0002444,14.7851994 12.9571201,14.681297 12.8803423,14.6047107 L10.4091603,12.1630733 Z" id="Fill-4" fill="#134686"></path>
                </g>
            </g>
        </g>
    </g>
</svg>