<?xml version="1.0" encoding="UTF-8"?>
<svg width="33px" height="33px" viewBox="0 0 33 33" version="1.1" xmlns="http://www.w3.org/2000/svg" xmlns:xlink="http://www.w3.org/1999/xlink">
    <title>icon linkedin</title>
    <defs>
        <polygon id="path-1" points="0 0 11.6350656 0 11.6350656 12.283848 0 12.283848"></polygon>
        <polygon id="path-3" points="0 0 4.31613098 0 4.31613098 4.31415016 0 4.31415016"></polygon>
    </defs>
    <g id="Symbols" stroke="none" stroke-width="1" fill="none" fill-rule="evenodd">
        <g id="footer" transform="translate(-1578.000000, -289.000000)">
            <g id="Group-2" transform="translate(255.000000, 279.000000)">
                <g id="Group-17" transform="translate(1148.000000, 10.000000)">
                    <g id="icon-linkedin" transform="translate(175.000000, 0.000000)">
                        <circle id="Oval" fill="#FFFFFF" cx="16.5" cy="16.5" r="16.5"></circle>
                        <g id="Group-9" transform="translate(8.000000, 7.000000)">
                            <g id="Group-3" transform="translate(6.364934, 5.666346)">
                                <mask id="mask-2" fill="white">
                                    <use xlink:href="#path-1"></use>
                                </mask>
                                <g id="Clip-2"></g>
                                <path d="M3.57525061,1.9140164 C3.82455061,1.6336664 4.03020061,1.3492664 4.28647561,1.1078414 C5.07397561,0.365341402 6.00570061,-0.00905859837 7.09335061,0.000166401628 C7.69117561,0.00511640163 8.28202561,0.0483164016 8.85847561,0.215041402 C10.1765256,0.596191402 10.9426506,1.5036164 11.3080506,2.7912914 C11.5818756,3.7569914 11.6325006,4.7483414 11.6343006,5.7430664 C11.6379006,7.8411914 11.6282256,9.9390914 11.6327256,12.0369914 C11.6331756,12.2334164 11.5780506,12.2849414 11.3847756,12.2833664 C10.3041006,12.2745914 9.22297561,12.2741414 8.14230061,12.283848 C7.95195061,12.2853914 7.91100061,12.2264414 7.91167561,12.0466664 C7.91752561,10.0504664 7.91910061,8.0542664 7.91257561,6.0578414 C7.91100061,5.5576664 7.87927561,5.0577164 7.73887561,4.5712664 C7.48035061,3.6750914 6.83887561,3.2187914 5.90017561,3.2682914 C4.61857561,3.3360164 3.95212561,3.9705164 3.78855061,5.2739414 C3.74962561,5.5851164 3.73117561,5.8967414 3.73140061,6.2103914 C3.73297561,8.1516914 3.72937561,10.0934414 3.73657561,12.0347414 C3.73725061,12.2284664 3.68887561,12.2853914 3.49110061,12.283848 C2.40232561,12.2741414 1.31355061,12.2752664 0.225000607,12.2829164 C0.0504006067,12.2842664 0,12.2372414 0.000225606695,12.0606164 C0.0049506067,8.2167164 0.0051756067,4.3730414 0,0.529141402 C-0.000224393305,0.339016402 0.0621006067,0.294916402 0.241875607,0.296266402 C1.27575061,0.303916402 2.30962561,0.304816402 3.34350061,0.295591402 C3.53385061,0.293791402 3.58290061,0.355441402 3.57885061,0.535666402 C3.56827561,0.994891402 3.57525061,1.4545664 3.57525061,1.9140164" id="Fill-1" fill="#B62623" mask="url(#mask-2)"></path>
                            </g>
                            <path d="M4.018185,11.9732175 C4.018185,13.8749175 4.015035,15.7763925 4.02269628,17.6780925 C4.023585,17.8893675 3.970935,17.9532675 3.752235,17.9508612 C2.671785,17.9390925 1.591335,17.9417925 0.510885,17.9492175 C0.33786,17.9505675 0.28566,17.9071425 0.285884276,17.7282675 C0.29106,13.8780675 0.29061,10.0278675 0.286785,6.1776675 C0.28656,6.0183675 0.32526,5.9616675 0.49446,5.9625675 C1.590435,5.9697675 2.686635,5.9717925 3.782835,5.96139729 C3.99321,5.9591925 4.02201,6.0408675 4.021335,6.2215425 C4.01616,8.1387675 4.018185,10.0559925 4.018185,11.9732175" id="Fill-4" fill="#B62623"></path>
                            <g id="Group-8">
                                <mask id="mask-4" fill="white">
                                    <use xlink:href="#path-3"></use>
                                </mask>
                                <g id="Clip-7"></g>
                                <path d="M4.31613098,2.147175 C4.317255,3.341025 3.34818,4.3137 2.15703,4.31415016 C0.98118,4.3146 0.00378,3.341025 -5.61989032e-05,2.16585 C-0.00387,0.9774 0.97263,-0.001125 2.16153,-9.69082521e-07 C3.342105,0.00135 4.315005,0.97065 4.31613098,2.147175" id="Fill-6" fill="#B62623" mask="url(#mask-4)"></path>
                            </g>
                        </g>
                    </g>
                </g>
            </g>
        </g>
    </g>
</svg>