<?xml version="1.0" encoding="UTF-8"?>
<svg width="44px" height="44px" viewBox="0 0 44 44" version="1.1" xmlns="http://www.w3.org/2000/svg" xmlns:xlink="http://www.w3.org/1999/xlink">
    <title>icon events</title>
    <g id="Page-1" stroke="none" stroke-width="1" fill="none" fill-rule="evenodd">
        <g id="D_01_MENARINI-sito-auditorium-HP-v2" transform="translate(-1083.000000, -2668.000000)">
            <g id="icon-events" transform="translate(1083.000000, 2668.000000)">
                <circle id="Oval" fill="#FFFFFF" cx="22" cy="22" r="22"></circle>
                <g id="Group-7" transform="translate(12.222222, 12.222222)" fill="#B62623">
                    <path d="M3.66666667,2.44444444 L15.8888889,2.44444444 C16.5638611,2.44444444 17.1111111,2.99169444 17.1111111,3.66666667 L17.1111111,14.6666667 C17.1111111,15.3416389 16.5638611,15.8888889 15.8888889,15.8888889 L12.1519444,15.8888889 C11.5735278,10.7861111 7.54722222,6.75980556 2.44444444,6.18138889 L2.44444444,3.66666667 C2.44444444,2.99169444 2.99169444,2.44444444 3.66666667,2.44444444 M9.77777778,17.1111111 L9.77777778,18.3333333 L15.8888889,18.3333333 C17.9138056,18.3333333 19.5555556,16.6915833 19.5555556,14.6666667 L19.5555556,3.66666667 C19.5555556,1.64175 17.9138056,0 15.8888889,0 L3.66666667,0 C1.64175,0 0,1.64175 0,3.66666667 L0,8.55555556 L1.22222222,8.55555556 C5.94733333,8.55555556 9.77777778,12.386 9.77777778,17.1111111" id="Fill-1"></path>
                    <path d="M4.88888889,17.1111111 L4.88888889,18.3333333 L7.33333333,18.3333333 L7.33333333,17.1111111 C7.33333333,13.7359444 4.59738889,11 1.22222222,11 L0,11 L0,13.4444444 L1.22222222,13.4444444 C3.24713889,13.4444444 4.88888889,15.0861944 4.88888889,17.1111111" id="Fill-3"></path>
                    <path d="M1.22222222,15.8888889 C1.89719444,15.8888889 2.44444444,16.4361389 2.44444444,17.1111111 C2.44444444,17.7860833 1.89719444,18.3333333 1.22222222,18.3333333 C0.54725,18.3333333 0,17.7860833 0,17.1111111 C0,16.4361389 0.54725,15.8888889 1.22222222,15.8888889" id="Fill-5"></path>
                </g>
            </g>
        </g>
    </g>
</svg>