<svg xmlns="http://www.w3.org/2000/svg" width="60" height="60" viewBox="0 0 60 60"><defs><style>.a,.b{fill:none;}.a{stroke:#000;stroke-miterlimit:10;}</style></defs><g transform="translate(-588.25 -749.491)"><circle class="a" cx="10.599" cy="10.599" r="10.599" transform="translate(610.396 765.526)"/><g transform="translate(612.511 767.722)"><path class="a" d="M681.293,795.712A8.485,8.485,0,1,1,676.979,812" transform="translate(-671.631 -795.712)"/><path class="a" d="M658.815,809.362a8.485,8.485,0,0,1,5.483-13.645" transform="translate(-657.001 -795.716)"/></g><line class="a" y1="7.021" x2="7.191" transform="translate(628.184 761.316)"/><line class="a" y1="4.224" x2="4.327" transform="translate(608.712 783.124)"/><line class="a" x2="5.442" y2="11.649" transform="translate(625.162 785.873)"/><line class="a" x2="1.587" y2="3.396" transform="translate(614.606 763.28)"/><line class="a" x2="6.586" y2="0.127" transform="translate(631.597 775.998)"/><line class="a" x2="11.708" y2="0.225" transform="translate(598.702 775.366)"/><circle class="a" cx="2.948" cy="2.948" r="2.948" transform="translate(605.764 784.4)"/><circle class="a" cx="3.824" cy="3.824" r="3.824" transform="translate(626.78 793.697)"/><circle class="a" cx="3.824" cy="3.824" r="3.824" transform="translate(631.551 757.491)"/><circle class="a" cx="1.668" cy="1.668" r="1.668" transform="translate(612.938 761.612)"/><circle class="a" cx="2.452" cy="2.452" r="2.452" transform="translate(596.25 772.914)"/><circle class="a" cx="2.831" cy="2.831" r="2.831" transform="translate(635.351 773.293)"/></g><rect class="b" width="60" height="60"/></svg>