<svg xmlns="http://www.w3.org/2000/svg" width="30" height="30" viewBox="0 0 30 30">
  <g id="china" transform="translate(49 -141)">
    <circle id="Ellisse_267" data-name="Ellisse 267" cx="15" cy="15" r="15" transform="translate(-49 141)" fill="#d80027"/>
    <g id="Raggruppa_2696" data-name="Raggruppa 2696" transform="translate(-46.275 147.732)">
      <path id="Tracciato_3017" data-name="Tracciato 3017" d="M2.984,296.8l1.295,3.984H8.469l-3.387,2.467,1.295,3.984-3.393-2.461-3.393,2.461,1.3-3.984L-2.5,300.784H1.689Z" transform="translate(2.5 -294.404)" fill="#ffda44"/>
      <path id="Tracciato_3018" data-name="Tracciato 3018" d="M212.8,471.507l-.99-1.219-1.465.568.85-1.318-.99-1.225,1.518.4.855-1.318.082,1.57,1.523.4-1.471.563Z" transform="translate(-197.737 -455.007)" fill="#ffda44"/>
      <path id="Tracciato_3019" data-name="Tracciato 3019" d="M275.014,413.332l.469-1.5-1.283-.908,1.57-.023.463-1.5.51,1.488,1.57-.018-1.26.938.5,1.488-1.283-.908Z" transform="translate(-257.987 -400.406)" fill="#ffda44"/>
      <path id="Tracciato_3020" data-name="Tracciato 3020" d="M274.939,323.063l-.691,1.412,1.125,1.1-1.553-.223-.691,1.406-.27-1.547-1.559-.223,1.395-.732-.27-1.553,1.125,1.1Z" transform="translate(-255.257 -318.786)" fill="#ffda44"/>
      <path id="Tracciato_3021" data-name="Tracciato 3021" d="M212.554,255.9l-.117,1.564,1.459.592-1.529.375-.111,1.57-.826-1.336-1.529.375,1.014-1.2-.832-1.33,1.459.592Z" transform="translate(-197.455 -255.9)" fill="#ffda44"/>
    </g>
  </g>
</svg>
