<svg xmlns="http://www.w3.org/2000/svg" width="60" height="60" viewBox="0 0 60 60"><defs><style>.a,.b{fill:none;}.b{fill:#FFF;}</style></defs><g transform="translate(12 11)"><path class="b" d="M46.2.2" transform="translate(-22.65 -0.098)"/><path class="b" d="M35.019,6.474a7.642,7.642,0,0,0-4.69-4.69A37.67,37.67,0,0,0,18.4,0,38.376,38.376,0,0,0,6.678,1.733,7.712,7.712,0,0,0,1.733,6.678,38.376,38.376,0,0,0,0,18.4,37.9,37.9,0,0,0,1.784,30.33a7.642,7.642,0,0,0,4.69,4.69A37.9,37.9,0,0,0,18.4,36.8a39.632,39.632,0,0,0,11.316-1.58c3.007-.969,4.639-3.67,5.505-6.576A36.721,36.721,0,0,0,36.8,18.4,38.139,38.139,0,0,0,35.019,6.474ZM12.438,28.852H7.748V14.783h4.69ZM10.093,12.846h0a2.426,2.426,0,0,1-2.6-2.447,2.47,2.47,0,0,1,2.651-2.447,2.453,2.453,0,1,1-.051,4.894ZM29.31,28.852h-4.69V21.307c0-1.886-.663-3.16-2.345-3.16a2.576,2.576,0,0,0-2.4,1.733A3.729,3.729,0,0,0,19.727,21v7.85h-4.69s.051-12.744,0-14.069h4.69v1.988a4.631,4.631,0,0,1,4.231-2.345c3.058,0,5.4,1.988,5.4,6.321v8.1Z"/></g><rect class="a" width="60" height="60"/></svg>