<svg xmlns="http://www.w3.org/2000/svg" width="142" height="90" viewBox="0 0 142 90"><defs><style>.a,.b,.d,.e{fill:none;}.a{stroke:#b6b59c;stroke-dasharray:3 7;}.b,.d{stroke:#000;}.b{stroke-miterlimit:10;}.c{fill:#0783ff;}.f{stroke:none;}</style></defs><g transform="translate(-21647 -16361)"><g class="a" transform="translate(21647 16361)"><circle class="f" cx="45" cy="45" r="45"/><circle class="e" cx="45" cy="45" r="44.5"/></g><path class="a" d="M783,730.707V777.77" transform="translate(22519.707 15622.5) rotate(90)"/><g transform="translate(21647 16361)"><g transform="translate(10.5 18.998)"><line class="b" x1="7.219" y1="5.384" transform="translate(24.629 11.531)"/><path class="c" d="M1382.719,4262.275l-10.241,2.067-7.226,7.226a2.8,2.8,0,0,0,0,3.961h0a2.8,2.8,0,0,0,3.961,0l5.965-5.965,12.056,12.056a6.4,6.4,0,0,1,1.862,3.937l.03.017,6.854-10.1" transform="translate(-1339.369 -4248.688)"/><path class="c" d="M1442.739,4237.5l-15.108-15.108-9.126,9.126h0l-.434-.434-3.592,3.592,15.976,15.976,3.592-3.591-.434-.435Z" transform="translate(-1372.598 -4222.387)"/><line class="b" x2="8.947" y2="12.967" transform="translate(11.265 25.113)"/><line class="b" x2="12.784" y2="13.276" transform="translate(47.044 9.847)"/><rect class="b" width="22.594" height="5.08" transform="translate(6.321 22.655) rotate(-45)"/><path class="d" d="M4.9,5.089l6.04,5.924" transform="translate(10.919 -3.9)"/><path class="d" d="M10.523,10.592,3.768,3.955" transform="translate(-3.768 11.628)"/><path class="b" d="M1395.6,4313.571l11.4-7.736a6.457,6.457,0,0,0,1.253-10.107l-12.056-12.056" transform="translate(-1360.392 -4262.796)"/><line class="b" x2="12.292" y2="12.784" transform="translate(43.602 13.781)"/><circle cx="0.5" cy="0.5" r="0.5" transform="translate(56.254 23.364)"/><path class="c" d="M1348.386,4309.15l-2.1,2.1a5.549,5.549,0,0,0,0,7.849l11.2,11.2a3.114,3.114,0,0,0,4.4,0h0a9.673,9.673,0,0,0,1.025-12.47l-5.7-7.955A5.808,5.808,0,0,0,1348.386,4309.15Z" transform="translate(-1326.332 -4278.474)"/></g><rect class="e" width="90" height="90"/></g></g></svg>