<svg xmlns="http://www.w3.org/2000/svg" width="142" height="90" viewBox="0 0 142 90"><defs><style>.a,.b,.c{fill:none;}.a{stroke:#b6b59c;stroke-dasharray:3 7;}.c{stroke:#000;stroke-miterlimit:10;}.d{fill:#f5333f;}.e{stroke:none;}</style></defs><g transform="translate(-21647 -16361)"><g class="a" transform="translate(21647 16361)"><circle class="e" cx="45" cy="45" r="45"/><circle class="b" cx="45" cy="45" r="44.5"/></g><path class="a" d="M783,730.707V777.77" transform="translate(22519.707 15622.5) rotate(90)"/><g transform="translate(21647 16361)"><rect class="b" width="90" height="90"/><g transform="translate(-3 2)"><g transform="translate(-759.818 -3918.358)"><g transform="translate(785.818 3939.359)"><path class="c" d="M929.919,4161.157v-13.033a6.778,6.778,0,0,1,6.778-6.778h4.922a6.778,6.778,0,0,1,6.778,6.778v13.033" transform="translate(-916.702 -4122.82)"/><path class="c" d="M799.42,4175.9a6.752,6.752,0,0,0-4.237-1.487H792.6a6.778,6.778,0,0,0-6.778,6.778v10H803.3" transform="translate(-785.818 -4152.854)"/><circle class="c" cx="8.166" cy="8.166" r="8.166" transform="translate(14.138 0)"/><circle class="c" cx="5.802" cy="5.802" r="5.802" transform="translate(2.269 7.779)"/><path class="c" d="M1087.457,4175.758a6.751,6.751,0,0,1,4.055-1.346h2.587a6.778,6.778,0,0,1,6.778,6.778v10H1083.5" transform="translate(-1056.199 -4152.854)"/><circle class="c" cx="5.802" cy="5.802" r="5.802" transform="translate(30.804 7.779)"/></g><path class="d" d="M953.421,4280.945l-7.557-7.557a4.4,4.4,0,0,1,6.221-6.221l1.336,1.335,1.336-1.335a4.4,4.4,0,0,1,6.221,6.221Z" transform="translate(-145.264 -297.481)"/></g><rect class="b" width="60" height="60" transform="translate(18 13)"/></g></g></g></svg>