<svg xmlns="http://www.w3.org/2000/svg" width="90" height="90" viewBox="0 0 90 90"><defs><style>.a,.c{fill:none;}.b{fill:#f5333f;}.c{stroke:#000;stroke-miterlimit:10;}</style></defs><rect class="a" width="90" height="90"/><g transform="translate(-1 2)"><circle class="b" cx="19.68" cy="19.68" r="19.68" transform="translate(15 36.394)"/><path class="c" d="M61.692,223.665A14.862,14.862,0,1,1,49.371,217.1" transform="translate(-14.692 -175.897)"/><path class="c" d="M78.65,304.755a1.78,1.78,0,0,0-.279.014,4.877,4.877,0,0,0-4.864-4.669,4.814,4.814,0,0,0-2.509.7,3.683,3.683,0,0,1-2.76.4,3.571,3.571,0,0,0-1.338-.056,3.655,3.655,0,0,0,.5,7.275,3.277,3.277,0,0,0,.753-.084,2.819,2.819,0,0,1,2.328.474l.014.014a1.605,1.605,0,0,1,.6,1.561,3.865,3.865,0,0,0-.014,1.268,3.609,3.609,0,0,0,7.164-.627v-.014a1.259,1.259,0,0,1,.92-1.24,1.989,1.989,0,0,0,.376-.125,2.589,2.589,0,0,0,1.631-2.328A2.505,2.505,0,0,0,78.65,304.755Z" transform="translate(-39.858 -247.329)"/><circle class="c" cx="3.122" cy="3.122" r="3.122" transform="translate(36.38 45.468)"/><path class="c" d="M149.6,95.734a12.464,12.464,0,0,1,1.868-4.753,12.7,12.7,0,0,1,21.3,13.826,12.539,12.539,0,0,1-3.875,3.833" transform="translate(-113.749 -62.378)"/><path class="c" d="M36.5,21.7a12.518,12.518,0,0,0,5.7,1.993A12.7,12.7,0,0,0,50.326.4" transform="translate(-16.413 10.6)"/><line class="c" x1="6.802" y2="10.481" transform="translate(28.896 12.394)"/><line class="c" x1="3.568" y2="5.477" transform="translate(34.499 15.404)"/><line class="c" y1="7.457" x2="4.85" transform="translate(22.08 25.899)"/><line class="c" x1="7.08" y2="10.899" transform="translate(25.802 23.391)"/><path class="c" d="M320.707,186.445a12.518,12.518,0,0,0-5.7-1.993,12.7,12.7,0,0,0-8.126,23.29" transform="translate(-244.131 -147.751)"/><line class="c" y1="10.495" x2="6.802" transform="translate(60.98 48.116)"/><line class="c" y1="5.491" x2="3.554" transform="translate(58.611 50.109)"/><line class="c" x1="4.85" y2="7.471" transform="translate(69.733 37.635)"/><line class="c" y1="10.899" x2="7.08" transform="translate(63.795 36.701)"/><line class="c" x1="6.662" y2="10.258" transform="translate(38.61 23.209)"/><line class="c" x1="5.185" y2="7.986" transform="translate(44.394 22.875)"/><line class="c" x1="2.453" y2="3.777" transform="translate(50.833 23.809)"/><line class="c" x1="5.436" y2="8.363" transform="translate(51.628 26.262)"/><line class="c" x1="8.084" y2="12.46" transform="translate(51.335 29.272)"/><line class="c" x1="7.303" y2="11.248" transform="translate(53.565 33.328)"/><line class="c" y1="1.631" x2="1.059" transform="translate(41.565 33.593)"/><line class="c" y1="6.314" x2="4.098" transform="translate(44.952 30.331)"/><line class="c" y1="3.094" x2="2.007" transform="translate(48.826 35.851)"/></g></svg>