<svg xmlns="http://www.w3.org/2000/svg" width="36" height="33" viewBox="0 0 36 33"><defs><style>.a{fill:#0077b5;}.b{fill:#fff;}</style></defs><g transform="translate(-1003 -1336)"><rect class="a" width="36" height="33" rx="2" transform="translate(1003 1336)"/><path class="b" d="M10.728,24.982H6.654V12.761h4.074Zm-2.037-13.9h0A2.107,2.107,0,0,1,6.433,8.952a2.145,2.145,0,0,1,2.3-2.125,2.131,2.131,0,1,1-.044,4.251Zm16.694,13.9H21.311V18.429c0-1.638-.576-2.745-2.037-2.745a2.238,2.238,0,0,0-2.081,1.506,3.239,3.239,0,0,0-.133.974v6.819H12.987s.044-11.07,0-12.222h4.074v1.727a4.023,4.023,0,0,1,3.675-2.037c2.657,0,4.694,1.727,4.694,5.491v7.041Z" transform="translate(1005.26 1336.788)"/></g></svg>