<svg xmlns="http://www.w3.org/2000/svg" width="60" height="60" viewBox="0 0 60 60"><defs><style>.a,.b{fill:none;}.b{fill:#FFF;}</style></defs><g transform="translate(12 12)"><path class="b" d="M31.586,45.376a1.351,1.351,0,0,1-.306.255.725.725,0,0,1-.306.1.265.265,0,0,1-.2-.1.382.382,0,0,1-.051-.255V41.4H29.7v4.384a1,1,0,0,0,.2.714.658.658,0,0,0,.561.255,1.357,1.357,0,0,0,.612-.153,2.4,2.4,0,0,0,.612-.459V46.7h1.019V41.4H31.688v3.976Z" transform="translate(-14.561 -20.297)"/><path class="b" d="M21.6,38.819h1.223v6.066H24V38.819h1.223V37.8H21.6Z" transform="translate(-10.59 -18.532)"/><path class="b" d="M38.988,39.535a1.488,1.488,0,0,0-.459.1,2.8,2.8,0,0,0-.459.357V37.7H37v7.085h1.019v-.408a2.8,2.8,0,0,0,.459.357,1.832,1.832,0,0,0,.561.1.855.855,0,0,0,.714-.306,1.35,1.35,0,0,0,.255-.867V40.758a1.688,1.688,0,0,0-.255-.969A1.252,1.252,0,0,0,38.988,39.535Zm-.1,4.078a.594.594,0,0,1-.1.357.431.431,0,0,1-.306.1.46.46,0,0,1-.255-.051.9.9,0,0,1-.255-.2V40.555c.051-.051.153-.1.2-.153a.4.4,0,0,1,.51.1.79.79,0,0,1,.1.408v2.7Z" transform="translate(-18.139 -18.483)"/><path class="b" d="M35.31,26.127a.4.4,0,0,0,.357-.153.463.463,0,0,0,.153-.357V22.508a.441.441,0,0,0-.153-.306.43.43,0,0,0-.357-.1.737.737,0,0,0-.357.1.441.441,0,0,0-.153.306v3.109a.737.737,0,0,0,.1.357A.579.579,0,0,0,35.31,26.127Z" transform="translate(-17.061 -10.835)"/><path class="b" d="M35.019,6.474a7.642,7.642,0,0,0-4.69-4.69A37.67,37.67,0,0,0,18.4,0,38.376,38.376,0,0,0,6.678,1.733,7.712,7.712,0,0,0,1.733,6.678,38.376,38.376,0,0,0,0,18.4,37.9,37.9,0,0,0,1.784,30.33a7.642,7.642,0,0,0,4.69,4.69A37.9,37.9,0,0,0,18.4,36.8a39.632,39.632,0,0,0,11.316-1.58c3.007-.969,4.639-3.67,5.505-6.576A36.721,36.721,0,0,0,36.8,18.4,38.139,38.139,0,0,0,35.019,6.474ZM20.9,10.4h1.172v4.384a1.8,1.8,0,0,0,.051.306.389.389,0,0,0,.255.1.724.724,0,0,0,.306-.1,2.217,2.217,0,0,0,.357-.306V10.4h1.172v5.76H23.04v-.612a3.232,3.232,0,0,1-.663.561,1.945,1.945,0,0,1-.663.2.844.844,0,0,1-.612-.255,1.562,1.562,0,0,1-.2-.867Zm-4.333,1.274a1.317,1.317,0,0,1,.459-1.07,2.007,2.007,0,0,1,1.274-.408,1.72,1.72,0,0,1,1.172.408,1.388,1.388,0,0,1,.459,1.07V14.63a1.536,1.536,0,0,1-.459,1.172,1.908,1.908,0,0,1-1.274.408,1.653,1.653,0,0,1-1.223-.459,1.536,1.536,0,0,1-.459-1.172V11.673ZM13.355,8.36l.867,3.109h.051l.816-3.109h1.325L14.885,12.9v3.211H13.559V13l-1.58-4.69h1.376ZM28.7,24.723a3.764,3.764,0,0,1-3.772,3.772H11.877A3.764,3.764,0,0,1,8.1,24.723V21.715a3.764,3.764,0,0,1,3.772-3.772h13.1a3.764,3.764,0,0,1,3.772,3.772v3.008Z"/><path class="b" d="M45.48,41.2a1.587,1.587,0,0,0-1.121.408,1.5,1.5,0,0,0-.459,1.121v2.345a1.631,1.631,0,0,0,.408,1.172,1.329,1.329,0,0,0,1.121.408,1.631,1.631,0,0,0,1.172-.408,1.679,1.679,0,0,0,.408-1.223v-.255h-1.07v.255a1.464,1.464,0,0,1-.1.612.493.493,0,0,1-.714,0,1.364,1.364,0,0,1-.1-.561v-.969h1.988V42.78a1.5,1.5,0,0,0-.408-1.121A1.223,1.223,0,0,0,45.48,41.2Zm.408,2.039H44.97v-.51a1.018,1.018,0,0,1,.1-.459.4.4,0,0,1,.357-.153.463.463,0,0,1,.357.153,1.018,1.018,0,0,1,.1.459Z" transform="translate(-21.522 -20.198)"/></g><rect class="a" width="60" height="60"/></svg>