<svg width="30" height="30" viewBox="0 0 30 30" fill="none" xmlns="http://www.w3.org/2000/svg">
<path fill-rule="evenodd" clip-rule="evenodd" d="M22.8918 21.1224L29.6327 27.8633C30.1224 28.3531 30.1224 29.1429 29.6327 29.6327C29.1429 30.1224 28.3531 30.1224 27.8633 29.6327L21.1224 22.898C18.8204 24.802 15.949 25.8367 12.9184 25.8367C9.46531 25.8367 6.22041 24.4898 3.78367 22.0531C1.34082 19.6102 0 16.3653 0 12.9184C0 9.46531 1.34082 6.22041 3.78367 3.78367C6.22653 1.34082 9.47143 0 12.9184 0C16.3653 0 19.6102 1.34082 22.0469 3.78367C24.4898 6.22653 25.8306 9.46531 25.8306 12.9184C25.8306 15.9429 24.7959 18.8143 22.8918 21.1224ZM2.49796 12.9184C2.49796 15.698 3.58163 18.3122 5.55306 20.2776C7.51837 22.249 10.1327 23.3327 12.9122 23.3327C15.6918 23.3327 18.3122 22.249 20.2776 20.2837C22.2429 18.3184 23.3265 15.698 23.3265 12.9184C23.3265 10.1327 22.2429 7.51837 20.2776 5.55306C18.3122 3.58776 15.6918 2.50408 12.9122 2.50408C10.1265 2.50408 7.51224 3.58776 5.54694 5.55306C3.58163 7.51837 2.49796 10.1388 2.49796 12.9184Z" fill="white"/>
</svg>
