<svg width="30" height="30" viewBox="0 0 30 30" fill="none" xmlns="http://www.w3.org/2000/svg">
<path fill-rule="evenodd" clip-rule="evenodd" d="M8 7C8 10.86 11.14 14 15 14C18.86 14 22 10.86 22 7C22 3.14002 18.86 0 15 0C11.14 0 8 3.14002 8 7ZM10.4685 7C10.4685 4.5013 12.5013 2.46845 15 2.46845C17.4987 2.46845 19.5315 4.5013 19.5315 7C19.5315 9.4987 17.4987 11.5315 15 11.5315C12.5013 11.5315 10.4685 9.4987 10.4685 7Z" fill="#484542"/>
<path fill-rule="evenodd" clip-rule="evenodd" d="M1.24898 30H28.751C29.4429 30 30 29.4403 30 28.7454C30 24.6433 28.4082 20.7995 25.5245 17.9213C23.6633 16.064 21.0429 15 18.3245 15H11.6755C8.96327 15 6.33673 16.064 4.47551 17.9213C1.59184 20.7995 0 24.6433 0 28.7454C0 29.4403 0.557143 30 1.24898 30ZM27.4408 27.4908H2.55918C2.84082 24.5387 4.12653 21.8081 6.23878 19.7048C7.63469 18.3149 9.61224 17.5154 11.6755 17.5154H18.3245C20.3816 17.5154 22.3653 18.3149 23.7612 19.7048C25.8735 21.8081 27.1592 24.5387 27.4408 27.4908Z" fill="#484542"/>
</svg>
