<svg width="25" height="25" viewBox="0 0 25 25" fill="none" xmlns="http://www.w3.org/2000/svg">
<path fill-rule="evenodd" clip-rule="evenodd" d="M13.7021 11.9144L24.2515 1.80427C24.5828 1.48671 24.5828 0.971685 24.2515 0.653105C23.9191 0.335542 23.3806 0.334524 23.0492 0.653105L12.4999 10.7632L1.9505 0.653105C1.61808 0.334524 1.07962 0.335542 0.749317 0.653105C0.416894 0.971685 0.416894 1.48671 0.749317 1.80427L23.0492 23.1756C23.3806 23.4942 23.9191 23.4942 24.2515 23.1756C24.5828 22.8581 24.5828 22.343 24.2515 22.0255L13.7021 11.9144ZM0.749317 22.0255C0.416894 22.343 0.416894 22.8581 0.749317 23.1756C1.07962 23.4942 1.61808 23.4942 1.9505 23.1756L12.4914 13.0747L11.2902 11.9225L0.749317 22.0255Z" fill="#143F59"/>
</svg>
