<svg width="15" height="16" viewBox="0 0 15 16" fill="none" xmlns="http://www.w3.org/2000/svg">
<path d="M7.8374 7.375C5.94188 7.375 4.3999 5.83303 4.3999 3.9375C4.3999 2.04197 5.94188 0.5 7.8374 0.5C9.73293 0.5 11.2749 2.04197 11.2749 3.9375C11.2749 5.83303 9.73293 7.375 7.8374 7.375Z" fill="white"/>
<path d="M13.8275 15.5H1.22235C0.905259 15.5 0.649902 15.2435 0.649902 14.925C0.649902 13.0448 1.37949 11.2831 2.70118 9.96392C3.55424 9.11265 4.75807 8.625 6.00118 8.625H9.04863C10.2945 8.625 11.4956 9.11265 12.3486 9.96392C13.6703 11.2831 14.3999 13.0448 14.3999 14.925C14.3999 15.2435 14.1445 15.5 13.8275 15.5Z" fill="white"/>
</svg>
