<svg width="19" height="22" viewBox="0 0 19 22" fill="none" xmlns="http://www.w3.org/2000/svg">
<path d="M15.0268 9.09905C13.9774 9.09905 13.1268 9.94971 13.1268 10.999C13.1268 12.0484 13.9774 12.899 15.0268 12.899C16.0761 12.899 16.9268 12.0484 16.9268 10.999C16.9268 9.94971 16.0761 9.09905 15.0268 9.09905Z" stroke="#AE0F0A" stroke-width="2" stroke-miterlimit="10"/>
<path d="M5.62686 2.09905C4.57751 2.09905 3.72686 2.94971 3.72686 3.99905C3.72686 5.04839 4.57751 5.89905 5.62686 5.89905C6.6762 5.89905 7.52686 5.04839 7.52686 3.99905C7.52686 2.94971 6.6762 2.09905 5.62686 2.09905Z" stroke="#AE0F0A" stroke-width="2" stroke-miterlimit="10"/>
<path d="M5.62686 16.099C4.57751 16.099 3.72686 16.9497 3.72686 17.999C3.72686 19.0484 4.57751 19.899 5.62686 19.899C6.6762 19.899 7.52686 19.0484 7.52686 17.999C7.52686 16.9497 6.6762 16.099 5.62686 16.099Z" stroke="#AE0F0A" stroke-width="2" stroke-miterlimit="10"/>
<path d="M7.12686 5.09905L13.5269 9.89905" stroke="#AE0F0A" stroke-width="2" stroke-miterlimit="10"/>
<path d="M13.5269 12.099L7.12686 16.899" stroke="#AE0F0A" stroke-width="2" stroke-miterlimit="10"/>
</svg>
