<svg width="10" height="11" viewBox="0 0 10 11" fill="none" xmlns="http://www.w3.org/2000/svg">
<path fill-rule="evenodd" clip-rule="evenodd" d="M7.70123 7.20822L13.855 1.31067C14.0483 1.12542 14.0483 0.824995 13.855 0.639156C13.6611 0.453912 13.347 0.453318 13.1537 0.639156L6.99992 6.53671L0.846124 0.639156C0.652211 0.453318 0.338109 0.453912 0.145435 0.639156C-0.0484783 0.824995 -0.0484783 1.12542 0.145435 1.31067L13.1537 13.7773C13.347 13.9631 13.6611 13.9631 13.855 13.7773C14.0483 13.592 14.0483 13.2916 13.855 13.1064L7.70123 7.20822ZM0.145435 13.1063C-0.0484783 13.2916 -0.0484783 13.592 0.145435 13.7773C0.338109 13.9631 0.652211 13.9631 0.846124 13.7773L6.99497 7.88505L6.29428 7.21294L0.145435 13.1063Z" fill="#143F59"/>
</svg>
