<svg width="26" height="26" viewBox="0 0 26 26" fill="none" xmlns="http://www.w3.org/2000/svg">
<path fill-rule="evenodd" clip-rule="evenodd" d="M3 10.8293C1.83481 10.4175 1 9.30622 1 8C1 6.69378 1.83481 5.58254 3 5.17071V2.00069C3 1.44803 3.44386 1 4 1C4.55228 1 5 1.44747 5 2.00069L5 5.17071C6.16519 5.58254 7 6.69378 7 8C7 9.30622 6.16519 10.4175 5 10.8293L5 23.9993C5 24.552 4.55614 25 4 25C3.44772 25 3 24.5525 3 23.9993L3 10.8293ZM16 18C16 16.6938 15.1652 15.5825 14 15.1707L14 2.00069C14 1.44803 13.5561 1 13 1C12.4477 1 12 1.44747 12 2.00069L12 15.1707C10.8348 15.5825 10 16.6938 10 18C10 19.3062 10.8348 20.4175 12 20.8293V23.9993C12 24.552 12.4439 25 13 25C13.5523 25 14 24.5525 14 23.9993V20.8293C15.1652 20.4175 16 19.3062 16 18ZM19 8C19 9.30622 19.8348 10.4175 21 10.8293V23.9993C21 24.5525 21.4477 25 22 25C22.5561 25 23 24.552 23 23.9993V10.8293C24.1652 10.4175 25 9.30622 25 8C25 6.69378 24.1652 5.58254 23 5.17071V2.00069C23 1.44747 22.5523 1 22 1C21.4439 1 21 1.44803 21 2.00069V5.17071C19.8348 5.58254 19 6.69378 19 8ZM4 7C4.55228 7 5 7.44772 5 8C5 8.55228 4.55228 9 4 9C3.44772 9 3 8.55228 3 8C3 7.44772 3.44772 7 4 7ZM23 8C23 7.44772 22.5523 7 22 7C21.4477 7 21 7.44772 21 8C21 8.55228 21.4477 9 22 9C22.5523 9 23 8.55228 23 8ZM13 17C13.5523 17 14 17.4477 14 18C14 18.5523 13.5523 19 13 19C12.4477 19 12 18.5523 12 18C12 17.4477 12.4477 17 13 17Z" fill="#0783FF"/>
<path d="M3 10.8293H3.5V10.4757L3.16662 10.3579L3 10.8293ZM3 5.17071L3.16662 5.64213L3.5 5.52429V5.17071H3ZM5 5.17071H4.5V5.52429L4.83338 5.64213L5 5.17071ZM5 10.8293L4.83338 10.3579L4.5 10.4757V10.8293H5ZM14 15.1707H13.5V15.5243L13.8334 15.6421L14 15.1707ZM12 15.1707L12.1666 15.6421L12.5 15.5243V15.1707H12ZM12 20.8293H12.5V20.4757L12.1666 20.3579L12 20.8293ZM14 20.8293L13.8334 20.3579L13.5 20.4757V20.8293H14ZM21 10.8293H21.5V10.4757L21.1666 10.3579L21 10.8293ZM23 10.8293L22.8334 10.3579L22.5 10.4757V10.8293H23ZM23 5.17071H22.5V5.52429L22.8334 5.64213L23 5.17071ZM21 5.17071L21.1666 5.64213L21.5 5.52429V5.17071H21ZM0.5 8C0.5 9.5247 1.47466 10.8205 2.83338 11.3007L3.16662 10.3579C2.19496 10.0144 1.5 9.08774 1.5 8H0.5ZM2.83338 4.69929C1.47466 5.17952 0.5 6.4753 0.5 8H1.5C1.5 6.91227 2.19496 5.98556 3.16662 5.64213L2.83338 4.69929ZM2.5 2.00069L2.5 5.17071H3.5V2.00069H2.5ZM4 0.5C3.16614 0.5 2.5 1.17347 2.5 2.00069H3.5C3.5 1.72259 3.72159 1.5 4 1.5V0.5ZM5.5 2.00069C5.5 1.17147 4.82857 0.5 4 0.5V1.5C4.276 1.5 4.5 1.72347 4.5 2.00069H5.5ZM5.5 5.17071L5.5 2.00069H4.5V5.17071H5.5ZM7.5 8C7.5 6.4753 6.52534 5.17952 5.16662 4.69929L4.83338 5.64213C5.80505 5.98556 6.5 6.91227 6.5 8H7.5ZM5.16662 11.3007C6.52534 10.8205 7.5 9.5247 7.5 8H6.5C6.5 9.08774 5.80505 10.0144 4.83338 10.3579L5.16662 11.3007ZM5.5 23.9993L5.5 10.8293H4.5L4.5 23.9993H5.5ZM4 25.5C4.83386 25.5 5.5 24.8265 5.5 23.9993H4.5C4.5 24.2774 4.27841 24.5 4 24.5V25.5ZM2.5 23.9993C2.5 24.8285 3.17143 25.5 4 25.5V24.5C3.724 24.5 3.5 24.2765 3.5 23.9993H2.5ZM2.5 10.8293L2.5 23.9993H3.5L3.5 10.8293H2.5ZM13.8334 15.6421C14.805 15.9856 15.5 16.9123 15.5 18H16.5C16.5 16.4753 15.5253 15.1795 14.1666 14.6993L13.8334 15.6421ZM13.5 2.00069L13.5 15.1707H14.5L14.5 2.00069H13.5ZM13 1.5C13.2784 1.5 13.5 1.72259 13.5 2.00069H14.5C14.5 1.17347 13.8339 0.5 13 0.5V1.5ZM12.5 2.00069C12.5 1.72346 12.724 1.5 13 1.5V0.5C12.1714 0.5 11.5 1.17147 11.5 2.00069H12.5ZM12.5 15.1707L12.5 2.00069H11.5L11.5 15.1707H12.5ZM10.5 18C10.5 16.9123 11.195 15.9856 12.1666 15.6421L11.8334 14.6993C10.4747 15.1795 9.5 16.4753 9.5 18H10.5ZM12.1666 20.3579C11.195 20.0144 10.5 19.0877 10.5 18H9.5C9.5 19.5247 10.4747 20.8205 11.8334 21.3007L12.1666 20.3579ZM12.5 23.9993V20.8293H11.5V23.9993H12.5ZM13 24.5C12.7216 24.5 12.5 24.2774 12.5 23.9993H11.5C11.5 24.8265 12.1661 25.5 13 25.5V24.5ZM13.5 23.9993C13.5 24.2765 13.276 24.5 13 24.5V25.5C13.8286 25.5 14.5 24.8285 14.5 23.9993H13.5ZM13.5 20.8293V23.9993H14.5V20.8293H13.5ZM15.5 18C15.5 19.0877 14.805 20.0144 13.8334 20.3579L14.1666 21.3007C15.5253 20.8205 16.5 19.5247 16.5 18H15.5ZM21.1666 10.3579C20.195 10.0144 19.5 9.08773 19.5 8H18.5C18.5 9.5247 19.4747 10.8205 20.8334 11.3007L21.1666 10.3579ZM21.5 23.9993V10.8293H20.5V23.9993H21.5ZM22 24.5C21.724 24.5 21.5 24.2765 21.5 23.9993H20.5C20.5 24.8285 21.1714 25.5 22 25.5V24.5ZM22.5 23.9993C22.5 24.2774 22.2784 24.5 22 24.5V25.5C22.8339 25.5 23.5 24.8265 23.5 23.9993H22.5ZM22.5 10.8293V23.9993H23.5V10.8293H22.5ZM24.5 8C24.5 9.08773 23.805 10.0144 22.8334 10.3579L23.1666 11.3007C24.5253 10.8205 25.5 9.5247 25.5 8H24.5ZM22.8334 5.64213C23.805 5.98556 24.5 6.91227 24.5 8H25.5C25.5 6.4753 24.5253 5.17952 23.1666 4.69929L22.8334 5.64213ZM22.5 2.00069V5.17071H23.5V2.00069H22.5ZM22 1.5C22.276 1.5 22.5 1.72347 22.5 2.00069H23.5C23.5 1.17147 22.8286 0.5 22 0.5V1.5ZM21.5 2.00069C21.5 1.72259 21.7216 1.5 22 1.5V0.5C21.1661 0.5 20.5 1.17347 20.5 2.00069H21.5ZM21.5 5.17071V2.00069H20.5V5.17071H21.5ZM19.5 8C19.5 6.91227 20.195 5.98556 21.1666 5.64213L20.8334 4.69929C19.4747 5.17952 18.5 6.4753 18.5 8H19.5ZM5.5 8C5.5 7.17157 4.82843 6.5 4 6.5L4 7.5C4.27614 7.5 4.5 7.72386 4.5 8H5.5ZM4 9.5C4.82843 9.5 5.5 8.82843 5.5 8H4.5C4.5 8.27614 4.27614 8.5 4 8.5V9.5ZM2.5 8C2.5 8.82843 3.17157 9.5 4 9.5V8.5C3.72386 8.5 3.5 8.27614 3.5 8H2.5ZM4 6.5C3.17157 6.5 2.5 7.17157 2.5 8H3.5C3.5 7.72386 3.72386 7.5 4 7.5L4 6.5ZM22 7.5C22.2761 7.5 22.5 7.72386 22.5 8H23.5C23.5 7.17157 22.8284 6.5 22 6.5V7.5ZM21.5 8C21.5 7.72386 21.7239 7.5 22 7.5V6.5C21.1716 6.5 20.5 7.17157 20.5 8H21.5ZM22 8.5C21.7239 8.5 21.5 8.27614 21.5 8H20.5C20.5 8.82843 21.1716 9.5 22 9.5V8.5ZM22.5 8C22.5 8.27614 22.2761 8.5 22 8.5V9.5C22.8284 9.5 23.5 8.82843 23.5 8H22.5ZM14.5 18C14.5 17.1716 13.8284 16.5 13 16.5V17.5C13.2761 17.5 13.5 17.7239 13.5 18H14.5ZM13 19.5C13.8284 19.5 14.5 18.8284 14.5 18H13.5C13.5 18.2761 13.2761 18.5 13 18.5V19.5ZM11.5 18C11.5 18.8284 12.1716 19.5 13 19.5V18.5C12.7239 18.5 12.5 18.2761 12.5 18H11.5ZM13 16.5C12.1716 16.5 11.5 17.1716 11.5 18H12.5C12.5 17.7239 12.7239 17.5 13 17.5V16.5Z" fill="white"/>
</svg>
