<svg width="20" height="19" viewBox="0 0 20 19" fill="none" xmlns="http://www.w3.org/2000/svg">
<path d="M4.94399 0.693359C3.68828 0.693359 2.66656 1.71661 2.65863 2.97876H0.830343C0.710685 2.97877 0.601819 3.08764 0.601807 3.2073V18.748C0.601819 18.8677 0.710685 18.9765 0.830343 18.9765H19.1132C19.2329 18.9765 19.3418 18.8677 19.3418 18.748V3.2073C19.3436 3.10066 19.2609 2.99875 19.1561 2.97876C18.5365 2.97842 17.9076 2.97876 17.285 2.97876C17.277 1.71661 16.2553 0.693359 14.9996 0.693359C13.7439 0.693359 12.7222 1.71661 12.7142 2.97876H7.22936C7.22142 1.71661 6.19971 0.693359 4.94399 0.693359ZM4.94399 1.15044C5.95044 1.15044 6.76449 1.96145 6.77228 2.97876H3.1157C3.1235 1.96144 3.93755 1.15044 4.94399 1.15044ZM14.9996 1.15044C16.006 1.15044 16.8201 1.96145 16.8279 2.97876H13.1713C13.1791 1.96144 13.9931 1.15044 14.9996 1.15044ZM1.05888 3.43584H6.72229C6.52847 4.24751 5.80622 4.84278 4.94399 4.84278C4.82326 4.84107 4.7122 4.95057 4.7122 5.07132C4.7122 5.19208 4.82326 5.30157 4.94399 5.29986C6.05425 5.29986 6.97395 4.49476 7.17936 3.43584H16.7779C16.5841 4.24751 15.8618 4.84278 14.9996 4.84278C14.8788 4.84107 14.7678 4.95057 14.7678 5.07132C14.7678 5.19208 14.8788 5.30157 14.9996 5.29986C16.1098 5.29986 17.0295 4.49476 17.235 3.43584H18.8847V6.86393H1.05888V3.43584ZM1.05888 7.32101H18.8847V18.5195H1.05888V7.32101Z" fill="black"/>
</svg>
