<svg width="14" height="13" viewBox="0 0 14 13" fill="none" xmlns="http://www.w3.org/2000/svg">
<path d="M3.03259 4.17712H0.41705C0.300968 4.17712 0.206909 4.27122 0.206909 4.38726V12.7899C0.206909 12.9059 0.300968 13 0.41705 13H3.03259C3.14867 13 3.24273 12.9059 3.24273 12.7899V4.38726C3.24273 4.27122 3.14867 4.17712 3.03259 4.17712Z" fill="#AE0F0A"/>
<path d="M1.72593 0C0.774242 0 0 0.773401 0 1.72404C0 2.67509 0.774242 3.44879 1.72593 3.44879C2.67685 3.44879 3.45047 2.67505 3.45047 1.72404C3.45051 0.773401 2.67685 0 1.72593 0Z" fill="#AE0F0A"/>
<path d="M9.68533 3.96838C8.63484 3.96838 7.85828 4.41998 7.38727 4.9331V4.38736C7.38727 4.27132 7.29321 4.17722 7.17713 4.17722H4.6723C4.55622 4.17722 4.46216 4.27132 4.46216 4.38736V12.79C4.46216 12.906 4.55622 13.0001 4.6723 13.0001H7.28212C7.3982 13.0001 7.49226 12.906 7.49226 12.79V8.63262C7.49226 7.2317 7.87278 6.68592 8.84935 6.68592C9.91291 6.68592 9.99743 7.56086 9.99743 8.7047V12.79C9.99743 12.9061 10.0915 13.0001 10.2076 13.0001H12.8184C12.9344 13.0001 13.0285 12.9061 13.0285 12.79V8.18103C13.0285 6.09791 12.6313 3.96838 9.68533 3.96838Z" fill="#AE0F0A"/>
</svg>
