<svg width="37" height="37" viewBox="0 0 37 37" fill="none" xmlns="http://www.w3.org/2000/svg">
<path d="M35.0215 6.47394C34.6423 5.39006 34.0237 4.40556 33.2118 3.5936C32.3998 2.78164 31.4153 2.1631 30.3315 1.78394C26.4768 0.552402 22.4488 -0.0499852 18.4025 -6.29115e-05C14.429 -0.0327545 10.4745 0.55188 6.68045 1.73294C5.52487 2.10925 4.47458 2.75335 3.61522 3.6127C2.75586 4.47206 2.11177 5.52235 1.73545 6.67794C0.554396 10.472 -0.0302382 14.4264 0.00245343 18.3999C-0.0435898 22.4463 0.558704 26.474 1.78645 30.3299C2.16561 31.4138 2.78416 32.3983 3.59612 33.2103C4.40808 34.0222 5.39257 34.6408 6.47645 35.0199C10.3313 36.2459 14.3576 36.8468 18.4025 36.7999C22.231 36.8226 26.0426 36.2904 29.7185 35.2199C32.7255 34.2509 34.3575 31.5499 35.2235 28.6439C36.2315 25.3211 36.7631 21.8721 36.8025 18.3999C36.845 14.3553 36.2438 10.3297 35.0215 6.47394ZM12.4405 28.8519H7.75045V14.7829H12.4405V28.8519ZM10.0955 12.8459C9.76076 12.87 9.42472 12.8244 9.10855 12.712C8.79239 12.5996 8.50298 12.4228 8.25863 12.1928C8.01427 11.9629 7.82028 11.6847 7.68892 11.3759C7.55756 11.0671 7.49168 10.7345 7.49545 10.3989C7.49769 10.0607 7.56938 9.72653 7.70607 9.41714C7.84275 9.10774 8.04153 8.82972 8.29008 8.6003C8.53862 8.37088 8.83164 8.19496 9.15096 8.08343C9.47029 7.9719 9.80912 7.92714 10.1465 7.95194C10.4823 7.93218 10.8186 7.98172 11.1345 8.09746C11.4504 8.21321 11.739 8.3927 11.9826 8.62476C12.2262 8.85682 12.4194 9.13651 12.5503 9.44643C12.6811 9.75634 12.7469 10.0899 12.7434 10.4263C12.7399 10.7627 12.6672 11.0947 12.5299 11.4019C12.3926 11.709 12.1936 11.9846 11.9452 12.2115C11.6969 12.4385 11.4045 12.6119 11.0863 12.721C10.7681 12.8302 10.4308 12.8727 10.0955 12.8459ZM29.3125 28.8519H24.6225V21.3069C24.6225 19.4209 23.9595 18.1469 22.2775 18.1469C21.7478 18.154 21.2331 18.3241 20.8037 18.6343C20.3742 18.9444 20.0508 19.3794 19.8775 19.8799C19.7715 20.2436 19.7216 20.6213 19.7295 20.9999V28.8499H15.0395C15.0395 28.8499 15.0905 16.1059 15.0395 14.7809H19.7295V16.7689C20.15 16.0261 20.7678 15.4139 21.5144 15.0001C22.2611 14.5863 23.1076 14.3869 23.9605 14.4239C27.0185 14.4239 29.3605 16.4119 29.3605 20.7449V28.8449L29.3125 28.8519Z" fill="white"/>
</svg>
