<svg width="38" height="38" viewBox="0 0 38 38" fill="none" xmlns="http://www.w3.org/2000/svg">
<path d="M17.6251 25.6794C17.5363 25.779 17.4332 25.865 17.3191 25.9344C17.2259 25.9902 17.1214 26.0244 17.0131 26.0344C16.9745 26.0333 16.9366 26.0238 16.9021 26.0065C16.8675 25.9892 16.8372 25.9646 16.8131 25.9344C16.7668 25.8579 16.7488 25.7677 16.7621 25.6794V21.7034H15.7391V26.0874C15.7119 26.3422 15.7834 26.5978 15.9391 26.8014C16.0047 26.8864 16.0902 26.9541 16.188 26.9986C16.2857 27.0431 16.3929 27.0629 16.5001 27.0564C16.7133 27.0541 16.923 27.0017 17.1121 26.9034C17.3394 26.7841 17.546 26.6291 17.7241 26.4444V27.0034H18.7431V21.7034H17.7271V25.6794H17.6251Z" fill="white"/>
<path d="M11.6102 20.8873H12.8332V26.9533H14.0102V20.8873H15.2332V19.8683H11.6102V20.8873Z" fill="white"/>
<path d="M21.4492 21.6523C21.2919 21.6611 21.1369 21.6949 20.9902 21.7523C20.8252 21.8551 20.6714 21.9747 20.5312 22.1093V19.8173H19.4612V26.9023H20.4802V26.4943C20.6204 26.6289 20.7742 26.7486 20.9392 26.8513C21.1198 26.9137 21.3091 26.9475 21.5002 26.9513C21.6349 26.9603 21.7698 26.9373 21.8939 26.8841C22.018 26.8309 22.1278 26.7491 22.2142 26.6453C22.3963 26.3942 22.4863 26.088 22.4692 25.7783V22.8753C22.4842 22.534 22.3953 22.1961 22.2142 21.9063C21.9942 21.7396 21.7252 21.6503 21.4492 21.6523ZM21.3492 25.7303C21.3548 25.8569 21.3197 25.982 21.2492 26.0873C21.1639 26.1589 21.0543 26.1948 20.9432 26.1873C20.855 26.1952 20.7665 26.1775 20.6882 26.1363C20.5918 26.0856 20.5054 26.0179 20.4332 25.9363V22.6723C20.4842 22.6213 20.5862 22.5723 20.6332 22.5193C20.7162 22.4725 20.8131 22.4569 20.9066 22.4752C21.0001 22.4935 21.084 22.5446 21.1432 22.6193C21.2127 22.7438 21.2473 22.8848 21.2432 23.0273V25.7273L21.3492 25.7303Z" fill="white"/>
<path d="M18.8492 15.8924C18.9168 15.8993 18.985 15.8889 19.0475 15.8621C19.11 15.8353 19.1646 15.7931 19.2062 15.7394C19.256 15.6945 19.2955 15.6393 19.3219 15.5777C19.3483 15.516 19.361 15.4494 19.3592 15.3824V12.2734C19.3553 12.2147 19.3398 12.1575 19.3136 12.1049C19.2873 12.0524 19.2508 12.0056 19.2062 11.9674C19.1579 11.9251 19.1008 11.8942 19.039 11.8769C18.9772 11.8596 18.9124 11.8563 18.8492 11.8674C18.7236 11.8697 18.6007 11.9041 18.4922 11.9674C18.4476 12.0056 18.4111 12.0524 18.3848 12.1049C18.3585 12.1575 18.343 12.2147 18.3392 12.2734V15.3824C18.3415 15.5079 18.376 15.6308 18.4392 15.7394C18.5506 15.842 18.6978 15.897 18.8492 15.8924Z" fill="white"/>
<path d="M35.6192 7.07434C35.24 5.99046 34.6215 5.00596 33.8095 4.194C32.9975 3.38204 32.013 2.7635 30.9292 2.38434C27.0745 1.1528 23.0465 0.550418 19.0002 0.60034C15.0267 0.567648 11.0722 1.15228 7.27817 2.33334C6.12259 2.70966 5.0723 3.35375 4.21294 4.21311C3.35358 5.07246 2.70949 6.12275 2.33317 7.27834C1.15211 11.0724 0.567479 15.0268 0.600171 19.0003C0.554127 23.0467 1.15642 27.0744 2.38417 30.9303C2.76333 32.0142 3.38187 32.9987 4.19383 33.8107C5.00579 34.6226 5.99029 35.2412 7.07417 35.6203C10.929 36.8463 14.9553 37.4473 19.0002 37.4003C22.8287 37.423 26.6403 36.8908 30.3162 35.8203C33.3232 34.8513 34.9552 32.1503 35.8212 29.2443C36.8292 25.9215 37.3608 22.4725 37.4002 19.0003C37.4427 14.9557 36.8415 10.9301 35.6192 7.07434ZM21.5002 11.0003H22.6722V15.3843C22.6803 15.4876 22.6974 15.59 22.7232 15.6903C22.7932 15.7535 22.8839 15.789 22.9782 15.7903C23.0864 15.7804 23.191 15.7462 23.2842 15.6903C23.4137 15.6013 23.5334 15.4987 23.6412 15.3843V11.0003H24.8132V16.7603H23.6402V16.1483C23.4454 16.3643 23.2224 16.553 22.9772 16.7093C22.7699 16.8151 22.5454 16.8829 22.3142 16.9093C22.2002 16.9103 22.0873 16.8883 21.9821 16.8444C21.8769 16.8006 21.7817 16.736 21.7022 16.6543C21.5529 16.3908 21.4834 16.0896 21.5022 15.7873L21.5002 11.0003ZM17.1672 12.2743C17.1566 12.0727 17.1924 11.8714 17.272 11.6859C17.3516 11.5003 17.4728 11.3356 17.6262 11.2043C17.9917 10.9267 18.4413 10.7826 18.9002 10.7963C19.328 10.7818 19.7459 10.9272 20.0722 11.2043C20.2216 11.3388 20.34 11.5041 20.4193 11.6889C20.4985 11.8736 20.5367 12.0734 20.5312 12.2743V15.2303C20.5418 15.447 20.5063 15.6635 20.4272 15.8655C20.3481 16.0675 20.2271 16.2505 20.0722 16.4023C19.7107 16.6876 19.2582 16.8325 18.7982 16.8103C18.5738 16.8209 18.3497 16.7857 18.1394 16.7068C17.9291 16.6279 17.7372 16.5069 17.5752 16.3513C17.4202 16.1995 17.2992 16.0165 17.2201 15.8145C17.141 15.6125 17.1056 15.396 17.1162 15.1793V12.2733L17.1672 12.2743ZM13.9552 8.96034L14.8222 12.0693H14.8732L15.6892 8.96034H17.0142L15.4852 13.5003V16.7113H14.1592V13.6003L12.5792 8.91034H13.9552V8.96034ZM29.3002 25.3233C29.3012 25.819 29.2044 26.31 29.0152 26.7681C28.826 27.2262 28.5482 27.6424 28.1977 27.9929C27.8473 28.3434 27.431 28.6212 26.9729 28.8104C26.5148 28.9995 26.0238 29.0964 25.5282 29.0953H12.4772C11.9811 29.0971 11.4896 29.0007 11.0309 28.8118C10.5722 28.6229 10.1554 28.3452 9.80438 27.9947C9.45337 27.6441 9.17512 27.2277 8.98562 26.7692C8.79612 26.3108 8.69911 25.8194 8.70017 25.3233V22.3153C8.69912 21.8197 8.79596 21.3287 8.98515 20.8706C9.17434 20.4125 9.45214 19.9963 9.80261 19.6458C10.1531 19.2953 10.5693 19.0175 11.0274 18.8283C11.4856 18.6391 11.9765 18.5423 12.4722 18.5433H25.5722C26.0678 18.5423 26.5588 18.6391 27.0169 18.8283C27.475 19.0175 27.8913 19.2953 28.2417 19.6458C28.5922 19.9963 28.87 20.4125 29.0592 20.8706C29.2484 21.3287 29.3452 21.8197 29.3442 22.3153V25.3233H29.3002Z" fill="white"/>
<path d="M24.5582 21.6023C24.1457 21.5874 23.7436 21.7337 23.4372 22.0103C23.287 22.155 23.1685 22.3294 23.0895 22.5224C23.0105 22.7155 22.9726 22.9228 22.9782 23.1313V25.4763C22.9545 25.9055 23.1011 26.3267 23.3862 26.6483C23.5283 26.799 23.7037 26.9143 23.8983 26.9852C24.093 27.056 24.3015 27.0804 24.5072 27.0563C24.9364 27.0801 25.3576 26.9334 25.6792 26.6483C25.8244 26.4814 25.9352 26.2874 26.0053 26.0775C26.0753 25.8677 26.1031 25.646 26.0872 25.4253V25.1703H25.0172V25.4253C25.0279 25.6341 24.9939 25.8428 24.9172 26.0373C24.8712 26.0857 24.8158 26.1242 24.7544 26.1505C24.693 26.1768 24.627 26.1903 24.5602 26.1903C24.4934 26.1903 24.4274 26.1768 24.366 26.1505C24.3046 26.1242 24.2492 26.0857 24.2032 26.0373C24.1307 25.8595 24.0967 25.6683 24.1032 25.4763V24.5073H26.0912V23.1823C26.1035 22.9775 26.0736 22.7723 26.0034 22.5795C25.9333 22.3867 25.8243 22.2103 25.6832 22.0613C25.5519 21.8934 25.3791 21.7627 25.1817 21.6822C24.9844 21.6017 24.7695 21.5742 24.5582 21.6023ZM24.9662 23.6413H24.0482V23.1313C24.0453 22.9726 24.0795 22.8154 24.1482 22.6723C24.1898 22.6186 24.2444 22.5764 24.3069 22.5496C24.3693 22.5228 24.4376 22.5124 24.5052 22.5193C24.5722 22.5175 24.6389 22.5302 24.7005 22.5566C24.7622 22.583 24.8173 22.6225 24.8622 22.6723C24.9309 22.8154 24.9651 22.9726 24.9622 23.1313L24.9662 23.6413Z" fill="white"/>
</svg>
