<svg xmlns="http://www.w3.org/2000/svg" width="284.168" height="1017.013" viewBox="0 0 284.168 1017.013">
  <path id="Subtraction_2" data-name="Subtraction 2" d="M-7734.624,9838.5a90.638,90.638,0,0,1-16.724-1.559,94.109,94.109,0,0,1-16.672-4.792,103.058,103.058,0,0,1-14-7.312,133.544,133.544,0,0,1-13.372-9.549,210.89,210.89,0,0,1-25.235-24.55c-7.3-8.243-15.1-17.965-23.842-29.721-7.8-10.489-15.623-21.613-23.191-32.37-10.335-14.692-21.023-29.886-31.892-43.828-10.362-15.175-21.1-29.343-31.483-43.045l-.008-.011c-15.192-20.046-29.539-38.977-41.4-59.192a234.4,234.4,0,0,1-15.6-31.426c-2.236-5.565-4.215-11.224-5.882-16.816-1.743-5.845-3.208-11.833-4.357-17.8a161.311,161.311,0,0,1-2.962-50.133,181.5,181.5,0,0,1,11.668-48.535,203,203,0,0,1,23.992-44.237,209.411,209.411,0,0,1,34.006-37.237,226.284,226.284,0,0,1,19.8-15.97c6.648-4.782,13.808-9.41,21.281-13.756,7.033-4.09,14.54-8.044,22.314-11.752,7.26-3.464,14.965-6.814,22.9-9.959a480.234,480.234,0,0,1,45.774-15.379c12.991-3.7,26.577-7.109,42.757-10.73a103.04,103.04,0,0,1,28.1-3.96c3.259,0,6.563.162,9.821.481v581.784A94.524,94.524,0,0,1-7734.624,9838.5Zm-84.833-581.857h-.015a209.687,209.687,0,0,1-41.559-4.19,200.212,200.212,0,0,1-37.9-11.607,159.138,159.138,0,0,1-31.655-17.574,103.814,103.814,0,0,1-22.84-22.094,62.633,62.633,0,0,1-11.142-23.629,48.633,48.633,0,0,1,1.094-25.139,61.288,61.288,0,0,1,7.932-15.15,112.39,112.39,0,0,1,12.092-14.3c9.144-9.318,20.358-18.439,31.2-27.261,7.4-6.021,15.059-12.248,22.066-18.543,7.7-6.084,14.8-12.3,21.677-18.308l.016-.014c10.066-8.8,19.574-17.108,29.854-24.148a124.723,124.723,0,0,1,16.095-9.444,99.131,99.131,0,0,1,17.986-6.718,85.519,85.519,0,0,1,24.235-3.46c21.251,0,43.086,7.6,61.483,21.4v196.92c-24.3,12.108-53.078,19.89-83.23,22.5C-7807.746,9256.388-7813.6,9256.641-7819.456,9256.643Zm100.621-242.117h0a152.955,152.955,0,0,1-22.313-1.636,125.759,125.759,0,0,1-20.294-4.712,93.126,93.126,0,0,1-17.41-7.6,64.08,64.08,0,0,1-13.667-10.295,44.818,44.818,0,0,1-9.388-13.526,39.283,39.283,0,0,1-3.3-16.077,49.49,49.49,0,0,1,2.547-13.569,90.747,90.747,0,0,1,5.959-13.9c4.865-9.36,11.367-19.046,17.655-28.413,4.3-6.4,8.744-13.023,12.665-19.533,4.494-6.5,8.52-12.979,12.413-19.248,5.194-8.363,10.1-16.263,15.683-23.562a110.053,110.053,0,0,1,8.946-10.39,83.463,83.463,0,0,1,10.5-9.1Z" transform="translate(8002.503 -8821.987)" fill="red" stroke="rgba(0,0,0,0)" stroke-miterlimit="10" stroke-width="1"></path>
</svg>