<svg xmlns="http://www.w3.org/2000/svg" viewBox="0 0 531.59 574.16">
  <defs>
    <mask id="shapeStyle5" maskUnits="objectBoundingBox" x="0" y="0" width="1" height="1">
      <path fill="white" d="M525.39,264.84c-15.1,73.7-30.7,158.5-67.3,219.3-17.6,30.7-40.5,55.4-66.7,71.1-12.8,7.8-26.8,13.3-41.5,16.4-3.6.7-7.3,1.3-10.9,1.7-1.8.2-3.7.4-5.5.5s-3.7.2-5.6.2c-7.6.1-15.2-.5-22.7-1.8-60.2-9.1-105.3-56.5-158.5-107.8-49.9-53.1-113.9-110.9-138.6-182.7-2.9-8.7-5.1-17.6-6.5-26.7-.3-2.2-.6-4.4-.8-6.6-.2-2.2-.4-4.4-.5-6.6-.2-4.4-.3-8.8,0-13.2.8-17.6,4.8-34.9,11.8-51.1,14-33,39.5-63.3,69.1-89,29.3-25.4,62.2-46.3,97.6-62.1,17.1-7.6,34.9-13.6,53.1-18.1,9.1-2.2,18.3-4,27.7-5.3,4.7-.7,9.4-1.2,14.2-1.6,2.4-.2,4.8-.4,7.2-.6,2.4-.2,4.8-.3,7.2-.4,2.4-.1,4.8-.2,7.1-.3s4.8,0,7.1,0c4.8,0,9.5.1,14.3.4,9.5.5,18.9,1.6,28.3,3.1,18.6,3,36.8,8,54.4,14.7,34.7,13.3,65,33.2,86.5,57.3,22.1,24.5,35.6,53.1,41.7,85,3,16.5,4.3,33.3,3.8,50-.1,4.3-.3,8.7-.6,13.2-.3,4.4-.7,8.9-1.2,13.4-1,9-2.4,18.2-4.2,27.5v.1Z"/>
    </mask>
  </defs>
  <rect width="100%" height="100%" mask="url(#shapeStyle5)" fill="black"/>
</svg>
