<svg xmlns="http://www.w3.org/2000/svg" width="1274.364" height="1264.135" viewBox="0 0 1274.364 1264.135">
  <defs>
    <mask id="shapeMask8" maskUnits="objectBoundingBox" x="0" y="0" width="1" height="1">
      <path fill="white" d="M1066.11,3929.076c110.264,19.4,215.688,58.3,292.978,130.517,77.346,71.317,167.962,287.658,167.108,417.793.018,127.027-17.964,201.616-93.1,283.767-74.5,80.962-177.131,129.038-273.638,94.76-97.289-32.882-242.736-209.023-320.08-288.933-73.821-86.312-149.968-147.661-168.132-241.351-19.7-89.494,27.6-208.834,103.383-289.4,76.416-82.428,181.305-126.085,291.483-107.15Z" transform="matrix(0.643, -0.766, 0.766, 0.643, -3435.08, -1353.606)"/>
    </mask>
  </defs>
  <rect width="100%" height="100%" mask="url(#shapeMask8)" fill="black"/>
</svg>
