<svg xmlns="http://www.w3.org/2000/svg" viewBox="0 0 595.37 508.86">
  <defs>
    <mask id="shapeStyle6" maskUnits="objectBoundingBox" x="0" y="0" width="1" height="1">
      <path fill="white" d="M238.52,461.13c-66.52-42.14-143.7-89.13-190.08-145.01-23.67-27.45-39.64-57.22-45.65-86.35-3.04-14.07-3.47-28.58-1.28-42.8.56-3.46,1.3-6.88,2.21-10.27.46-1.69.96-3.37,1.5-5.04.54-1.67,1.13-3.33,1.77-4.98,2.59-6.71,5.89-13.13,9.83-19.15,30.27-49.21,92.64-70.15,161.7-96.68C248.15,27.91,327.28-5.53,406.13.94c9.55.84,19.02,2.44,28.32,4.8,2.28.58,4.54,1.21,6.78,1.88,2.24.67,4.45,1.39,6.65,2.15,4.39,1.52,8.68,3.22,12.89,5.1,16.8,7.57,32.24,17.85,45.69,30.44,27.23,25.18,47.72,59.51,62.2,95.45,14.51,36.33,23.27,73.83,25.85,109.94,1.31,17.88.89,35.84-1.25,53.64-1.09,8.86-2.66,17.66-4.71,26.36-1.03,4.37-2.18,8.73-3.46,13.07-.64,2.17-1.31,4.34-2.02,6.51s-1.44,4.33-2.21,6.49c-.72,2.14-1.47,4.26-2.26,6.38-.79,2.11-1.61,4.21-2.46,6.29-1.7,4.17-3.53,8.28-5.49,12.34-3.91,8.11-8.3,15.99-13.14,23.59-9.65,15.17-20.96,29.22-33.72,41.9-25.31,25.19-55.55,43.93-86.78,53.37-31.76,9.81-64.52,10.42-97.77,3.23-17.21-3.81-34.02-9.26-50.18-16.28-4.2-1.8-8.41-3.7-12.62-5.71s-8.42-4.12-12.64-6.33c-8.43-4.42-16.86-9.23-25.3-14.44h0Z"/>
    </mask>
  </defs>
  <rect width="100%" height="100%" mask="url(#shapeStyle6)" fill="black"/>
</svg>
