<svg xmlns="http://www.w3.org/2000/svg" viewBox="0 0 779.53 604.59">
  <defs>
    <mask id="shapeStyle2" maskUnits="objectBoundingBox" x="0" y="0" width="1" height="1">
      <path fill="white" d="M290.98.7c54.1,1.4,101.2,15.3,146,30.7,44.7,15.8,87.1,33.8,127.9,52.2,40.6,18.6,79.6,37.6,113.9,59.1,34.2,21.6,63.7,45.7,81.3,77.5,2.2,3.9,4.3,7.9,6.1,11.9.9,2,1.8,4,2.6,6.1.2.5.4,1,.6,1.5,0,.3.2.5.3.8s.2.5.3.8c.4,1,.8,2.1,1.1,3.1,2.9,8.3,5,16.8,6.4,25.5,2.6,17.8,2.4,35.9-.7,53.6-6.1,36.4-22.9,73.3-48,104.6-25.7,31.6-59.7,57.4-103.6,75.1-11.4,4.7-23,8.7-34.8,12.2-1.5.5-3.1.9-4.6,1.4-1.5.4-3.1.9-4.7,1.3-3.1.9-6.3,1.7-9.5,2.5-6.4,1.6-13,3.2-19.7,4.7-26.9,6-56.2,11-88,15.8-3.9.6-7.8,1.2-11.7,1.8l-5.9.9c-2,.3-3.9.6-5.9.9-7.9,1.3-15.8,2.5-23.8,3.9-15.9,2.6-31.9,5.5-47.8,8.5-31.8,6.1-63.1,13.3-92.3,20.6-58.7,14.7-109.4,29.7-147,26.1-38-2.9-62.3-26.1-77.6-63.2-15.6-36.8-22.7-84.7-33.5-131.8C10.78,360.2.58,315.9.28,273c-.6-42.7,8.5-84.9,31.3-126.2,22.4-41,58.9-80.8,105.3-108,23.3-13.7,48.4-23.9,74.6-30.3,1.6-.4,3.3-.8,4.9-1.2.8-.2,1.6-.4,2.5-.5.8-.2,1.6-.4,2.5-.5,3.3-.7,6.6-1.3,9.9-1.9,1.7-.3,3.3-.5,5-.8s3.3-.5,5-.7c3.3-.4,6.6-.8,9.9-1.2C264.28.4,277.48,0,290.68.4h0l.3.3Z"/>
    </mask>
  </defs>
  <rect width="100%" height="100%" mask="url(#shapeStyle2)" fill="black"/>
</svg>
