<svg id="icon_at_oncology" xmlns="http://www.w3.org/2000/svg" width="90" height="90" viewBox="0 0 90 90">
  <g id="Raggruppa_189" data-name="Raggruppa 189" transform="translate(16 16)">
    <path id="Tracciato_242" data-name="Tracciato 242" d="M3041.069,1093.319a13.325,13.325,0,0,0-2.749.286,10.177,10.177,0,0,0-19.429.918,11.64,11.64,0,0,0-7.541,21.966,8.23,8.23,0,0,0,14.027,5.19,12.156,12.156,0,0,0,14.959-1.818q.363.02.731.02a13.281,13.281,0,1,0,0-26.562Z" transform="translate(-2999.314 -1078.843)" fill="#bd6fe6"/>
    <circle id="Ellisse_67" data-name="Ellisse 67" cx="2.034" cy="2.034" r="2.034" transform="translate(16.448 23.875)" fill="none" stroke="#000" stroke-width="1"/>
    <circle id="Ellisse_68" data-name="Ellisse 68" cx="4.376" cy="4.376" r="4.376" transform="translate(21.787 28.916)" fill="none" stroke="#000" stroke-width="1"/>
    <circle id="Ellisse_69" data-name="Ellisse 69" cx="2.769" cy="2.769" r="2.769" transform="translate(27.214 21.106)" fill="none" stroke="#000" stroke-width="1"/>
    <circle id="Ellisse_70" data-name="Ellisse 70" cx="1.695" cy="1.695" r="1.695" transform="translate(39.561 30.611)" fill="none" stroke="#000" stroke-width="1"/>
    <circle id="Ellisse_71" data-name="Ellisse 71" cx="4.037" cy="4.037" r="4.037" transform="translate(41.256 20.843)" fill="none" stroke="#000" stroke-width="1"/>
    <path id="Tracciato_243" data-name="Tracciato 243" d="M3050.245,1112.484l-6.7-7.152h-5.357" transform="translate(-3028.967 -1094.958)" fill="none" stroke="#000" stroke-width="1"/>
    <line id="Linea_292" data-name="Linea 292" y1="5.616" transform="translate(14.581 4.758)" fill="none" stroke="#000" stroke-width="1"/>
    <path id="Tracciato_244" data-name="Tracciato 244" d="M3269.573,1321.1l5.939,7.793-.891,5.283" transform="translate(-3231.078 -1283.432)" fill="none" stroke="#000" stroke-width="1"/>
    <line id="Linea_293" data-name="Linea 293" x2="5.537" y2="0.934" transform="translate(44.433 45.462)" fill="none" stroke="#000" stroke-width="1"/>
    <path id="Tracciato_245" data-name="Tracciato 245" d="M3043.259,1303.633l-5.612,4.619.137,5.355" transform="translate(-3028.491 -1268.174)" fill="none" stroke="#000" stroke-width="1"/>
    <line id="Linea_294" data-name="Linea 294" x1="5.614" y2="0.144" transform="translate(3.541 40.077)" fill="none" stroke="#000" stroke-width="1"/>
    <path id="Tracciato_246" data-name="Tracciato 246" d="M3170.9,1334.121l.237,9.8,4,3.566" transform="translate(-3144.885 -1294.805)" fill="none" stroke="#000" stroke-width="1"/>
    <line id="Linea_295" data-name="Linea 295" x1="3.738" y2="4.191" transform="translate(22.511 49.111)" fill="none" stroke="#000" stroke-width="1"/>
    <path id="Tracciato_247" data-name="Tracciato 247" d="M3260.757,1084l2.965-9.338-2.619-4.673" transform="translate(-3223.378 -1064.088)" fill="none" stroke="#000" stroke-width="1"/>
    <line id="Linea_296" data-name="Linea 296" y1="2.746" x2="4.899" transform="translate(40.344 7.83)" fill="none" stroke="#000" stroke-width="1"/>
    <circle id="Ellisse_72" data-name="Ellisse 72" cx="28.916" cy="28.916" r="28.916" fill="none" stroke="#000" stroke-width="1"/>
  </g>
  <rect id="Rettangolo_197" data-name="Rettangolo 197" width="90" height="90" fill="none"/>
</svg>
