<svg id="icon_about_us" xmlns="http://www.w3.org/2000/svg" width="90" height="90" viewBox="0 0 90 90">
  <g id="Raggruppa_2859" data-name="Raggruppa 2859" transform="translate(13.927 15.337)">
    <path id="Tracciato_3076" data-name="Tracciato 3076" d="M78.084,136.806V118.678a9.428,9.428,0,0,1,9.428-9.428h6.846a9.428,9.428,0,0,1,9.428,9.428v18.128" transform="translate(-59.7 -83.481)" fill="#bd6fe6"/>
    <path id="Tracciato_3077" data-name="Tracciato 3077" d="M19.42,129.121a9.389,9.389,0,0,0-5.894-2.069h-3.6A9.428,9.428,0,0,0,.5,136.48v13.91H38.949" transform="translate(-0.5 -97.065)" fill="none" stroke="#000" stroke-width="1"/>
    <circle id="Ellisse_274" data-name="Ellisse 274" cx="11.359" cy="11.359" r="11.359" transform="translate(19.666)" fill="none" stroke="#000" stroke-width="1"/>
    <path id="Tracciato_3078" data-name="Tracciato 3078" d="M29.964,54.234a8.071,8.071,0,1,1-8.071-8.071A8.071,8.071,0,0,1,29.964,54.234Z" transform="translate(-10.665 -35.343)" fill="none" stroke="#000" stroke-width="1"/>
    <path id="Tracciato_3079" data-name="Tracciato 3079" d="M166.275,128.925a9.385,9.385,0,0,1,5.641-1.873h3.6a9.419,9.419,0,0,1,9.428,9.428v13.91H160.774" transform="translate(-122.796 -97.065)" fill="none" stroke="#000" stroke-width="1"/>
    <path id="Tracciato_3080" data-name="Tracciato 3080" d="M197.47,54.234a8.071,8.071,0,1,1-8.071-8.071A8.071,8.071,0,0,1,197.47,54.234Z" transform="translate(-138.48 -35.343)" fill="none" stroke="#000" stroke-width="1"/>
    <line id="Linea_742" data-name="Linea 742" y1="6.363" transform="translate(55.389 30.366)" fill="none" stroke="#000" stroke-width="1"/>
    <line id="Linea_743" data-name="Linea 743" y1="6.234" transform="translate(46.908 30.248)" fill="none" stroke="#000" stroke-width="1"/>
    <path id="Tracciato_3081" data-name="Tracciato 3081" d="M224.045,162.824h1.3a.712.712,0,0,0,.588-.286,1.5,1.5,0,0,0,0-1.4c-.438-1.232-1.851-4.459-2.325-5.536a.6.6,0,0,0-.545-.355h-1.076a.6.6,0,0,0-.546.355c-.474,1.077-1.887,4.3-2.325,5.536a1.5,1.5,0,0,0,0,1.4.712.712,0,0,0,.588.286H221" transform="translate(-167.187 -118.577)" fill="none" stroke="#000" stroke-width="1"/>
    <circle id="Ellisse_275" data-name="Ellisse 275" cx="1.73" cy="1.73" r="1.73" transform="translate(45.178 36.41)" fill="none" stroke="#000" stroke-width="1"/>
    <path id="Tracciato_3082" data-name="Tracciato 3082" d="M102.226,27.521H93.38a.745.745,0,0,0-.729.9l1.388,6.551h6.609l.76-2.691a.436.436,0,0,1,.838,0l.76,2.691h6.609L111,28.42a.745.745,0,0,0-.729-.9Z" transform="translate(-70.803 -21.118)" fill="#bd6fe6"/>
    <line id="Linea_744" data-name="Linea 744" y2="25.117" transform="translate(31.025 27.928)" fill="none" stroke="#000" stroke-width="1"/>
    <line id="Linea_745" data-name="Linea 745" y2="20.816" transform="translate(11.228 32.509)" fill="none" stroke="#000" stroke-width="1"/>
    <path id="Tracciato_3083" data-name="Tracciato 3083" d="M34.13,127.249l3.259,2.44,3.26-2.44" transform="translate(-26.161 -97.216)" fill="none" stroke="#000" stroke-width="1"/>
  </g>
  <rect id="Rettangolo_542" data-name="Rettangolo 542" width="90" height="90" fill="none"/>
</svg>
