<?xml version="1.0" encoding="UTF-8"?>
<svg width="33px" height="33px" viewBox="0 0 33 33" version="1.1" xmlns="http://www.w3.org/2000/svg" xmlns:xlink="http://www.w3.org/1999/xlink">
    <title>88921B77-9E36-49E8-A567-ACF0FD5A9964</title>
    <g id="Page-1" stroke="none" stroke-width="1" fill="none" fill-rule="evenodd">
        <g id="D_01_MENARINI-sito-auditorium-HP-v2-b" transform="translate(-1630.000000, -3193.000000)">
            <g id="footer" transform="translate(0.000000, 2904.000000)">
                <g id="Group-4" transform="translate(1630.000000, 289.000000)">
                    <circle id="Oval-Copy" fill="#FFFFFF" cx="16.5" cy="16.5" r="16.5"></circle>
                    <path d="M15,20 L15,14 L20.196,17 L15,20 Z M26.582,12.1862222 C26.352,11.3255556 25.6744444,10.648 24.8137778,10.418 C23.2542222,10 17,10 17,10 C17,10 10.7457778,10 9.18622222,10.418 C8.32555556,10.648 7.648,11.3255556 7.418,12.1862222 C7,13.7457778 7,17 7,17 C7,17 7,20.2542222 7.418,21.814 C7.648,22.6744444 8.32555556,23.352 9.18622222,23.5822222 C10.7457778,24 17,24 17,24 C17,24 23.2542222,24 24.8137778,23.5822222 C25.6744444,23.352 26.352,22.6744444 26.582,21.814 C27,20.2542222 27,17 27,17 C27,17 27,13.7457778 26.582,12.1862222 L26.582,12.1862222 Z" id="Fill-1" fill="#B62623"></path>
                </g>
            </g>
        </g>
    </g>
</svg>