<?xml version="1.0" encoding="UTF-8"?>
<svg width="44px" height="45px" viewBox="0 0 44 45" version="1.1" xmlns="http://www.w3.org/2000/svg" xmlns:xlink="http://www.w3.org/1999/xlink">
    <title>57649E66-46B6-4C7F-9815-86FF82C70F12</title>
    <g id="Page-1" stroke="none" stroke-width="1" fill="none" fill-rule="evenodd">
        <g id="D_01_MENARINI-sito-auditorium-HP-v2-b" transform="translate(-511.000000, -878.000000)">
            <g id="banner" transform="translate(0.000000, 110.000000)">
                <g id="btn-watch-now" transform="translate(511.000000, 752.000000)">
                    <g id="icon-find-out-" transform="translate(0.000000, 16.779221)">
                        <ellipse id="Oval" fill="#FFFFFF" cx="22" cy="21.7142857" rx="22" ry="21.7142857"></ellipse>
                        <path d="M32.8641975,28.1481481 L24.7160494,28.1481481 C23.9555556,28.1481481 23.2493827,28.389418 22.6790123,28.8183422 L22.6790123,15.4144621 C22.6790123,14.3153439 23.6024691,13.4038801 24.7160494,13.4038801 L32.8641975,13.4038801 L32.8641975,28.1481481 Z M21.3209877,28.8183422 C20.7506173,28.389418 20.0444444,28.1481481 19.2839506,28.1481481 L11.1358025,28.1481481 L11.1358025,13.4038801 L19.2839506,13.4038801 C20.3975309,13.4038801 21.3209877,14.3153439 21.3209877,15.4144621 L21.3209877,28.8183422 Z M33.5432099,12.0634921 L24.7160494,12.0634921 C23.6024691,12.0634921 22.6246914,12.5996473 22,13.4038801 C21.3753086,12.5996473 20.3975309,12.0634921 19.2839506,12.0634921 L10.4567901,12.0634921 C10.0765432,12.0634921 9.77777778,12.3583774 9.77777778,12.7336861 L9.77777778,28.8183422 C9.77777778,29.1936508 10.0765432,29.4885362 10.4567901,29.4885362 L19.2839506,29.4885362 C20.3975309,29.4885362 21.3209877,30.4 21.3209877,31.4991182 C21.3209877,31.8744268 21.6197531,32.1693122 22,32.1693122 C22.3802469,32.1693122 22.6790123,31.8744268 22.6790123,31.4991182 C22.6790123,30.4 23.6024691,29.4885362 24.7160494,29.4885362 L33.5432099,29.4885362 C33.9234568,29.4885362 34.2222222,29.1936508 34.2222222,28.8183422 L34.2222222,12.7336861 C34.2222222,12.3583774 33.9234568,12.0634921 33.5432099,12.0634921 L33.5432099,12.0634921 Z" id="Fill-1" fill="#B62623"></path>
                    </g>
                </g>
            </g>
        </g>
    </g>
</svg>