<?xml version="1.0" encoding="UTF-8"?>
<svg width="44px" height="44px" viewBox="0 0 44 44" version="1.1" xmlns="http://www.w3.org/2000/svg" xmlns:xlink="http://www.w3.org/1999/xlink">
    <title>69E84275-0543-4BBA-B34C-DB882389E393</title>
    <g id="Page-1" stroke="none" stroke-width="1" fill="none" fill-rule="evenodd">
        <g id="D_01_MENARINI-sito-auditorium-HP-v2-b" transform="translate(-1299.000000, -1448.000000)">
            <g id="icon-find-out" transform="translate(1299.000000, 1448.000000)">
                <circle id="Oval" fill="#FFFFFF" cx="22" cy="22" r="22"></circle>
                <g id="Group-13" transform="translate(9.777778, 10.592593)" fill="#B62623">
                    <path d="M24.062768,20.2074074 C24.062768,21.0050682 22.6003899,21.6697856 21.802729,21.6697856 C21.0050682,21.6697856 19.5426901,21.0050682 19.5426901,20.2074074 L19.5426901,9.2528655 L23.6373489,9.2528655 C23.8766472,9.2528655 24.062768,9.43898635 24.062768,9.6782846 L24.062768,20.2074074 Z M1.62191033,21.6697856 C1.38261209,21.6697856 1.19649123,21.4836647 1.19649123,21.2443665 L1.19649123,1.62191033 C1.19649123,1.38261209 1.38261209,1.19649123 1.62191033,1.19649123 L17.9207797,1.19649123 C18.160078,1.19649123 18.3461988,1.38261209 18.3461988,1.62191033 L18.3461988,19.4097466 C18.3461988,19.9415205 18.4525536,21.2177778 18.6652632,21.6697856 L1.62191033,21.6697856 Z M22.8396881,8.05637427 L20.3403509,8.05637427 L20.3403509,2.41957115 C20.3403509,1.09013645 19.2502144,0 17.9207797,0 L2.41957115,0 C1.09013645,0 0,1.09013645 0,2.41957115 L0,20.420117 C0,21.7495517 1.09013645,22.8396881 2.41957115,22.8396881 L21.802729,22.8396881 C23.717115,22.8396881 25.2592593,21.2975439 25.2592593,19.3831579 L25.2592593,10.4759454 C25.2592593,9.14651072 24.1691228,8.05637427 22.8396881,8.05637427 L22.8396881,8.05637427 Z" id="Fill-1"></path>
                    <path d="M5.07844055,10.3695906 L7.97660819,10.3695906 C8.53497076,10.3695906 8.96038986,9.91758285 8.96038986,9.38580897 L8.96038986,5.2645614 C8.96038986,4.70619883 8.50838207,4.28077973 7.97660819,4.28077973 L5.07844055,4.28077973 C4.52007797,4.28077973 4.09465887,4.73278752 4.09465887,5.2645614 L4.09465887,9.35922027 C4.06807018,9.91758285 4.52007797,10.3695906 5.07844055,10.3695906" id="Fill-3"></path>
                    <path d="M15.2619103,12.4966862 L5.07844055,12.4966862 C4.52007797,12.4966862 4.09465887,12.948694 4.09465887,13.4804678 C4.09465887,14.0122417 4.54666667,14.4642495 5.07844055,14.4642495 L15.2619103,14.4642495 C15.8202729,14.4642495 16.245692,14.0122417 16.245692,13.4804678 C16.245692,12.948694 15.8202729,12.4966862 15.2619103,12.4966862" id="Fill-5"></path>
                    <path d="M15.2619103,8.3754386 L11.6990253,8.3754386 C11.1406628,8.3754386 10.7152437,8.82744639 10.7152437,9.35922027 C10.7152437,9.89099415 11.1672515,10.3430019 11.6990253,10.3430019 L15.2619103,10.3430019 C15.8202729,10.3430019 16.245692,9.89099415 16.245692,9.35922027 C16.245692,8.82744639 15.8202729,8.3754386 15.2619103,8.3754386" id="Fill-7"></path>
                    <path d="M15.2619103,4.28077973 L11.6990253,4.28077973 C11.1406628,4.28077973 10.7152437,4.73278752 10.7152437,5.2645614 C10.7152437,5.79633528 11.1672515,6.24834308 11.6990253,6.24834308 L15.2619103,6.24834308 C15.8202729,6.24834308 16.245692,5.79633528 16.245692,5.2645614 C16.245692,4.73278752 15.8202729,4.28077973 15.2619103,4.28077973" id="Fill-9"></path>
                    <path d="M15.2619103,16.591345 L5.07844055,16.591345 C4.52007797,16.591345 4.09465887,17.0433528 4.09465887,17.5751267 C4.09465887,18.1334893 4.54666667,18.5589084 5.07844055,18.5589084 L15.2619103,18.5589084 C15.8202729,18.5589084 16.245692,18.1069006 16.245692,17.5751267 C16.245692,17.0433528 15.8202729,16.591345 15.2619103,16.591345" id="Fill-11"></path>
                </g>
            </g>
        </g>
    </g>
</svg>